<svg width="996" height="882" viewBox="0 0 996 882" fill="none" xmlns="http://www.w3.org/2000/svg">
<g opacity="0.8">
<path opacity="0.4" d="M0 383.364L482.7 199.978L509.72 297.347L951.203 258.923L624.213 543.172L572.004 636.174L0 383.364Z" fill="url(#paint0_linear)"/>
<path d="M484.99 62.8752L731.377 2.18311L702.983 386.857L674.131 771.095L456.138 447.113L238.144 123.131L484.99 62.8752Z" stroke="#817477" stroke-width="0.08468" stroke-miterlimit="10"/>
<path d="M926.472 401.266L946.623 621.766L591.238 538.805L235.396 455.408L570.63 317.869L905.863 180.329L926.472 401.266Z" stroke="#817477" stroke-width="0.076923" stroke-miterlimit="10"/>
<path d="M478.578 603.428L189.141 780.701L465.297 419.605L595.36 127.061L675.047 435.761L754.734 744.461L478.578 603.428Z" stroke="#817477" stroke-width="0.069877" stroke-miterlimit="10"/>
<path d="M332.028 460.212L318.289 89.9468L595.361 329.659L849.534 485.973L549.106 507.368L108.081 659.317L332.028 460.212Z" stroke="#817477" stroke-width="0.063476" stroke-miterlimit="10"/>
<path opacity="0.6" d="M250.967 414.802L269.286 402.576L365.459 481.607L723.133 435.323L549.105 357.603L382.862 493.832L250.967 414.802Z" fill="url(#paint1_linear)"/>
<path d="M744.659 525.271L754.734 745.771L153.42 478.114L378.283 304.334L619.175 365.026L859.609 425.718L744.659 525.271Z" stroke="#817477" stroke-width="0.052379" stroke-miterlimit="10"/>
<path opacity="0.2" d="M744.659 525.27L754.734 745.77L111.745 376.378L136.475 375.068L754.734 745.77L859.609 425.717L744.659 525.27Z" fill="url(#paint2_linear)"/>
<path opacity="0.2" d="M744.659 525.271L754.734 745.771L111.745 360.223L378.283 304.334L619.175 365.026L859.609 425.718L744.659 525.271Z" fill="url(#paint3_linear)"/>
<path d="M425.453 574.61L319.662 481.607L517.963 377.251L715.806 272.896L623.754 470.254L491.401 713.896L425.453 574.61Z" stroke="#817477" stroke-width="0.047581" stroke-miterlimit="10"/>
<path d="M456.138 272.022L558.266 195.611L626.961 381.181L695.656 567.187L524.834 458.028L353.553 348.87L456.138 272.022Z" stroke="#817477" stroke-width="0.043223" stroke-miterlimit="10"/>
<path d="M734.583 344.504L790.913 444.057L607.267 474.621L423.164 504.749L550.479 375.068L677.795 244.952L734.583 344.504Z" stroke="#817477" stroke-width="0.039263" stroke-miterlimit="10"/>
<path d="M626.044 572.426L524.375 605.61L523.001 443.183L521.627 280.755L624.212 409.998L727.255 538.805L626.044 572.426Z" stroke="#817477" stroke-width="0.035668" stroke-miterlimit="10"/>
<path d="M428.66 444.494L412.173 352.364L564.677 375.942L716.723 399.084L581.164 468.072L445.147 536.623L428.66 444.494Z" stroke="#817477" stroke-width="0.0324" stroke-miterlimit="10"/>
<path d="M577.501 294.728H665.889L621.466 421.788L577.501 548.848L533.077 421.788L488.654 294.728H577.501Z" stroke="#817477" stroke-width="0.029431" stroke-miterlimit="10"/>
</g>
<path opacity="0.26" d="M198.759 98.6797C198.759 97.3698 197.843 96.4966 196.927 96.4966C195.553 96.4966 194.637 97.3698 194.637 98.2431C194.637 99.553 195.553 100.426 196.469 100.426C197.385 100.863 198.759 99.9897 198.759 98.6797Z" fill="#231F20"/>
<path opacity="0.44" d="M28.8514 423.971C28.8514 423.098 27.9354 423.098 27.4775 423.098C26.5615 423.098 26.5615 423.971 26.5615 424.408C26.5615 425.281 27.4775 425.281 27.9354 425.281C28.8514 425.281 28.8514 424.408 28.8514 423.971Z" fill="#231F20"/>
<path opacity="0.46" d="M444.23 570.244C444.23 569.371 443.314 568.935 442.856 568.935C441.94 568.935 441.482 569.808 441.482 570.244C441.482 571.118 442.398 571.554 442.856 571.554C443.772 571.991 444.23 571.118 444.23 570.244Z" fill="#231F20"/>
<path opacity="0.2" d="M858.693 716.952C858.693 716.516 858.235 716.079 857.778 716.516C857.32 716.516 856.862 716.952 857.32 717.389C857.32 717.826 857.777 718.262 858.235 717.826C858.693 717.826 858.693 717.389 858.693 716.952Z" fill="#231F20"/>
<path opacity="0.3" d="M620.091 360.659C620.091 360.223 619.633 359.786 618.717 359.786C618.259 359.786 617.801 360.223 617.801 361.096C617.801 361.533 618.259 361.969 619.175 361.969C620.091 361.969 620.091 361.533 620.091 360.659Z" fill="#231F20"/>
<path opacity="0.43" d="M381.946 4.80355C381.946 3.93029 381.03 3.49365 380.572 3.49365C379.656 3.49365 379.198 4.36692 379.198 4.80355C379.198 5.67682 380.114 6.11345 380.572 6.11345C381.03 6.11345 381.946 5.67682 381.946 4.80355Z" fill="#231F20"/>
<path opacity="0.33" d="M204.712 214.387C204.712 213.951 204.254 213.951 203.796 213.951C203.338 213.951 203.338 214.387 203.338 214.824C203.338 215.261 203.796 215.261 204.254 215.261C204.712 215.261 204.712 214.824 204.712 214.387Z" fill="#231F20"/>
<path opacity="0.23" d="M657.645 50.6491C657.645 50.2125 657.187 49.7759 656.729 49.7759C656.271 49.7759 655.813 50.2125 655.813 50.6491C655.813 51.0858 656.271 51.5224 656.729 51.5224C657.187 51.5224 657.645 51.0858 657.645 50.6491Z" fill="#231F20"/>
<path opacity="0.46" d="M457.053 384.674C457.053 383.364 456.137 382.491 455.221 382.491C453.848 382.491 452.932 383.364 452.932 384.238C452.932 385.548 453.848 386.421 454.764 386.421C456.137 386.421 457.053 385.548 457.053 384.674Z" fill="#231F20"/>
<path opacity="0.4" d="M254.173 717.826C254.173 717.39 253.715 716.953 253.257 716.953C252.799 716.953 252.341 717.39 252.341 717.826C252.341 718.263 252.799 718.7 253.257 718.7C253.715 718.7 254.173 718.263 254.173 717.826Z" fill="#231F20"/>
<path opacity="0.48" d="M626.96 565.441C626.96 564.568 626.044 563.694 624.671 563.694C623.755 563.694 622.839 564.568 622.839 565.878C622.839 566.751 623.755 567.624 625.129 567.624C626.044 567.187 626.96 566.314 626.96 565.441Z" fill="#231F20"/>
<path opacity="0.2" d="M997 413.055C997 412.619 996.084 412.182 995.626 412.182C995.168 412.182 994.71 413.055 994.71 413.492C994.71 413.929 995.626 414.365 996.084 414.365C997 413.929 997.458 413.492 997 413.055Z" fill="#231F20"/>
<path opacity="0.4" d="M828.467 231.853C828.467 230.98 827.551 230.106 826.177 230.106C825.261 230.106 824.345 230.98 824.345 232.29C824.345 233.163 825.261 234.036 826.635 234.036C827.551 233.599 828.467 232.726 828.467 231.853Z" fill="#231F20"/>
<path opacity="0.49" d="M911.359 642.288C911.359 641.851 910.901 641.415 909.985 641.415C909.528 641.415 909.07 641.851 909.07 642.725C909.07 643.161 909.528 643.598 910.443 643.598C910.901 643.598 911.359 642.725 911.359 642.288Z" fill="#231F20"/>
<path opacity="0.28" d="M629.25 421.352C629.25 420.916 628.334 420.479 627.876 420.479C627.418 420.479 626.96 421.352 626.96 421.789C626.96 422.225 627.876 422.662 628.334 422.662C629.25 422.662 629.25 422.225 629.25 421.352Z" fill="#231F20"/>
<path opacity="0.32" d="M347.598 200.852C347.598 199.979 347.14 199.542 346.224 199.542C345.309 199.542 344.851 199.979 344.851 200.852C344.851 201.726 345.309 202.162 346.224 202.162C346.682 202.599 347.598 201.726 347.598 200.852Z" fill="#231F20"/>
<path opacity="0.23" d="M433.239 540.115C433.239 539.242 432.323 538.806 431.407 538.806C430.491 538.806 430.033 539.679 430.033 540.552C430.033 541.425 430.949 541.862 431.865 541.862C432.781 541.862 433.239 540.989 433.239 540.115Z" fill="#231F20"/>
<path opacity="0.44" d="M519.338 879.817C519.338 878.944 518.422 878.07 517.506 878.07C516.59 878.07 515.674 878.944 515.674 879.817C515.674 880.69 516.59 881.563 517.506 881.563C518.422 882 519.338 881.127 519.338 879.817Z" fill="#231F20"/>
<path opacity="0.33" d="M714.891 761.052C714.891 760.616 714.433 760.179 713.517 760.179C713.059 760.179 712.601 760.616 712.601 761.489C712.601 761.926 713.059 762.362 713.975 762.362C714.433 762.362 714.891 761.926 714.891 761.052Z" fill="#231F20"/>
<path opacity="0.46" d="M316.457 773.279C316.457 772.406 315.541 771.969 315.083 771.969C314.167 771.969 313.709 772.843 313.709 773.279C313.709 774.152 314.625 774.589 315.083 774.589C315.999 774.589 316.457 773.716 316.457 773.279Z" fill="#231F20"/>
<path opacity="0.49" d="M567.424 564.567C567.424 564.131 566.966 563.257 566.508 563.257C566.05 563.257 565.134 563.694 565.134 564.131C565.134 564.567 565.592 565.44 566.05 565.44C566.508 565.44 566.966 565.004 567.424 564.567Z" fill="#231F20"/>
<path opacity="0.34" d="M818.85 354.547C818.392 353.673 817.476 352.8 816.56 353.237C815.644 353.673 814.729 354.547 815.187 355.42C815.644 356.293 816.56 357.166 817.476 356.73C818.85 356.73 819.308 355.42 818.85 354.547Z" fill="#231F20"/>
<path opacity="0.27" d="M486.364 378.998C486.364 378.125 485.448 377.688 484.532 377.688C483.616 377.688 483.158 378.561 483.158 379.435C483.158 380.308 484.074 380.744 484.99 380.744C485.906 380.744 486.821 379.871 486.364 378.998Z" fill="#231F20"/>
<path opacity="0.5" d="M22.8982 310.883C22.8982 310.446 21.9823 310.01 21.5243 310.01C21.0664 310.01 20.6084 310.883 20.6084 311.32C20.6084 311.756 21.5243 312.193 21.9823 312.193C22.4403 312.193 22.8982 311.756 22.8982 310.883Z" fill="#231F20"/>
<path opacity="0.49" d="M321.495 474.621C321.495 473.748 320.579 472.875 319.663 473.311C318.747 473.311 317.831 474.185 318.289 475.058C318.289 475.931 319.205 476.805 320.121 476.368C321.037 476.368 321.495 475.931 321.495 474.621Z" fill="#231F20"/>
<path opacity="0.23" d="M98.4632 186.879C98.4632 186.442 98.0053 186.006 97.5473 186.006C97.0893 186.006 96.6313 186.442 96.6313 186.879C96.6313 187.316 97.0893 187.752 97.5473 187.752C98.0053 187.752 98.4632 187.316 98.4632 186.879Z" fill="#231F20"/>
<path opacity="0.44" d="M443.315 490.34C443.315 489.466 442.399 489.03 441.483 489.03C440.567 489.03 440.109 489.903 440.109 490.776C440.109 491.65 441.025 492.086 441.941 492.086C442.857 492.086 443.315 491.213 443.315 490.34Z" fill="#231F20"/>
<path opacity="0.46" d="M601.772 734.854C601.314 733.544 600.398 733.107 599.024 733.107C597.65 733.107 597.192 734.417 597.192 735.727C597.65 737.037 598.566 737.474 599.94 737.474C601.314 737.474 602.23 736.164 601.772 734.854Z" fill="#231F20"/>
<path opacity="0.45" d="M629.25 448.423C629.25 447.986 628.792 447.113 628.334 447.113C627.876 447.113 626.96 447.549 626.96 447.986C626.96 448.423 627.418 449.296 627.876 449.296C628.792 449.296 629.25 448.859 629.25 448.423Z" fill="#231F20"/>
<path opacity="0.3" d="M725.882 103.046C725.882 102.173 724.966 101.736 724.05 102.173C723.134 102.173 722.676 103.046 723.134 103.919C723.134 104.793 724.05 105.229 724.966 104.793C725.424 104.356 725.882 103.483 725.882 103.046Z" fill="#231F20"/>
<path opacity="0.42" d="M387.9 285.122C387.9 284.248 386.984 283.375 386.068 283.375C385.152 283.375 384.236 284.248 384.236 285.122C384.236 285.995 385.152 286.868 386.068 286.868C386.984 286.868 387.9 285.995 387.9 285.122Z" fill="#231F20"/>
<path opacity="0.38" d="M784.96 296.038C784.96 295.602 784.502 295.165 784.044 295.165C783.586 295.165 783.128 295.602 783.128 296.038C783.128 296.475 783.586 296.912 784.044 296.912C784.96 296.475 784.96 296.475 784.96 296.038Z" fill="#231F20"/>
<path opacity="0.22" d="M531.702 394.717C531.244 393.844 530.328 393.407 529.412 393.407C528.496 393.844 528.038 394.717 528.038 395.59C528.496 396.464 529.412 396.9 530.328 396.9C531.702 396.464 532.16 395.59 531.702 394.717Z" fill="#231F20"/>
<path opacity="0.46" d="M167.158 390.788C167.158 389.914 166.7 389.041 165.785 389.041C164.869 389.041 163.953 389.478 163.953 390.351C163.953 391.224 164.411 392.097 165.327 392.097C166.242 392.097 167.158 391.661 167.158 390.788Z" fill="#231F20"/>
<path opacity="0.37" d="M543.151 560.638C543.151 559.764 542.236 558.891 541.32 558.891C540.404 558.891 539.488 559.764 539.488 560.638C539.488 561.511 540.404 562.384 541.32 562.384C542.236 562.384 543.151 561.511 543.151 560.638Z" fill="#231F20"/>
<path opacity="0.23" d="M808.774 626.134C808.316 625.26 807.4 624.387 806.484 624.824C805.569 625.26 804.653 626.134 805.111 627.007C805.569 627.88 806.484 628.753 807.4 628.317C808.316 628.317 809.232 627.444 808.774 626.134Z" fill="#231F20"/>
<path opacity="0.31" d="M798.241 461.086C798.241 459.776 796.868 458.902 795.494 458.902C794.12 458.902 793.204 460.212 793.204 461.522C793.204 462.832 794.578 463.705 795.952 463.705C797.326 463.705 798.241 462.395 798.241 461.086Z" fill="#231F20"/>
<path opacity="0.37" d="M662.224 716.516C662.224 715.643 661.766 714.77 660.85 714.333C659.934 714.333 659.018 714.77 658.56 715.643C658.56 716.516 659.018 717.389 659.934 717.826C660.85 717.826 661.766 717.39 662.224 716.516Z" fill="#231F20"/>
<path opacity="0.44" d="M607.268 484.227C607.268 483.791 606.81 483.354 606.352 483.354C605.894 483.354 605.436 483.791 605.436 484.227C605.436 484.664 605.894 485.1 606.352 485.1C606.81 485.537 607.268 484.664 607.268 484.227Z" fill="#231F20"/>
<path opacity="0.28" d="M554.602 252.374C554.144 251.064 553.228 250.627 551.854 250.627C550.48 251.064 550.022 251.937 550.022 253.247C550.48 254.557 551.396 254.994 552.77 254.994C554.144 254.557 554.602 253.247 554.602 252.374Z" fill="#231F20"/>
<path opacity="0.23" d="M451.1 469.818C451.1 468.508 449.726 468.072 448.81 468.072C447.436 468.072 446.979 469.382 446.979 470.255C446.979 471.565 448.352 472.001 449.268 472.001C450.642 472.001 451.558 471.128 451.1 469.818Z" fill="#231F20"/>
<path opacity="0.36" d="M317.373 724.375C317.373 723.502 316.457 723.065 315.541 723.065C314.625 723.065 314.167 723.939 314.167 724.812C314.167 725.685 315.083 726.122 315.999 726.122C316.915 726.122 317.373 725.249 317.373 724.375Z" fill="#231F20"/>
<path opacity="0.23" d="M516.132 664.121C516.132 663.247 515.674 662.374 514.758 662.374C513.842 662.374 512.926 662.811 512.926 663.684C512.926 664.557 513.384 665.431 514.3 665.431C515.674 665.867 516.132 664.994 516.132 664.121Z" fill="#231F20"/>
<path opacity="0.43" d="M224.863 536.186C224.405 534.876 223.489 534.439 222.115 534.876C220.742 535.313 220.284 536.186 220.742 537.496C221.2 538.806 222.115 539.243 223.489 538.806C224.405 538.369 224.863 537.059 224.863 536.186Z" fill="#231F20"/>
<path opacity="0.31" d="M512.468 536.187C512.468 535.314 511.552 534.44 510.636 534.877C509.72 534.877 508.804 535.75 509.262 536.623C509.262 537.497 510.178 538.37 511.094 537.933C512.01 538.37 512.468 537.497 512.468 536.187Z" fill="#231F20"/>
<path opacity="0.35" d="M738.705 523.961C738.705 522.651 737.331 522.214 736.415 522.214C735.041 522.214 734.583 523.524 734.583 524.398C734.583 525.707 735.957 526.144 736.873 526.144C738.247 526.144 738.705 524.834 738.705 523.961Z" fill="#231F20"/>
<path opacity="0.24" d="M550.479 403.887C550.021 403.013 549.105 402.577 547.731 402.577C546.815 403.013 546.357 403.887 546.357 405.196C546.815 406.07 547.731 406.506 549.105 406.506C550.021 405.633 550.937 404.76 550.479 403.887Z" fill="#231F20"/>
<path opacity="0.34" d="M361.338 284.685C361.338 284.249 360.88 283.812 359.964 283.812C359.506 283.812 359.048 284.249 359.048 285.122C359.048 285.559 359.506 285.995 360.422 285.995C360.88 285.559 361.338 285.122 361.338 284.685Z" fill="#231F20"/>
<path opacity="0.47" d="M323.327 416.986C323.327 416.549 322.869 416.113 322.411 416.113C321.953 416.113 321.495 416.549 321.495 416.986C321.495 417.423 321.953 417.859 322.411 417.859C322.869 417.859 323.327 417.423 323.327 416.986Z" fill="#231F20"/>
<path opacity="0.31" d="M501.018 251.938C501.018 251.065 500.102 250.628 499.186 251.065C498.27 251.065 497.813 251.938 498.27 252.811C498.27 253.685 499.186 254.121 500.102 253.685C500.56 253.685 501.018 252.811 501.018 251.938Z" fill="#231F20"/>
<path opacity="0.45" d="M477.203 447.113C477.203 446.676 476.745 446.24 476.288 446.24C475.83 446.24 475.372 446.676 475.372 447.113C475.372 447.55 475.83 447.986 476.288 447.986C476.745 447.986 477.203 447.55 477.203 447.113Z" fill="#231F20"/>
<path opacity="0.4" d="M455.679 641.852C455.679 640.542 454.305 639.668 453.389 639.668C452.016 639.668 451.1 640.978 451.1 641.852C451.1 643.162 452.474 644.035 453.389 644.035C454.763 644.471 455.679 643.162 455.679 641.852Z" fill="#231F20"/>
<path opacity="0.43" d="M595.819 498.635C595.819 498.199 595.361 497.762 594.903 497.762C594.445 497.762 593.987 498.199 593.987 498.635C593.987 499.072 594.445 499.509 594.903 499.509C595.361 499.509 595.819 499.072 595.819 498.635Z" fill="#231F20"/>
<path opacity="0.41" d="M737.331 354.983C737.331 354.547 736.415 354.11 735.957 354.11C735.499 354.11 735.041 354.983 735.041 355.42C735.041 355.856 735.957 356.293 736.415 356.293C737.331 356.293 737.789 355.856 737.331 354.983Z" fill="#231F20"/>
<path opacity="0.21" d="M620.09 303.461C620.09 302.151 618.716 301.714 617.343 301.714C615.969 301.714 615.511 303.024 615.511 304.334C615.511 305.644 616.885 306.081 618.258 306.081C619.632 305.644 620.548 304.334 620.09 303.461Z" fill="#231F20"/>
<path opacity="0.35" d="M746.948 478.988C746.948 478.114 746.032 477.241 745.116 477.241C744.2 477.241 743.284 478.114 743.284 478.988C743.284 479.861 744.2 480.734 745.116 480.734C746.032 480.734 746.948 479.861 746.948 478.988Z" fill="#231F20"/>
<path opacity="0.21" d="M567.425 430.521C566.967 429.648 566.051 429.211 565.135 429.211C564.219 429.648 563.761 430.521 563.761 431.395C564.219 432.268 565.135 432.705 566.051 432.705C567.425 432.268 567.883 431.395 567.425 430.521Z" fill="#231F20"/>
<path opacity="0.39" d="M386.984 382.928C386.984 382.491 386.526 382.054 386.068 381.618C385.61 381.618 385.152 382.054 384.694 382.491C384.694 382.928 385.152 383.364 385.61 383.801C386.526 383.801 386.984 383.801 386.984 382.928Z" fill="#231F20"/>
<path opacity="0.44" d="M501.018 524.397C500.56 523.088 499.644 522.651 498.27 523.088C496.896 523.524 496.438 524.397 496.896 525.707C497.354 527.017 498.27 527.454 499.644 527.017C500.56 526.581 501.476 525.271 501.018 524.397Z" fill="#231F20"/>
<path opacity="0.22" d="M614.138 666.74C614.138 665.43 613.222 664.557 612.306 664.557C610.932 664.557 610.016 665.43 610.016 666.303C610.016 667.613 610.932 668.486 611.848 668.486C612.764 668.486 614.138 667.613 614.138 666.74Z" fill="#231F20"/>
<path opacity="0.5" d="M679.626 572.427C679.626 571.99 678.711 571.553 678.253 571.553C677.795 571.553 677.337 572.427 677.337 572.863C677.337 573.3 678.253 573.736 678.711 573.736C679.169 573.736 679.626 572.863 679.626 572.427Z" fill="#231F20"/>
<path opacity="0.29" d="M495.523 655.824C495.523 655.387 495.065 654.951 494.149 654.951C493.691 654.951 493.233 655.387 493.233 656.261C493.233 656.697 493.691 657.134 494.607 657.134C495.065 657.134 495.523 656.697 495.523 655.824Z" fill="#231F20"/>
<path opacity="0.41" d="M569.256 509.115C568.798 507.805 567.882 507.369 566.508 507.369C565.134 507.805 564.676 508.679 564.676 509.989C565.134 511.298 566.05 511.735 567.424 511.735C568.798 511.298 569.256 510.425 569.256 509.115Z" fill="#231F20"/>
<path opacity="0.22" d="M642.074 363.28C642.074 361.97 641.158 361.097 639.784 361.097C638.41 361.097 637.494 361.97 637.494 363.28C637.494 364.59 638.41 365.463 639.784 365.463C641.158 365.463 642.074 364.59 642.074 363.28Z" fill="#231F20"/>
<path opacity="0.34" d="M490.943 438.381C490.485 437.507 490.027 437.507 489.111 437.507C488.195 437.944 488.195 438.381 488.195 439.254C488.653 440.127 489.111 440.127 490.027 440.127C490.485 440.127 490.943 439.254 490.943 438.381Z" fill="#231F20"/>
<path opacity="0.27" d="M340.729 515.228C340.729 514.355 339.813 513.481 338.897 513.481C337.981 513.481 337.065 514.355 337.065 515.228C337.065 516.101 337.981 516.975 338.897 516.975C339.813 516.975 340.729 516.101 340.729 515.228Z" fill="#231F20"/>
<path opacity="0.38" d="M417.669 585.09C417.669 584.653 416.753 584.217 416.295 584.217C415.837 584.217 415.379 585.09 415.379 585.527C415.379 585.963 416.295 586.4 416.753 586.4C417.211 586.4 417.669 585.963 417.669 585.09Z" fill="#231F20"/>
<path opacity="0.4" d="M369.124 415.675C369.124 414.365 368.208 413.492 366.834 413.492C365.46 413.492 364.544 414.365 364.544 415.675C364.544 416.985 365.46 417.859 366.834 417.859C368.208 418.295 369.124 416.985 369.124 415.675Z" fill="#231F20"/>
<path opacity="0.46" d="M494.149 499.509C494.149 499.073 493.691 498.636 493.233 498.636C492.775 498.636 492.317 499.073 492.317 499.509C492.317 499.946 492.775 500.383 493.233 500.383C493.691 500.383 494.149 499.946 494.149 499.509Z" fill="#231F20"/>
<path opacity="0.3" d="M620.549 582.907C620.549 582.47 620.091 582.034 619.633 582.034C619.175 582.034 618.717 582.47 618.717 582.907C618.717 583.344 619.175 583.78 619.633 583.78C620.091 583.78 620.549 583.344 620.549 582.907Z" fill="#231F20"/>
<path opacity="0.31" d="M573.835 443.183C573.835 441.873 572.461 441 571.545 441C570.172 441 569.256 442.31 569.256 443.183C569.256 444.493 570.63 445.366 571.545 445.366C572.919 445.366 573.835 444.493 573.835 443.183Z" fill="#231F20"/>
<path opacity="0.2" d="M523.917 303.461C523.917 303.025 523.459 302.588 523.001 302.588C522.543 302.588 522.085 303.025 522.085 303.461C522.085 303.898 522.543 304.334 523.001 304.334C523.917 304.334 524.375 303.898 523.917 303.461Z" fill="#231F20"/>
<path opacity="0.5" d="M447.436 360.222C447.436 358.912 446.521 357.603 445.147 357.603C443.773 357.603 442.399 358.476 442.399 359.786C442.399 361.096 443.315 362.405 444.689 362.405C446.063 361.969 447.436 361.096 447.436 360.222Z" fill="#231F20"/>
<path opacity="0.35" d="M613.221 341.885C613.221 341.448 612.763 341.011 612.305 341.011C611.847 341.011 611.389 341.448 611.389 341.885C611.389 342.321 611.847 342.758 612.305 342.758C612.763 342.758 613.221 342.321 613.221 341.885Z" fill="#231F20"/>
<path opacity="0.22" d="M514.758 437.507C514.758 437.07 514.3 436.633 513.842 436.633C513.384 436.633 512.926 437.07 512.926 437.507C512.926 437.943 513.384 438.38 513.842 438.38C514.3 438.38 514.758 437.943 514.758 437.507Z" fill="#231F20"/>
<path opacity="0.22" d="M417.668 533.566C417.668 532.693 416.752 532.256 415.836 532.256C414.92 532.256 414.462 533.13 414.462 534.003C414.462 534.876 415.378 535.313 416.294 535.313C416.752 534.876 417.668 534.003 417.668 533.566Z" fill="#231F20"/>
<path opacity="0.21" d="M555.517 512.609C555.517 512.172 555.059 511.735 554.601 512.172C554.143 512.172 553.685 512.609 554.143 513.045C554.143 513.482 554.601 513.918 555.059 513.482C555.517 513.482 555.517 513.045 555.517 512.609Z" fill="#231F20"/>
<path opacity="0.3" d="M694.282 491.649C694.282 491.212 693.824 490.776 693.366 490.776C692.908 490.776 692.45 491.212 692.45 491.649C692.45 492.086 692.908 492.522 693.366 492.522C693.824 492.522 694.282 492.086 694.282 491.649Z" fill="#231F20"/>
<path opacity="0.44" d="M653.522 416.549C653.522 416.112 653.064 415.676 652.606 415.676C652.148 415.676 651.69 416.112 651.69 416.549C651.69 416.986 652.148 417.422 652.606 417.422C653.522 417.859 653.522 417.422 653.522 416.549Z" fill="#231F20"/>
<path opacity="0.45" d="M298.596 827.421C298.596 826.548 297.68 826.111 297.222 826.111C296.306 826.111 295.848 826.985 295.848 827.421C295.848 828.294 296.764 828.731 297.222 828.731C298.138 828.731 298.596 827.858 298.596 827.421Z" fill="#231F20"/>
<path opacity="0.28" d="M625.587 542.736C625.129 541.863 624.671 541.427 623.755 541.863C622.839 542.3 622.381 542.736 622.839 543.61C623.297 544.483 623.755 544.92 624.671 544.483C625.587 544.483 626.045 543.61 625.587 542.736Z" fill="#231F20"/>
<path opacity="0.47" d="M953.035 258.924C953.035 258.05 952.119 257.177 951.203 257.177C950.287 257.177 949.371 258.05 949.371 258.924C949.371 259.797 950.287 260.67 951.203 260.67C952.119 260.234 953.035 259.797 953.035 258.924Z" fill="#231F20"/>
<path opacity="0.33" d="M511.552 297.348C511.552 296.474 511.094 295.601 510.178 295.601C509.262 295.601 508.346 296.038 508.346 296.911C508.346 297.784 508.804 298.658 509.72 298.658C510.636 299.094 511.552 298.221 511.552 297.348Z" fill="#231F20"/>
<path opacity="0.37" d="M69.1527 335.772C69.1527 335.335 68.6947 335.335 68.2368 335.335C67.7788 335.335 67.7788 335.772 67.7788 336.209C67.7788 336.645 68.2368 336.645 68.6947 336.645C69.1527 336.645 69.1527 336.209 69.1527 335.772Z" fill="#231F20"/>
<path opacity="0.27" d="M184.562 582.033C184.562 581.159 184.104 580.286 183.188 580.286C182.272 580.286 181.356 580.723 181.356 581.596C181.356 582.469 181.814 583.343 182.73 583.343C183.646 583.343 184.104 582.906 184.562 582.033Z" fill="#231F20"/>
<path opacity="0.43" d="M240.435 123.131C240.435 121.821 239.061 120.947 238.145 121.384C236.771 121.384 235.855 122.694 236.313 123.567C236.313 124.877 237.687 125.75 238.603 125.314C239.519 125.314 240.435 124.441 240.435 123.131Z" fill="#231F20"/>
<path opacity="0.46" d="M457.969 447.55C457.969 446.677 457.511 445.803 456.595 445.803C455.679 445.803 454.763 446.24 454.763 447.113C454.763 447.986 455.221 448.86 456.137 448.86C457.053 448.86 457.969 447.986 457.969 447.55Z" fill="#231F20"/>
<path opacity="0.48" d="M675.963 771.096C675.963 770.223 675.047 769.786 674.131 769.786C673.215 769.786 672.757 770.659 672.757 771.533C672.757 772.406 673.673 772.843 674.589 772.843C675.505 772.843 675.963 771.969 675.963 771.096Z" fill="#231F20"/>
<path opacity="0.44" d="M704.815 386.42C704.815 385.547 703.899 384.674 702.525 385.11C701.609 385.11 700.693 385.984 701.151 387.293C701.151 388.167 702.067 389.04 703.441 388.603C704.357 388.167 704.815 387.293 704.815 386.42Z" fill="#231F20"/>
<path opacity="0.45" d="M733.667 1.74683C733.667 0.436934 732.293 -0.436334 730.919 0.000300065C729.545 0.000300065 728.629 1.3102 729.087 2.6201C729.087 3.93 730.461 4.80327 731.835 4.36664C733.209 3.93 734.125 3.05674 733.667 1.74683Z" fill="#231F20"/>
<path opacity="0.25" d="M487.279 62.4387C487.279 61.1288 485.906 60.2556 484.532 60.6922C483.158 60.6922 482.242 62.0021 482.7 63.312C482.7 64.6219 484.074 65.4952 485.448 65.0585C486.821 64.6219 487.279 63.7486 487.279 62.4387Z" fill="#231F20"/>
<path opacity="0.41" d="M907.238 179.893C907.238 179.02 906.322 178.583 905.406 178.583C904.49 178.583 904.032 179.456 904.032 180.33C904.032 181.203 904.948 181.639 905.864 181.639C906.78 181.639 907.696 180.766 907.238 179.893Z" fill="#231F20"/>
<path opacity="0.2" d="M572.005 317.432C572.005 316.559 571.089 316.123 570.173 316.123C569.257 316.123 568.799 316.996 568.799 317.869C568.799 318.742 569.715 319.179 570.631 319.179C572.005 319.179 572.463 318.306 572.005 317.432Z" fill="#231F20"/>
<path opacity="0.47" d="M236.312 454.972C236.312 454.535 235.396 454.099 234.938 454.099C234.48 454.099 234.022 454.972 234.022 455.409C234.022 455.845 234.938 456.282 235.396 456.282C236.312 456.282 236.312 455.845 236.312 454.972Z" fill="#231F20"/>
<path opacity="0.24" d="M591.696 538.806C591.696 538.37 591.238 537.933 590.78 538.37C590.322 538.37 589.864 538.806 590.322 539.243C590.322 539.68 590.78 540.116 591.238 539.68C591.696 539.243 591.696 538.806 591.696 538.806Z" fill="#231F20"/>
<path opacity="0.28" d="M947.539 621.767C947.539 621.33 947.081 620.894 946.623 620.894C946.165 620.894 945.707 621.33 945.707 621.767C945.707 622.203 946.165 622.64 946.623 622.64C947.081 622.64 947.539 622.203 947.539 621.767Z" fill="#231F20"/>
<path opacity="0.43" d="M928.305 401.266C928.305 400.393 927.847 399.083 926.473 399.083C925.557 399.083 924.183 399.52 924.183 400.83C924.183 401.703 924.641 403.013 926.015 403.013C927.389 403.449 928.305 402.576 928.305 401.266Z" fill="#231F20"/>
<path opacity="0.21" d="M756.108 744.024C756.108 743.15 755.192 742.714 754.734 742.714C753.818 742.714 753.36 743.587 753.36 744.024C753.36 744.897 754.276 745.334 754.734 745.334C755.65 745.77 756.108 744.897 756.108 744.024Z" fill="#231F20"/>
<path opacity="0.34" d="M675.964 435.76C675.964 435.324 675.506 434.887 675.048 434.887C674.59 434.887 674.132 435.324 674.132 435.76C674.132 436.197 674.59 436.634 675.048 436.634C675.506 436.634 675.964 436.197 675.964 435.76Z" fill="#231F20"/>
<path opacity="0.21" d="M597.65 127.061C597.65 125.751 596.276 124.877 595.361 124.877C593.987 124.877 593.071 126.187 593.071 127.061C593.071 128.371 594.445 129.244 595.361 129.244C596.734 129.244 597.65 128.371 597.65 127.061Z" fill="#231F20"/>
<path opacity="0.47" d="M466.671 419.169C466.671 418.296 465.755 417.859 464.839 417.859C463.923 417.859 463.465 418.732 463.465 419.605C463.465 420.479 464.381 420.915 465.297 420.915C466.213 420.915 467.129 420.042 466.671 419.169Z" fill="#231F20"/>
<path opacity="0.4" d="M190.973 780.701C190.973 779.828 190.057 778.955 189.141 778.955C188.225 778.955 187.309 779.828 187.309 780.701C187.309 781.574 188.225 782.448 189.141 782.448C190.057 782.448 190.973 781.574 190.973 780.701Z" fill="#231F20"/>
<path opacity="0.45" d="M479.952 603.428C479.952 602.554 479.494 602.118 478.579 602.118C477.663 602.118 477.205 602.554 477.205 603.428C477.205 604.301 477.663 604.737 478.579 604.737C479.494 604.737 479.952 604.301 479.952 603.428Z" fill="#231F20"/>
<path opacity="0.49" d="M110.371 659.317C110.371 658.444 109.455 657.57 108.539 657.134C107.623 657.134 106.707 658.007 106.25 658.88C106.25 659.754 107.165 660.627 108.081 661.064C108.997 661.064 110.371 660.627 110.371 659.317Z" fill="#231F20"/>
<path opacity="0.35" d="M551.853 506.932C551.853 505.622 550.479 504.749 549.105 504.749C547.731 504.749 546.815 506.059 546.815 507.369C546.815 508.679 548.189 509.552 549.563 509.552C550.937 509.552 551.853 508.242 551.853 506.932Z" fill="#231F20"/>
<path opacity="0.34" d="M851.365 485.973C851.365 485.1 850.449 484.664 849.534 484.664C848.618 484.664 848.16 485.537 848.16 486.41C848.16 487.283 849.076 487.72 849.992 487.72C850.907 487.283 851.365 486.41 851.365 485.973Z" fill="#231F20"/>
<path opacity="0.33" d="M597.192 330.096C597.192 329.222 596.277 328.349 595.361 328.349C594.445 328.349 593.529 329.222 593.529 330.096C593.529 330.969 594.445 331.842 595.361 331.842C596.277 331.842 597.192 330.969 597.192 330.096Z" fill="#231F20"/>
<path opacity="0.32" d="M320.121 89.9472C320.121 89.0739 319.205 88.2007 317.831 88.2007C316.457 88.2007 315.999 89.074 315.999 90.3839C315.999 91.2571 316.915 92.1304 318.289 92.1304C319.205 91.6938 320.121 90.8205 320.121 89.9472Z" fill="#231F20"/>
<path opacity="0.45" d="M333.86 459.775C333.402 458.902 332.486 458.028 331.57 458.028C330.654 458.465 329.738 459.338 329.738 460.212C330.196 461.085 331.112 461.958 332.028 461.958C333.402 461.958 334.317 460.648 333.86 459.775Z" fill="#231F20"/>
<path opacity="0.41" d="M527.122 127.06C526.664 126.187 525.291 125.314 524.375 125.75C523.459 126.187 522.543 127.497 523.001 128.37C523.459 129.243 524.833 130.117 525.749 129.68C527.122 129.243 527.58 127.934 527.122 127.06Z" fill="#231F20"/>
<path opacity="0.33" d="M502.85 389.041C502.85 388.168 502.392 386.858 501.018 386.858C500.102 386.858 498.729 387.295 498.729 388.604C498.729 389.478 499.186 390.788 500.56 390.788C501.476 390.788 502.85 389.914 502.85 389.041Z" fill="#231F20"/>
<path opacity="0.21" d="M331.57 694.685C331.57 693.375 330.196 692.502 328.822 692.939C327.448 692.939 326.532 694.249 326.99 695.559C326.99 696.869 328.364 697.742 329.738 697.305C330.654 696.868 331.57 695.995 331.57 694.685Z" fill="#231F20"/>
<path opacity="0.4" d="M661.766 454.973C661.766 454.1 661.308 453.227 660.392 453.227C659.476 453.227 658.56 453.663 658.56 454.536C658.56 455.41 659.018 456.283 659.934 456.283C660.85 456.72 661.766 455.846 661.766 454.973Z" fill="#231F20"/>
<path opacity="0.43" d="M845.412 260.235C845.412 259.361 844.496 258.925 843.58 258.925C842.664 258.925 842.206 259.798 842.206 260.671C842.206 261.545 843.122 261.981 844.038 261.981C844.496 261.981 845.412 261.108 845.412 260.235Z" fill="#231F20"/>
<path opacity="0.41" d="M685.122 193.866C685.122 193.429 684.664 193.429 684.206 193.429C683.748 193.429 683.748 193.866 683.748 194.302C683.748 194.739 684.206 194.739 684.664 194.739C685.122 194.739 685.122 194.302 685.122 193.866Z" fill="#231F20"/>
<path opacity="0.41" d="M861.441 425.718C861.441 424.845 860.983 424.408 860.067 424.408C859.151 424.408 858.693 424.845 858.693 425.718C858.693 426.591 859.151 427.028 860.067 427.028C860.525 427.465 860.983 426.591 861.441 425.718Z" fill="#231F20"/>
<path opacity="0.3" d="M620.091 365.026C620.091 364.589 619.633 364.152 619.175 364.152C618.717 364.152 618.259 364.589 618.259 365.026C618.259 365.462 618.717 365.899 619.175 365.899C619.633 365.899 620.091 365.462 620.091 365.026Z" fill="#231F20"/>
<path opacity="0.29" d="M380.573 304.771C380.573 303.461 379.657 302.588 378.283 302.151C376.909 302.151 375.993 303.025 375.535 304.335C375.535 305.644 376.451 306.518 377.825 306.954C379.657 306.954 380.573 305.644 380.573 304.771Z" fill="#231F20"/>
<path opacity="0.21" d="M534.451 491.65C534.451 491.214 533.993 490.34 533.077 490.34C532.619 490.34 531.703 490.777 531.703 491.65C531.703 492.087 532.161 492.96 533.077 492.96C533.993 492.96 534.451 492.087 534.451 491.65Z" fill="#231F20"/>
<path opacity="0.3" d="M710.311 720.882C710.311 720.446 709.853 720.009 709.395 720.446C708.937 720.446 708.48 720.882 708.937 721.319C708.937 721.755 709.395 722.192 709.853 721.755C710.311 721.755 710.311 721.319 710.311 720.882Z" fill="#231F20"/>
<path opacity="0.4" d="M746.491 524.835C746.491 523.962 745.117 523.088 744.201 523.088C743.285 523.088 742.369 524.398 742.369 525.271C742.369 526.145 743.743 527.018 744.659 527.018C746.033 527.018 746.491 526.145 746.491 524.835Z" fill="#231F20"/>
<path opacity="0.35" d="M492.776 713.897C492.776 713.46 491.86 713.023 491.402 713.023C490.944 713.023 490.486 713.897 490.486 714.333C490.486 714.77 491.402 715.207 491.86 715.207C492.318 714.77 492.776 714.333 492.776 713.897Z" fill="#231F20"/>
<path opacity="0.48" d="M625.587 469.818C625.587 468.945 624.671 468.072 623.297 468.072C622.381 468.072 621.465 468.945 621.465 470.255C621.465 471.128 622.381 472.001 623.755 472.001C625.129 471.565 625.587 470.692 625.587 469.818Z" fill="#231F20"/>
<path opacity="0.27" d="M718.096 273.333C718.096 272.023 717.638 271.15 716.264 270.713C714.89 270.713 713.974 271.15 713.516 272.459C713.516 273.769 713.974 274.643 715.348 275.079C716.722 275.079 717.638 274.206 718.096 273.333Z" fill="#231F20"/>
<path opacity="0.27" d="M519.796 377.251C519.796 376.378 518.88 375.505 517.964 375.505C517.048 375.505 516.132 376.378 516.132 377.251C516.132 378.125 517.048 378.998 517.964 378.998C518.88 378.998 519.796 378.125 519.796 377.251Z" fill="#231F20"/>
<path opacity="0.47" d="M321.495 481.607C321.495 480.734 321.037 480.297 320.121 480.297C319.205 480.297 318.747 480.734 318.747 481.607C318.747 482.48 319.205 482.917 320.121 482.917C320.579 483.353 321.495 482.48 321.495 481.607Z" fill="#231F20"/>
<path opacity="0.33" d="M427.743 573.738C427.285 572.864 426.369 571.991 425.453 572.428C424.537 572.864 423.621 573.738 424.079 574.611C424.537 575.484 425.453 576.357 426.369 575.921C427.285 575.921 427.743 575.047 427.743 573.738Z" fill="#231F20"/>
<path opacity="0.4" d="M355.843 349.306C355.843 347.996 354.927 347.123 354.011 346.687C352.637 346.687 351.721 347.56 351.263 348.433C351.263 349.743 352.179 350.616 353.095 351.053C354.469 351.053 355.843 350.18 355.843 349.306Z" fill="#231F20"/>
<path opacity="0.32" d="M525.749 458.03C525.749 457.593 525.291 457.156 524.833 457.156C524.375 457.156 523.917 457.593 523.917 458.03C523.917 458.466 524.375 458.903 524.833 458.903C525.291 458.903 525.749 458.466 525.749 458.03Z" fill="#231F20"/>
<path opacity="0.22" d="M697.487 566.751C697.487 565.878 696.571 565.005 695.655 565.441C694.739 565.441 693.824 566.315 694.281 567.188C694.281 568.061 695.197 568.934 696.113 568.498C697.029 568.498 697.487 568.061 697.487 566.751Z" fill="#231F20"/>
<path opacity="0.35" d="M628.792 381.182C628.792 380.309 627.876 379.435 626.96 379.872C626.044 379.872 625.128 380.745 625.586 381.619C625.586 382.492 626.502 383.365 627.418 382.928C627.876 382.928 628.792 382.055 628.792 381.182Z" fill="#231F20"/>
<path opacity="0.21" d="M560.554 196.049C560.554 194.739 559.638 193.866 558.264 193.429C556.89 193.429 555.975 194.302 555.517 195.612C555.517 196.922 556.433 197.796 557.806 198.232C559.18 197.796 560.554 196.922 560.554 196.049Z" fill="#231F20"/>
<path opacity="0.24" d="M457.512 272.023C457.512 271.15 456.596 270.713 455.68 270.713C454.764 270.713 454.306 271.586 454.306 272.459C454.306 273.333 455.222 273.769 456.138 273.769C457.054 273.769 457.512 272.896 457.512 272.023Z" fill="#231F20"/>
<path opacity="0.26" d="M678.71 244.951C678.71 244.514 678.253 244.078 677.795 244.078C677.337 244.078 676.879 244.514 676.879 244.951C676.879 245.387 677.337 245.824 677.795 245.824C678.253 245.824 678.71 245.387 678.71 244.951Z" fill="#231F20"/>
<path opacity="0.27" d="M551.395 375.069C551.395 374.632 550.937 374.195 550.479 374.195C550.021 374.195 549.563 374.632 549.563 375.069C549.563 375.505 550.021 375.942 550.479 375.942C550.937 375.942 551.395 375.505 551.395 375.069Z" fill="#231F20"/>
<path opacity="0.41" d="M424.538 504.749C424.538 503.876 424.08 503.439 423.164 503.439C422.248 503.439 421.79 503.876 421.79 504.749C421.79 505.622 422.248 506.059 423.164 506.059C424.08 506.059 424.538 505.622 424.538 504.749Z" fill="#231F20"/>
<path opacity="0.42" d="M608.183 474.62C608.183 474.184 607.725 473.311 607.267 473.311C606.809 473.311 605.893 473.747 605.893 474.184C605.893 474.62 606.351 475.494 606.809 475.494C607.725 475.494 608.183 475.057 608.183 474.62Z" fill="#231F20"/>
<path opacity="0.5" d="M792.287 443.621C792.287 443.184 791.829 442.311 790.913 442.747C790.455 442.747 789.539 443.184 789.997 444.057C789.997 444.494 790.455 445.367 791.371 444.931C791.829 444.931 792.287 444.494 792.287 443.621Z" fill="#231F20"/>
<path opacity="0.37" d="M735.042 344.505C735.042 344.068 734.584 343.631 734.126 344.068C733.668 344.068 733.209 344.505 733.667 344.941C733.667 345.378 734.125 345.815 734.583 345.378C735.041 344.941 735.042 344.941 735.042 344.505Z" fill="#231F20"/>
<path opacity="0.34" d="M728.172 538.369C728.172 537.933 727.714 537.496 727.256 537.933C726.798 537.933 726.34 538.369 726.798 538.806C726.798 539.243 727.256 539.679 727.714 539.243C728.172 539.243 728.172 538.806 728.172 538.369Z" fill="#231F20"/>
<path opacity="0.29" d="M626.502 409.999C626.502 409.126 625.586 408.253 624.67 407.816C623.754 407.816 622.838 408.689 622.38 409.562C622.38 410.436 623.296 411.309 624.212 411.746C625.586 411.746 626.502 410.872 626.502 409.999Z" fill="#231F20"/>
<path opacity="0.48" d="M523.459 280.756C523.459 279.446 522.543 278.572 521.169 279.009C519.795 279.009 518.879 279.882 519.337 281.192C519.337 282.502 520.253 283.375 521.627 282.939C522.543 282.939 523.459 281.629 523.459 280.756Z" fill="#231F20"/>
<path opacity="0.36" d="M524.375 442.747C524.375 441.874 523.459 441.437 522.543 441.874C521.627 441.874 521.169 442.747 521.627 443.621C521.627 444.494 522.543 444.93 523.459 444.494C524.375 444.494 524.833 443.621 524.375 442.747Z" fill="#231F20"/>
<path opacity="0.35" d="M526.207 605.175C525.749 604.301 524.833 603.428 523.917 603.865C523.001 604.301 522.085 605.174 522.543 606.048C523.001 606.921 523.917 607.794 524.833 607.358C525.749 606.921 526.665 606.048 526.207 605.175Z" fill="#231F20"/>
<path opacity="0.34" d="M627.876 571.99C627.876 571.117 626.961 570.243 625.587 570.68C624.671 570.68 623.755 571.553 624.213 572.863C624.213 573.737 625.129 574.61 626.503 574.173C627.418 573.737 627.876 572.863 627.876 571.99Z" fill="#231F20"/>
<path opacity="0.22" d="M446.52 536.186C446.52 535.313 445.604 534.876 444.688 534.876C443.772 534.876 443.314 535.75 443.314 536.623C443.314 537.496 444.23 537.933 445.146 537.933C446.52 537.933 446.978 537.06 446.52 536.186Z" fill="#231F20"/>
<path opacity="0.45" d="M582.08 467.634C582.08 467.198 581.622 466.761 581.164 466.761C580.706 466.761 580.248 467.198 580.248 467.634C580.248 468.071 580.706 468.508 581.164 468.508C581.622 468.944 582.08 468.508 582.08 467.634Z" fill="#231F20"/>
<path opacity="0.35" d="M718.554 398.647C718.554 397.774 717.638 397.337 716.722 397.774C715.806 397.774 715.348 398.647 715.806 399.52C715.806 400.394 716.722 400.83 717.638 400.394C718.096 400.394 718.554 399.52 718.554 398.647Z" fill="#231F20"/>
<path opacity="0.32" d="M566.508 375.505C566.508 374.632 565.592 374.195 564.218 374.195C563.302 374.195 562.844 375.069 562.844 376.379C562.844 377.252 563.76 377.688 565.134 377.688C566.05 377.252 566.508 376.379 566.508 375.505Z" fill="#231F20"/>
<path opacity="0.23" d="M414.462 352.364C414.462 351.054 413.546 350.181 412.172 350.181C410.798 350.181 409.882 351.054 409.882 352.364C409.882 353.674 410.798 354.547 412.172 354.547C413.546 354.547 414.462 353.674 414.462 352.364Z" fill="#231F20"/>
<path opacity="0.29" d="M430.491 444.057C430.491 443.184 429.575 442.31 428.201 442.747C427.285 442.747 426.369 443.62 426.827 444.93C426.827 445.803 427.743 446.677 429.117 446.24C430.033 445.803 430.491 444.93 430.491 444.057Z" fill="#231F20"/>
<path opacity="0.45" d="M490.027 294.292C490.027 293.855 489.111 293.418 488.653 293.418C488.195 293.418 487.737 294.292 487.737 294.728C487.737 295.165 488.653 295.602 489.111 295.602C489.569 295.602 490.027 295.165 490.027 294.292Z" fill="#231F20"/>
<path opacity="0.29" d="M534.45 421.789C534.45 420.916 533.992 420.042 533.077 420.042C532.161 420.042 531.245 420.479 531.245 421.352C531.245 422.226 531.703 423.099 532.619 423.099C533.992 423.099 534.45 422.662 534.45 421.789Z" fill="#231F20"/>
<path opacity="0.5" d="M578.874 548.849C578.874 547.976 578.416 547.103 577.5 547.103C576.584 547.103 575.668 547.539 575.668 548.412C575.668 549.286 576.126 550.159 577.042 550.159C577.958 550.159 578.874 549.722 578.874 548.849Z" fill="#231F20"/>
<path opacity="0.43" d="M622.38 421.788C622.38 421.351 621.923 420.915 621.465 420.915C621.007 420.915 620.549 421.351 620.549 421.788C620.549 422.224 621.007 422.661 621.465 422.661C621.923 422.661 622.38 422.224 622.38 421.788Z" fill="#231F20"/>
<path opacity="0.41" d="M667.261 294.728C667.261 293.854 666.345 293.418 665.887 293.854C664.971 293.854 664.513 294.728 664.971 295.164C664.971 296.038 665.887 296.474 666.345 296.038C666.803 296.038 667.261 295.164 667.261 294.728Z" fill="#231F20"/>
<path opacity="0.39" d="M577.957 294.728C577.957 294.292 577.499 293.855 577.041 293.855C576.583 293.855 576.125 294.292 576.125 294.728C576.125 295.165 576.583 295.602 577.041 295.602C577.957 295.602 577.957 295.165 577.957 294.728Z" fill="#231F20"/>
<path opacity="0.28" d="M489.569 182.076C489.569 180.766 488.196 179.893 486.822 180.329C485.448 180.329 484.532 181.639 484.99 182.949C484.99 184.259 486.364 185.132 487.738 184.696C489.111 184.259 490.027 183.386 489.569 182.076Z" fill="#231F20"/>
<path opacity="0.23" d="M598.109 264.6C598.109 264.163 597.651 263.727 597.193 263.727C596.735 263.727 596.277 264.163 596.277 264.6C596.277 265.036 596.735 265.473 597.193 265.473C597.651 265.036 598.109 265.036 598.109 264.6Z" fill="#231F20"/>
<path opacity="0.39" d="M429.575 219.628C429.117 218.754 428.659 218.318 427.743 218.754C426.827 219.191 426.369 219.628 426.827 220.501C427.285 221.374 427.743 221.811 428.659 221.374C429.117 221.374 429.575 220.501 429.575 219.628Z" fill="#231F20"/>
<path opacity="0.45" d="M286.689 216.134C286.689 215.697 286.231 215.261 285.773 215.261C285.315 215.261 284.857 215.697 284.857 216.134C284.857 216.571 285.315 217.007 285.773 217.007C286.231 217.007 286.689 216.571 286.689 216.134Z" fill="#231F20"/>
<path opacity="0.41" d="M489.569 182.077C489.569 180.767 488.196 180.331 487.28 180.331C485.906 180.331 485.448 181.64 485.448 182.514C485.448 183.824 486.822 184.26 487.738 184.26C488.654 184.26 489.569 183.387 489.569 182.077Z" fill="#231F20"/>
<path opacity="0.44" d="M430.033 220.063C430.033 219.19 429.117 217.88 428.201 217.88C427.286 217.88 426.37 218.753 425.912 219.626C425.912 220.5 426.828 221.81 427.743 221.81C429.117 222.246 430.033 221.373 430.033 220.063Z" fill="#231F20"/>
<path opacity="0.49" d="M318.747 270.277C318.747 269.84 318.289 269.404 317.831 269.404C317.374 269.404 316.916 269.84 316.916 270.277C316.916 270.714 317.374 271.15 317.831 271.15C318.289 271.15 318.747 270.714 318.747 270.277Z" fill="#231F20"/>
<path opacity="0.45" d="M319.663 269.84C319.663 268.53 318.289 267.656 317.373 268.093C315.999 268.093 315.083 269.403 315.541 270.276C315.541 271.586 316.915 272.459 317.831 272.023C319.205 272.023 320.121 271.15 319.663 269.84Z" fill="#231F20"/>
<path opacity="0.45" d="M175.86 285.558C175.86 284.248 174.944 283.375 173.57 283.375C172.196 283.375 171.28 284.248 171.28 285.558C171.28 286.868 172.196 287.741 173.57 287.741C174.944 287.741 175.86 286.868 175.86 285.558Z" fill="#231F20"/>
<path opacity="0.47" d="M286.231 216.133C286.231 215.697 285.773 215.697 285.315 215.697C284.857 215.697 284.857 216.133 284.857 216.57C284.857 217.007 285.315 217.007 285.773 217.007C286.231 216.57 286.231 216.133 286.231 216.133Z" fill="#231F20"/>
<path opacity="0.41" d="M429.117 220.064C429.117 219.627 428.659 219.191 428.201 219.627C427.743 219.627 427.285 220.064 427.743 220.5C427.743 220.937 428.201 221.374 428.659 220.937C428.659 220.937 429.117 220.5 429.117 220.064Z" fill="#231F20"/>
<path opacity="0.42" d="M599.482 264.6C599.482 263.727 598.566 262.854 597.65 262.854C596.734 262.854 595.819 263.727 595.819 264.6C595.819 265.473 596.734 266.346 597.65 266.346C598.566 266.346 599.482 265.473 599.482 264.6Z" fill="#231F20"/>
<path opacity="0.29" d="M435.987 272.023C435.987 271.15 435.529 270.713 434.613 270.713C433.697 270.713 433.239 271.15 433.239 272.023C433.239 272.896 433.697 273.333 434.613 273.333C435.529 273.333 435.987 272.896 435.987 272.023Z" fill="#231F20"/>
<path opacity="0.39" d="M598.567 264.6C598.567 264.163 598.109 263.727 597.193 263.727C596.735 263.727 596.277 264.163 596.277 265.036C596.277 265.473 596.735 265.91 597.651 265.91C598.109 265.473 598.567 265.036 598.567 264.6Z" fill="#231F20"/>
<path opacity="0.35" d="M499.645 287.305C499.645 286.432 498.729 285.559 497.813 285.996C496.897 285.996 495.981 286.869 496.439 287.742C496.439 288.615 497.355 289.489 498.271 289.052C499.187 289.489 500.103 288.615 499.645 287.305Z" fill="#231F20"/>
<path opacity="0.42" d="M435.987 272.023C435.987 271.15 435.529 270.713 434.613 270.713C433.697 270.713 433.239 271.15 433.239 272.023C433.239 272.896 433.697 273.333 434.613 273.333C435.529 273.333 435.987 272.896 435.987 272.023Z" fill="#231F20"/>
<path opacity="0.35" d="M248.22 362.842C248.22 362.405 247.304 361.969 246.846 362.405C246.388 362.405 245.93 363.279 246.388 363.715C246.388 364.152 247.304 364.589 247.762 364.152C248.22 363.715 248.22 363.279 248.22 362.842Z" fill="#231F20"/>
<path opacity="0.45" d="M174.486 285.559C174.486 285.122 174.028 284.686 173.571 285.122C173.113 285.122 172.655 285.559 173.113 285.996C173.113 286.432 173.571 286.869 174.028 286.432C174.486 286.432 174.486 285.996 174.486 285.559Z" fill="#231F20"/>
<path opacity="0.38" d="M248.677 363.279C248.677 362.405 247.762 361.969 246.846 361.969C245.93 361.969 245.472 362.842 245.472 363.715C245.472 364.589 246.388 365.025 247.304 365.025C248.219 364.589 248.677 364.152 248.677 363.279Z" fill="#231F20"/>
<path opacity="0.26" d="M318.747 269.84C318.747 269.403 318.289 268.967 317.373 268.967C316.915 268.967 316.457 269.403 316.457 270.277C316.457 270.713 316.915 271.15 317.831 271.15C318.289 271.15 318.747 270.713 318.747 269.84Z" fill="#231F20"/>
<path opacity="0.38" d="M319.204 270.713C319.204 269.839 318.288 269.403 317.372 269.839C316.456 269.839 315.998 270.713 316.456 271.586C316.456 272.459 317.372 272.896 318.288 272.459C318.746 272.459 319.204 271.586 319.204 270.713Z" fill="#231F20"/>
<path opacity="0.45" d="M329.28 330.095C329.28 329.658 328.822 329.222 328.364 329.222C327.906 329.222 327.448 329.658 327.448 330.095C327.448 330.532 327.906 330.968 328.364 330.968C328.822 330.968 329.28 330.532 329.28 330.095Z" fill="#231F20"/>
<path opacity="0.48" d="M638.41 254.557C638.41 253.684 637.494 252.811 636.578 252.811C635.662 252.811 634.746 253.684 634.746 254.557C634.746 255.43 635.662 256.304 636.578 256.304C637.494 256.74 638.41 255.867 638.41 254.557Z" fill="#231F20"/>
<path opacity="0.32" d="M488.196 182.076C488.196 181.639 487.738 181.203 487.28 181.203C486.822 181.203 486.364 181.639 486.364 182.076C486.364 182.513 486.822 182.949 487.28 182.949C488.196 182.949 488.196 182.949 488.196 182.076Z" fill="#231F20"/>
<path opacity="0.23" d="M637.951 254.558C637.951 254.121 637.035 253.685 636.577 253.685C636.119 253.685 635.661 254.558 635.661 254.995C635.661 255.431 636.577 255.868 637.035 255.868C637.493 255.868 637.951 254.995 637.951 254.558Z" fill="#231F20"/>
<path opacity="0.36" d="M587.575 284.248C587.575 283.812 587.575 283.375 587.117 283.375C586.659 283.375 586.201 283.375 586.201 283.812C586.201 284.248 586.201 284.685 586.659 284.685C587.117 284.685 587.575 284.685 587.575 284.248Z" fill="#231F20"/>
<path opacity="0.28" d="M638.409 254.557C638.409 253.247 637.036 252.811 636.12 252.811C634.746 252.811 634.288 254.12 634.288 254.994C634.288 256.304 635.662 256.74 636.578 256.74C637.952 256.74 638.867 255.43 638.409 254.557Z" fill="#231F20"/>
<path opacity="0.28" d="M675.963 325.293C675.963 324.857 675.505 324.42 674.589 324.42C674.131 324.42 673.673 324.857 673.673 325.73C673.673 326.166 674.131 326.603 675.047 326.603C675.963 326.166 676.421 325.73 675.963 325.293Z" fill="#231F20"/>
<path opacity="0.31" d="M719.013 272.896C719.013 272.022 718.097 271.586 717.639 272.022C716.723 272.022 716.265 272.896 716.723 273.332C716.723 274.206 717.639 274.642 718.097 274.206C718.555 274.206 719.013 273.769 719.013 272.896Z" fill="#231F20"/>
<path opacity="0.3" d="M575.667 300.84C575.667 299.967 574.751 299.094 573.377 299.094C572.461 299.094 571.545 299.967 571.545 301.277C571.545 302.15 572.461 303.023 573.835 303.023C574.751 302.587 575.667 301.714 575.667 300.84Z" fill="#231F20"/>
<path opacity="0.34" d="M719.469 273.333C719.469 272.46 718.553 271.586 717.637 271.586C716.722 271.586 715.806 272.46 715.806 273.333C715.806 274.206 716.722 275.079 717.637 275.079C718.553 274.643 719.011 274.206 719.469 273.333Z" fill="#231F20"/>
<path opacity="0.38" d="M729.545 377.688C729.545 376.378 728.629 375.505 727.255 375.505C725.881 375.505 724.965 376.378 724.965 377.688C724.965 378.998 725.881 379.871 727.255 379.871C728.171 379.871 729.545 378.998 729.545 377.688Z" fill="#231F20"/>
<path opacity="0.22" d="M729.087 464.579C729.087 464.142 728.629 463.706 728.171 463.706C727.713 463.706 727.255 464.142 727.255 464.579C727.255 465.015 727.713 465.452 728.171 465.452C728.629 465.452 729.087 465.015 729.087 464.579Z" fill="#231F20"/>
<path opacity="0.22" d="M778.549 373.758C778.549 373.321 778.091 372.885 777.633 372.885C777.175 372.885 776.717 373.321 776.717 373.758C776.717 374.195 777.175 374.631 777.633 374.631C778.549 375.068 779.007 374.631 778.549 373.758Z" fill="#231F20"/>
<path opacity="0.33" d="M779.922 373.759C779.922 372.449 778.548 372.013 777.632 372.013C776.258 372.013 775.8 373.323 775.8 374.196C775.8 375.506 777.174 375.942 778.09 375.942C779.464 375.942 779.922 374.632 779.922 373.759Z" fill="#231F20"/>
<path opacity="0.36" d="M719.929 273.333C719.929 272.023 719.013 271.149 717.639 271.149C716.265 271.149 715.349 272.023 715.349 273.333C715.349 274.642 716.265 275.516 717.639 275.516C718.555 275.079 719.929 274.206 719.929 273.333Z" fill="#231F20"/>
<path opacity="0.21" d="M719.469 273.333C719.469 272.46 718.553 271.586 717.637 271.586C716.722 271.586 715.806 272.46 715.806 273.333C715.806 274.206 716.722 275.079 717.637 275.079C718.553 275.079 719.469 274.206 719.469 273.333Z" fill="#231F20"/>
<path opacity="0.27" d="M637.952 254.994C637.952 254.121 637.494 253.685 636.578 253.685C635.662 253.685 635.204 254.121 635.204 254.994C635.204 255.868 635.662 256.304 636.578 256.304C637.494 256.304 637.952 255.431 637.952 254.994Z" fill="#231F20"/>
<path opacity="0.29" d="M632.914 692.064C632.914 691.191 631.998 690.318 631.082 690.318C630.166 690.318 629.25 691.191 629.25 692.064C629.25 692.938 630.166 693.811 631.082 693.811C631.998 693.811 632.914 692.938 632.914 692.064Z" fill="#231F20"/>
<path opacity="0.38" d="M571.546 664.557C571.546 663.248 570.172 662.811 569.256 662.811C567.882 662.811 567.424 664.121 567.424 664.994C567.424 666.304 568.798 666.741 569.714 666.741C570.63 666.741 571.546 665.867 571.546 664.557Z" fill="#231F20"/>
<path opacity="0.37" d="M713.974 671.107C713.516 669.797 712.142 669.36 711.226 669.36C709.853 669.797 709.395 671.107 709.395 671.98C709.853 673.29 711.226 673.727 712.142 673.727C713.516 673.727 714.432 672.417 713.974 671.107Z" fill="#231F20"/>
<path opacity="0.3" d="M743.742 585.089C743.742 584.216 742.826 583.342 741.91 582.906C740.995 582.906 740.079 583.779 739.621 584.652C739.621 585.526 740.537 586.399 741.452 586.835C742.368 586.835 743.742 585.962 743.742 585.089Z" fill="#231F20"/>
<path opacity="0.32" d="M713.059 671.543C713.059 671.106 712.143 670.669 711.685 670.669C711.227 670.669 710.769 671.543 710.769 671.979C710.769 672.416 711.685 672.853 712.143 672.853C712.601 672.853 713.059 671.979 713.059 671.543Z" fill="#231F20"/>
<path opacity="0.39" d="M626.96 644.035C626.96 643.161 625.586 642.288 624.671 642.288C623.755 642.288 622.839 643.598 622.839 644.471C622.839 645.345 624.213 646.218 625.129 646.218C626.502 646.218 626.96 644.908 626.96 644.035Z" fill="#231F20"/>
<path opacity="0.27" d="M713.517 671.543C713.517 670.67 712.143 669.797 711.227 670.233C710.311 670.233 709.396 671.543 709.854 672.416C709.854 673.29 711.227 674.163 712.143 673.726C713.059 673.29 713.975 672.416 713.517 671.543Z" fill="#231F20"/>
<path opacity="0.45" d="M603.146 624.824C603.146 623.95 602.688 623.514 601.772 623.514C600.856 623.514 600.398 623.95 600.398 624.824C600.398 625.697 600.856 626.133 601.772 626.133C602.23 626.133 603.146 625.697 603.146 624.824Z" fill="#231F20"/>
<path opacity="0.25" d="M742.826 584.653C742.826 583.779 741.91 583.343 740.995 583.343C740.079 583.343 739.621 584.216 739.621 585.089C739.621 585.963 740.537 586.399 741.452 586.399C742.368 585.963 743.284 585.526 742.826 584.653Z" fill="#231F20"/>
<path opacity="0.3" d="M695.198 588.146C695.198 587.273 693.825 586.399 692.909 586.836C691.993 586.836 691.077 588.146 691.535 589.019C691.535 589.892 692.909 590.766 693.825 590.329C694.74 589.892 695.198 589.019 695.198 588.146Z" fill="#231F20"/>
<path opacity="0.36" d="M407.135 624.387C407.135 623.513 406.677 623.077 405.761 623.077C404.845 623.077 404.387 623.513 404.387 624.387C404.387 625.26 404.845 625.696 405.761 625.696C406.677 625.26 407.135 624.823 407.135 624.387Z" fill="#231F20"/>
<path opacity="0.3" d="M539.946 649.711C539.946 649.275 539.03 648.838 538.572 648.838C538.114 648.838 537.656 649.711 537.656 650.148C537.656 650.584 538.572 651.021 539.03 651.021C539.488 651.021 539.946 650.148 539.946 649.711Z" fill="#231F20"/>
<path opacity="0.43" d="M407.135 623.95C407.135 623.513 406.219 623.077 405.761 623.077C405.303 623.077 404.845 623.95 404.845 624.387C404.845 624.823 405.761 625.26 406.219 625.26C407.135 625.26 407.135 624.386 407.135 623.95Z" fill="#231F20"/>
<path opacity="0.34" d="M481.783 551.469C481.783 551.032 481.325 550.595 480.867 551.032C480.409 551.032 479.951 551.469 480.409 551.905C480.409 552.342 480.867 552.779 481.325 552.342C481.325 552.342 481.783 551.905 481.783 551.469Z" fill="#231F20"/>
<path opacity="0.28" d="M407.592 624.386C407.592 623.513 407.135 622.64 406.219 622.64C405.303 622.64 404.387 623.076 404.387 623.949C404.387 624.823 404.845 625.696 405.761 625.696C406.677 625.696 407.592 625.259 407.592 624.386Z" fill="#231F20"/>
<path opacity="0.44" d="M515.673 604.302C515.673 603.865 515.215 603.865 514.757 603.865C514.299 603.865 514.299 604.302 514.299 604.738C514.299 605.175 514.757 605.175 515.215 605.175C515.673 605.175 515.673 604.738 515.673 604.302Z" fill="#231F20"/>
<path opacity="0.32" d="M336.149 571.99C336.149 570.68 335.233 569.807 334.317 569.807C332.943 569.807 332.027 570.68 332.027 571.554C332.027 572.864 332.943 573.737 333.859 573.737C334.775 573.737 335.691 572.864 336.149 571.99Z" fill="#231F20"/>
<path opacity="0.5" d="M340.729 533.566C340.729 533.129 340.271 532.256 339.355 532.693C338.897 532.693 337.981 533.129 338.439 534.003C338.439 534.439 338.897 535.312 339.813 534.876C340.271 534.439 340.729 534.003 340.729 533.566Z" fill="#231F20"/>
<path opacity="0.37" d="M335.234 571.554C335.234 571.117 334.776 570.244 333.86 570.681C333.402 570.681 332.486 571.117 332.944 571.99C332.944 572.427 333.402 573.3 334.318 572.864C334.776 572.864 335.234 571.99 335.234 571.554Z" fill="#231F20"/>
<path opacity="0.27" d="M428.659 557.145C428.659 556.708 428.201 556.708 427.743 556.708C427.285 556.708 427.285 557.145 427.285 557.581C427.285 558.018 427.743 558.018 428.201 558.018C428.659 558.018 428.659 557.581 428.659 557.145Z" fill="#231F20"/>
<path opacity="0.3" d="M335.234 571.117C334.776 570.244 334.318 570.244 333.402 570.244C332.486 570.681 332.486 571.117 332.486 571.991C332.944 572.864 333.402 572.864 334.318 572.864C335.234 572.427 335.234 571.991 335.234 571.117Z" fill="#231F20"/>
<path opacity="0.5" d="M407.135 623.95C407.135 623.513 406.677 623.077 405.761 623.077C405.303 623.077 404.845 623.513 404.845 624.387C404.845 624.823 405.303 625.26 406.219 625.26C406.677 625.26 407.135 624.386 407.135 623.95Z" fill="#231F20"/>
<path opacity="0.31" d="M407.135 624.387C407.135 623.95 406.677 623.513 406.219 623.077C405.761 623.077 405.303 623.513 404.845 623.95C404.845 624.386 405.303 624.823 405.761 625.26C406.219 625.26 407.135 624.823 407.135 624.387Z" fill="#231F20"/>
<path opacity="0.24" d="M427.285 546.229C427.285 544.92 425.911 544.483 424.995 544.483C423.622 544.483 423.164 545.793 423.164 546.666C423.164 547.976 424.537 548.413 425.453 548.413C426.369 548.413 427.285 547.103 427.285 546.229Z" fill="#231F20"/>
<path opacity="0.38" d="M246.846 527.891C246.846 527.018 245.93 526.581 245.014 526.581C244.098 526.581 243.64 527.454 243.64 528.328C243.64 529.201 244.556 529.637 245.472 529.637C245.93 529.637 246.846 528.764 246.846 527.891Z" fill="#231F20"/>
<path opacity="0.36" d="M361.338 535.313C361.338 534.876 360.88 534.439 360.422 534.439C359.964 534.439 359.506 534.876 359.506 535.313C359.506 535.749 359.964 536.186 360.422 536.186C360.88 536.186 361.338 535.749 361.338 535.313Z" fill="#231F20"/>
<path opacity="0.3" d="M246.388 527.891C246.388 527.018 245.93 526.581 245.014 526.581C244.098 526.581 243.64 527.018 243.64 527.891C243.64 528.764 244.098 529.201 245.014 529.201C245.472 529.201 246.388 528.764 246.388 527.891Z" fill="#231F20"/>
<path opacity="0.21" d="M335.233 571.554C335.233 570.681 334.317 570.244 333.859 570.681C332.943 570.681 332.485 571.554 332.943 571.991C332.943 572.864 333.859 573.301 334.317 572.864C334.775 572.864 335.233 571.991 335.233 571.554Z" fill="#231F20"/>
<path opacity="0.46" d="M245.471 527.891C245.471 527.455 245.013 527.455 244.555 527.455C244.097 527.455 244.097 527.891 244.097 528.328C244.097 528.764 244.555 528.764 245.013 528.764C245.471 528.764 245.929 528.328 245.471 527.891Z" fill="#231F20"/>
<path opacity="0.36" d="M229.9 440.128C229.9 439.254 229.442 438.818 228.526 439.254C227.61 439.254 227.152 439.691 227.61 440.564C227.61 441.437 228.068 441.874 228.984 441.437C229.442 441.437 229.9 440.564 229.9 440.128Z" fill="#231F20"/>
<path opacity="0.25" d="M153.877 370.266C153.877 369.829 153.419 369.829 152.961 369.829C152.503 369.829 152.503 370.266 152.503 370.702C152.503 371.139 152.961 371.139 153.419 371.139C153.877 371.139 153.877 370.702 153.877 370.266Z" fill="#231F20"/>
<path opacity="0.41" d="M174.487 285.559C174.487 285.122 174.029 284.686 173.571 284.686C173.113 284.686 172.655 285.122 172.655 285.559C172.655 285.995 173.113 286.432 173.571 286.432C174.029 286.432 174.487 285.995 174.487 285.559Z" fill="#231F20"/>
<path opacity="0.36" d="M198.758 478.987C198.758 478.55 198.3 478.114 197.384 478.114C196.926 478.114 196.468 478.55 196.468 479.424C196.468 479.86 196.926 480.297 197.842 480.297C198.3 480.297 198.758 479.86 198.758 478.987Z" fill="#231F20"/>
<path opacity="0.33" d="M246.846 527.89C246.846 527.017 245.93 526.144 245.014 526.144C244.098 526.144 243.182 527.017 243.182 527.89C243.182 528.763 244.098 529.637 245.014 529.637C245.93 529.637 246.846 528.763 246.846 527.89Z" fill="#231F20"/>
<path opacity="0.21" d="M192.805 436.198C192.805 435.761 192.347 435.324 191.432 435.324C190.974 435.324 190.516 435.761 190.516 436.634C190.516 437.071 190.974 437.507 191.89 437.507C192.805 437.071 193.263 436.634 192.805 436.198Z" fill="#231F20"/>
<path opacity="0.39" d="M227.61 410.437C227.61 410 227.152 409.563 226.694 409.563C226.236 409.563 225.778 410 225.778 410.437C225.778 410.873 226.236 411.31 226.694 411.31C227.152 411.31 227.61 410.873 227.61 410.437Z" fill="#231F20"/>
<path opacity="0.31" d="M227.611 411.745C227.153 410.435 226.237 409.999 224.863 409.999C223.489 410.435 223.031 411.308 223.031 412.618C223.489 413.928 224.405 414.365 225.779 414.365C227.153 414.365 228.069 413.055 227.611 411.745Z" fill="#231F20"/>
<path opacity="0.27" d="M198.759 479.424C198.759 478.987 198.301 478.551 197.843 478.551C197.385 478.551 196.927 478.987 196.927 479.424C196.927 479.861 197.385 480.297 197.843 480.297C198.301 480.297 198.759 479.861 198.759 479.424Z" fill="#231F20"/>
<path opacity="0.25" d="M198.758 478.987C198.758 478.55 197.842 478.114 197.384 478.55C196.927 478.55 196.469 479.424 196.927 479.86C196.927 480.297 197.842 480.734 198.3 480.297C198.758 480.297 198.758 479.424 198.758 478.987Z" fill="#231F20"/>
<path opacity="0.44" d="M193.721 436.197C193.721 435.324 192.805 434.887 191.89 434.887C190.974 434.887 190.516 435.76 190.516 436.634C190.516 437.507 191.432 437.944 192.347 437.944C193.263 437.507 193.721 437.07 193.721 436.197Z" fill="#231F20"/>
<path opacity="0.42" d="M194.179 436.197C194.179 434.887 193.263 434.014 191.889 434.014C190.515 434.014 189.599 434.887 189.599 436.197C189.599 437.507 190.515 438.38 191.889 438.38C193.263 438.38 194.179 437.507 194.179 436.197Z" fill="#231F20"/>
<path opacity="0.31" d="M154.336 370.702C154.336 369.829 153.42 369.392 152.962 369.392C152.046 369.392 151.588 370.265 151.588 370.702C151.588 371.575 152.504 372.012 152.962 372.012C153.878 372.012 154.336 371.139 154.336 370.702Z" fill="#231F20"/>
<path opacity="0.33" d="M153.878 370.702C153.878 370.266 153.42 369.829 152.962 369.829C152.504 369.829 152.046 370.266 152.046 370.702C152.046 371.139 152.504 371.576 152.962 371.576C153.42 371.576 153.878 371.139 153.878 370.702Z" fill="#231F20"/>
<path opacity="0.32" d="M223.489 386.857C223.489 386.42 223.031 385.984 222.573 385.984C222.115 385.984 221.657 386.42 221.657 386.857C221.657 387.294 222.115 387.73 222.573 387.73C223.031 387.73 223.489 387.294 223.489 386.857Z" fill="#231F20"/>
<path opacity="0.39" d="M795.951 581.159C795.493 580.286 794.577 579.413 793.203 579.85C792.288 580.286 791.372 581.159 791.83 582.469C792.288 583.343 793.203 584.216 794.577 583.779C795.493 583.343 795.951 582.033 795.951 581.159Z" fill="#231F20"/>
<path opacity="0.3" d="M743.742 584.652C743.742 583.779 742.826 582.906 741.452 582.906C740.537 582.906 739.621 583.779 739.621 585.089C739.621 585.962 740.537 586.835 741.91 586.835C742.826 586.835 743.742 585.962 743.742 584.652Z" fill="#231F20"/>
<path opacity="0.3" d="M822.513 424.408C822.513 423.535 822.055 423.098 821.139 423.098C820.224 423.098 819.766 423.535 819.766 424.408C819.766 425.281 820.224 425.718 821.139 425.718C822.055 425.718 822.513 424.845 822.513 424.408Z" fill="#231F20"/>
<path opacity="0.39" d="M779.006 373.759C779.006 372.886 778.09 372.449 777.632 372.449C776.716 372.449 776.258 373.322 776.258 373.759C776.258 374.632 777.174 375.069 777.632 375.069C778.548 375.069 779.464 374.632 779.006 373.759Z" fill="#231F20"/>
<path opacity="0.27" d="M794.577 510.426C794.119 509.553 793.203 509.116 792.288 509.553C791.372 509.989 790.914 510.863 791.372 511.736C791.83 512.609 792.746 513.046 793.661 512.609C794.577 512.172 795.035 511.299 794.577 510.426Z" fill="#231F20"/>
<path opacity="0.24" d="M795.952 581.159C795.494 580.286 794.578 579.413 793.662 579.85C792.746 580.286 791.83 581.159 792.288 582.033C792.746 582.906 793.662 583.779 794.578 583.343C795.494 583.343 795.952 582.469 795.952 581.159Z" fill="#231F20"/>
<path opacity="0.34" d="M814.27 485.973C814.27 485.537 813.812 485.1 813.354 485.1C812.896 485.1 812.438 485.537 812.438 485.973C812.438 486.41 812.896 486.847 813.354 486.847C814.27 487.283 814.27 486.41 814.27 485.973Z" fill="#231F20"/>
<path opacity="0.45" d="M822.513 424.408C822.513 423.535 822.055 423.098 821.139 423.098C820.224 423.098 819.766 423.535 819.766 424.408C819.766 425.281 820.224 425.718 821.139 425.718C822.055 425.718 822.513 424.845 822.513 424.408Z" fill="#231F20"/>
<path opacity="0.28" d="M814.27 485.973C814.27 485.537 813.812 485.1 813.354 485.1C812.896 485.1 812.438 485.537 812.438 485.973C812.438 486.41 812.896 486.847 813.354 486.847C813.812 486.847 814.27 486.847 814.27 485.973Z" fill="#231F20"/>
<path opacity="0.44" d="M760.229 505.185C760.229 504.749 759.314 504.312 758.856 504.749C758.398 504.749 757.94 505.622 758.398 506.059C758.398 506.495 759.314 506.932 759.772 506.495C760.229 506.495 760.229 505.622 760.229 505.185Z" fill="#231F20"/>
<path opacity="0.38" d="M823.429 424.408C823.429 423.098 822.971 422.225 821.597 421.788C820.223 421.788 819.307 422.225 818.849 423.535C818.849 424.845 819.307 425.718 820.681 426.154C822.055 426.591 823.429 425.718 823.429 424.408Z" fill="#231F20"/>
<path opacity="0.44" d="M766.641 447.55C766.641 447.113 765.725 446.677 765.267 446.677C764.809 446.677 764.351 447.55 764.351 447.987C764.351 448.423 765.267 448.86 765.725 448.86C766.641 448.86 766.641 447.987 766.641 447.55Z" fill="#231F20"/>
<path opacity="0.27" d="M794.578 581.596C794.578 581.159 794.12 580.723 793.662 580.723C793.204 580.723 792.746 581.159 792.746 581.596C792.746 582.033 793.204 582.469 793.662 582.469C794.12 582.469 794.578 582.033 794.578 581.596Z" fill="#231F20"/>
<path opacity="0.47" d="M815.186 485.973C815.186 485.1 814.27 484.227 812.896 484.227C811.98 484.227 811.064 485.1 811.064 486.41C811.064 487.283 811.98 488.156 813.354 488.156C814.728 487.72 815.644 486.846 815.186 485.973Z" fill="#231F20"/>
<path opacity="0.31" d="M793.661 510.862C793.661 510.425 793.203 509.989 793.203 509.989C792.745 509.989 792.287 510.425 792.287 510.425C792.287 510.862 792.745 511.299 792.745 511.299C793.203 511.735 793.661 511.299 793.661 510.862Z" fill="#231F20"/>
<path opacity="0.47" d="M762.519 510.426C762.061 509.553 761.145 509.116 760.229 509.553C759.313 509.989 758.855 510.863 759.313 511.736C759.771 512.609 760.687 513.046 761.603 512.609C762.519 512.172 762.977 511.299 762.519 510.426Z" fill="#231F20"/>
<path opacity="0.36" d="M791.372 512.608C791.372 511.735 790.914 511.298 789.998 511.298C789.082 511.298 788.624 511.735 788.624 512.608C788.624 513.481 789.082 513.918 789.998 513.918C790.456 513.918 791.372 513.481 791.372 512.608Z" fill="#231F20"/>
<path opacity="0.22" d="M814.27 485.973C814.27 485.537 813.812 485.1 813.354 485.537C812.896 485.537 812.438 485.973 812.896 486.41C812.896 486.847 813.354 487.283 813.812 486.847C813.812 486.847 814.27 486.41 814.27 485.973Z" fill="#231F20"/>
<path opacity="0.5" d="M795.035 581.596C795.035 581.159 794.577 580.723 794.119 580.286C793.661 580.286 793.204 580.723 792.746 581.159C792.746 581.596 793.204 582.033 793.662 582.469C794.119 582.906 795.035 582.469 795.035 581.596Z" fill="#231F20"/>
<path opacity="0.49" d="M712.601 671.543C712.601 671.106 712.143 670.669 711.227 670.669C710.769 670.669 710.311 671.543 710.311 671.979C710.311 672.416 711.227 672.853 711.685 672.853C712.601 672.853 713.059 671.979 712.601 671.543Z" fill="#231F20"/>
<path opacity="0.24" d="M484.99 237.966C484.532 236.656 483.616 235.783 482.242 236.22C480.868 236.656 479.952 237.529 480.41 238.839C480.868 240.149 481.784 241.022 483.158 240.586C484.532 240.149 485.448 238.839 484.99 237.966Z" fill="#231F20"/>
<path opacity="0.31" d="M489.569 182.077C489.569 180.767 488.195 180.331 486.822 180.331C485.448 180.331 484.99 181.64 484.99 182.95C484.99 184.26 486.364 184.697 487.738 184.697C489.111 184.26 490.027 182.95 489.569 182.077Z" fill="#231F20"/>
<path opacity="0.46" d="M688.328 328.785C688.328 328.349 687.87 327.912 687.412 327.912C686.954 327.912 686.496 328.349 686.496 328.785C686.496 329.222 686.954 329.659 687.412 329.659C687.87 329.659 688.328 329.222 688.328 328.785Z" fill="#231F20"/>
<path opacity="0.45" d="M718.554 273.332C718.554 272.896 718.096 272.459 717.638 272.459C717.18 272.459 716.722 272.896 716.722 273.332C716.722 273.769 717.18 274.205 717.638 274.205C718.096 273.769 718.554 273.769 718.554 273.332Z" fill="#231F20"/>
<path opacity="0.47" d="M430.033 219.626C429.575 218.317 428.201 217.88 427.285 218.317C425.911 218.753 425.454 220.063 425.911 220.936C426.369 222.246 427.743 222.683 428.659 222.246C430.033 221.81 430.491 220.5 430.033 219.626Z" fill="#231F20"/>
<path opacity="0.2" d="M287.605 215.698C287.605 214.824 286.231 213.951 285.315 214.388C284.399 214.824 283.483 215.698 283.941 216.571C283.941 217.444 285.315 218.317 286.231 217.881C287.147 217.881 287.605 216.571 287.605 215.698Z" fill="#231F20"/>
<path opacity="0.27" d="M322.41 331.406C322.41 330.533 321.494 329.659 320.578 330.096C319.662 330.096 318.746 330.969 319.204 331.843C319.204 332.716 320.12 333.589 321.036 333.152C321.952 333.152 322.868 332.279 322.41 331.406Z" fill="#231F20"/>
<path opacity="0.33" d="M174.945 285.995C174.945 285.122 174.487 284.686 173.571 284.686C172.655 284.686 172.197 285.122 172.197 285.995C172.197 286.869 172.655 287.305 173.571 287.305C174.029 286.869 174.945 286.432 174.945 285.995Z" fill="#231F20"/>
<path opacity="0.25" d="M245.929 355.856C245.929 355.419 245.471 355.419 245.013 355.419C244.555 355.419 244.555 355.856 244.555 356.293C244.555 356.729 245.013 356.729 245.471 356.729C245.471 356.729 245.929 356.293 245.929 355.856Z" fill="#231F20"/>
<path opacity="0.36" d="M154.794 370.702C154.794 369.828 153.878 368.955 152.962 368.955C152.046 368.955 151.13 369.828 151.13 370.702C151.13 371.575 152.046 372.448 152.962 372.448C153.878 372.448 154.794 371.575 154.794 370.702Z" fill="#231F20"/>
<path opacity="0.33" d="M282.109 505.622C282.109 504.748 281.193 503.875 280.277 503.875C279.361 503.875 278.445 504.748 278.445 505.622C278.445 506.495 279.361 507.368 280.277 507.368C281.193 507.368 282.109 506.495 282.109 505.622Z" fill="#231F20"/>
<path opacity="0.5" d="M245.929 527.89C245.929 527.454 245.471 527.017 245.013 527.017C244.555 527.017 244.097 527.454 244.097 527.89C244.097 528.327 244.555 528.764 245.013 528.764C245.471 528.764 245.929 528.327 245.929 527.89Z" fill="#231F20"/>
<path opacity="0.49" d="M568.798 768.476C568.34 767.603 567.883 767.603 566.967 767.603C566.051 768.039 566.051 768.476 566.051 769.349C566.509 770.222 566.967 770.222 567.883 770.222C568.798 769.786 569.256 768.912 568.798 768.476Z" fill="#231F20"/>
<path opacity="0.42" d="M408.509 623.95C408.509 623.077 407.593 623.077 406.677 623.077C405.761 623.077 405.761 623.95 405.761 624.823C405.761 625.696 406.677 625.696 407.593 625.696C408.509 625.26 408.967 624.823 408.509 623.95Z" fill="#231F20"/>
<path opacity="0.25" d="M569.714 768.912C569.714 768.039 569.256 766.729 567.882 766.729C566.966 766.729 565.592 767.166 565.592 768.475C565.592 769.349 566.05 770.659 567.424 770.659C568.798 770.659 569.714 769.785 569.714 768.912Z" fill="#231F20"/>
<path opacity="0.32" d="M581.163 692.064C581.163 690.754 579.789 690.318 578.873 690.318C577.499 690.318 577.042 691.628 577.042 692.501C577.042 693.811 578.415 694.248 579.331 694.248C580.705 694.248 581.621 692.938 581.163 692.064Z" fill="#231F20"/>
<path opacity="0.2" d="M569.256 768.476C569.256 767.603 568.341 767.166 567.425 767.166C566.509 767.166 566.051 768.039 566.051 768.913C566.051 769.786 566.967 770.222 567.883 770.222C568.799 769.786 569.256 769.349 569.256 768.476Z" fill="#231F20"/>
<path opacity="0.44" d="M523.001 645.345C523.001 644.908 522.543 644.472 522.085 644.472C521.627 644.472 521.169 644.908 521.169 645.345C521.169 645.781 521.627 646.218 522.085 646.218C522.543 646.218 523.001 645.781 523.001 645.345Z" fill="#231F20"/>
<path opacity="0.09" d="M691.077 311.32L757.025 314.377L725.425 286.869L691.077 311.32Z" fill="white" stroke="black" stroke-width="0.020362" stroke-miterlimit="10" stroke-linecap="round" stroke-linejoin="round"/>
<path opacity="0.42" d="M350.805 532.693L318.747 564.567L350.805 592.948V532.693Z" fill="white" stroke="black" stroke-width="0.020298" stroke-miterlimit="10" stroke-linecap="round" stroke-linejoin="round"/>
<path opacity="0.25" d="M626.045 534.439L584.37 562.821L617.343 624.386L626.045 534.439Z" fill="white" stroke="black" stroke-width="0.020763" stroke-miterlimit="10" stroke-linecap="round" stroke-linejoin="round"/>
<path opacity="0.45" d="M320.122 463.269L326.534 570.68L356.76 641.852L320.122 463.269Z" fill="white" stroke="black" stroke-width="0.019305" stroke-miterlimit="10" stroke-linecap="round" stroke-linejoin="round"/>
<path opacity="0.22" d="M475.831 583.779L394.771 698.177L505.141 569.37L475.831 583.779Z" fill="white" stroke="black" stroke-width="0.020282" stroke-miterlimit="10" stroke-linecap="round" stroke-linejoin="round"/>
<path opacity="0.1" d="M300.887 248.008L406.678 226.177L423.623 192.993L300.887 248.008Z" fill="white" stroke="black" stroke-width="0.020031" stroke-miterlimit="10" stroke-linecap="round" stroke-linejoin="round"/>
<path opacity="0.23" d="M802.363 407.815L832.132 520.467L822.514 409.125L802.363 407.815Z" fill="white" stroke="black" stroke-width="0.020296" stroke-miterlimit="10" stroke-linecap="round" stroke-linejoin="round"/>
<path opacity="0.14" d="M554.601 439.69L594.444 396.027L531.245 391.224L554.601 439.69Z" fill="white" stroke="black" stroke-width="0.020757" stroke-miterlimit="10" stroke-linecap="round" stroke-linejoin="round"/>
<path opacity="0.45" d="M688.329 125.314L751.071 147.146L694.283 79.4678L688.329 125.314Z" fill="white" stroke="black" stroke-width="0.021146" stroke-miterlimit="10" stroke-linecap="round" stroke-linejoin="round"/>
<path opacity="0.19" d="M580.706 559.764L592.613 601.244L675.964 532.256L580.706 559.764Z" fill="white" stroke="black" stroke-width="0.019748" stroke-miterlimit="10" stroke-linecap="round" stroke-linejoin="round"/>
<path opacity="0.11" d="M483.159 656.697L335.693 659.317L424.539 683.331L483.159 656.697Z" fill="white" stroke="black" stroke-width="0.019961" stroke-miterlimit="10" stroke-linecap="round" stroke-linejoin="round"/>
<path opacity="0.37" d="M789.998 640.542L758.856 613.907L753.36 684.205L789.998 640.542Z" fill="white" stroke="black" stroke-width="0.02102" stroke-miterlimit="10" stroke-linecap="round" stroke-linejoin="round"/>
<path opacity="0.19" d="M354.47 491.213L365.003 523.087L472.168 509.551L354.47 491.213Z" fill="white" stroke="black" stroke-width="0.01961" stroke-miterlimit="10" stroke-linecap="round" stroke-linejoin="round"/>
<path opacity="0.47" d="M707.106 215.261L663.599 133.61L679.17 211.768L707.106 215.261Z" fill="white" stroke="black" stroke-width="0.020529" stroke-miterlimit="10" stroke-linecap="round" stroke-linejoin="round"/>
<path opacity="0.17" d="M692.909 703.417L755.193 595.132L742.828 570.244L692.909 703.417Z" fill="white" stroke="black" stroke-width="0.020792" stroke-miterlimit="10" stroke-linecap="round" stroke-linejoin="round"/>
<path opacity="0.5" d="M420.417 314.377L400.266 280.756L363.171 420.479L420.417 314.377Z" fill="white" stroke="black" stroke-width="0.020354" stroke-miterlimit="10" stroke-linecap="round" stroke-linejoin="round"/>
<path opacity="0.07" d="M410.799 487.72L471.251 470.254L475.373 342.757L410.799 487.72Z" fill="white" stroke="black" stroke-width="0.020856" stroke-miterlimit="10" stroke-linecap="round" stroke-linejoin="round"/>
<path opacity="0.05" d="M536.741 507.369L444.689 528.764L606.81 551.469L536.741 507.369Z" fill="white" stroke="black" stroke-width="0.020954" stroke-miterlimit="10" stroke-linecap="round" stroke-linejoin="round"/>
<path opacity="0.25" d="M762.521 682.895L723.593 519.594L718.556 528.327L762.521 682.895Z" fill="white" stroke="black" stroke-width="0.019338" stroke-miterlimit="10" stroke-linecap="round" stroke-linejoin="round"/>
<path opacity="0.42" d="M454.765 401.267L511.095 392.97L461.176 334.025L454.765 401.267Z" fill="white" stroke="black" stroke-width="0.020961" stroke-miterlimit="10" stroke-linecap="round" stroke-linejoin="round"/>
<path opacity="0.12" d="M881.135 245.388L842.665 204.781L800.532 267.657L881.135 245.388Z" fill="white" stroke="black" stroke-width="0.020473" stroke-miterlimit="10" stroke-linecap="round" stroke-linejoin="round"/>
<path opacity="0.17" d="M348.515 329.659L372.33 293.418L294.017 303.461L348.515 329.659Z" fill="white" stroke="black" stroke-width="0.019732" stroke-miterlimit="10" stroke-linecap="round" stroke-linejoin="round"/>
<path opacity="0.05" d="M741.911 357.603L742.827 389.913L831.673 257.177L741.911 357.603Z" fill="white" stroke="black" stroke-width="0.019959" stroke-miterlimit="10" stroke-linecap="round" stroke-linejoin="round"/>
<path opacity="0.45" d="M725.425 278.136L704.358 361.533L767.558 302.151L725.425 278.136Z" fill="white" stroke="black" stroke-width="0.020093" stroke-miterlimit="10" stroke-linecap="round" stroke-linejoin="round"/>
<path opacity="0.2" d="M656.729 297.348L745.576 310.01L660.393 244.952L656.729 297.348Z" fill="white" stroke="black" stroke-width="0.019795" stroke-miterlimit="10" stroke-linecap="round" stroke-linejoin="round"/>
<path opacity="0.15" d="M495.524 596.006L597.651 639.233L529.872 583.78L495.524 596.006Z" fill="white" stroke="black" stroke-width="0.019508" stroke-miterlimit="10" stroke-linecap="round" stroke-linejoin="round"/>
<path opacity="0.34" d="M339.357 558.018L408.052 559.328L328.823 515.665L339.357 558.018Z" fill="white" stroke="black" stroke-width="0.019732" stroke-miterlimit="10" stroke-linecap="round" stroke-linejoin="round"/>
<path opacity="0.15" d="M373.703 136.23L388.358 58.0726L359.964 52.833L373.703 136.23Z" fill="white" stroke="black" stroke-width="0.019655" stroke-miterlimit="10" stroke-linecap="round" stroke-linejoin="round"/>
<path opacity="0.18" d="M640.7 356.73L690.161 238.839L628.793 290.362L640.7 356.73Z" fill="white" stroke="black" stroke-width="0.020243" stroke-miterlimit="10" stroke-linecap="round" stroke-linejoin="round"/>
<path opacity="0.47" d="M653.065 557.582L661.309 494.707L619.176 549.286L653.065 557.582Z" fill="white" stroke="black" stroke-width="0.020822" stroke-miterlimit="10" stroke-linecap="round" stroke-linejoin="round"/>
<path opacity="0.35" d="M670.468 378.562L619.634 371.576L617.344 453.663L670.468 378.562Z" fill="white" stroke="black" stroke-width="0.020293" stroke-miterlimit="10" stroke-linecap="round" stroke-linejoin="round"/>
<path opacity="0.2" d="M731.379 221.374L672.759 267.657L680.086 316.56L731.379 221.374Z" fill="white" stroke="black" stroke-width="0.01961" stroke-miterlimit="10" stroke-linecap="round" stroke-linejoin="round"/>
<path opacity="0.36" d="M767.558 136.23L662.683 163.738L733.668 175.09L767.558 136.23Z" fill="white" stroke="black" stroke-width="0.020461" stroke-miterlimit="10" stroke-linecap="round" stroke-linejoin="round"/>
<defs>
<linearGradient id="paint0_linear" x1="154.954" y1="137.297" x2="779.706" y2="531.029" gradientUnits="userSpaceOnUse">
<stop stop-color="#DBDBDB"/>
<stop offset="1" stop-color="white"/>
</linearGradient>
<linearGradient id="paint1_linear" x1="250.231" y1="454.614" x2="722.732" y2="461.41" gradientUnits="userSpaceOnUse">
<stop stop-color="#D1D1D1"/>
<stop offset="1" stop-color="white"/>
</linearGradient>
<linearGradient id="paint2_linear" x1="679.653" y1="780.504" x2="424.214" y2="231.186" gradientUnits="userSpaceOnUse">
<stop stop-color="white"/>
<stop offset="0.158" stop-color="#F9F9F9"/>
<stop offset="0.3736" stop-color="#E7E7E7"/>
<stop offset="0.6225" stop-color="#CBCBCB"/>
<stop offset="0.8942" stop-color="#A3A3A3"/>
<stop offset="1" stop-color="#919191"/>
</linearGradient>
<linearGradient id="paint3_linear" x1="683.065" y1="778.918" x2="421.313" y2="216.024" gradientUnits="userSpaceOnUse">
<stop stop-color="#919191"/>
<stop offset="0.1058" stop-color="#A3A3A3"/>
<stop offset="0.3775" stop-color="#CBCBCB"/>
<stop offset="0.6264" stop-color="#E7E7E7"/>
<stop offset="0.842" stop-color="#F9F9F9"/>
<stop offset="1" stop-color="white"/>
</linearGradient>
</defs>
</svg>
