<svg width="37" height="37" viewBox="0 0 37 37" fill="none" xmlns="http://www.w3.org/2000/svg">
<circle cx="18.5" cy="18.5" r="18.5" fill="#E30510"/>
<g clip-path="url(#clip0)">
<path d="M18.5001 18.522C14.0201 18.522 10.3752 22.1669 10.3752 26.6468C10.3752 26.8418 10.5335 27.0001 10.7285 27.0001C10.9235 27.0001 11.0818 26.8418 11.0818 26.6468C11.0818 22.5561 14.4094 19.2285 18.5001 19.2285C22.5908 19.2285 25.9184 22.5561 25.9184 26.6468C25.9184 26.8418 26.0767 27.0001 26.2717 27.0001C26.4667 27.0001 26.625 26.8418 26.625 26.6468C26.6249 22.1661 22.98 18.522 18.5001 18.522Z" fill="white"/>
<path d="M18.5 10C16.3579 10 14.6143 11.7429 14.6143 13.8858C14.6143 16.0286 16.3579 17.7716 18.5 17.7716C20.6422 17.7716 22.3858 16.0286 22.3858 13.8858C22.3858 11.7429 20.6422 10 18.5 10ZM18.5 17.0651C16.7472 17.0651 15.3208 15.6386 15.3208 13.8858C15.3208 12.1329 16.7472 10.7065 18.5 10.7065C20.2529 10.7065 21.6793 12.1329 21.6793 13.8858C21.6793 15.6386 20.2529 17.0651 18.5 17.0651Z" fill="white"/>
</g>
<defs>
<clipPath id="clip0">
<rect width="17" height="17" fill="white" transform="translate(10 10)"/>
</clipPath>
</defs>
</svg>
