<svg width="1320" height="200" viewBox="0 0 1320 200" fill="none" xmlns="http://www.w3.org/2000/svg">
<g clip-path="url(#clip0)">
<rect width="1320" height="200" fill="#E30510"/>
<g clip-path="url(#clip1)">
<path opacity="0.3" d="M27.6618 127.656C27.6618 127.321 27.3106 126.986 26.6079 126.986C26.2566 126.986 25.9053 127.321 25.9053 127.991C25.9053 128.326 26.2566 128.661 26.9592 128.661C27.6618 128.661 27.6618 128.326 27.6618 127.656Z" fill="#231F20"/>
<path opacity="0.2" d="M316.783 167.848C316.783 167.513 316.08 167.178 315.729 167.178C315.377 167.178 315.026 167.848 315.026 168.183C315.026 168.518 315.729 168.853 316.08 168.853C316.783 168.518 317.134 168.183 316.783 167.848Z" fill="#231F20"/>
<path opacity="0.4" d="M187.504 28.8506C187.504 28.1807 186.801 27.5109 185.747 27.5109C185.045 27.5109 184.342 28.1807 184.342 29.1855C184.342 29.8554 185.045 30.5253 186.099 30.5253C186.801 30.1903 187.504 29.5205 187.504 28.8506Z" fill="#231F20"/>
<path opacity="0.28" d="M34.6877 174.213C34.6877 173.878 33.9851 173.543 33.6338 173.543C33.2825 173.543 32.9312 174.213 32.9312 174.547C32.9312 174.882 33.6338 175.217 33.9851 175.217C34.6877 175.217 34.6877 174.882 34.6877 174.213Z" fill="#231F20"/>
<path opacity="0.34" d="M180.127 122.967C179.776 122.297 179.073 121.627 178.37 121.962C177.668 122.297 176.965 122.967 177.317 123.637C177.668 124.307 178.37 124.977 179.073 124.642C180.127 124.642 180.478 123.637 180.127 122.967Z" fill="#231F20"/>
<path opacity="0.45" d="M34.6877 194.978C34.6877 194.643 34.3364 193.973 33.9851 193.973C33.6338 193.973 32.9312 194.308 32.9312 194.643C32.9312 194.978 33.2825 195.648 33.6338 195.648C34.3364 195.648 34.6877 195.313 34.6877 194.978Z" fill="#231F20"/>
<path opacity="0.38" d="M154.13 78.0861C154.13 77.7512 153.779 77.4163 153.428 77.4163C153.076 77.4163 152.725 77.7512 152.725 78.0861C152.725 78.4211 153.076 78.756 153.428 78.756C154.13 78.4211 154.13 78.4211 154.13 78.0861Z" fill="#231F20"/>
<path opacity="0.41" d="M117.595 123.302C117.595 122.967 116.892 122.632 116.541 122.632C116.19 122.632 115.838 123.302 115.838 123.637C115.838 123.972 116.541 124.307 116.892 124.307C117.595 124.307 117.946 123.972 117.595 123.302Z" fill="#231F20"/>
<path opacity="0.21" d="M27.6615 83.7798C27.6615 82.775 26.6077 82.4401 25.5539 82.4401C24.5 82.4401 24.1487 83.4448 24.1487 84.4496C24.1487 85.4544 25.2026 85.7894 26.2564 85.7894C27.3103 85.4544 28.0128 84.4497 27.6615 83.7798Z" fill="#231F20"/>
<path opacity="0.22" d="M44.5247 129.666C44.5247 128.661 43.8221 127.991 42.7682 127.991C41.7143 127.991 41.0117 128.661 41.0117 129.666C41.0117 130.671 41.7143 131.341 42.7682 131.341C43.8221 131.341 44.5247 130.671 44.5247 129.666Z" fill="#231F20"/>
<path opacity="0.35" d="M22.3922 113.254C22.3922 112.919 22.041 112.584 21.6897 112.584C21.3384 112.584 20.9871 112.919 20.9871 113.254C20.9871 113.589 21.3384 113.924 21.6897 113.924C22.041 113.924 22.3922 113.589 22.3922 113.254Z" fill="#231F20"/>
<path opacity="0.44" d="M53.3065 170.528C53.3065 170.193 52.9553 169.858 52.604 169.858C52.2527 169.858 51.9014 170.193 51.9014 170.528C51.9014 170.863 52.2527 171.198 52.604 171.198C53.3066 171.533 53.3065 171.198 53.3065 170.528Z" fill="#231F20"/>
<path opacity="0.47" d="M283.058 49.6161C283.058 48.9462 282.355 48.2764 281.653 48.2764C280.95 48.2764 280.248 48.9462 280.248 49.6161C280.248 50.286 280.95 50.9558 281.653 50.9558C282.355 50.6209 283.058 50.286 283.058 49.6161Z" fill="#231F20"/>
<path opacity="0.44" d="M92.6521 147.417C92.6521 146.747 91.9495 146.077 90.8956 146.412C90.193 146.412 89.4904 147.082 89.8417 148.087C89.8417 148.757 90.5443 149.427 91.5982 149.092C92.3008 148.757 92.6521 148.087 92.6521 147.417Z" fill="#231F20"/>
<path opacity="0.43" d="M264.088 158.805C264.088 158.135 263.737 157.13 262.683 157.13C261.98 157.13 260.926 157.465 260.926 158.47C260.926 159.14 261.278 160.144 262.331 160.144C263.385 160.479 264.088 159.809 264.088 158.805Z" fill="#231F20"/>
<path opacity="0.34" d="M70.521 185.265C70.521 184.93 70.1696 184.595 69.8183 184.595C69.467 184.595 69.1157 184.93 69.1157 185.265C69.1157 185.6 69.467 185.935 69.8183 185.935C70.1696 185.935 70.521 185.6 70.521 185.265Z" fill="#231F20"/>
<path opacity="0.33" d="M10.097 104.211C10.097 103.541 9.39438 102.871 8.69179 102.871C7.98919 102.871 7.28662 103.541 7.28662 104.211C7.28662 104.881 7.98919 105.551 8.69179 105.551C9.39438 105.551 10.097 104.881 10.097 104.211Z" fill="#231F20"/>
<path opacity="0.4" d="M59.63 200.003C59.63 199.333 59.2787 198.663 58.5761 198.663C57.8735 198.663 57.1709 198.998 57.1709 199.668C57.1709 200.338 57.5222 201.007 58.2248 201.007C58.9274 201.342 59.63 200.672 59.63 200.003Z" fill="#231F20"/>
<path opacity="0.43" d="M200.502 50.6218C200.502 49.9519 199.799 49.6169 199.097 49.6169C198.394 49.6169 198.043 50.2868 198.043 50.9567C198.043 51.6266 198.745 51.9615 199.448 51.9615C199.799 51.9615 200.502 51.2916 200.502 50.6218Z" fill="#231F20"/>
<path opacity="0.41" d="M77.5464 -0.288591C77.5464 -0.623527 77.195 -0.623535 76.8437 -0.623535C76.4924 -0.623535 76.4924 -0.288596 76.4924 0.0463401C76.4924 0.381276 76.8437 0.381271 77.1951 0.381271C77.5464 0.381271 77.5464 0.0463452 77.5464 -0.288591Z" fill="#231F20"/>
<path opacity="0.41" d="M212.798 177.562C212.798 176.892 212.446 176.557 211.744 176.557C211.041 176.557 210.69 176.892 210.69 177.562C210.69 178.231 211.041 178.566 211.744 178.566C212.095 178.901 212.446 178.231 212.798 177.562Z" fill="#231F20"/>
<path opacity="0.3" d="M27.6618 131.005C27.6618 130.67 27.3105 130.335 26.9592 130.335C26.6079 130.335 26.2566 130.67 26.2566 131.005C26.2566 131.34 26.6079 131.675 26.9592 131.675C27.3105 131.675 27.6618 131.34 27.6618 131.005Z" fill="#231F20"/>
<path opacity="0.27" d="M102.84 60.669C102.84 59.6642 102.489 58.9944 101.435 58.6594C100.381 58.6594 99.6782 58.9944 99.3269 59.9992C99.3269 61.004 99.6782 61.6738 100.732 62.0087C101.786 62.0087 102.489 61.3389 102.84 60.669Z" fill="#231F20"/>
<path opacity="0.35" d="M34.3362 143.398C34.3362 142.728 33.6336 142.059 32.931 142.394C32.2284 142.394 31.5258 143.063 31.8771 143.733C31.8771 144.403 32.5797 145.073 33.2823 144.738C33.6336 144.738 34.3362 144.068 34.3362 143.398Z" fill="#231F20"/>
<path opacity="0.26" d="M72.628 38.898C72.628 38.5631 72.2767 38.2281 71.9254 38.2281C71.5742 38.2281 71.2229 38.5631 71.2229 38.898C71.2229 39.2329 71.5742 39.5678 71.9254 39.5678C72.2767 39.5678 72.628 39.2329 72.628 38.898Z" fill="#231F20"/>
<path opacity="0.5" d="M159.751 191.294C159.751 190.959 159.4 190.289 158.697 190.624C158.346 190.624 157.643 190.959 157.994 191.629C157.994 191.964 158.346 192.634 159.048 192.299C159.4 192.299 159.751 191.964 159.751 191.294Z" fill="#231F20"/>
<path opacity="0.37" d="M115.839 115.264C115.839 114.929 115.488 114.594 115.136 114.929C114.785 114.929 114.434 115.264 114.785 115.599C114.785 115.934 115.136 116.269 115.488 115.934C115.839 115.599 115.839 115.599 115.839 115.264Z" fill="#231F20"/>
<path opacity="0.29" d="M32.5798 165.504C32.5798 164.834 31.8771 164.164 31.1745 163.829C30.4719 163.829 29.7693 164.499 29.418 165.169C29.418 165.838 30.1206 166.508 30.8232 166.843C31.8772 166.843 32.5798 166.173 32.5798 165.504Z" fill="#231F20"/>
<path opacity="0.35" d="M103.191 156.796C103.191 156.126 102.489 155.791 101.786 156.126C101.084 156.126 100.732 156.796 101.084 157.466C101.084 158.135 101.786 158.47 102.489 158.135C102.84 158.135 103.191 157.466 103.191 156.796Z" fill="#231F20"/>
<path opacity="0.43" d="M29.4182 174.547C29.4182 174.212 29.067 173.877 28.7157 173.877C28.3644 173.877 28.0132 174.212 28.0132 174.547C28.0132 174.882 28.3644 175.216 28.7157 175.216C29.067 175.216 29.4182 174.882 29.4182 174.547Z" fill="#231F20"/>
<path opacity="0.41" d="M63.8455 77.0807C63.8455 76.4108 63.1429 76.0759 62.7916 76.4108C62.089 76.4108 61.7377 77.0807 62.089 77.4156C62.089 78.0855 62.7916 78.4204 63.1429 78.0855C63.4942 78.0855 63.8455 77.4156 63.8455 77.0807Z" fill="#231F20"/>
<path opacity="0.23" d="M10.7997 53.9702C10.7997 53.6352 10.4484 53.3003 10.0971 53.3003C9.74582 53.3003 9.39453 53.6352 9.39453 53.9702C9.39453 54.3051 9.74582 54.64 10.0971 54.64C10.4484 54.3051 10.7997 54.3051 10.7997 53.9702Z" fill="#231F20"/>
<path opacity="0.42" d="M11.8533 53.9706C11.8533 53.3007 11.1507 52.6309 10.4481 52.6309C9.74554 52.6309 9.04297 53.3007 9.04297 53.9706C9.04297 54.6404 9.74554 55.3103 10.4481 55.3103C11.1507 55.3103 11.8533 54.6404 11.8533 53.9706Z" fill="#231F20"/>
<path opacity="0.39" d="M11.1511 53.9702C11.1511 53.6352 10.7997 53.3003 10.0971 53.3003C9.74583 53.3003 9.39453 53.6352 9.39453 54.3051C9.39453 54.6401 9.74585 54.975 10.4485 54.975C10.7998 54.6401 11.1511 54.3051 11.1511 53.9702Z" fill="#231F20"/>
<path opacity="0.48" d="M41.714 46.2667C41.714 45.5969 41.0114 44.927 40.3088 44.927C39.6062 44.927 38.9036 45.5969 38.9036 46.2667C38.9036 46.9366 39.6062 47.6064 40.3088 47.6064C41.0114 47.9414 41.714 47.2715 41.714 46.2667Z" fill="#231F20"/>
<path opacity="0.23" d="M41.362 46.267C41.362 45.9321 40.6594 45.5972 40.3081 45.5972C39.9568 45.5972 39.6055 46.2671 39.6055 46.602C39.6055 46.9369 40.3081 47.2719 40.6594 47.2719C41.0107 47.2719 41.362 46.602 41.362 46.267Z" fill="#231F20"/>
<path opacity="0.36" d="M2.71945 69.0423C2.71945 68.7074 2.71943 68.3724 2.36813 68.3724C2.01682 68.3724 1.66553 68.3724 1.66553 68.7074C1.66553 69.0423 1.66555 69.3772 2.01685 69.3772C2.36816 69.3772 2.71945 69.3772 2.71945 69.0423Z" fill="#231F20"/>
<path opacity="0.28" d="M41.7139 46.2667C41.7139 45.2619 40.66 44.927 39.9574 44.927C38.9035 44.927 38.5522 45.9318 38.5522 46.6017C38.5522 47.6065 39.6061 47.9414 40.3087 47.9414C41.3626 47.9414 42.0652 46.9366 41.7139 46.2667Z" fill="#231F20"/>
<path opacity="0.28" d="M70.5208 100.527C70.5208 100.192 70.1694 99.8572 69.4668 99.8572C69.1155 99.8572 68.7642 100.192 68.7642 100.862C68.7642 101.197 69.1154 101.532 69.8181 101.532C70.5207 101.197 70.8721 100.862 70.5208 100.527Z" fill="#231F20"/>
<path opacity="0.31" d="M103.543 60.334C103.543 59.6641 102.841 59.3292 102.489 59.6641C101.787 59.6641 101.435 60.334 101.787 60.6689C101.787 61.3388 102.489 61.6738 102.841 61.3388C103.192 61.3388 103.543 61.0039 103.543 60.334Z" fill="#231F20"/>
<path opacity="0.34" d="M103.894 60.6695C103.894 59.9996 103.191 59.3297 102.488 59.3297C101.786 59.3297 101.083 59.9996 101.083 60.6695C101.083 61.3393 101.786 62.0092 102.488 62.0092C103.191 61.6743 103.542 61.3393 103.894 60.6695Z" fill="#231F20"/>
<path opacity="0.38" d="M111.622 140.718C111.622 139.714 110.92 139.044 109.866 139.044C108.812 139.044 108.109 139.714 108.109 140.718C108.109 141.723 108.812 142.393 109.866 142.393C110.568 142.393 111.622 141.723 111.622 140.718Z" fill="#231F20"/>
<path opacity="0.22" d="M149.212 137.704C149.212 137.369 148.861 137.034 148.51 137.034C148.158 137.034 147.807 137.369 147.807 137.704C147.807 138.039 148.158 138.374 148.51 138.374C149.212 138.709 149.564 138.374 149.212 137.704Z" fill="#231F20"/>
<path opacity="0.33" d="M150.266 137.704C150.266 136.7 149.212 136.365 148.509 136.365C147.455 136.365 147.104 137.37 147.104 138.039C147.104 139.044 148.158 139.379 148.861 139.379C149.915 139.379 150.266 138.374 150.266 137.704Z" fill="#231F20"/>
<path opacity="0.36" d="M104.246 60.6692C104.246 59.6644 103.543 58.9945 102.489 58.9945C101.436 58.9945 100.733 59.6644 100.733 60.6692C100.733 61.674 101.436 62.3439 102.489 62.3439C103.192 62.0089 104.246 61.3391 104.246 60.6692Z" fill="#231F20"/>
<path opacity="0.21" d="M103.894 60.6695C103.894 59.9996 103.191 59.3297 102.488 59.3297C101.786 59.3297 101.083 59.9996 101.083 60.6695C101.083 61.3393 101.786 62.0092 102.488 62.0092C103.191 62.0092 103.894 61.3393 103.894 60.6695Z" fill="#231F20"/>
<path opacity="0.27" d="M41.3629 46.602C41.3629 45.9321 41.0116 45.5972 40.309 45.5972C39.6064 45.5972 39.2551 45.9321 39.2551 46.602C39.2551 47.2718 39.6064 47.6068 40.309 47.6068C41.0116 47.6068 41.3629 46.9369 41.3629 46.602Z" fill="#231F20"/>
<path opacity="0.3" d="M182.937 176.556C182.937 175.886 182.586 175.552 181.883 175.552C181.18 175.552 180.829 175.886 180.829 176.556C180.829 177.226 181.18 177.561 181.883 177.561C182.586 177.561 182.937 176.891 182.937 176.556Z" fill="#231F20"/>
<path opacity="0.39" d="M149.563 137.705C149.563 137.035 148.861 136.7 148.51 136.7C147.807 136.7 147.456 137.37 147.456 137.705C147.456 138.375 148.158 138.709 148.51 138.709C149.212 138.709 149.915 138.375 149.563 137.705Z" fill="#231F20"/>
<path opacity="0.45" d="M182.937 176.556C182.937 175.886 182.586 175.552 181.883 175.552C181.18 175.552 180.829 175.886 180.829 176.556C180.829 177.226 181.18 177.561 181.883 177.561C182.586 177.561 182.937 176.891 182.937 176.556Z" fill="#231F20"/>
<path opacity="0.38" d="M183.639 176.557C183.639 175.552 183.288 174.882 182.234 174.547C181.18 174.547 180.478 174.882 180.126 175.887C180.126 176.892 180.477 177.561 181.531 177.896C182.585 178.231 183.639 177.561 183.639 176.557Z" fill="#231F20"/>
<path opacity="0.44" d="M140.078 194.308C140.078 193.973 139.375 193.639 139.024 193.639C138.673 193.639 138.321 194.308 138.321 194.643C138.321 194.978 139.024 195.313 139.375 195.313C140.078 195.313 140.078 194.643 140.078 194.308Z" fill="#231F20"/>
<path opacity="0.46" d="M80.0056 103.206C80.0056 102.871 79.6543 102.536 79.303 102.536C78.9517 102.536 78.6003 102.871 78.6003 103.206C78.6003 103.541 78.9517 103.876 79.303 103.876C79.6543 103.876 80.0056 103.541 80.0056 103.206Z" fill="#231F20"/>
<path opacity="0.45" d="M103.192 60.6686C103.192 60.3337 102.84 59.9988 102.489 59.9988C102.138 59.9988 101.786 60.3337 101.786 60.6686C101.786 61.0036 102.138 61.3385 102.489 61.3385C102.84 61.0036 103.192 61.0036 103.192 60.6686Z" fill="#231F20"/>
<path opacity="0.09" d="M82.1143 89.8088L132.702 92.1533L108.462 71.0524L82.1143 89.8088Z" fill="white" stroke="black" stroke-width="0.020362" stroke-miterlimit="10" stroke-linecap="round" stroke-linejoin="round"/>
<path opacity="0.23" d="M167.48 163.829L190.315 250.242L182.937 164.834L167.48 163.829Z" fill="white" stroke="black" stroke-width="0.020296" stroke-miterlimit="10" stroke-linecap="round" stroke-linejoin="round"/>
<path opacity="0.14" d="M-22.5741 188.279L7.98911 154.786L-40.4905 151.102L-22.5741 188.279Z" fill="white" stroke="black" stroke-width="0.020757" stroke-miterlimit="10" stroke-linecap="round" stroke-linejoin="round"/>
<path opacity="0.47" d="M94.4099 16.123L61.0361 -46.5098L72.9805 13.4435L94.4099 16.123Z" fill="white" stroke="black" stroke-width="0.020529" stroke-miterlimit="10" stroke-linecap="round" stroke-linejoin="round"/>
<path opacity="0.12" d="M227.904 39.2333L198.395 8.08435L166.075 56.315L227.904 39.2333Z" fill="white" stroke="black" stroke-width="0.020473" stroke-miterlimit="10" stroke-linecap="round" stroke-linejoin="round"/>
<path opacity="0.05" d="M121.108 125.311L121.811 150.097L189.963 48.2764L121.108 125.311Z" fill="white" stroke="black" stroke-width="0.019959" stroke-miterlimit="10" stroke-linecap="round" stroke-linejoin="round"/>
<path opacity="0.45" d="M108.462 64.3539L92.302 128.326L140.782 82.7753L108.462 64.3539Z" fill="white" stroke="black" stroke-width="0.020093" stroke-miterlimit="10" stroke-linecap="round" stroke-linejoin="round"/>
<path opacity="0.2" d="M55.7668 79.0908L123.919 88.8039L58.5773 38.8987L55.7668 79.0908Z" fill="white" stroke="black" stroke-width="0.019795" stroke-miterlimit="10" stroke-linecap="round" stroke-linejoin="round"/>
<path opacity="0.18" d="M43.471 124.642L81.4116 34.2096L34.3372 73.7318L43.471 124.642Z" fill="white" stroke="black" stroke-width="0.020243" stroke-miterlimit="10" stroke-linecap="round" stroke-linejoin="round"/>
<path opacity="0.35" d="M66.3055 141.389L27.3112 136.03L25.5547 198.997L66.3055 141.389Z" fill="white" stroke="black" stroke-width="0.020293" stroke-miterlimit="10" stroke-linecap="round" stroke-linejoin="round"/>
<path opacity="0.2" d="M113.029 20.8123L68.0623 56.3153L73.6831 93.828L113.029 20.8123Z" fill="white" stroke="black" stroke-width="0.01961" stroke-miterlimit="10" stroke-linecap="round" stroke-linejoin="round"/>
</g>
<g clip-path="url(#clip2)">
<path opacity="0.46" d="M1249.12 54.0394C1249.77 54.2173 1250.28 53.6289 1250.37 53.2902C1250.56 52.6128 1250 52.0962 1249.68 52.0073C1249.03 51.8294 1248.52 52.4178 1248.43 52.7565C1247.92 53.3449 1248.47 53.8615 1249.12 54.0394Z" fill="#231F20"/>
<path opacity="0.48" d="M1215.44 190.153C1216.09 190.331 1216.92 189.832 1217.2 188.816C1217.39 188.138 1216.93 187.283 1215.96 187.016C1215.31 186.838 1214.48 187.338 1214.2 188.354C1214.34 189.12 1214.8 189.975 1215.44 190.153Z" fill="#231F20"/>
<path opacity="0.23" d="M1273.64 52.0494C1274.29 52.2273 1274.8 51.6389 1274.98 50.9615C1275.17 50.2841 1274.62 49.7675 1273.97 49.5896C1273.32 49.4117 1272.82 50.0001 1272.63 50.6775C1272.44 51.3549 1272.99 51.8715 1273.64 52.0494Z" fill="#231F20"/>
<path opacity="0.44" d="M1004.88 46.512C1005.52 46.69 1006.36 46.1905 1006.54 45.5131C1006.73 44.8357 1006.27 43.9804 1005.62 43.8025C1004.98 43.6246 1004.15 44.124 1003.96 44.8014C1003.45 45.3898 1003.91 46.2451 1004.88 46.512Z" fill="#231F20"/>
<path opacity="0.49" d="M1228.22 146.302C1228.54 146.391 1229.28 146.23 1229.37 145.891C1229.47 145.553 1229.33 144.786 1229.01 144.697C1228.69 144.608 1227.95 144.769 1227.85 145.108C1227.76 145.447 1227.99 145.874 1228.22 146.302Z" fill="#231F20"/>
<path opacity="0.44" d="M1308.4 69.642C1309.04 69.8199 1309.55 69.2315 1309.74 68.5542C1309.93 67.8768 1309.37 67.3602 1308.73 67.1822C1308.08 67.0043 1307.57 67.5927 1307.39 68.2701C1307.2 68.9475 1307.75 69.4641 1308.4 69.642Z" fill="#231F20"/>
<path opacity="0.46" d="M1095.29 137.009C1096.35 136.937 1096.86 136.349 1097.14 135.333C1097.42 134.317 1096.54 133.711 1095.58 133.444C1094.51 133.516 1094 134.105 1093.72 135.121C1093.44 136.137 1094.23 137.081 1095.29 137.009Z" fill="#231F20"/>
<path opacity="0.37" d="M1236.07 129.152C1236.72 129.33 1237.55 128.831 1237.74 128.153C1237.92 127.476 1237.46 126.621 1236.82 126.443C1236.17 126.265 1235.34 126.764 1235.15 127.442C1234.97 128.119 1235.42 128.974 1236.07 129.152Z" fill="#231F20"/>
<path opacity="0.37" d="M1096.53 185.451C1097.18 185.629 1097.92 185.469 1098.43 184.88C1098.61 184.203 1098.48 183.436 1097.93 182.92C1097.28 182.742 1096.54 182.903 1096.03 183.491C1095.84 184.168 1095.98 184.935 1096.53 185.451Z" fill="#231F20"/>
<path opacity="0.44" d="M1279.52 192.136C1279.84 192.225 1280.25 191.976 1280.35 191.637C1280.44 191.298 1280.21 190.871 1279.89 190.782C1279.57 190.693 1279.15 190.942 1279.06 191.281C1278.64 191.531 1279.19 192.047 1279.52 192.136Z" fill="#231F20"/>
<path opacity="0.23" d="M1165.05 88.0866C1165.69 88.2646 1166.43 88.1038 1166.62 87.4264C1166.8 86.749 1166.67 85.9827 1166.02 85.8048C1165.38 85.6268 1164.64 85.7876 1164.45 86.465C1163.85 87.3921 1164.4 87.9087 1165.05 88.0866Z" fill="#231F20"/>
<path opacity="0.31" d="M1260.4 111.442C1261.05 111.62 1261.88 111.121 1261.75 110.354C1261.93 109.677 1261.47 108.822 1260.73 108.982C1260.09 108.804 1259.26 109.304 1259.39 110.07C1258.88 110.659 1259.44 111.175 1260.4 111.442Z" fill="#231F20"/>
<path opacity="0.4" d="M1193.83 47.9175C1194.8 48.1844 1195.73 47.3463 1195.91 46.6689C1196.19 45.6528 1195.41 44.7086 1194.76 44.5307C1193.8 44.2638 1192.87 45.1019 1192.68 45.7793C1192.08 46.7064 1192.86 47.6506 1193.83 47.9175Z" fill="#231F20"/>
<path opacity="0.43" d="M1271.19 180.734C1271.52 180.823 1271.93 180.573 1272.02 180.234C1272.12 179.896 1271.89 179.468 1271.57 179.379C1271.24 179.29 1270.83 179.54 1270.73 179.879C1270.64 180.217 1270.87 180.645 1271.19 180.734Z" fill="#231F20"/>
<path opacity="0.44" d="M1271.46 105.377C1272.52 105.305 1273.03 104.717 1272.98 103.612C1272.94 102.507 1272.39 101.99 1271.33 102.062C1270.26 102.134 1269.75 102.722 1269.8 103.827C1269.93 104.593 1270.72 105.538 1271.46 105.377Z" fill="#231F20"/>
<path opacity="0.22" d="M1143.14 160.032C1144.11 160.299 1144.94 159.799 1145.13 159.122C1145.41 158.106 1144.95 157.25 1144.3 157.072C1143.34 156.806 1142.5 157.305 1142.32 157.982C1142.13 158.66 1142.5 159.854 1143.14 160.032Z" fill="#231F20"/>
<path opacity="0.29" d="M1175.38 74.5367C1175.7 74.6256 1176.12 74.3759 1176.31 73.6985C1176.4 73.3598 1176.17 72.9322 1175.52 72.7542C1175.2 72.6653 1174.79 72.915 1174.6 73.5924C1174.51 73.9311 1174.73 74.3588 1175.38 74.5367Z" fill="#231F20"/>
<path opacity="0.41" d="M1268.85 158.954C1269.92 158.882 1270.43 158.294 1270.71 157.278C1270.66 156.173 1270.11 155.656 1269.14 155.389C1268.08 155.461 1267.57 156.05 1267.29 157.066C1267.33 158.171 1267.89 158.687 1268.85 158.954Z" fill="#231F20"/>
<path opacity="0.38" d="M1243.55 31.3717C1243.88 31.4607 1244.39 30.8723 1244.48 30.5336C1244.57 30.1949 1244.02 29.6783 1243.7 29.5893C1243.37 29.5004 1242.86 30.0888 1242.77 30.4275C1242.68 30.7662 1242.91 31.1938 1243.55 31.3717Z" fill="#231F20"/>
<path opacity="0.46" d="M1291.26 105.368C1291.58 105.456 1292 105.207 1292.09 104.868C1292.19 104.529 1291.96 104.102 1291.63 104.013C1291.31 103.924 1290.89 104.174 1290.8 104.512C1290.71 104.851 1290.94 105.279 1291.26 105.368Z" fill="#231F20"/>
<path opacity="0.3" d="M1203.83 181.853C1204.16 181.942 1204.57 181.692 1204.67 181.354C1204.76 181.015 1204.53 180.587 1204.21 180.498C1203.88 180.41 1203.47 180.659 1203.37 180.998C1203.28 181.337 1203.51 181.764 1203.83 181.853Z" fill="#231F20"/>
<path opacity="0.31" d="M1316.68 175.774C1317.65 176.041 1318.57 175.203 1318.76 174.525C1319.04 173.509 1318.26 172.565 1317.61 172.387C1316.64 172.12 1315.72 172.958 1315.53 173.636C1315.25 174.652 1315.71 175.507 1316.68 175.774Z" fill="#231F20"/>
<path opacity="0.22" d="M1281.66 41.8688C1282.3 42.0467 1282.81 41.4583 1283 40.781C1283.18 40.1036 1282.63 39.587 1281.99 39.409C1281.34 39.2311 1280.83 39.8195 1280.64 40.4969C1280.87 40.9246 1281.33 41.7798 1281.66 41.8688Z" fill="#231F20"/>
<path opacity="0.21" d="M1269.07 148.082C1269.39 148.171 1269.81 147.921 1269.58 147.494C1269.67 147.155 1269.44 146.728 1269.03 146.977C1268.7 146.888 1268.29 147.138 1268.52 147.566C1268.42 147.904 1268.75 147.993 1269.07 148.082Z" fill="#231F20"/>
<path opacity="0.28" d="M1232.51 193.763C1233.25 193.602 1233.67 193.352 1233.53 192.586C1233.4 191.82 1233.17 191.392 1232.43 191.553C1231.69 191.714 1231.27 191.963 1231.41 192.73C1231.22 193.407 1231.77 193.924 1232.51 193.763Z" fill="#231F20"/>
<path opacity="0.48" d="M1053.37 184.492C1054.02 184.67 1054.53 184.082 1054.71 183.404C1054.9 182.727 1054.35 182.21 1053.7 182.032C1053.05 181.854 1052.55 182.443 1052.36 183.12C1052.17 183.798 1052.72 184.314 1053.37 184.492Z" fill="#231F20"/>
<path opacity="0.24" d="M1242.32 169.5C1242.65 169.589 1243.06 169.34 1242.83 168.912C1242.93 168.573 1242.7 168.146 1242.28 168.395C1241.96 168.306 1241.54 168.556 1241.77 168.984C1242 169.411 1242.32 169.5 1242.32 169.5Z" fill="#231F20"/>
<path opacity="0.45" d="M1217.3 73.6966C1217.95 73.8745 1218.36 73.6248 1218.55 72.9474C1218.74 72.2701 1218.51 71.8424 1217.86 71.6645C1217.22 71.4866 1216.8 71.7363 1216.61 72.4137C1216.43 73.091 1216.66 73.5187 1217.3 73.6966Z" fill="#231F20"/>
<path opacity="0.35" d="M1274.01 146.529C1274.98 146.796 1275.91 145.958 1276.19 144.942C1276.47 143.926 1275.69 142.982 1274.72 142.715C1273.75 142.448 1272.82 143.286 1272.54 144.302C1272.26 145.318 1273.05 146.262 1274.01 146.529Z" fill="#231F20"/>
<path opacity="0.21" d="M1288.86 136.773C1289.18 136.862 1289.92 136.701 1290.11 136.024C1290.2 135.685 1290.07 134.919 1289.42 134.741C1289.1 134.652 1288.36 134.813 1288.17 135.49C1287.99 136.168 1288.54 136.684 1288.86 136.773Z" fill="#231F20"/>
<path opacity="0.35" d="M1132.99 60.6728C1133.32 60.7617 1133.83 60.1733 1133.92 59.8346C1134.01 59.4959 1133.46 58.9793 1133.14 58.8903C1132.81 58.8014 1132.3 59.3898 1132.21 59.7285C1132.44 60.1562 1132.67 60.5838 1132.99 60.6728Z" fill="#231F20"/>
<path opacity="0.33" d="M1249.9 41.135C1250.63 40.9743 1251.47 40.4748 1251.33 39.7085C1251.19 38.9421 1250.74 38.0868 1250 38.2476C1249.26 38.4084 1248.42 38.9078 1248.56 39.6742C1248.37 40.3515 1248.93 40.8682 1249.9 41.135Z" fill="#231F20"/>
<path opacity="0.32" d="M1315.5 137.188C1315.82 137.277 1316.24 137.027 1316.33 136.688C1316.42 136.35 1316.19 135.922 1315.87 135.833C1315.55 135.744 1315.13 135.994 1315.04 136.332C1314.95 136.671 1315.18 137.099 1315.5 137.188Z" fill="#231F20"/>
<path opacity="0.41" d="M1301.57 52.8203C1302.21 52.9982 1302.63 52.7485 1302.82 52.0711C1303 51.3937 1302.77 50.9661 1302.13 50.7882C1301.48 50.6103 1301.07 50.86 1300.88 51.5374C1300.69 52.2147 1300.92 52.6424 1301.57 52.8203Z" fill="#231F20"/>
<path opacity="0.42" d="M1286.43 194.77C1286.76 194.859 1287.5 194.698 1287.59 194.36C1287.68 194.021 1287.55 193.255 1287.22 193.166C1286.9 193.077 1286.16 193.237 1286.07 193.576C1285.88 194.254 1286.11 194.681 1286.43 194.77Z" fill="#231F20"/>
<path opacity="0.35" d="M1206.59 107.547C1207.33 107.386 1208.16 106.887 1208.02 106.121C1207.89 105.354 1207.43 104.499 1206.69 104.66C1205.95 104.821 1205.12 105.32 1205.25 106.086C1205.39 106.853 1205.85 107.708 1206.59 107.547Z" fill="#231F20"/>
<path opacity="0.34" d="M1210.41 189.496C1211.06 189.674 1211.89 189.175 1211.85 188.07C1212.03 187.392 1211.58 186.537 1210.51 186.609C1209.87 186.431 1209.04 186.93 1209.08 188.035C1209.21 188.802 1209.77 189.318 1210.41 189.496Z" fill="#231F20"/>
<path opacity="0.22" d="M1273.84 62.6715C1274.49 62.8494 1275 62.261 1275.18 61.5836C1275.37 60.9063 1274.82 60.3897 1274.17 60.2118C1273.52 60.0339 1273.02 60.6222 1272.83 61.2996C1272.55 62.3156 1273.1 62.8322 1273.84 62.6715Z" fill="#231F20"/>
<path opacity="0.45" d="M1296.92 176.889C1297.24 176.978 1297.66 176.729 1297.75 176.39C1297.84 176.051 1297.61 175.624 1297.29 175.535C1296.97 175.446 1296.55 175.695 1296.46 176.034C1296.04 176.284 1296.27 176.711 1296.92 176.889Z" fill="#231F20"/>
<path opacity="0.5" d="M1237.51 157.972C1238.16 158.15 1238.9 157.989 1239.08 157.312C1239.27 156.634 1239.13 155.868 1238.49 155.69C1237.84 155.512 1237.1 155.673 1236.91 156.35C1236.73 157.028 1236.86 157.794 1237.51 157.972Z" fill="#231F20"/>
<path opacity="0.29" d="M1120.59 168.758C1121.23 168.935 1122.07 168.436 1122.25 167.759C1122.44 167.081 1121.98 166.226 1121.33 166.048C1120.69 165.87 1119.86 166.37 1119.67 167.047C1119.48 167.724 1119.94 168.58 1120.59 168.758Z" fill="#231F20"/>
<path opacity="0.38" d="M1153.43 128.978C1154.4 129.245 1155 128.318 1155.19 127.641C1155.47 126.624 1154.6 126.019 1153.95 125.841C1152.98 125.574 1152.38 126.501 1152.19 127.179C1152.01 127.856 1152.46 128.711 1153.43 128.978Z" fill="#231F20"/>
<path opacity="0.39" d="M1157.32 174.14C1157.97 174.318 1158.89 173.48 1159.08 172.803C1159.27 172.125 1158.48 171.181 1157.84 171.003C1157.19 170.825 1156.27 171.664 1156.08 172.341C1155.8 173.357 1156.67 173.963 1157.32 174.14Z" fill="#231F20"/>
<path opacity="0.45" d="M1176.38 160.443C1177.03 160.621 1177.44 160.371 1177.63 159.694C1177.81 159.017 1177.59 158.589 1176.94 158.411C1176.29 158.233 1175.88 158.483 1175.69 159.16C1175.6 159.499 1175.73 160.265 1176.38 160.443Z" fill="#231F20"/>
<path opacity="0.36" d="M1216.64 15.5752C1217.28 15.7531 1217.7 15.5034 1217.89 14.826C1218.07 14.1486 1217.84 13.721 1217.2 13.5431C1216.55 13.3651 1216.14 13.6149 1215.95 14.2922C1216.09 15.0586 1216.31 15.4862 1216.64 15.5752Z" fill="#231F20"/>
<path opacity="0.3" d="M1170.85 108.634C1171.17 108.723 1171.68 108.134 1171.78 107.796C1171.87 107.457 1171.32 106.94 1170.99 106.851C1170.67 106.762 1170.16 107.351 1170.07 107.69C1169.98 108.028 1170.53 108.545 1170.85 108.634Z" fill="#231F20"/>
<path opacity="0.43" d="M1216.96 15.6643C1217.28 15.7533 1217.79 15.1649 1217.89 14.8262C1217.98 14.4875 1217.43 13.9709 1217.1 13.8819C1216.78 13.793 1216.27 14.3814 1216.18 14.7201C1215.99 15.3975 1216.64 15.5754 1216.96 15.6643Z" fill="#231F20"/>
<path opacity="0.34" d="M1255.35 85.6367C1255.68 85.7257 1256.09 85.476 1255.86 85.0483C1255.96 84.7096 1255.73 84.282 1255.31 84.5317C1254.99 84.4427 1254.57 84.6924 1254.8 85.1201C1254.8 85.1201 1255.03 85.5477 1255.35 85.6367Z" fill="#231F20"/>
<path opacity="0.28" d="M1216.54 15.9139C1217.19 16.0918 1217.93 15.931 1218.12 15.2536C1218.3 14.5763 1218.17 13.81 1217.52 13.6321C1216.87 13.4541 1216.14 13.6149 1215.95 14.2923C1215.76 14.9696 1215.9 15.736 1216.54 15.9139Z" fill="#231F20"/>
<path opacity="0.44" d="M1209.38 99.935C1209.7 100.024 1209.79 99.6853 1209.89 99.3466C1209.98 99.0079 1209.66 98.919 1209.33 98.83C1209.01 98.7411 1208.92 99.0798 1208.82 99.4184C1208.73 99.7571 1209.05 99.8461 1209.38 99.935Z" fill="#231F20"/>
<path opacity="0.27" d="M1261.98 45.193C1262.3 45.282 1262.4 44.9433 1262.49 44.6046C1262.58 44.2659 1262.26 44.1769 1261.94 44.0879C1261.61 43.999 1261.52 44.3377 1261.43 44.6764C1261.33 45.0151 1261.66 45.104 1261.98 45.193Z" fill="#231F20"/>
<path opacity="0.5" d="M1216.96 15.6643C1217.28 15.7533 1217.7 15.5035 1217.89 14.8262C1217.98 14.4875 1217.75 14.0598 1217.1 13.8819C1216.78 13.793 1216.37 14.0427 1216.18 14.7201C1216.09 15.0588 1216.64 15.5754 1216.96 15.6643Z" fill="#231F20"/>
<path opacity="0.31" d="M1216.64 15.5754C1216.96 15.6643 1217.38 15.4146 1217.79 15.1649C1217.89 14.8262 1217.66 14.3985 1217.43 13.9709C1217.1 13.8819 1216.69 14.1317 1216.27 14.3814C1216.18 14.7201 1216.31 15.4864 1216.64 15.5754Z" fill="#231F20"/>
<path opacity="0.24" d="M1270.33 46.4008C1271.3 46.6677 1271.9 45.7406 1272.09 45.0632C1272.37 44.0472 1271.49 43.4416 1270.85 43.2637C1269.88 42.9968 1269.28 43.9239 1269.09 44.6013C1268.9 45.2786 1269.69 46.2229 1270.33 46.4008Z" fill="#231F20"/>
<path opacity="0.36" d="M1291.84 -0.145264C1292.16 -0.0563 1292.58 -0.306024 1292.67 -0.644693C1292.77 -0.983362 1292.54 -1.41098 1292.21 -1.49995C1291.89 -1.58891 1291.48 -1.33922 1291.38 -1.00055C1291.29 -0.66188 1291.52 -0.234227 1291.84 -0.145264Z" fill="#231F20"/>
<path opacity="0.49" d="M1077.14 105.774C1077.88 105.613 1077.97 105.275 1078.16 104.598C1078.02 103.831 1077.7 103.742 1077.06 103.564C1076.32 103.725 1076.22 104.064 1076.04 104.741C1076.17 105.507 1076.73 106.024 1077.14 105.774Z" fill="#231F20"/>
<path opacity="0.42" d="M1216.68 16.6805C1217.33 16.8584 1217.51 16.1811 1217.7 15.5038C1217.89 14.8264 1217.24 14.6485 1216.59 14.4706C1215.95 14.2927 1215.76 14.97 1215.58 15.6474C1215.71 16.4137 1215.94 16.8413 1216.68 16.6805Z" fill="#231F20"/>
<path opacity="0.25" d="M1076.63 106.362C1077.28 106.54 1078.34 106.469 1078.62 105.453C1078.81 104.775 1078.76 103.67 1077.8 103.403C1077.15 103.225 1076.09 103.297 1075.81 104.313C1075.53 105.329 1075.99 106.185 1076.63 106.362Z" fill="#231F20"/>
<path opacity="0.32" d="M1131.13 130.487C1132.1 130.753 1132.7 129.826 1132.89 129.149C1133.17 128.133 1132.29 127.527 1131.65 127.349C1130.68 127.083 1130.08 128.01 1129.89 128.687C1129.61 129.703 1130.39 130.647 1131.13 130.487Z" fill="#231F20"/>
<path opacity="0.2" d="M1077.05 106.113C1077.69 106.291 1078.2 105.703 1078.39 105.025C1078.58 104.348 1078.02 103.831 1077.38 103.653C1076.73 103.475 1076.22 104.064 1076.04 104.741C1076.17 105.507 1076.4 105.935 1077.05 106.113Z" fill="#231F20"/>
<path opacity="0.44" d="M1177.53 96.9918C1177.85 97.0808 1178.27 96.8311 1178.36 96.4924C1178.46 96.1537 1178.23 95.7261 1177.91 95.6372C1177.58 95.5482 1177.17 95.7979 1177.07 96.1366C1176.98 96.4753 1177.21 96.9029 1177.53 96.9918Z" fill="#231F20"/>
<path opacity="0.25" d="M1238.56 195.792L1226.06 159.19L1173.81 171.032L1238.56 195.792Z" fill="white" stroke="black" stroke-width="0.020763" stroke-miterlimit="10" stroke-linecap="round" stroke-linejoin="round"/>
<path opacity="0.45" d="M1353.52 -15.9474L1272.78 -33.0898L1213.99 -25.237L1353.52 -15.9474Z" fill="white" stroke="black" stroke-width="0.019305" stroke-miterlimit="10" stroke-linecap="round" stroke-linejoin="round"/>
<path opacity="0.22" d="M1232.67 74.6518L1164.59 -8.60247L1237.36 99.2632L1232.67 74.6518Z" fill="white" stroke="black" stroke-width="0.020282" stroke-miterlimit="10" stroke-linecap="round" stroke-linejoin="round"/>
<path opacity="0.14" d="M1323.18 162.261L1347.35 200.623L1363.78 154.863L1323.18 162.261Z" fill="white" stroke="black" stroke-width="0.020757" stroke-miterlimit="10" stroke-linecap="round" stroke-linejoin="round"/>
<path opacity="0.19" d="M1229.07 157.103L1195.96 157.458L1230 233.154L1229.07 157.103Z" fill="white" stroke="black" stroke-width="0.019748" stroke-miterlimit="10" stroke-linecap="round" stroke-linejoin="round"/>
<path opacity="0.11" d="M1177.25 65.2149L1205.36 -44.3749L1169.5 16.4369L1177.25 65.2149Z" fill="white" stroke="black" stroke-width="0.019961" stroke-miterlimit="10" stroke-linecap="round" stroke-linejoin="round"/>
<path opacity="0.19" d="M1325.85 3.76025L1300.14 5.05596L1288.31 87.0656L1325.85 3.76025Z" fill="white" stroke="black" stroke-width="0.01961" stroke-miterlimit="10" stroke-linecap="round" stroke-linejoin="round"/>
<path opacity="0.07" d="M1316.96 46.1298L1317.56 94.3944L1411.01 123.419L1316.96 46.1298Z" fill="white" stroke="black" stroke-width="0.020856" stroke-miterlimit="10" stroke-linecap="round" stroke-linejoin="round"/>
<path opacity="0.05" d="M1276.77 135.264L1279.7 62.83L1229.88 178.098L1276.77 135.264Z" fill="white" stroke="black" stroke-width="0.020954" stroke-miterlimit="10" stroke-linecap="round" stroke-linejoin="round"/>
<path opacity="0.15" d="M1219.62 86.7241L1166.84 153.444L1221.66 114.616L1219.62 86.7241Z" fill="white" stroke="black" stroke-width="0.019508" stroke-miterlimit="10" stroke-linecap="round" stroke-linejoin="round"/>
<path opacity="0.34" d="M1279.53 -21.0272L1264.56 29.5084L1313 -20.1879L1279.53 -21.0272Z" fill="white" stroke="black" stroke-width="0.019732" stroke-miterlimit="10" stroke-linecap="round" stroke-linejoin="round"/>
<path opacity="0.47" d="M1215.94 211.06L1260.76 229.966L1228.98 187.687L1215.94 211.06Z" fill="white" stroke="black" stroke-width="0.020822" stroke-miterlimit="10" stroke-linecap="round" stroke-linejoin="round"/>
</g>
<g clip-path="url(#clip3)">
<path d="M278.999 199.862C172.013 193.66 86.2169 80.8764 143.144 15.42C187.295 -35.3452 246.167 38.5454 301.073 1.31933C385.545 -55.9527 522.4 -66.3652 540.514 5.82994C558.628 78.0287 498.625 190.837 453.907 197.605C409.19 204.376 278.999 199.862 278.999 199.862Z" fill="white" fill-opacity="0.36"/>
<path d="M292.866 47.0092C293.996 74.0838 293.716 88.7496 283.809 100.028C273.904 111.31 246.166 108.488 246.166 108.488C246.166 108.488 243.432 148.348 204.655 150.04C165.882 151.731 160.315 100.405 190.693 87.2424C219.61 74.7141 228.808 71.073 238.807 40.0495C247.944 11.7105 276.449 17.1124 283.241 28.9559C290.033 40.8031 292.866 47.0092 292.866 47.0092Z" fill="#595959"/>
<path d="M280.129 185.201C280.129 185.201 298.432 188.773 299.374 188.584C300.315 188.396 320.316 179.56 322.393 180.875C324.469 182.19 336.543 187.266 339.187 188.396C341.83 189.523 337.678 189.9 335.602 189.9C333.526 189.9 321.64 185.012 320.316 185.951C318.997 186.893 330.693 188.769 330.693 189.523C330.693 190.276 299.37 197.421 297.483 197.421C295.596 197.421 281.067 196.106 281.067 196.106L280.129 185.201Z" fill="#E7E7E7"/>
<path d="M264.938 85.5975C274.799 87.525 280.598 97.9229 282.485 107.027C284.376 116.132 264.938 85.5975 264.938 85.5975Z" fill="#6791C9"/>
<path d="M248.431 78.5943C248.431 78.5943 229.47 91.2856 219.278 97.4881C209.091 103.691 222.958 170.531 226.354 195.348C229.75 220.166 288.619 197.606 288.619 197.606C288.619 197.606 284.655 176.737 289.749 143.174C293.4 119.135 280.031 104.067 272.392 93.6333C253.107 67.2978 248.431 78.5943 248.431 78.5943Z" fill="#E30510"/>
<path d="M229.75 97.7708C251.544 124.28 258.91 129.236 253.525 147.123C249.278 161.224 247.864 166.299 247.017 171.096C246.166 175.889 287.492 167.995 287.492 167.995L287.208 183.505C287.208 183.505 254.659 199.015 238.811 202.12C222.962 205.221 213.054 201.555 213.054 201.555L229.75 97.7708Z" fill="#C8020B"/>
<path d="M502.649 203.953H244.799C242.937 203.953 241.428 202.45 241.428 200.595C241.428 198.74 242.937 197.236 244.799 197.236H502.649C504.511 197.236 506.02 198.74 506.02 200.595C506.02 202.45 504.511 203.953 502.649 203.953Z" fill="#474747"/>
<path d="M255.412 51.8966L245.599 80.8514C245.599 80.8514 256.354 109.901 265.411 103.412C268.501 101.198 264.28 83.6701 264.28 83.6701L270.883 60.1679L255.412 51.8966Z" fill="#F0F0F0"/>
<path d="M224.089 96.6439C210.542 98.1439 209.371 116.386 203.146 146.844C196.922 177.302 198.791 197.406 201.732 201.276C208.807 210.583 288.339 178.15 298.243 178.433C305.079 178.628 299.374 167.151 299.374 167.151L223.522 178.715C223.522 178.715 234.277 143.464 234.277 125.414C234.277 107.361 229.183 96.0788 224.089 96.6439Z" fill="#F0F0F0"/>
<path d="M294.564 167.712C302.49 165.738 314.092 161.227 316.357 163.198C318.622 165.173 327.963 179.273 331.075 183.222C334.187 187.171 329.661 184.07 326.265 180.965C322.869 177.864 320.037 176.172 320.037 176.172C320.037 176.172 315.79 180.121 311.83 182.378C307.867 184.635 306.453 180.121 299.661 178.994C292.869 177.868 275.886 183.788 275.886 183.788L294.564 167.712Z" fill="#F0F0F0"/>
<path d="M225.598 94.3869C217.297 94.7637 210.88 101.72 208.615 112.437C206.35 123.153 199.747 157.184 199.747 157.184C199.747 157.184 198.427 158.122 212.2 160.568C225.972 163.013 237.295 160.191 237.295 160.191C237.295 160.191 240.123 140.826 239.371 127.476C238.614 114.125 235.597 101.528 230.692 97.2056C225.787 92.8833 225.598 94.3869 225.598 94.3869Z" fill="#E30510"/>
<path d="M264.28 83.6701L270.883 60.1679L255.412 51.8966L253.049 58.8708C252.536 82.2209 258.535 90.0285 262.582 92.8834C263.844 93.7746 264.931 93.0863 265.844 91.6298C265.178 87.3982 264.28 83.6701 264.28 83.6701Z" fill="#E7E7E7"/>
<path d="M295.694 54.6211C295.694 67.2001 294.189 82.6231 283.241 82.2608C266.258 81.6956 255.558 68.5442 255.558 55.9652C255.558 43.3862 264.436 33.1912 275.388 33.1912C286.343 33.1875 295.694 42.0457 295.694 54.6211Z" fill="#F0F0F0"/>
<path d="M422.427 197.225H358.766L384.952 139.823C385.715 138.149 387.391 137.073 389.239 137.073H447.013C448.351 137.073 449.238 138.449 448.685 139.663L422.427 197.225Z" fill="#DBDBDB"/>
<path d="M422.289 197.225H304.846C304.846 193.149 308.162 189.842 312.256 189.842H422.289V197.225Z" fill="#DBDBDB"/>
<path d="M447.013 137.073H396.099C394.252 137.073 392.576 138.149 391.813 139.823L365.627 197.225H422.427L448.685 139.663C449.238 138.449 448.347 137.073 447.013 137.073Z" fill="#BCBCBC"/>
<path d="M277.016 28.8182C289.044 27.9704 296.167 38.9226 298.243 48.5127C299.741 55.4326 298.999 56.7839 298.999 56.7839C298.999 56.7839 297.679 58.6643 288.244 59.2294C278.809 59.7946 277.678 59.6062 277.678 59.6062L277.111 48.7011L274.282 59.2294C274.282 59.2294 272.773 61.2982 266.923 58.4759C261.073 55.6572 258.433 46.2556 258.433 46.2556C258.433 46.2556 257.114 40.0494 261.64 35.9156C266.167 31.7781 277.016 28.8182 277.016 28.8182Z" fill="#595959"/>
<path d="M268.065 57.1101C266.912 64.7184 260.815 70.1093 254.452 69.1529C248.089 68.1928 243.865 61.2512 245.017 53.6429C246.17 46.0346 252.267 40.6437 258.63 41.6037C264.996 42.5566 269.221 49.5018 268.065 57.1101Z" fill="#E30510"/>
<path d="M263.469 56.9072C262.4 63.9502 257.397 69.0405 252.292 68.2725C247.188 67.5044 243.915 61.1714 244.984 54.1247C246.053 47.078 251.056 41.9914 256.161 42.7594C261.266 43.5275 264.538 49.8605 263.469 56.9072Z" fill="#F39892"/>
<path d="M255.67 55.3312C255.085 59.2005 252.969 62.0917 250.944 61.7873C248.918 61.483 247.755 58.0992 248.344 54.2262C248.929 50.3568 251.045 47.4657 253.071 47.77C255.092 48.078 256.256 51.4618 255.67 55.3312Z" fill="white"/>
<path d="M255.365 41.792C260.884 21.344 279.936 24.3257 284.754 27.1733C288.811 29.5717 289.375 32.9556 289.375 32.9556C289.375 32.9556 284.139 28.724 275.224 30.2746C266.763 31.7455 261.731 36.7126 261.026 42.2123C260.662 45.0165 255.365 41.792 255.365 41.792Z" fill="#E30510"/>
<path d="M170.692 107.796C170.678 107.796 170.663 107.796 170.649 107.792C170.409 107.77 170.234 107.556 170.256 107.317C170.75 102.147 173.346 96.8324 177.557 92.3508C182.32 87.2859 189.101 83.2933 197.165 80.808C215.13 75.2721 230.804 68.2326 240.654 38.0351C240.73 37.8068 240.974 37.6836 241.203 37.7561C241.432 37.8322 241.559 38.0749 241.483 38.3032C236.956 52.1828 230.797 62.2873 222.649 69.1927C215.461 75.2865 207.368 78.5762 197.423 81.6376C189.504 84.0795 182.854 87.9887 178.197 92.945C174.114 97.2853 171.605 102.419 171.125 107.401C171.103 107.629 170.914 107.796 170.692 107.796Z" fill="#595959"/>
<path d="M178.804 86.9272C178.673 86.9272 178.546 86.8692 178.459 86.7569C178.31 86.5685 178.346 86.2932 178.535 86.1483C178.611 86.0903 186.287 80.2319 197.387 77.7937C218.697 73.1164 233.004 60.3454 238.76 40.8682C238.829 40.6364 239.069 40.5059 239.302 40.5748C239.534 40.6436 239.665 40.8827 239.596 41.1146C236.04 53.1465 229.35 62.6423 219.708 69.3376C213.501 73.649 206.051 76.7792 197.569 78.6414C186.668 81.0362 179.138 86.775 179.062 86.833C178.993 86.8946 178.899 86.9272 178.804 86.9272Z" fill="#595959"/>
<path d="M452.027 80.6849H394.55C394.012 80.6849 393.732 80.2501 393.929 79.7139L405.589 47.7954C405.785 47.2592 406.382 46.8245 406.92 46.8245H464.4C464.938 46.8245 465.218 47.2592 465.021 47.7954L453.361 79.7139C453.161 80.2465 452.568 80.6849 452.027 80.6849Z" fill="#E30510"/>
<path d="M451.332 79.1921H396.332C395.83 79.1921 395.569 78.7864 395.754 78.2864L406.371 49.2228C406.553 48.7229 407.109 48.3135 407.614 48.3135H462.614C463.116 48.3135 463.378 48.7193 463.193 49.2228L452.576 78.2864C452.394 78.7864 451.838 79.1921 451.332 79.1921Z" fill="white"/>
<path d="M450.343 77.2973H398.706C398.139 77.2973 397.848 76.8408 398.056 76.2756L407.207 51.2227C407.414 50.6575 408.04 50.201 408.603 50.201H460.237C460.804 50.201 461.095 50.6575 460.887 51.2227L451.736 76.2756C451.532 76.8408 450.907 77.2973 450.343 77.2973Z" fill="#E30510"/>
<path d="M434.518 69.7721C439.313 65.7851 440.942 59.8567 438.157 56.5306C435.371 53.2045 429.226 53.7402 424.431 57.7272C419.636 61.7142 418.007 67.6426 420.793 70.9687C423.578 74.2948 429.723 73.7591 434.518 69.7721Z" fill="white"/>
<path d="M437.596 63.7511C435.963 68.2218 431 71.8448 426.514 71.8448C422.027 71.8448 419.715 68.2218 421.347 63.7511C422.98 59.2803 427.943 55.6573 432.429 55.6573C436.916 55.6573 439.228 59.2803 437.596 63.7511Z" fill="#E30510"/>
<path d="M433.636 63.3199L430.04 65.0263L426.448 66.7364L427.695 63.3199L428.942 59.9034L431.291 61.6099L433.636 63.3199Z" fill="white"/>
<path d="M365.02 44.7739H360.489C359.559 44.7739 358.755 44.3899 358.282 43.716C357.781 43.0023 357.697 42.0386 358.05 41.0712L359.697 36.557C360.333 34.8144 362.22 33.4485 363.991 33.4485H368.518C369.448 33.4485 370.252 33.8361 370.725 34.5064C371.226 35.2201 371.31 36.1838 370.957 37.1512L369.31 41.6618C368.677 43.4081 366.79 44.7739 365.02 44.7739ZM363.994 35.1875C362.962 35.1875 361.722 36.1078 361.34 37.1548L359.693 41.669C359.537 42.0965 359.544 42.4806 359.715 42.7233C359.9 42.9842 360.239 43.0421 360.493 43.0421H365.023C366.074 43.0421 367.289 42.14 367.678 41.0749L369.325 36.5606C369.481 36.1331 369.474 35.7491 369.303 35.5063C369.117 35.2455 368.779 35.1875 368.525 35.1875H363.994Z" fill="#757575"/>
<path d="M358.013 63.9539H353.487C352.556 63.9539 351.752 63.5662 351.28 62.896C350.778 62.1823 350.694 61.2185 351.047 60.2512L352.694 55.7406C353.33 53.9979 355.217 52.6321 356.988 52.6321H361.515C362.446 52.6321 363.249 53.0197 363.722 53.69C364.224 54.4037 364.307 55.3674 363.954 56.3348L362.307 60.8454C361.671 62.588 359.784 63.9539 358.013 63.9539ZM356.988 54.3639C355.956 54.3639 354.716 55.2841 354.334 56.3311L352.687 60.8454C352.53 61.2729 352.538 61.6569 352.709 61.8997C352.894 62.1605 353.232 62.2185 353.487 62.2185H358.013C359.064 62.2185 360.279 61.32 360.668 60.2512L362.315 55.7406C362.471 55.3131 362.464 54.929 362.293 54.6863C362.107 54.4254 361.769 54.3675 361.515 54.3675H356.988V54.3639Z" fill="#757575"/>
<path d="M351.007 83.1304H346.48C345.55 83.1304 344.746 82.7427 344.273 82.0724C343.772 81.3587 343.688 80.395 344.041 79.4277L345.688 74.9171C346.324 73.1744 348.211 71.8049 349.982 71.8049H354.512C355.443 71.8049 356.246 72.1926 356.719 72.8628C357.221 73.5766 357.305 74.5403 356.952 75.5076L355.305 80.0182C354.665 81.7645 352.781 83.1304 351.007 83.1304ZM349.982 73.5403C348.931 73.5403 347.717 74.4388 347.328 75.5076L345.681 80.0182C345.524 80.4457 345.531 80.8298 345.702 81.0725C345.888 81.3334 346.226 81.3913 346.48 81.3913H351.007C352.058 81.3913 353.272 80.4928 353.661 79.424L355.308 74.9135C355.465 74.4859 355.457 74.1019 355.287 73.8592C355.101 73.5983 354.763 73.5403 354.508 73.5403H349.982Z" fill="#E30510"/>
<path d="M402.277 41.0857H377.371C376.905 41.0857 376.662 40.7053 376.829 40.2379C377 39.7742 377.52 39.3901 377.989 39.3901H402.895C403.36 39.3901 403.604 39.7705 403.437 40.2379C403.266 40.7053 402.742 41.0857 402.277 41.0857Z" fill="#E30510"/>
<path d="M401.041 44.4695H376.135C375.669 44.4695 375.426 44.0891 375.597 43.6254C375.768 43.1616 376.287 42.7776 376.757 42.7776H401.662C402.128 42.7776 402.371 43.158 402.204 43.6254C402.03 44.0891 401.506 44.4695 401.041 44.4695Z" fill="#E30510"/>
<path d="M395.787 58.8528H370.881C370.415 58.8528 370.172 58.4724 370.343 58.005C370.514 57.5413 371.034 57.1572 371.499 57.1572H396.405C396.87 57.1572 397.114 57.5376 396.947 58.005C396.776 58.4724 396.252 58.8528 395.787 58.8528Z" fill="#E30510"/>
<path d="M394.55 62.2366H369.645C369.179 62.2366 368.936 61.8562 369.106 61.3924C369.277 60.9287 369.797 60.5447 370.263 60.5447H395.169C395.634 60.5447 395.878 60.9251 395.707 61.3924C395.539 61.8562 395.016 62.2366 394.55 62.2366Z" fill="#E30510"/>
<path d="M388.577 78.5944H363.671C363.206 78.5944 362.962 78.214 363.129 77.7466C363.3 77.2829 363.82 76.9025 364.285 76.9025H389.191C389.657 76.9025 389.9 77.2829 389.733 77.7466C389.562 78.214 389.042 78.5944 388.577 78.5944Z" fill="#E30510"/>
<path d="M387.341 81.9783H362.435C361.969 81.9783 361.726 81.5978 361.893 81.1305C362.064 80.6668 362.584 80.2827 363.053 80.2827H387.959C388.424 80.2827 388.668 80.6631 388.5 81.1305C388.326 81.5978 387.806 81.9783 387.341 81.9783Z" fill="#E30510"/>
<path d="M363.965 42.2378C363.889 42.2378 363.813 42.2269 363.736 42.2088C363.475 42.1363 363.256 41.9479 363.155 41.6943L361.446 37.4627C361.264 37.0171 361.482 36.5098 361.929 36.3323C362.377 36.1548 362.886 36.3685 363.064 36.8142L364.344 39.9807L374.448 32.2202C374.829 31.9268 375.379 31.9992 375.673 32.3796C375.968 32.7601 375.895 33.3071 375.513 33.6006L364.496 42.0602C364.344 42.1762 364.154 42.2378 363.965 42.2378Z" fill="#817477"/>
<path d="M356.959 61.4142C356.883 61.4142 356.806 61.4033 356.73 61.3852C356.468 61.3127 356.25 61.1243 356.148 60.8707L354.439 56.6391C354.258 56.1935 354.476 55.6862 354.923 55.5087C355.37 55.3312 355.879 55.5449 356.057 55.9906L357.337 59.1571L367.441 51.3966C367.823 51.1032 368.372 51.1756 368.667 51.556C368.961 51.9365 368.888 52.4835 368.507 52.777L357.49 61.2367C357.337 61.3526 357.152 61.4142 356.959 61.4142Z" fill="#817477"/>
<path d="M521.643 18.8044H425.979L428.455 12.0366H524.115L521.643 18.8044Z" fill="#E30510"/>
<path d="M517.934 28.9596H422.274L424.743 22.1919H520.407L517.934 28.9596Z" fill="#E30510"/>
<path d="M411.901 110.122H341.652C340.736 110.122 340.256 109.375 340.59 108.459C340.925 107.546 341.95 106.796 342.866 106.796H413.115C414.032 106.796 414.511 107.546 414.177 108.459C413.842 109.375 412.817 110.122 411.901 110.122Z" fill="#E30510"/>
<path d="M409.2 117.513H338.95C338.034 117.513 337.554 116.763 337.889 115.85C338.223 114.937 339.249 114.187 340.165 114.187H410.418C411.334 114.187 411.814 114.937 411.479 115.85C411.145 116.766 410.119 117.513 409.2 117.513Z" fill="#E30510"/>
<path d="M474.962 180.009C474.962 178.835 489.16 139.736 479.561 114.567C472.842 96.9448 471.78 75.7975 471.78 75.7975C471.78 75.7975 458.691 94.4776 467.537 123.027C472.98 140.598 475.202 145.467 475.674 150.637C476.147 155.807 473.551 181.654 473.551 181.654L474.962 180.009Z" fill="#BCBCBC"/>
<path d="M473.547 182.088C473.489 182.088 473.431 182.078 473.377 182.052C473.202 181.976 473.097 181.799 473.115 181.61C473.14 181.353 475.7 155.746 475.238 150.677C474.929 147.304 473.886 144.116 471.595 137.131C470.421 133.551 468.963 129.099 467.119 123.157C462.52 108.31 463.931 96.1694 465.919 88.5974C468.079 80.3769 471.286 75.7431 471.42 75.551C471.526 75.3989 471.719 75.33 471.897 75.3808C472.075 75.4315 472.202 75.5909 472.213 75.7757C472.224 75.9858 473.347 97.0607 479.968 114.415C483.557 123.827 484.277 136.24 482.11 151.304C480.379 163.332 477.292 173.614 475.976 178.005C475.674 179.005 475.416 179.871 475.398 180.031C475.398 180.136 475.362 180.215 475.293 180.295L473.878 181.94C473.795 182.034 473.675 182.088 473.547 182.088ZM471.435 77.1778C470.359 79.0255 468.272 83.0687 466.752 88.8546C464.796 96.3107 463.418 108.267 467.952 122.896C469.792 128.834 471.25 133.283 472.42 136.856C474.733 143.906 475.787 147.123 476.103 150.594C476.514 155.115 474.649 174.853 474.115 180.32L474.547 179.82C474.598 179.563 474.751 179.045 475.136 177.755C483.335 150.445 484.684 129.236 479.15 114.723C473.46 99.7924 471.802 82.1485 471.435 77.1778Z" fill="#A6A6A6"/>
<path d="M478.031 184.005C475.907 140.536 486.284 116.802 507.507 98.0027C528.729 79.203 529.671 74.2686 529.671 74.2686C529.671 74.2686 526.37 110.926 514.106 123.614C501.842 136.301 483.921 145.703 481.328 152.279C478.736 158.858 479.678 180.944 479.678 180.944L478.027 184.94V184.005H478.031Z" fill="#BCBCBC"/>
<path d="M475.434 187.762C475.198 187.056 479.914 147.112 497.13 144.761C514.346 142.41 518.352 146.406 530.144 144.525C538.557 143.185 545 140.529 545 140.529C545 140.529 540.535 151.855 525.192 156.507C514.346 159.796 500.195 154.391 491.941 155.8C483.688 157.209 479.445 174.832 479.445 174.832L478.03 183.994L475.434 187.762Z" fill="#BCBCBC"/>
<path d="M477.794 181.853C477.572 181.853 477.38 181.683 477.362 181.458C477.336 181.175 474.893 153.115 486.848 131.628C493.021 120.53 499.766 114.096 506.285 107.875C512.361 102.082 518.098 96.6079 522.447 87.9381C522.556 87.7243 522.817 87.6374 523.032 87.7424C523.246 87.8511 523.334 88.112 523.228 88.3257C518.811 97.1296 513.019 102.655 506.889 108.502C500.417 114.679 493.723 121.063 487.611 132.048C475.791 153.297 478.205 181.099 478.23 181.378C478.252 181.617 478.078 181.828 477.838 181.853C477.82 181.853 477.805 181.853 477.794 181.853Z" fill="#A6A6A6"/>
<path d="M476.616 176.216C476.576 176.216 476.536 176.208 476.492 176.197C476.26 176.132 476.129 175.89 476.194 175.658C480.71 160.155 485.888 151.108 492.498 147.192C498.406 143.688 504.511 144.764 510.975 145.902C512.557 146.181 514.193 146.467 515.815 146.681C529.864 148.518 536.714 145.116 536.783 145.08C536.997 144.971 537.259 145.054 537.372 145.268C537.481 145.482 537.397 145.743 537.186 145.855C536.903 146 530.06 149.42 515.706 147.543C514.066 147.33 512.422 147.04 510.83 146.761C504.529 145.652 498.581 144.605 492.949 147.942C486.542 151.739 481.485 160.626 477.038 175.904C476.976 176.089 476.805 176.216 476.616 176.216Z" fill="#A6A6A6"/>
<path d="M499.133 115.944C499.002 115.944 498.875 115.886 498.788 115.773C498.642 115.585 498.675 115.31 498.868 115.165C498.951 115.1 507.339 108.73 518.978 106.506C519.214 106.462 519.443 106.615 519.487 106.85C519.531 107.086 519.378 107.314 519.142 107.357C507.703 109.545 499.482 115.788 499.399 115.849C499.322 115.915 499.228 115.944 499.133 115.944Z" fill="#A6A6A6"/>
<path d="M485.811 134.859C485.735 134.859 485.659 134.841 485.59 134.798C485.382 134.675 485.313 134.41 485.437 134.204C491.578 123.885 498.77 121.284 514.451 116.386C514.68 116.313 514.928 116.44 514.997 116.672C515.069 116.9 514.942 117.147 514.709 117.215C499.25 122.045 492.163 124.603 486.186 134.646C486.106 134.783 485.96 134.859 485.811 134.859Z" fill="#A6A6A6"/>
<path d="M481.997 198.453H471.468C467.748 198.453 464.556 195.823 463.858 192.182L460.462 174.487H493.003L489.607 192.182C488.909 195.823 485.717 198.453 481.997 198.453Z" fill="#E30510"/>
<path d="M492.178 178.998H461.524C461.04 178.998 460.651 178.61 460.651 178.128C460.651 177.647 461.04 177.259 461.524 177.259H492.178C492.661 177.259 493.05 177.647 493.05 178.128C493.05 178.61 492.661 178.998 492.178 178.998Z" fill="#C8020B"/>
</g>
</g>
<defs>
<clipPath id="clip0">
<rect width="1320" height="200" fill="white"/>
</clipPath>
<clipPath id="clip1">
<rect width="764.783" height="676.568" fill="white" transform="translate(-448 -149)"/>
</clipPath>
<clipPath id="clip2">
<rect width="764.783" height="676.568" fill="white" transform="translate(1761.34 -158.303) rotate(105.403)"/>
</clipPath>
<clipPath id="clip3">
<rect width="420" height="252" fill="white" transform="translate(125 -45)"/>
</clipPath>
</defs>
</svg>
