<svg width="202" height="24" viewBox="0 0 202 24" fill="none" xmlns="http://www.w3.org/2000/svg">
<path d="M20.1935 5.54871C21.3398 5.54871 22.4288 5.54871 23.5121 5.54871C23.9821 5.54871 24.4521 5.56017 24.922 5.54297C25.1914 5.53724 25.3175 5.62322 25.3175 5.91553C25.3118 7.12489 25.3061 8.32852 25.3175 9.53789C25.3233 9.91044 25.1055 9.93336 24.8303 9.93336C23.3057 9.93336 21.7811 9.93336 20.2565 9.93336C19.4828 9.93336 19.4828 9.93336 19.3681 10.7014C19.2306 11.5783 19.1217 12.4553 18.9555 13.3265C18.881 13.7047 19.0013 13.8022 19.3509 13.7965C20.4228 13.785 21.4946 13.8079 22.5664 13.785C22.9676 13.7793 23.1338 13.8824 23.1223 14.318C23.0937 15.407 23.0937 16.496 23.1223 17.585C23.1338 18.0206 23.0134 18.1696 22.5606 18.1639C21.2882 18.1353 20.0158 18.1696 18.7377 18.1467C18.3422 18.141 18.1702 18.2614 18.1187 18.6626C17.9524 19.8719 17.7461 21.0698 17.5684 22.2792C17.4653 22.9727 17.4825 22.9727 16.766 22.9727C15.6942 22.9727 14.6224 22.9612 13.5506 22.9784C13.1895 22.9842 13.0806 22.8695 13.1379 22.5027C13.3557 21.2017 13.5277 19.8949 13.7512 18.5938C13.8142 18.2212 13.6767 18.1525 13.3672 18.1525C12.112 18.1582 10.851 18.1582 9.5958 18.1525C9.30349 18.1525 9.14873 18.227 9.09715 18.5651C8.91947 19.8547 8.69021 21.1386 8.51253 22.4282C8.45521 22.8352 8.30619 22.9956 7.87632 22.9842C6.77013 22.9555 5.66393 22.967 4.55774 22.9784C4.17945 22.9784 4.0247 22.9269 4.11067 22.4683C4.3514 21.173 4.51762 19.8605 4.72969 18.5594C4.79273 18.1639 4.56347 18.1525 4.28835 18.1525C3.05033 18.1525 1.80658 18.1353 0.568558 18.1639C0.115763 18.1754 -0.00460001 18.0206 0.00113157 17.585C0.0297895 16.5132 0.0297895 15.4414 0.00113157 14.3696C-0.0160632 13.8882 0.161616 13.7793 0.608679 13.785C2.0645 13.8079 3.52605 13.7907 4.98187 13.7965C5.26845 13.7965 5.4576 13.7449 5.50918 13.4182C5.66966 12.3005 5.84734 11.1771 6.03075 9.99068C5.72125 9.96776 5.48052 9.9391 5.23407 9.9391C4.36286 9.93337 3.49166 9.92763 2.62046 9.9391C2.2823 9.94483 2.13901 9.83593 2.14474 9.47484C2.16194 8.31706 2.16194 7.15928 2.14474 6.00723C2.13901 5.65187 2.26511 5.54297 2.61473 5.54871C3.8241 5.5659 5.02773 5.54871 6.23709 5.56017C6.56379 5.5659 6.74147 5.50859 6.79306 5.11311C6.99939 3.58851 7.25731 2.07537 7.48084 0.556499C7.53816 0.16102 7.68718 -0.010927 8.12278 0.000536117C9.22898 0.0349256 10.3352 0.0234624 11.4414 0.0062677C11.8368 0.000536118 11.9687 0.0922414 11.8884 0.527842C11.6133 2.09256 11.3898 3.66302 11.1491 5.22774C11.1376 5.30798 11.1548 5.38822 11.1663 5.54871C11.4528 5.54871 11.7337 5.54871 12.0145 5.54871C13.1207 5.54871 14.2269 5.53724 15.3331 5.55444C15.6713 5.56017 15.7916 5.44554 15.8432 5.10737C16.061 3.55412 16.3132 2.00086 16.5425 0.453331C16.5883 0.126631 16.7373 0.0062677 17.0755 0.0062677C18.2333 0.0234624 19.3911 0.0177309 20.5431 0.0119993C20.8813 0.0119993 21.0131 0.0635835 20.9443 0.470526C20.6692 2.03525 20.4457 3.6057 20.205 5.17042C20.1763 5.26786 20.1935 5.3653 20.1935 5.54871ZM9.86518 13.6933C9.97408 13.7449 10.0199 13.7793 10.0658 13.7793C11.4414 13.785 12.8112 13.7965 14.1868 13.7735C14.3014 13.7735 14.4963 13.5787 14.5192 13.4526C14.7084 12.4323 14.8574 11.4121 15.0236 10.3919C15.0867 10.0251 14.9147 9.9219 14.5823 9.92763C13.5792 9.9391 12.5705 9.93336 11.5675 9.93336C10.467 9.93336 10.4498 9.93337 10.2664 10.9994C10.1059 11.8993 9.99701 12.8049 9.86518 13.6933Z" fill="white"/>
<path d="M41.7783 18.038C41.7783 17.3158 41.5089 16.7541 40.9759 16.3529C40.4429 15.9517 39.4971 15.5333 38.156 15.1034C36.809 14.6735 35.7086 14.2551 34.8546 13.8539C32.0748 12.5528 30.6877 10.7646 30.6877 8.48914C30.6877 7.35429 31.0316 6.35699 31.7251 5.49152C32.4186 4.62605 33.3987 3.94973 34.6654 3.46827C35.9321 2.98682 37.3593 2.74609 38.9355 2.74609C40.4772 2.74609 41.8586 3.00975 43.0851 3.53132C44.3059 4.05289 45.2574 4.80373 45.9337 5.77237C46.61 6.74101 46.9482 7.8472 46.9482 9.09095H41.7898C41.7898 8.25987 41.5204 7.61221 40.9874 7.15368C40.4543 6.69515 39.7264 6.46589 38.8151 6.46589C37.8923 6.46589 37.1644 6.66076 36.6256 7.05051C36.0926 7.44026 35.8232 7.93317 35.8232 8.53499C35.8232 9.05656 36.1155 9.53229 36.7059 9.96215C37.2962 10.3863 38.3336 10.8276 39.8124 11.2804C41.2969 11.7332 42.512 12.2261 43.4691 12.7477C45.7847 14.0201 46.9482 15.774 46.9482 18.015C46.9482 19.8033 46.2432 21.2075 44.8275 22.2277C43.4118 23.248 41.4745 23.7581 39.01 23.7581C37.2733 23.7581 35.6971 23.46 34.2871 22.8639C32.8772 22.2679 31.8168 21.454 31.1061 20.4223C30.3954 19.3906 30.04 18.1984 30.04 16.8458H35.2271C35.2271 17.9405 35.5252 18.7487 36.1212 19.2702C36.7173 19.7918 37.6802 20.0497 39.0157 20.0497C39.8697 20.0497 40.546 19.8721 41.0389 19.5224C41.5261 19.1671 41.7783 18.6742 41.7783 18.038Z" fill="white"/>
<path d="M67.7652 13.6704C67.7652 15.6649 67.3754 17.4303 66.6017 18.9663C65.8279 20.5024 64.7217 21.6831 63.2946 22.5142C61.8674 23.3453 60.2396 23.7579 58.4113 23.7579C56.5829 23.7579 54.9608 23.3567 53.5509 22.5543C52.1352 21.7519 51.0347 20.6113 50.2438 19.1211C49.4528 17.6309 49.0401 15.9229 49 13.9971V12.8393C49 10.8332 49.384 9.0679 50.1578 7.53757C50.9315 6.00723 52.032 4.82653 53.4706 3.98972C54.9093 3.15864 56.5485 2.74023 58.3826 2.74023C60.1995 2.74023 61.8215 3.15291 63.243 3.97826C64.6644 4.8036 65.7763 5.97285 66.5673 7.49745C67.3583 9.01631 67.7595 10.7644 67.7709 12.7304V13.6704H67.7652ZM62.5036 12.8106C62.5036 10.7816 62.1482 9.23412 61.4375 8.18524C60.7268 7.13063 59.7066 6.60332 58.3826 6.60332C55.7919 6.60332 54.4221 8.45462 54.2731 12.163L54.2559 13.6646C54.2559 15.6707 54.6055 17.2067 55.3047 18.2843C56.004 19.3618 57.0357 19.9006 58.4113 19.9006C59.7181 19.9006 60.7268 19.3733 61.4318 18.3129C62.1368 17.2526 62.4979 15.7337 62.5093 13.7506V12.8106H62.5036Z" fill="white"/>
<path d="M87.7919 16.5474C87.7231 17.9688 87.3219 19.2297 86.5825 20.3187C85.8431 21.4077 84.8114 22.256 83.4817 22.8521C82.152 23.4539 80.6331 23.752 78.9194 23.752C76.0995 23.752 73.8813 22.875 72.2593 21.1269C70.6373 19.3788 69.8291 16.9027 69.8291 13.7102V12.7015C69.8291 10.6954 70.1959 8.94728 70.9296 7.43987C71.6632 5.9382 72.7121 4.77469 74.0877 3.95507C75.4632 3.13546 77.0566 2.72852 78.8621 2.72852C81.4642 2.72852 83.5562 3.38192 85.1381 4.68872C86.7201 5.99552 87.6199 7.79523 87.832 10.0879H82.6736C82.6335 8.84411 82.3068 7.94999 81.6877 7.40549C81.0687 6.86098 80.1288 6.5916 78.8563 6.5916C77.5667 6.5916 76.6268 7.05013 76.0249 7.96718C75.4231 8.88423 75.1136 10.3515 75.0792 12.3633V13.8077C75.0792 15.9914 75.3658 17.5504 75.939 18.4846C76.5121 19.4189 77.5037 19.8889 78.9079 19.8889C80.0944 19.8889 81.0057 19.6195 81.6362 19.0864C82.2666 18.5534 82.5991 17.7051 82.6392 16.5474H87.7919Z" fill="white"/>
<path d="M95.7463 23.4709H90.5879V3.02637H95.7463V23.4709Z" fill="white"/>
<path d="M111.79 19.6537H104.706L103.468 23.4709H97.9424L105.806 3.02637H110.666L118.593 23.4709H113.039L111.79 19.6537ZM105.944 15.8479H110.558L108.242 8.75795L105.944 15.8479Z" fill="white"/>
<path d="M125.328 19.6823H134.332V23.4766H120.158V3.02637H125.328V19.6823Z" fill="white"/>
<path d="M142.024 23.4709H136.865V3.02637H142.024V23.4709Z" fill="white"/>
<path d="M145.617 23.4709V3.02637H152.529C154.427 3.02637 156.129 3.43331 157.642 4.25293C159.155 5.07254 160.336 6.23032 161.184 7.72053C162.032 9.21647 162.462 10.8901 162.474 12.7414V13.6814C162.474 15.5556 162.061 17.235 161.23 18.7137C160.399 20.1982 159.23 21.356 157.722 22.1985C156.215 23.0353 154.53 23.4595 152.678 23.4709H145.617ZM150.787 6.83214V19.6823H152.587C154.071 19.6823 155.212 19.178 156.003 18.1749C156.799 17.1662 157.195 15.6702 157.195 13.6871V12.8044C157.195 10.827 156.799 9.34257 156.003 8.33954C155.206 7.33652 154.048 6.83787 152.524 6.83787H150.787V6.83214Z" fill="white"/>
<path d="M178.431 14.7933H170.298V19.6823H179.904V23.4766H165.128V3.02637H179.933V6.83214H170.298V11.1423H178.431V14.7933Z" fill="white"/>
<path d="M194.193 19.6537H187.109L185.871 23.4709H180.346L188.215 3.02637H193.076L201.002 23.4709H195.448L194.193 19.6537ZM188.347 15.8479H192.961L190.645 8.75795L188.347 15.8479Z" fill="white"/>
</svg>
