<?xml version="1.0" encoding="UTF-8"?>
<!DOCTYPE svg PUBLIC "-//W3C//DTD SVG 1.1//EN" "http://www.w3.org/Graphics/SVG/1.1/DTD/svg11.dtd">
<!-- Creator: CorelDRAW X8 -->
<svg xmlns="http://www.w3.org/2000/svg" xml:space="preserve" width="97px" height="86px" version="1.1" style="shape-rendering:geometricPrecision; text-rendering:geometricPrecision; image-rendering:optimizeQuality; fill-rule:evenodd; clip-rule:evenodd" viewBox="0 0 109689 97699" xmlns:xlink="http://www.w3.org/1999/xlink">
 <defs>
  <style type="text/css">
   <![CDATA[
    .fil0 {fill:#009846}
    .fil4 {fill:#00A0E3}
    .fil3 {fill:#10603F}
    .fil2 {fill:#FBBA00}
    .fil1 {fill:#10603F;fill-rule:nonzero}
    .fil5 {fill:#FEFEFE;fill-rule:nonzero}
   ]]>
  </style>
 </defs>
 <g id="Слой_x0020_1">
  <metadata id="CorelCorpID_0Corel-Layer"/>
  <path class="fil0" d="M78802 24394c0,-3011 -546,-5895 -1544,-8558l2560 0 0 -4593 -4860 0c-4336,-6762 -11919,-11243 -20549,-11243 -13472,0 -24394,10921 -24394,24394 0,13472 10922,24393 24394,24393 13472,0 24393,-10921 24393,-24393z"/>
  <path class="fil1" d="M9417 81860c3541,0 5641,-1101 7529,-3122l-2571 -2754c-1442,1312 -2728,2152 -4827,2152 -3148,0 -5326,-2625 -5326,-5772 0,-3200 2230,-5772 5326,-5772 2099,0 3306,760 4722,2046l2414 -2780c-1705,-1680 -3647,-2991 -7110,-2991 -5640,0 -9575,4276 -9575,9497 0,5325 4014,9496 9418,9496zm20169 -314l4040 0 0 -14639 5587 0 0 -3726 -15215 0 0 3726 5588 0 0 14639zm17859 0l13984 0 0 -3596 -9969 0 0 -3856 8656 0 0 -3593 -8656 0 0 -3726 9837 0 0 -3594 -13852 0 0 18365zm22714 0l4040 0 0 -14718 7241 0 0 14718 4040 0 0 -18365 -15321 0 0 18365zm24865 0l7686 0c4302,0 6979,-2388 6979,-6166 0,-3593 -2467,-5955 -6717,-5955l-3908 0 0 -6244 -4040 0 0 18365zm7607 -8658c2021,0 3043,892 3043,2439 0,1706 -1022,2572 -3016,2572l-3594 0 0 -5011 3567 0z"/>
  <path class="fil1" d="M14728 96324l1478 0 603 -1479 2788 0 602 1479 1517 0 -2826 -6638 -1336 0 -2826 6638zm2599 -2759l876 -2137 876 2137 -1752 0zm7202 -2524l3154 0 0 -1308 -4604 0 0 6591 1450 0 0 -5283zm4526 5283l1450 0 0 -1978 1103 0c1477,0 2665,-790 2665,-2316 0,-1364 -952,-2297 -2524,-2297l-2694 0 0 6591zm1450 -3267l0 -2016 1122 0c724,0 1176,349 1176,999 0,583 -424,1017 -1149,1017l-1149 0zm8388 3381c2034,0 3512,-1535 3512,-3409 0,-1892 -1459,-3408 -3493,-3408 -2034,0 -3512,1533 -3512,3408 0,1893 1459,3409 3493,3409zm19 -1338c-1167,0 -1996,-942 -1996,-2071 0,-1149 810,-2072 1977,-2072 1168,0 1997,942 1997,2072 0,1149 -811,2071 -1978,2071zm4630 1224l1648 0 1488 -2260 1479 2260 1694 0 -2297 -3371 2203 -3220 -1647 0 -1394 2138 -1385 -2138 -1695 0 2203 3239 -2297 3352zm10939 114c2034,0 3513,-1535 3513,-3409 0,-1892 -1460,-3408 -3494,-3408 -2034,0 -3512,1533 -3512,3408 0,1893 1459,3409 3493,3409zm19 -1338c-1167,0 -1996,-942 -1996,-2071 0,-1149 810,-2072 1977,-2072 1169,0 1997,942 1997,2072 0,1149 -809,2071 -1978,2071zm6006 -5367l0 1365c0,3550 -443,4049 -1224,4049 -94,0 -161,-9 -227,-19l-94 1196c179,47 528,86 762,86 1507,0 2139,-989 2139,-4869l0 -500 1903 0 0 5283 1449 0 0 -6591 -4708 0zm5939 7966l1310 0 92 -1375 4126 0 0 1375 1214 0 188 -2683 -790 0 0 -5283 -4794 0 0 772c0,2251 -235,3372 -724,4511l-622 0 0 2683zm4690 -6658l0 3975 -2543 0c377,-914 593,-1912 593,-3306l0 -669 1950 0zm9282 -1308l-1346 0 -2901 4322 0 -4322 -1432 0 0 6591 1366 0 2881 -4322 0 4322 1432 0 0 -6591zm1928 6591l1450 0 0 -2646 2674 0 0 2646 1450 0 0 -6591 -1450 0 0 2609 -2674 0 0 -2609 -1450 0 0 6591zm8953 -5283l3154 0 0 -1308 -4605 0 0 6591 1451 0 0 -5283z"/>
  <path class="fil2" d="M74958 11243l-8765 0 0 -8211c3561,1969 6577,4798 8765,8211z"/>
  <path class="fil2" d="M78448 28547l-12255 0 0 2743 11619 0c263,-894 477,-1809 636,-2743z"/>
  <path class="fil2" d="M42625 24682l-12606 0c-1,-95 -4,-192 -4,-288 0,-3101 580,-6065 1635,-8791l10975 0 0 9079z"/>
  <path class="fil2" d="M42625 40589l-6455 0c1837,2067 4018,3819 6455,5166l0 -5166z"/>
  <path class="fil3" d="M77258 15836l-11065 0 0 12711 12255 0c232,-1349 354,-2738 354,-4153 0,-3011 -546,-5895 -1544,-8558z"/>
  <polygon class="fil3" points="66192,5345 42625,5345 42625,17287 66192,17287 "/>
  <path class="fil3" d="M42625 30148l-11925 0c-424,-1755 -659,-3585 -681,-5466l12606 0 0 5466z"/>
  <polygon class="fil3" points="66192,35555 42625,35555 42625,43599 66192,43599 "/>
  <polygon class="fil4" points="27969,38017 42625,38017 42625,30148 27969,30148 "/>
  <path class="fil4" d="M66193 45755l0 -6589 7626 0c-2050,2691 -4647,4943 -7626,6589z"/>
  <polygon class="fil4" points="66192,23049 42625,23049 42625,17287 66192,17287 "/>
  <path class="fil4" d="M35429 9071l7196 0 0 -6039c-2774,1534 -5217,3591 -7196,6039z"/>
  <path class="fil5" d="M55042 37841c4867,0 7837,-1783 10550,-4606l-2934 -2971c-2230,2079 -4272,3379 -7467,3379 -4978,0 -8581,-4160 -8581,-9249 0,-5163 3603,-9249 8581,-9249 2971,0 5201,1300 7280,3231l2934 -3380c-2488,-2377 -5385,-4049 -10178,-4049 -7874,0 -13409,6055 -13409,13447 0,7541 5646,13447 13224,13447z"/>
 </g>
<head xmlns=""/></svg>