<svg width="94" height="94" viewBox="0 0 94 94" fill="none" xmlns="http://www.w3.org/2000/svg">
<circle cx="47" cy="47" r="46" stroke="#E30510" stroke-width="2"/>
<path d="M68.2493 35.4207C68.1958 35.4207 68.1425 35.4144 68.0905 35.4018C65.7876 34.8463 63.683 33.6649 62.0094 31.9883C60.3327 30.3147 59.1514 28.2102 58.5959 25.9072C58.554 25.7329 58.583 25.5491 58.6766 25.3963C58.7701 25.2434 58.9206 25.1339 59.0949 25.092C59.2692 25.0501 59.453 25.0791 59.6058 25.1727C59.7587 25.2662 59.8682 25.4167 59.9101 25.591C60.4076 27.6513 61.4647 29.5341 62.9648 31.0315C64.4624 32.5316 66.3451 33.5889 68.4054 34.0869C68.566 34.1258 68.7069 34.2222 68.8013 34.3579C68.8957 34.4936 68.937 34.6592 68.9176 34.8233C68.8981 34.9875 68.8191 35.1388 68.6956 35.2486C68.5721 35.3585 68.4125 35.4192 68.2473 35.4194L68.2493 35.4207Z" fill="#E30510"/>
<path d="M64.1073 44.1828C63.9775 44.1829 63.8505 44.1454 63.7418 44.0746C63.5911 43.9777 63.485 43.8249 63.447 43.6497C63.409 43.4746 63.4421 43.2916 63.5391 43.1409C63.9114 42.5645 64.2722 41.9645 64.6127 41.3584C64.7005 41.2022 64.8468 41.0872 65.0194 41.0388C65.192 40.9904 65.3767 41.0125 65.533 41.1003C65.6892 41.1881 65.8042 41.3344 65.8526 41.507C65.901 41.6796 65.8789 41.8643 65.7911 42.0206C65.437 42.6503 65.0614 43.274 64.6755 43.8733C64.6143 43.9683 64.5302 44.0464 64.4309 44.1005C64.3316 44.1545 64.2203 44.1828 64.1073 44.1828Z" fill="#E30510"/>
<path d="M43.6961 60.6079C43.6077 60.608 43.5202 60.5906 43.4387 60.5566C39.0623 58.7498 35.7035 55.3964 33.4556 50.5903C33.4154 50.5044 33.3938 50.4109 33.3922 50.316C33.3906 50.2211 33.4089 50.127 33.4461 50.0397C34.2568 48.1257 35.1726 46.258 36.1894 44.4451C36.2042 44.4194 36.2204 44.3944 36.2373 44.3707C37.973 41.2776 40.0588 38.3945 42.4535 35.7782C46.964 30.8394 52.6841 27.1617 59.0495 25.1079C62.5734 23.907 66.2769 23.3178 69.9995 23.366C70.1647 23.3757 70.3206 23.4456 70.4377 23.5625C70.5547 23.6795 70.6248 23.8353 70.6346 24.0005C70.6819 27.7231 70.0925 31.4264 68.8921 34.9505C68.6218 35.7984 68.313 36.6512 67.9765 37.4829C67.9437 37.5657 67.8947 37.6413 67.8326 37.7051C67.7704 37.769 67.6962 37.8199 67.6143 37.855C67.5324 37.89 67.4443 37.9085 67.3552 37.9094C67.2661 37.9103 67.1777 37.8936 67.0951 37.8601C67.0125 37.8267 66.9373 37.7773 66.8738 37.7147C66.8104 37.6521 66.76 37.5776 66.7255 37.4954C66.691 37.4132 66.6731 37.3251 66.6728 37.2359C66.6725 37.1468 66.6898 37.0585 66.7238 36.9762C67.0475 36.1755 67.3441 35.3545 67.6056 34.5376C68.6546 31.3614 69.2248 28.0467 69.2975 24.7025C65.9538 24.774 62.6395 25.3433 59.4637 26.3917C53.3213 28.3761 47.8021 31.927 43.4502 36.6944C41.1056 39.2544 39.0661 42.0777 37.3725 45.1079C37.3576 45.1336 37.3421 45.1579 37.3252 45.1816C36.3985 46.8393 35.5586 48.5441 34.809 50.289C36.886 54.5971 39.7968 57.5187 43.6941 59.1978C45.4452 58.4461 47.1558 57.6035 48.8191 56.6734C48.8424 56.6567 48.8665 56.6411 48.8914 56.6268C51.9216 54.9333 54.7452 52.894 57.3056 50.5498C58.3921 49.5438 59.4232 48.4794 60.3941 47.3613C60.5113 47.2256 60.6776 47.1421 60.8564 47.129C61.0352 47.116 61.2118 47.1745 61.3475 47.2917C61.4831 47.4089 61.5667 47.5752 61.5797 47.754C61.5928 47.9328 61.5343 48.1094 61.4171 48.2451C60.4128 49.4008 59.3466 50.5013 58.2231 51.5417C55.6062 53.9384 52.7221 56.026 49.6279 57.7633C49.6044 57.7803 49.58 57.7961 49.5549 57.8106C47.7422 58.8273 45.8747 59.7431 43.961 60.5539C43.8772 60.5894 43.7871 60.6078 43.6961 60.6079Z" fill="#E30510"/>
<path d="M48.3797 70.6485C48.2622 70.6485 48.1467 70.6178 48.0446 70.5595C47.9425 70.5012 47.8574 70.4172 47.7977 70.316C47.738 70.2147 47.7058 70.0996 47.7042 69.9821C47.7025 69.8645 47.7316 69.7486 47.7885 69.6458C48.8122 67.8 49.4157 65.7509 49.5559 63.6448C49.6961 61.5388 49.3694 59.4278 48.5993 57.4626C48.5342 57.2956 48.5381 57.1096 48.6101 56.9454C48.6821 56.7813 48.8164 56.6524 48.9834 56.5873C49.1505 56.5222 49.3365 56.526 49.5007 56.5981C49.6648 56.6701 49.7936 56.8044 49.8588 56.9714C51.337 60.7413 51.299 64.937 49.7527 68.6795C50.8177 68.1605 51.8133 67.51 52.7162 66.7431C54.9095 64.8941 56.5006 62.4322 57.2854 59.673C58.0703 56.9138 58.0133 53.9831 57.1216 51.2565C57.0767 51.0893 57.0978 50.9111 57.1805 50.7589C57.2631 50.6068 57.4011 50.4921 57.5658 50.4387C57.7306 50.3853 57.9096 50.3972 58.0658 50.4719C58.222 50.5467 58.3436 50.6785 58.4054 50.8403C59.3801 53.8222 59.4419 57.0272 58.5831 60.0445C57.7243 63.0618 55.9839 65.7538 53.5851 67.7755C52.1148 69.0263 50.422 69.989 48.5953 70.6133C48.5258 70.6367 48.453 70.6486 48.3797 70.6485Z" fill="#E30510"/>
<path d="M24.027 46.2961C23.9195 46.296 23.8136 46.2704 23.7181 46.2212C23.6226 46.1721 23.5401 46.1008 23.4776 46.0134C23.4151 45.926 23.3744 45.825 23.3587 45.7187C23.3431 45.6124 23.3531 45.5039 23.3878 45.4022C24.012 43.5756 24.9747 41.8831 26.2256 40.413C28.2468 38.0136 30.9389 36.2728 33.9563 35.4139C36.9737 34.5551 40.179 34.6173 43.1608 35.5927C43.249 35.6167 43.3315 35.6584 43.4032 35.7153C43.4748 35.7721 43.5342 35.8429 43.5777 35.9234C43.6212 36.0039 43.6479 36.0923 43.6562 36.1834C43.6645 36.2745 43.6542 36.3664 43.626 36.4534C43.5977 36.5404 43.5521 36.6207 43.4918 36.6896C43.4316 36.7584 43.358 36.8143 43.2755 36.8539C43.1931 36.8934 43.1034 36.9158 43.012 36.9197C42.9206 36.9236 42.8294 36.9089 42.7439 36.8765C40.0169 35.9849 37.0857 35.9284 34.3263 36.714C31.5669 37.4997 29.1051 39.0917 27.2567 41.286C26.4899 42.189 25.8394 43.1846 25.3202 44.2495C29.0632 42.7042 33.2589 42.6666 37.029 44.1447C37.1116 44.177 37.1871 44.2253 37.2511 44.2868C37.3151 44.3482 37.3664 44.4217 37.402 44.503C37.4376 44.5843 37.4569 44.6718 37.4587 44.7605C37.4604 44.8492 37.4447 44.9374 37.4124 45.0201C37.3801 45.1027 37.3319 45.1782 37.2704 45.2422C37.2089 45.3062 37.1355 45.3575 37.0542 45.3931C36.9729 45.4287 36.8854 45.4479 36.7967 45.4497C36.708 45.4515 36.6198 45.4358 36.5371 45.4035C34.5718 44.6333 32.4607 44.3066 30.3546 44.4467C28.2484 44.5869 26.1992 45.1905 24.3533 46.2143C24.2533 46.2689 24.1409 46.2971 24.027 46.2961Z" fill="#E30510"/>
<path d="M32.8787 70.3899C32.745 70.3898 32.6144 70.3502 32.5033 70.276C32.3923 70.2017 32.3057 70.0962 32.2546 69.9728C32.2034 69.8493 32.19 69.7135 32.2161 69.5824C32.2422 69.4514 32.3065 69.331 32.401 69.2365L38.5374 63.0993C38.6649 62.9763 38.8355 62.9082 39.0127 62.9097C39.1899 62.9112 39.3593 62.9823 39.4846 63.1076C39.6099 63.2328 39.6809 63.4023 39.6825 63.5795C39.684 63.7566 39.6159 63.9273 39.4928 64.0547L33.3564 70.1919C33.2297 70.3186 33.0578 70.3898 32.8787 70.3899Z" fill="#E30510"/>
<path d="M24.2864 61.7971C24.1528 61.7971 24.0221 61.7574 23.9111 61.6832C23.8 61.6089 23.7134 61.5034 23.6623 61.38C23.6111 61.2565 23.5978 61.1207 23.6238 60.9897C23.6499 60.8586 23.7142 60.7382 23.8087 60.6437L29.9452 54.5066C30.0075 54.442 30.082 54.3906 30.1645 54.3551C30.2469 54.3197 30.3356 54.3011 30.4253 54.3003C30.515 54.2995 30.604 54.3166 30.687 54.3506C30.7701 54.3846 30.8455 54.4348 30.9089 54.4982C30.9724 54.5616 31.0225 54.6371 31.0565 54.7201C31.0905 54.8032 31.1076 54.8921 31.1068 54.9818C31.106 55.0716 31.0874 55.1602 31.052 55.2427C31.0166 55.3251 30.9651 55.3996 30.9006 55.462L24.7641 61.5991C24.6374 61.7259 24.4656 61.7971 24.2864 61.7971Z" fill="#E30510"/>
<path d="M26.3567 68.3186C26.2231 68.3186 26.0925 68.2789 25.9814 68.2047C25.8703 68.1304 25.7837 68.0249 25.7326 67.9015C25.6814 67.778 25.6681 67.6422 25.6941 67.5112C25.7202 67.3801 25.7845 67.2597 25.879 67.1652L32.0161 61.028C32.1436 60.905 32.3143 60.8369 32.4914 60.8384C32.6686 60.8399 32.838 60.911 32.9633 61.0363C33.0886 61.1616 33.1597 61.331 33.1612 61.5082C33.1627 61.6853 33.0946 61.856 32.9715 61.9835L26.8344 68.1206C26.7077 68.2474 26.5359 68.3186 26.3567 68.3186Z" fill="#E30510"/>
<path d="M54.9917 44.2849C54.1237 44.2848 53.2692 44.0707 52.5038 43.6615C51.7384 43.2524 51.0858 42.6607 50.6036 41.939C50.1215 41.2174 49.8248 40.3879 49.7397 39.5242C49.6547 38.6604 49.784 37.7891 50.1162 36.9872C50.4484 36.1854 50.9732 35.4779 51.6441 34.9273C52.3151 34.3767 53.1114 34.0001 53.9627 33.8309C54.8139 33.6616 55.6938 33.7048 56.5243 33.9568C57.3548 34.2088 58.1104 34.6617 58.7241 35.2754C59.4622 36.0136 59.9648 36.954 60.1684 37.9778C60.372 39.0016 60.2674 40.0628 59.8679 41.0272C59.4684 41.9915 58.7919 42.8158 57.9239 43.3956C57.0559 43.9755 56.0355 44.285 54.9917 44.2849ZM54.9917 35.0815C54.0835 35.0821 53.2035 35.3975 52.5018 35.974C51.8001 36.5506 51.32 37.3526 51.1433 38.2434C50.9666 39.1343 51.1043 40.0588 51.5328 40.8596C51.9613 41.6603 52.6543 42.2877 53.4935 42.6348C54.3327 42.9819 55.2664 43.0273 56.1353 42.7633C57.0043 42.4992 57.7548 41.9421 58.259 41.1867C58.7633 40.4313 58.99 39.5245 58.9006 38.6207C58.8112 37.7169 58.4111 36.8721 57.7687 36.2302C57.4047 35.8647 56.9718 35.575 56.4952 35.3778C56.0185 35.1807 55.5075 35.08 54.9917 35.0815Z" fill="#E30510"/>
</svg>
