<svg width="94" height="94" viewBox="0 0 94 94" fill="none" xmlns="http://www.w3.org/2000/svg">
<circle cx="47" cy="47" r="46" stroke="#E30510" stroke-width="2"/>
<path d="M28.705 37.6276C28.5781 37.6274 28.4535 37.5942 28.3433 37.5312C28.2332 37.4682 28.1414 37.3775 28.077 37.2682C28.0126 37.1588 27.9779 37.0346 27.9761 36.9077C27.9744 36.7808 28.0058 36.6557 28.0672 36.5446C29.6006 33.7578 31.7316 31.3448 34.3075 29.4788C36.8834 27.6127 39.8403 26.3397 42.9661 25.7512C43.1548 25.7189 43.3486 25.762 43.5058 25.8712C43.663 25.9804 43.771 26.147 43.8065 26.3351C43.842 26.5232 43.8022 26.7177 43.6956 26.8767C43.5891 27.0357 43.4243 27.1465 43.2369 27.1851C40.322 27.734 37.5647 28.9212 35.1628 30.6615C32.7608 32.4018 30.7738 34.6521 29.3443 37.251C29.2811 37.3652 29.1885 37.4604 29.0761 37.5266C28.9636 37.5928 28.8355 37.6277 28.705 37.6276Z" fill="#E30510"/>
<path d="M47 30.7504C46.0812 30.7504 45.183 30.4779 44.4191 29.9675C43.6551 29.457 43.0597 28.7315 42.7081 27.8827C42.3565 27.0338 42.2645 26.0998 42.4438 25.1987C42.623 24.2975 43.0654 23.4698 43.7151 22.8201C44.3648 22.1704 45.1925 21.728 46.0937 21.5487C46.9948 21.3695 47.9288 21.4615 48.7777 21.8131C49.6265 22.1647 50.3521 22.7601 50.8625 23.5241C51.373 24.288 51.6454 25.1861 51.6454 26.1049C51.6441 27.3366 51.1542 28.5174 50.2833 29.3883C49.4124 30.2592 48.2316 30.749 47 30.7504ZM47 22.9189C46.3698 22.9189 45.7538 23.1058 45.2299 23.4559C44.706 23.806 44.2976 24.3035 44.0565 24.8857C43.8153 25.4679 43.7522 26.1085 43.8752 26.7265C43.9981 27.3445 44.3015 27.9122 44.7471 28.3578C45.1927 28.8033 45.7604 29.1068 46.3784 29.2297C46.9964 29.3526 47.637 29.2896 48.2192 29.0484C48.8014 28.8073 49.2989 28.3989 49.649 27.875C49.9991 27.351 50.186 26.7351 50.186 26.1049C50.185 25.2603 49.849 24.4504 49.2517 23.8532C48.6545 23.2559 47.8446 22.9199 47 22.9189Z" fill="#E30510"/>
<path d="M36.8964 66.025C36.773 66.0252 36.6517 65.9938 36.5439 65.9338C33.7574 64.3999 31.3448 62.2687 29.4789 59.6927C27.6129 57.1168 26.34 54.16 25.7512 51.0342C25.7189 50.8455 25.762 50.6517 25.8712 50.4945C25.9804 50.3373 26.147 50.2293 26.3351 50.1938C26.5232 50.1583 26.7177 50.1981 26.8767 50.3047C27.0357 50.4112 27.1465 50.576 27.1851 50.7634C27.7339 53.6789 28.921 56.4367 30.6613 58.8392C32.4016 61.2417 34.652 63.2294 37.251 64.6597C37.3927 64.7381 37.5043 64.8613 37.5682 65.0101C37.6321 65.1588 37.6448 65.3246 37.6041 65.4813C37.5635 65.638 37.4719 65.7768 37.3438 65.8757C37.2157 65.9747 37.0583 66.0282 36.8964 66.0279V66.025Z" fill="#E30510"/>
<path d="M26.1052 51.6454C25.1864 51.6456 24.2881 51.3732 23.5241 50.8629C22.7601 50.3525 22.1645 49.627 21.8128 48.7782C21.4611 47.9294 21.369 46.9953 21.5482 46.0941C21.7273 45.1929 22.1697 44.3651 22.8194 43.7154C23.469 43.0656 24.2967 42.6231 25.1979 42.4438C26.099 42.2645 27.0331 42.3565 27.882 42.708C28.7309 43.0596 29.4565 43.655 29.967 44.419C30.4774 45.183 30.7499 46.0811 30.7499 47C30.7486 48.2315 30.2588 49.4122 29.388 50.283C28.5173 51.1539 27.3367 51.6439 26.1052 51.6454ZM26.1052 43.814C25.475 43.8138 24.859 44.0005 24.3349 44.3505C23.8109 44.7005 23.4024 45.1981 23.1612 45.7802C22.9199 46.3624 22.8567 47.003 22.9796 47.6211C23.1024 48.2391 23.4058 48.8069 23.8513 49.2525C24.2969 49.6982 24.8646 50.0017 25.4826 50.1247C26.1007 50.2477 26.7413 50.1846 27.3235 49.9435C27.9057 49.7024 28.4033 49.294 28.7535 48.7701C29.1036 48.2461 29.2904 47.6301 29.2904 47C29.2895 46.1554 28.9536 45.3457 28.3565 44.7484C27.7594 44.1512 26.9497 43.8151 26.1052 43.814Z" fill="#E30510"/>
<path d="M50.8982 68.2622C50.7163 68.2624 50.5407 68.1947 50.4061 68.0722C50.2715 67.9498 50.1875 67.7814 50.1706 67.6002C50.1537 67.419 50.2051 67.2381 50.3148 67.0928C50.4244 66.9476 50.5843 66.8485 50.7632 66.8151C53.6788 66.2667 56.4368 65.0798 58.8394 63.3394C61.242 61.5991 63.2295 59.3485 64.6595 56.7492C64.7053 56.6643 64.7674 56.5893 64.8424 56.5285C64.9174 56.4677 65.0037 56.4225 65.0963 56.3953C65.1888 56.3681 65.2859 56.3595 65.3818 56.3701C65.4777 56.3807 65.5706 56.4102 65.6551 56.4569C65.7395 56.5036 65.8138 56.5666 65.8738 56.6422C65.9337 56.7179 65.978 56.8046 66.0042 56.8975C66.0304 56.9904 66.0379 57.0875 66.0263 57.1833C66.0146 57.2791 65.9841 57.3717 65.9365 57.4556C64.4028 60.2428 62.2712 62.6561 59.6947 64.5222C57.1181 66.3883 54.1605 67.661 51.034 68.249C50.9892 68.2577 50.9438 68.2621 50.8982 68.2622Z" fill="#E30510"/>
<path d="M47 72.5404C46.0812 72.5404 45.183 72.268 44.4191 71.7575C43.6551 71.2471 43.0597 70.5216 42.7081 69.6727C42.3565 68.8239 42.2645 67.8898 42.4438 66.9887C42.623 66.0876 43.0654 65.2598 43.7151 64.6101C44.3648 63.9605 45.1925 63.518 46.0937 63.3388C46.9948 63.1595 47.9288 63.2515 48.7777 63.6031C49.6265 63.9547 50.3521 64.5502 50.8625 65.3141C51.373 66.078 51.6454 66.9762 51.6454 67.895C51.6443 69.1267 51.1545 70.3076 50.2835 71.1785C49.4126 72.0495 48.2317 72.5393 47 72.5404ZM47 64.709C46.3698 64.709 45.7538 64.8958 45.2299 65.2459C44.706 65.596 44.2976 66.0936 44.0565 66.6757C43.8153 67.2579 43.7522 67.8985 43.8752 68.5165C43.9981 69.1346 44.3015 69.7022 44.7471 70.1478C45.1927 70.5934 45.7604 70.8968 46.3784 71.0198C46.9964 71.1427 47.637 71.0796 48.2192 70.8385C48.8014 70.5973 49.2989 70.189 49.649 69.665C49.9991 69.1411 50.186 68.5251 50.186 67.895C50.185 67.0503 49.849 66.2405 49.2517 65.6432C48.6545 65.0459 47.8446 64.7099 47 64.709Z" fill="#E30510"/>
<path d="M67.5314 43.8315C67.3613 43.8314 67.1967 43.7719 67.0659 43.6633C66.935 43.5547 66.8462 43.4039 66.8148 43.2368C66.266 40.3214 65.0789 37.5635 63.3386 35.161C61.5983 32.7585 59.3479 30.7708 56.7489 29.3405C56.5795 29.2468 56.4544 29.0896 56.4009 28.9035C56.3475 28.7175 56.3701 28.5178 56.4639 28.3485C56.5577 28.1791 56.7149 28.054 56.9009 28.0005C57.087 27.9471 57.2866 27.9698 57.456 28.0635C60.2425 29.5974 62.6551 31.7286 64.521 34.3046C66.3869 36.8805 67.6599 39.8374 68.2487 42.9631C68.2664 43.0574 68.2654 43.1543 68.2456 43.2482C68.2259 43.3421 68.1878 43.4312 68.1336 43.5104C68.0794 43.5896 68.01 43.6573 67.9296 43.7096C67.8492 43.762 67.7592 43.7979 67.6649 43.8155C67.621 43.825 67.5763 43.8304 67.5314 43.8315Z" fill="#E30510"/>
<path d="M67.895 51.6454C66.9762 51.6454 66.078 51.373 65.3141 50.8625C64.5502 50.3521 63.9547 49.6265 63.6031 48.7777C63.2515 47.9288 63.1595 46.9948 63.3388 46.0937C63.518 45.1925 63.9605 44.3648 64.6101 43.7151C65.2598 43.0654 66.0876 42.623 66.9887 42.4438C67.8898 42.2645 68.8239 42.3565 69.6727 42.7081C70.5216 43.0597 71.2471 43.6551 71.7575 44.4191C72.268 45.183 72.5404 46.0812 72.5404 47C72.5391 48.2316 72.0492 49.4124 71.1783 50.2833C70.3074 51.1542 69.1266 51.6441 67.895 51.6454ZM67.895 43.814C67.2648 43.814 66.6489 44.0008 66.1249 44.3509C65.601 44.701 65.1926 45.1986 64.9515 45.7807C64.7104 46.3629 64.6473 47.0035 64.7702 47.6215C64.8931 48.2395 65.1966 48.8072 65.6421 49.2528C66.0877 49.6984 66.6554 50.0018 67.2734 50.1247C67.8914 50.2477 68.532 50.1846 69.1142 49.9434C69.6964 49.7023 70.194 49.2939 70.544 48.77C70.8941 48.2461 71.081 47.6301 71.081 47C71.08 46.1553 70.744 45.3455 70.1467 44.7482C69.5495 44.1509 68.7397 43.8149 67.895 43.814Z" fill="#E30510"/>
<path d="M37.3285 43.8825C37.2135 43.8825 37.1002 43.8553 36.9977 43.8032C36.8952 43.7511 36.8065 43.6755 36.7388 43.5826C36.398 43.1749 36.1488 42.6987 36.0081 42.1863C35.8675 41.6738 35.8387 41.1371 35.9237 40.6126C35.9695 40.4245 36.0881 40.2622 36.2535 40.1616C36.4189 40.0609 36.6175 40.0301 36.8056 40.0759C36.9937 40.1216 37.156 40.2403 37.2566 40.4057C37.3573 40.571 37.3881 40.7696 37.3423 40.9577C37.3167 41.2753 37.3543 41.5947 37.453 41.8976C37.5517 42.2005 37.7096 42.4808 37.9173 42.7222C37.9968 42.831 38.0447 42.9597 38.0555 43.094C38.0664 43.2282 38.0399 43.3629 37.9789 43.483C37.9179 43.6032 37.8249 43.7041 37.7101 43.7746C37.5953 43.8451 37.4632 43.8825 37.3285 43.8825Z" fill="#E30510"/>
<path d="M45.6458 39.509C45.5315 39.5092 45.4187 39.4826 45.3165 39.4313C45.2144 39.38 45.1257 39.3053 45.0577 39.2134C44.6811 38.7175 44.1506 38.3605 43.5493 38.1984C43.4535 38.1815 43.362 38.1456 43.2802 38.0928C43.1984 38.04 43.1281 37.9714 43.0732 37.891C43.0184 37.8106 42.9802 37.72 42.9608 37.6247C42.9415 37.5293 42.9414 37.431 42.9607 37.3356C42.9799 37.2402 43.018 37.1496 43.0728 37.0691C43.1276 36.9887 43.1979 36.92 43.2796 36.8671C43.3613 36.8142 43.4527 36.7782 43.5486 36.7612C43.6444 36.7442 43.7427 36.7466 43.8376 36.7681C44.793 37.0039 45.6383 37.5609 46.2318 38.3458C46.3119 38.4542 46.3603 38.5827 46.3718 38.717C46.3833 38.8513 46.3574 38.9861 46.297 39.1066C46.2365 39.227 46.1439 39.3284 46.0293 39.3994C45.9148 39.4705 45.7828 39.5084 45.648 39.509H45.6458Z" fill="#E30510"/>
<path d="M52.1659 39.9896C52.0019 39.9895 51.8427 39.9341 51.714 39.8324C51.5853 39.7307 51.4947 39.5887 51.4566 39.4291C51.3298 38.9146 51.0247 38.4616 50.5955 38.1507C50.431 38.0483 50.3139 37.8847 50.27 37.696C50.2261 37.5073 50.2589 37.3089 50.3613 37.1444C50.4637 36.9799 50.6272 36.8628 50.8159 36.8188C51.0046 36.7749 51.2031 36.8077 51.3676 36.9101C52.1198 37.4272 52.6566 38.2018 52.8767 39.0876C52.9205 39.2754 52.8883 39.4729 52.787 39.637C52.6856 39.8011 52.5235 39.9184 52.3359 39.9633C52.2805 39.9789 52.2234 39.9877 52.1659 39.9896Z" fill="#E30510"/>
<path d="M58.7629 43.7539C58.6231 43.7538 58.4863 43.7135 58.3688 43.6379C58.2769 43.5788 56.3146 42.3667 54.5625 43.6182C54.405 43.7307 54.2092 43.7761 54.0182 43.7443C53.8273 43.7125 53.6567 43.6061 53.5442 43.4485C53.4317 43.291 53.3863 43.0952 53.4181 42.9042C53.4499 42.7133 53.5563 42.5427 53.7139 42.4302C56.2869 40.5935 59.0409 42.3361 59.1591 42.4112C59.2915 42.4968 59.3927 42.6228 59.4474 42.7706C59.5022 42.9184 59.5076 43.08 59.463 43.2311C59.4183 43.3822 59.3259 43.5149 59.1995 43.6091C59.0732 43.7033 58.9197 43.7542 58.7621 43.7539H58.7629Z" fill="#E30510"/>
<path d="M56.7012 52.846C56.5591 52.846 56.4202 52.8045 56.3014 52.7266C56.1826 52.6487 56.0891 52.5379 56.0324 52.4076C55.9756 52.2774 55.9582 52.1334 55.9821 51.9934C56.006 51.8534 56.0703 51.7234 56.167 51.6193C56.8136 50.9254 56.5742 49.5965 56.4283 49.1434C56.3678 48.9595 56.3828 48.7592 56.4701 48.5864C56.5573 48.4136 56.7096 48.2826 56.8935 48.2221C57.0773 48.1616 57.2777 48.1766 57.4505 48.2639C57.6233 48.3511 57.7543 48.5034 57.8148 48.6873C57.8476 48.7873 58.6051 51.1436 57.2354 52.614C57.167 52.6873 57.0843 52.7457 56.9924 52.7856C56.9005 52.8255 56.8014 52.8461 56.7012 52.846Z" fill="#E30510"/>
<path d="M54.1587 59.2771H51.3054C51.1449 59.277 50.9889 59.2239 50.8616 59.1261C50.7343 59.0284 50.6428 58.8914 50.6012 58.7364C50.1938 57.3336 49.5561 56.0084 48.7142 54.8148C47.896 54.4566 47.1565 53.9406 46.5381 53.2962C46.2971 53.3206 46.055 53.3326 45.8127 53.332C44.806 53.3444 43.8086 53.1369 42.8904 52.7239C41.9722 52.3108 41.1552 51.7022 40.4967 50.9407C39.7827 51.288 39.0052 51.4857 38.2121 51.5214C37.4189 51.5571 36.6268 51.4302 35.8845 51.1484C35.1422 50.8666 34.4654 50.4359 33.8958 49.8828C33.3261 49.3297 32.8757 48.666 32.5721 47.9323C32.2685 47.1987 32.1183 46.4107 32.1306 45.6168C32.1429 44.8229 32.3175 44.0399 32.6436 43.316C32.9698 42.5922 33.4406 41.9426 34.0271 41.4075C34.6136 40.8723 35.3034 40.4628 36.0541 40.2041C36.5869 38.7447 37.6723 37.5534 39.076 36.8874C40.4797 36.2214 42.089 36.1341 43.5564 36.6445C44.6559 35.8007 46.0076 35.3518 47.3934 35.3702C48.7793 35.3886 50.1185 35.8732 51.1952 36.7459C51.5951 36.68 51.9998 36.6473 52.4051 36.6482C56.1267 36.6482 59.1632 39.2672 59.4718 42.6699C60.0892 43.2166 60.5844 43.8874 60.925 44.6384C61.2656 45.3895 61.4441 46.2039 61.4487 47.0286C61.4245 48.3123 60.9957 49.5555 60.2232 50.5811C59.4507 51.6066 58.3741 52.362 57.1469 52.7394C56.6425 53.4016 56.017 53.9619 55.3036 54.3908C54.6826 55.0549 54.525 56.5107 54.8738 58.416C54.893 58.5212 54.8889 58.6293 54.8618 58.7327C54.8346 58.8361 54.7851 58.9323 54.7167 59.0144C54.6482 59.0966 54.5626 59.1627 54.4658 59.2081C54.369 59.2535 54.2634 59.277 54.1565 59.2771H54.1587ZM51.8505 57.8176H53.31C53.1188 56.186 53.2275 54.3105 54.3944 53.2408C54.4602 53.1807 54.5363 53.133 54.6191 53.0999C55.2032 52.7373 55.708 52.2605 56.1034 51.6981C56.1976 51.5629 56.335 51.4638 56.4931 51.4172C57.4726 51.1632 58.3431 50.5979 58.9736 49.8064C59.6042 49.0149 59.9606 48.0401 59.9892 47.0286C59.9827 46.3659 59.8277 45.7132 59.5356 45.1184C59.2435 44.5236 58.8217 44.0018 58.3013 43.5915C58.2206 43.526 58.1549 43.444 58.1084 43.351C58.062 43.258 58.036 43.1562 58.0321 43.0523C57.9255 40.2793 55.4525 38.1076 52.4029 38.1076C51.9796 38.1055 51.5573 38.151 51.1442 38.2434C51.027 38.2696 50.9052 38.2666 50.7894 38.2348C50.6736 38.203 50.5674 38.1433 50.4801 38.0609C49.6231 37.2595 48.4907 36.8185 47.3175 36.8291C46.1609 36.8218 45.0436 37.2483 44.1862 38.0244C44.0813 38.1197 43.9511 38.1826 43.8112 38.2056C43.6714 38.2285 43.5279 38.2104 43.3981 38.1536C42.8337 37.904 42.223 37.7762 41.6059 37.7785C40.6415 37.7793 39.7035 38.0933 38.933 38.6731C38.1625 39.2529 37.6011 40.0673 37.3333 40.9937C37.2987 41.1157 37.2329 41.2265 37.1424 41.3153C37.052 41.4041 36.9399 41.4678 36.8174 41.5001C35.7951 41.7729 34.9069 42.4082 34.3185 43.2875C33.73 44.1668 33.4814 45.2302 33.619 46.2792C33.7567 47.3283 34.2711 48.2915 35.0665 48.9892C35.8619 49.687 36.8838 50.0717 37.9419 50.0715C38.7761 50.075 39.5931 49.8351 40.2931 49.3812C40.4535 49.2764 40.6488 49.2389 40.8367 49.2769C41.0246 49.3148 41.19 49.4252 41.2972 49.5841C41.8048 50.3064 42.482 50.8931 43.2693 51.2926C44.0567 51.6921 44.93 51.8923 45.8127 51.8754C46.1106 51.8764 46.4079 51.852 46.7016 51.8025C46.8274 51.7817 46.9564 51.794 47.076 51.8381C47.1956 51.8823 47.3017 51.9567 47.3839 52.0542C47.917 52.6828 48.5897 53.1781 49.3483 53.5005C49.5078 53.5385 49.6494 53.6299 49.7496 53.7596C50.656 54.9952 51.3648 56.3642 51.8505 57.8176Z" fill="#E30510"/>
<path d="M46.8243 53.251C46.6522 53.2511 46.4857 53.1904 46.3541 53.0796C46.2225 52.9688 46.1342 52.8152 46.1049 52.6457C46.0756 52.4762 46.1071 52.3018 46.1938 52.1532C46.2806 52.0047 46.417 51.8916 46.5791 51.8339C47.4986 51.4568 48.3063 50.8506 48.9251 50.073C49.1953 49.7058 49.5361 49.3963 49.9277 49.1627C50.3192 48.9292 50.7535 48.7763 51.205 48.7131C51.6565 48.65 52.1161 48.6778 52.5567 48.7949C52.9973 48.912 53.41 49.1161 53.7705 49.3951C53.9281 49.5075 54.0345 49.678 54.0664 49.8689C54.0983 50.0598 54.053 50.2555 53.9406 50.4131C53.8281 50.5706 53.6577 50.677 53.4668 50.7089C53.2759 50.7408 53.0801 50.6955 52.9226 50.5831C52.7139 50.4155 52.4734 50.292 52.2156 50.22C51.9578 50.148 51.6881 50.129 51.4227 50.1642C51.1574 50.1994 50.902 50.2881 50.6719 50.4248C50.4417 50.5615 50.2418 50.7434 50.084 50.9596C49.2952 51.9633 48.2542 52.7396 47.0673 53.2094C46.9892 53.2369 46.907 53.251 46.8243 53.251Z" fill="#E30510"/>
<path d="M50.7377 53.2511C50.1926 53.2516 49.6594 53.0913 49.2051 52.7901C48.7507 52.489 48.3954 52.0604 48.1836 51.5581C48.1098 51.3801 48.1094 51.1802 48.1824 51.0019C48.2554 50.8237 48.396 50.6815 48.5734 50.6065C48.7509 50.5314 48.9508 50.5296 49.1296 50.6014C49.3083 50.6732 49.4515 50.8127 49.5278 50.9896C49.6282 51.2276 49.7965 51.4306 50.0117 51.5734C50.2269 51.7161 50.4794 51.7923 50.7377 51.7923C50.9312 51.7923 51.1168 51.8692 51.2536 52.0061C51.3905 52.1429 51.4674 52.3285 51.4674 52.5221C51.4674 52.7156 51.3905 52.9012 51.2536 53.0381C51.1168 53.1749 50.9312 53.2518 50.7377 53.2518V53.2511Z" fill="#E30510"/>
<path d="M40.6924 50.7216C40.5611 50.7217 40.4322 50.6863 40.3193 50.6193C40.2064 50.5522 40.1137 50.456 40.051 50.3407C39.455 49.3473 39.2105 48.1824 39.3567 47.0332C39.503 45.8841 40.0315 44.8175 40.8573 44.0051C41.3012 43.5573 41.8299 43.2025 42.4125 42.9614C42.9952 42.7204 43.62 42.5979 44.2505 42.6011C45.0573 42.6009 45.8513 42.8034 46.5594 43.19C46.8255 43.3353 47.0473 43.5498 47.2016 43.8107C47.3559 44.0716 47.4369 44.3694 47.436 44.6725C47.4351 44.9757 47.3524 45.2729 47.1965 45.533C47.0407 45.793 46.8176 46.0061 46.5507 46.1498C46.2918 46.2935 45.9986 46.3636 45.7028 46.3527C45.407 46.3417 45.1198 46.2501 44.8723 46.0878C44.7919 46.0356 44.7226 45.968 44.6684 45.889C44.6141 45.81 44.576 45.7211 44.5561 45.6274C44.5362 45.5336 44.535 45.4369 44.5525 45.3426C44.57 45.2484 44.6059 45.1586 44.6581 45.0782C44.7103 44.9979 44.7779 44.9286 44.8569 44.8743C44.9359 44.8201 45.0248 44.7819 45.1185 44.762C45.2123 44.7421 45.309 44.7409 45.4033 44.7584C45.4975 44.7759 45.5873 44.8118 45.6677 44.864C45.6957 44.8823 45.7284 44.892 45.7618 44.892C45.7952 44.892 45.828 44.8823 45.856 44.864C45.8924 44.8454 45.923 44.8172 45.9445 44.7824C45.966 44.7476 45.9776 44.7076 45.9779 44.6666C45.9783 44.6257 45.9675 44.5855 45.9466 44.5503C45.9258 44.5152 45.8957 44.4864 45.8596 44.4671C45.2211 44.1181 44.4865 43.9863 43.7665 44.0916C43.0466 44.1969 42.3805 44.5336 41.8687 45.0508C41.2744 45.6424 40.898 46.4178 40.801 47.2508C40.704 48.0837 40.8921 48.9249 41.3345 49.6372C41.3948 49.7483 41.4252 49.8732 41.4228 49.9995C41.4203 50.1259 41.385 50.2495 41.3205 50.3582C41.2559 50.4668 41.1641 50.5568 41.0543 50.6194C40.9445 50.6819 40.8203 50.7149 40.6938 50.715L40.6924 50.7216Z" fill="#E30510"/>
<path d="M44.6687 44.081C44.4924 44.0814 44.322 44.0179 44.1889 43.9024C44.0558 43.7869 43.969 43.6271 43.9446 43.4526C43.9201 43.278 43.9596 43.1006 44.0558 42.9529C44.1521 42.8052 44.2984 42.6974 44.468 42.6493C44.8766 42.5325 45.0977 42.3508 45.0591 42.1633C45.0306 42.0725 45.0205 41.9769 45.0293 41.8821C45.0382 41.7873 45.0659 41.6953 45.1107 41.6113C45.1555 41.5273 45.2167 41.4531 45.2905 41.393C45.3643 41.333 45.4494 41.2882 45.5407 41.2613C45.7278 41.2072 45.9287 41.2284 46.1004 41.3204C46.2721 41.4125 46.4009 41.5681 46.4594 41.7539C46.5773 42.1745 46.5265 42.6245 46.3178 43.0083C46.1604 43.2717 45.9507 43.5 45.7017 43.6794C45.4528 43.8587 45.1697 43.9852 44.8701 44.0511C44.8046 44.0703 44.7369 44.0803 44.6687 44.081Z" fill="#E30510"/>
<path d="M50.9404 46.8538C50.8412 46.8537 50.7431 46.8334 50.652 46.7942C50.5609 46.7549 50.4788 46.6975 50.4106 46.6254C49.8195 45.9983 49.4076 45.224 49.218 44.3833C49.0284 43.5426 49.0681 42.6665 49.3328 41.8464C49.426 41.558 49.5953 41.3001 49.8229 41.0999C50.0504 40.8997 50.3277 40.7646 50.6256 40.7089C50.9235 40.6532 51.2309 40.6788 51.5155 40.7832C51.8 40.8876 52.0511 41.0668 52.2422 41.302C52.4322 41.5294 52.5562 41.8046 52.6007 42.0975C52.6452 42.3905 52.6086 42.69 52.4947 42.9636C52.4154 43.157 52.321 43.3439 52.2123 43.5226C52.1122 43.6887 51.9501 43.8083 51.7618 43.8549C51.5735 43.9016 51.3744 43.8716 51.2082 43.7714C51.0421 43.6712 50.9225 43.5092 50.8758 43.3209C50.8292 43.1326 50.8592 42.9334 50.9594 42.7673C51.0287 42.6525 51.0894 42.5327 51.1411 42.409C51.1541 42.3781 51.1579 42.3442 51.1523 42.3113C51.1466 42.2783 51.1315 42.2476 51.109 42.2229C51.0837 42.1907 51.0501 42.1661 51.0117 42.1517C50.9734 42.1372 50.9319 42.1336 50.8917 42.1411C50.8514 42.1486 50.814 42.167 50.7835 42.1943C50.753 42.2216 50.7305 42.2567 50.7186 42.2959C50.5345 42.8666 50.5069 43.4763 50.6388 44.0614C50.7706 44.6464 51.0569 45.1853 51.468 45.622C51.566 45.7254 51.6317 45.8553 51.6568 45.9955C51.6818 46.1358 51.6653 46.2804 51.6092 46.4114C51.5531 46.5424 51.4599 46.6541 51.341 46.7327C51.2222 46.8113 51.0829 46.8534 50.9404 46.8538Z" fill="#E30510"/>
<path d="M49.8458 44.4004C49.7105 44.4005 49.5779 44.3631 49.4627 44.2922C49.3475 44.2213 49.2543 44.1198 49.1934 43.9991C49.1128 43.7886 48.9599 43.6137 48.7621 43.5058C48.7199 43.4943 48.6758 43.4911 48.6323 43.4963C48.4617 43.5877 48.2617 43.6076 48.0764 43.5517C47.8911 43.4957 47.7356 43.3684 47.6442 43.1978C47.5528 43.0272 47.5328 42.8273 47.5888 42.642C47.6448 42.4567 47.7721 42.3012 47.9427 42.2098C48.3342 42.0165 48.7853 41.9822 49.2014 42.1142C49.4896 42.2196 49.753 42.3829 49.9757 42.594C50.1983 42.8051 50.3754 43.0595 50.496 43.3416C50.5522 43.4527 50.579 43.5764 50.5738 43.7009C50.5686 43.8253 50.5317 43.9464 50.4665 44.0525C50.4014 44.1587 50.3101 44.2464 50.2014 44.3073C50.0928 44.3681 49.9704 44.4002 49.8458 44.4004Z" fill="#E30510"/>
<path d="M40.3872 42.3146C40.2775 42.3147 40.1692 42.2901 40.0704 42.2426C39.9716 42.1951 39.8847 42.1259 39.8163 42.0402C39.7478 41.9546 39.6996 41.8546 39.6751 41.7477C39.6507 41.6408 39.6506 41.5298 39.6749 41.4228C39.7711 41.003 39.9638 40.6113 40.2376 40.2789C40.5115 39.9464 40.859 39.6824 41.2527 39.5076C41.6464 39.3328 42.0753 39.2521 42.5056 39.272C42.9359 39.2918 43.3556 39.4116 43.7315 39.6219C43.8954 39.7189 44.0149 39.8761 44.0644 40.06C44.114 40.2439 44.0897 40.4398 43.9967 40.606C43.9037 40.7723 43.7495 40.8955 43.5669 40.9496C43.3842 41.0036 43.1877 40.9841 43.0193 40.8952C42.7941 40.7692 42.5367 40.7123 42.2794 40.7316C42.022 40.751 41.7761 40.8457 41.5722 41.004C41.332 41.1885 41.164 41.4514 41.0972 41.7468C41.0605 41.9078 40.9704 42.0517 40.8414 42.1548C40.7124 42.2579 40.5523 42.3142 40.3872 42.3146Z" fill="#E30510"/>
<path d="M35.2903 48.5131C35.0967 48.5131 34.9111 48.4362 34.7743 48.2994C34.6374 48.1625 34.5605 47.9769 34.5605 47.7834C34.5605 47.5898 34.6374 47.4042 34.7743 47.2674C34.9111 47.1305 35.0967 47.0537 35.2903 47.0537C35.5481 47.0532 35.8002 46.9768 36.0149 46.8341C36.2297 46.6913 36.3977 46.4885 36.498 46.2509C36.6165 45.972 36.6333 45.6602 36.5454 45.3702C36.4903 45.1846 36.5111 44.9847 36.6033 44.8144C36.6956 44.6442 36.8516 44.5175 37.0372 44.4624C37.2229 44.4072 37.4228 44.4281 37.593 44.5203C37.7632 44.6125 37.8899 44.7686 37.945 44.9542C38.0676 45.3673 38.0922 45.8033 38.0169 46.2276C37.9417 46.6519 37.7685 47.0528 37.5113 47.3985C37.254 47.7442 36.9198 48.0251 36.535 48.2191C36.1502 48.4131 35.7256 48.5148 35.2947 48.516L35.2903 48.5131Z" fill="#E30510"/>
<path d="M56.684 47.3872C56.2733 47.3873 55.8677 47.2961 55.4966 47.1203C55.1254 46.9445 54.798 46.6885 54.5378 46.3707C54.4742 46.2969 54.426 46.211 54.3961 46.1182C54.3661 46.0255 54.3551 45.9276 54.3636 45.8305C54.3722 45.7334 54.4 45.639 54.4457 45.5528C54.4913 45.4667 54.5537 45.3905 54.6292 45.3289C54.7047 45.2673 54.7919 45.2214 54.8854 45.194C54.979 45.1666 55.0771 45.1582 55.1739 45.1693C55.2707 45.1805 55.3644 45.2109 55.4493 45.2588C55.5342 45.3067 55.6086 45.3712 55.6682 45.4483C55.8366 45.6532 56.0631 45.8023 56.3178 45.8761C56.5726 45.9498 56.8437 45.9447 57.0955 45.8613C57.2794 45.8005 57.4799 45.8151 57.6529 45.9021C57.826 45.9891 57.9574 46.1412 58.0183 46.3251C58.0791 46.5089 58.0645 46.7095 57.9775 46.8825C57.8905 47.0556 57.7384 47.187 57.5545 47.2478C57.2737 47.3405 56.9797 47.3876 56.684 47.3872Z" fill="#E30510"/>
</svg>
