<svg width="150" height="37" viewBox="0 0 150 37" fill="none" xmlns="http://www.w3.org/2000/svg">
<g clip-path="url(#clip0)">
<path d="M13.3349 0C10.5519 0 7.25149 2.6534 4.5312 7.10941C1.69332 11.7286 0 17.4433 0 22.4082C0 29.6769 4.11571 37.0039 13.3349 37.0039C22.5423 37.0039 26.6659 29.6769 26.6659 22.4082C26.6659 17.4433 24.9765 11.7286 22.1504 7.11329C19.4066 2.6534 16.1101 0 13.3349 0Z" fill="#E30613"/>
<path d="M85.3325 10.9012H94.6654V35.0188H104.665V10.9012H113.997V1.98145H85.3325V10.9012Z" fill="#E30613"/>
<path d="M135.332 10.9012H150V1.98145H135.332C121.856 1.98145 114.66 8.62078 114.66 18.5001C114.66 28.3795 121.852 35.0188 135.332 35.0188H150V26.099H135.332C129.096 26.099 124.996 23.8885 124.996 18.5001C124.996 13.1117 129.096 10.9012 135.332 10.9012Z" fill="#E30613"/>
<path d="M64.9929 1.98145L59.6621 21.7013L54.3312 1.98145H36.665V35.0188H46.6643V8.14682L53.9314 35.0188H65.3966L72.6677 8.13128V35.0188H82.6669V1.98145H64.9929Z" fill="#E30613"/>
</g>
<defs>
<clipPath id="clip0">
<rect width="150" height="37" fill="white"/>
</clipPath>
</defs>
</svg>
