<svg width="12" height="12" viewBox="0 0 12 12" fill="none" xmlns="http://www.w3.org/2000/svg">
<g clip-path="url(#clip0)">
<path d="M7.24997 10.7472C7.11189 10.7474 6.99977 10.6357 6.99951 10.4976C6.99939 10.431 7.02583 10.3672 7.07297 10.3201L11.3965 5.99717L7.07297 1.67417C6.97704 1.57486 6.9798 1.41659 7.07911 1.32066C7.176 1.2271 7.32958 1.2271 7.42645 1.32066L11.9264 5.82066C12.024 5.91828 12.024 6.07653 11.9264 6.17417L7.42645 10.6742C7.37962 10.7209 7.31615 10.7472 7.24997 10.7472Z" fill="#A6A6A6"/>
<path d="M11.75 6.24706H0.250008C0.111938 6.24706 0 6.13515 0 5.99708C0 5.85901 0.111938 5.74707 0.250008 5.74707H11.75C11.8881 5.74707 12 5.85901 12 5.99708C12 6.13515 11.8881 6.24706 11.75 6.24706Z" fill="#A6A6A6"/>
</g>
<defs>
<clipPath id="clip0">
<rect width="12" height="12" fill="white"/>
</clipPath>
</defs>
</svg>
