<svg width="25" height="24" viewBox="0 0 25 24" fill="none" xmlns="http://www.w3.org/2000/svg">
<g clip-path="url(#clip0)">
<path d="M24.8165 11.7577C24.8936 11.5772 24.8507 11.3696 24.7076 11.2318L15.7208 2.54755C15.5225 2.36242 15.2064 2.36776 15.0149 2.5594C14.828 2.74638 14.828 3.04277 15.0149 3.22971L23.1499 11.0909H1.38893C1.11319 11.0909 0.889648 11.3069 0.889648 11.5734C0.889648 11.8398 1.11319 12.0559 1.38893 12.0559H23.1499L15.0159 19.916C14.8176 20.1011 14.8121 20.4065 15.0036 20.5982C15.1952 20.7899 15.5112 20.7952 15.7096 20.6101C15.7138 20.6062 15.7178 20.6022 15.7219 20.5982L24.7087 11.914C24.7548 11.8692 24.7915 11.8161 24.8165 11.7577Z" fill="#2196F3"/>
<path d="M15.3683 20.74C15.0926 20.7405 14.8687 20.5248 14.8682 20.2584C14.8679 20.1299 14.9207 20.0067 15.0149 19.9159L23.6492 11.5733L15.0149 3.23071C14.8233 3.03907 14.8288 2.73363 15.0271 2.54851C15.2206 2.36795 15.5273 2.36795 15.7208 2.54851L24.7076 11.2327C24.9025 11.4211 24.9025 11.7265 24.7076 11.9149L15.7208 20.5991C15.6273 20.6893 15.5005 20.74 15.3683 20.74Z" fill="white"/>
<path d="M24.3551 12.0557H1.38893C1.11319 12.0557 0.889648 11.8397 0.889648 11.5733C0.889648 11.3068 1.11319 11.0908 1.38893 11.0908H24.3552C24.6309 11.0908 24.8545 11.3068 24.8545 11.5733C24.8544 11.8397 24.6309 12.0557 24.3551 12.0557Z" fill="white"/>
</g>
<defs>
<clipPath id="clip0">
<rect width="23.9648" height="23.1579" fill="white" transform="translate(0.889648)"/>
</clipPath>
</defs>
</svg>
