<svg width="37" height="37" viewBox="0 0 37 37" fill="none" xmlns="http://www.w3.org/2000/svg">
<path d="M22.041 18.5C22.041 20.4557 20.4557 22.041 18.5 22.041C16.5443 22.041 14.959 20.4557 14.959 18.5C14.959 16.5443 16.5443 14.959 18.5 14.959C20.4557 14.959 22.041 16.5443 22.041 18.5Z" fill="white"/>
<path d="M26.7813 12.2348C26.6111 11.7736 26.3396 11.3561 25.9867 11.0134C25.644 10.6605 25.2268 10.389 24.7652 10.2187C24.3909 10.0734 23.8286 9.90032 22.7929 9.85318C21.6725 9.80209 21.3366 9.79108 18.5002 9.79108C15.6634 9.79108 15.3275 9.8018 14.2074 9.8529C13.1717 9.90032 12.6091 10.0734 12.2351 10.2187C11.7735 10.389 11.356 10.6605 11.0136 11.0134C10.6607 11.3561 10.3892 11.7733 10.2187 12.2348C10.0733 12.6092 9.90026 13.1718 9.85312 14.2075C9.80202 15.3276 9.79102 15.6635 9.79102 18.5002C9.79102 21.3366 9.80202 21.6726 9.85312 22.793C9.90026 23.8287 10.0733 24.391 10.2187 24.7653C10.3892 25.2268 10.6605 25.6441 11.0133 25.9868C11.356 26.3396 11.7732 26.6112 12.2348 26.7814C12.6091 26.9271 13.1717 27.1001 14.2074 27.1472C15.3275 27.1983 15.6632 27.2091 18.4999 27.2091C21.3369 27.2091 21.6728 27.1983 22.7926 27.1472C23.8283 27.1001 24.3909 26.9271 24.7652 26.7814C25.6917 26.424 26.424 25.6918 26.7813 24.7653C26.9267 24.391 27.0998 23.8287 27.1472 22.793C27.1983 21.6726 27.209 21.3366 27.209 18.5002C27.209 15.6635 27.1983 15.3276 27.1472 14.2075C27.1 13.1718 26.927 12.6092 26.7813 12.2348ZM18.5002 23.9549C15.4873 23.9549 13.0449 21.5128 13.0449 18.4999C13.0449 15.4871 15.4873 13.045 18.5002 13.045C21.5127 13.045 23.9551 15.4871 23.9551 18.4999C23.9551 21.5128 21.5127 23.9549 18.5002 23.9549ZM24.1707 14.1041C23.4667 14.1041 22.8959 13.5334 22.8959 12.8293C22.8959 12.1253 23.4667 11.5545 24.1707 11.5545C24.8748 11.5545 25.4456 12.1253 25.4456 12.8293C25.4453 13.5334 24.8748 14.1041 24.1707 14.1041Z" fill="white"/>
<path d="M18.5 0C8.28429 0 0 8.28429 0 18.5C0 28.7157 8.28429 37 18.5 37C28.7157 37 37 28.7157 37 18.5C37 8.28429 28.7157 0 18.5 0ZM29.059 22.8797C29.0076 24.0105 28.8278 24.7826 28.5652 25.4584C28.0134 26.8854 26.8854 28.0134 25.4584 28.5652C24.7829 28.8278 24.0105 29.0073 22.88 29.059C21.7472 29.1106 21.3853 29.123 18.5003 29.123C15.615 29.123 15.2534 29.1106 14.1203 29.059C12.9897 29.0073 12.2174 28.8278 11.5419 28.5652C10.8328 28.2985 10.1909 27.8804 9.66016 27.3398C9.11987 26.8094 8.7018 26.1672 8.43504 25.4584C8.17251 24.7829 7.99269 24.0105 7.94131 22.88C7.88909 21.7469 7.87695 21.385 7.87695 18.5C7.87695 15.615 7.88909 15.2531 7.94103 14.1203C7.99241 12.9895 8.17194 12.2174 8.43447 11.5416C8.70123 10.8328 9.11958 10.1906 9.66016 9.66016C10.1906 9.11958 10.8328 8.70152 11.5416 8.43475C12.2174 8.17223 12.9895 7.99269 14.1203 7.94103C15.2531 7.88937 15.615 7.87695 18.5 7.87695C21.385 7.87695 21.7469 7.88937 22.8797 7.94131C24.0105 7.99269 24.7826 8.17223 25.4584 8.43447C26.1672 8.70123 26.8094 9.11958 27.3401 9.66016C27.8804 10.1909 28.2988 10.8328 28.5652 11.5416C28.8281 12.2174 29.0076 12.9895 29.0592 14.1203C29.1109 15.2531 29.123 15.615 29.123 18.5C29.123 21.385 29.1109 21.7469 29.059 22.8797Z" fill="white"/>
</svg>
