<svg width="281" height="34" viewBox="0 0 281 34" fill="none" xmlns="http://www.w3.org/2000/svg">
<path d="M28.1302 7.72952C29.727 7.72952 31.244 7.72952 32.7531 7.72952C33.4078 7.72952 34.0625 7.74549 34.7172 7.72154C35.0924 7.71355 35.2681 7.83332 35.2681 8.24051C35.2601 9.92519 35.2521 11.6019 35.2681 13.2866C35.2761 13.8055 34.9727 13.8375 34.5894 13.8375C32.4656 13.8375 30.3418 13.8375 28.218 13.8375C27.1401 13.8375 27.1401 13.8375 26.9804 14.9074C26.7888 16.129 26.6371 17.3506 26.4056 18.5642C26.3018 19.0911 26.4694 19.2269 26.9565 19.2189C28.4495 19.2029 29.9426 19.2349 31.4356 19.2029C31.9945 19.1949 32.2261 19.3386 32.2101 19.9455C32.1702 21.4625 32.1702 22.9795 32.2101 24.4965C32.2261 25.1033 32.0584 25.3109 31.4277 25.3029C29.6552 25.263 27.8826 25.3109 26.1022 25.2789C25.5512 25.271 25.3117 25.4386 25.2399 25.9975C25.0083 27.6822 24.7209 29.3509 24.4734 31.0356C24.3296 32.0017 24.3536 32.0017 23.3556 32.0017C21.8625 32.0017 20.3694 31.9857 18.8764 32.0097C18.3734 32.0177 18.2217 31.858 18.3015 31.347C18.6049 29.5346 18.8445 27.7141 19.1558 25.9017C19.2437 25.3827 19.052 25.2869 18.6209 25.2869C16.8723 25.2949 15.1158 25.2949 13.3672 25.2869C12.96 25.2869 12.7445 25.3907 12.6726 25.8618C12.4251 27.6583 12.1057 29.4467 11.8582 31.2432C11.7784 31.8101 11.5708 32.0336 10.972 32.0177C9.431 31.9777 7.89003 31.9937 6.34907 32.0097C5.82211 32.0097 5.60653 31.9378 5.7263 31.2991C6.06164 29.4946 6.29318 27.6662 6.5886 25.8538C6.67643 25.3029 6.35706 25.2869 5.97381 25.2869C4.24921 25.2869 2.51662 25.263 0.792019 25.3029C0.161262 25.3189 -0.00640796 25.1033 0.00157631 24.4965C0.0414977 23.0034 0.0414977 21.5104 0.00157631 20.0173C-0.0223765 19.3466 0.225136 19.1949 0.847909 19.2029C2.87591 19.2349 4.9119 19.2109 6.93991 19.2189C7.33912 19.2189 7.6026 19.147 7.67446 18.6919C7.89802 17.135 8.14553 15.5701 8.40103 13.9173C7.96988 13.8854 7.63454 13.8455 7.29121 13.8455C6.07761 13.8375 4.864 13.8295 3.65039 13.8455C3.17932 13.8535 2.97971 13.7018 2.98769 13.1987C3.01165 11.5859 3.01165 9.9731 2.98769 8.36826C2.97971 7.87324 3.15536 7.72154 3.6424 7.72952C5.32708 7.75347 7.00378 7.72952 8.68846 7.74549C9.14357 7.75347 9.39108 7.67363 9.46294 7.12272C9.75037 4.9989 10.1097 2.89105 10.421 0.775221C10.5009 0.224306 10.7085 -0.0152217 11.3153 0.000746828C12.8563 0.0486524 14.3972 0.0326839 15.9382 0.0087311C16.4891 0.000746828 16.6727 0.128495 16.561 0.7353C16.1777 2.91501 15.8663 5.1027 15.531 7.2824C15.515 7.39418 15.539 7.50596 15.5549 7.72952C15.9541 7.72952 16.3454 7.72952 16.7366 7.72952C18.2776 7.72952 19.8185 7.71355 21.3595 7.7375C21.8306 7.74549 21.9982 7.5858 22.0701 7.11473C22.3735 4.95099 22.7248 2.78726 23.0442 0.631504C23.1081 0.176401 23.3156 0.0087311 23.7867 0.0087311C25.3995 0.0326839 27.0124 0.0246996 28.6172 0.0167154C29.0883 0.0167154 29.2719 0.0885738 29.1761 0.655457C28.7929 2.83516 28.4815 5.02285 28.1461 7.20256C28.1062 7.33829 28.1302 7.47402 28.1302 7.72952ZM13.7425 19.0752C13.8942 19.147 13.9581 19.1949 14.022 19.1949C15.9382 19.2029 17.8464 19.2189 19.7626 19.1869C19.9223 19.1869 20.1938 18.9155 20.2257 18.7398C20.4892 17.3186 20.6968 15.8974 20.9283 14.4762C21.0162 13.9652 20.7766 13.8215 20.3136 13.8295C18.9163 13.8455 17.5111 13.8375 16.1138 13.8375C14.5809 13.8375 14.5569 13.8375 14.3014 15.3226C14.0778 16.5761 13.9261 17.8376 13.7425 19.0752Z" fill="#E30510"/>
<path d="M58.199 25.1277C58.199 24.1217 57.8237 23.3392 57.0812 22.7803C56.3386 22.2214 55.0212 21.6386 53.1529 21.0398C51.2766 20.441 49.7436 19.8581 48.554 19.2992C44.6816 17.4868 42.7494 14.9957 42.7494 11.8259C42.7494 10.245 43.2284 8.85577 44.1945 7.65015C45.1606 6.44452 46.5259 5.50238 48.2905 4.8317C50.055 4.16102 52.0431 3.82568 54.2388 3.82568C56.3865 3.82568 58.3107 4.19296 60.0194 4.91953C61.72 5.6461 63.0454 6.69204 63.9875 8.04138C64.9297 9.39072 65.4008 10.9317 65.4008 12.6643H58.2149C58.2149 11.5066 57.8397 10.6043 57.0971 9.96559C56.3546 9.32685 55.3406 9.00747 54.0711 9.00747C52.7856 9.00747 51.7716 9.27894 51.0211 9.82187C50.2786 10.3648 49.9033 11.0514 49.9033 11.8898C49.9033 12.6164 50.3105 13.2791 51.1329 13.8779C51.9553 14.4687 53.4004 15.0835 55.4603 15.7143C57.5283 16.345 59.2209 17.0317 60.5543 17.7582C63.78 19.5307 65.4008 21.9739 65.4008 25.0958C65.4008 27.5869 64.4187 29.543 62.4466 30.9642C60.4745 32.3854 57.7758 33.096 54.3425 33.096C51.9233 33.096 49.7276 32.6808 47.7635 31.8505C45.7994 31.0201 44.3223 29.8863 43.3322 28.4492C42.3422 27.012 41.8472 25.3513 41.8472 23.467H49.0729C49.0729 24.992 49.4881 26.1178 50.3185 26.8443C51.1488 27.5709 52.4902 27.9302 54.3505 27.9302C55.5402 27.9302 56.4823 27.6827 57.169 27.1956C57.8476 26.7006 58.199 26.014 58.199 25.1277Z" fill="black"/>
<path d="M94.3998 19.0434C94.3998 21.8219 93.8568 24.2811 92.779 26.4209C91.7011 28.5606 90.1601 30.2054 88.1721 31.3631C86.184 32.5208 83.9164 33.0957 81.3695 33.0957C78.8225 33.0957 76.5629 32.5368 74.5988 31.419C72.6267 30.3012 71.0937 28.7123 69.9919 26.6364C68.89 24.5605 68.3152 22.1812 68.2593 19.4985V17.8857C68.2593 15.0912 68.7942 12.632 69.8721 10.5002C70.95 8.36842 72.483 6.72366 74.487 5.55795C76.4911 4.40023 78.7746 3.81738 81.3295 3.81738C83.8605 3.81738 86.1201 4.39225 88.1002 5.54199C90.0803 6.69172 91.6292 8.32051 92.7311 10.4443C93.8329 12.5602 94.3918 14.9954 94.4078 17.734V19.0434H94.3998ZM87.0702 17.8457C87.0702 15.0193 86.5752 12.8636 85.5851 11.4024C84.5951 9.93333 83.1739 9.19878 81.3295 9.19878C77.7206 9.19878 75.8124 11.7777 75.6048 16.9435L75.5809 19.0354C75.5809 21.8299 76.0679 23.9697 77.042 25.4707C78.0161 26.9718 79.4532 27.7223 81.3695 27.7223C83.1899 27.7223 84.5951 26.9877 85.5772 25.5106C86.5592 24.0336 87.0622 21.9177 87.0782 19.1552V17.8457H87.0702Z" fill="black"/>
<path d="M122.297 23.0513C122.201 25.0314 121.642 26.788 120.612 28.305C119.582 29.822 118.145 31.0037 116.292 31.834C114.44 32.6724 112.324 33.0876 109.937 33.0876C106.009 33.0876 102.919 31.866 100.659 29.4308C98.3997 26.9956 97.2739 23.5464 97.2739 19.0991V17.6939C97.2739 14.8994 97.7849 12.4642 98.8069 10.3643C99.8289 8.27246 101.29 6.65165 103.206 5.5099C105.122 4.36815 107.342 3.80127 109.857 3.80127C113.482 3.80127 116.396 4.71148 118.6 6.53189C120.804 8.3523 122.057 10.8594 122.353 14.0531H115.167C115.111 12.3205 114.656 11.0749 113.793 10.3164C112.931 9.55793 111.622 9.18267 109.849 9.18267C108.053 9.18267 106.743 9.82141 105.905 11.0989C105.067 12.3764 104.635 14.4203 104.588 17.2228V19.2349C104.588 22.2769 104.987 24.4486 105.785 25.75C106.584 27.0515 107.965 27.7062 109.921 27.7062C111.574 27.7062 112.843 27.3309 113.722 26.5884C114.6 25.8458 115.063 24.6642 115.119 23.0513H122.297Z" fill="black"/>
<path d="M133.379 32.6962H126.193V4.21631H133.379V32.6962Z" fill="black"/>
<path d="M155.727 27.3787H145.858L144.134 32.6962H136.437L147.391 4.21631H154.162L165.204 32.6962H157.468L155.727 27.3787ZM147.583 22.0771H154.01L150.785 12.2006L147.583 22.0771Z" fill="black"/>
<path d="M174.586 27.4186H187.129V32.7042H167.384V4.21631H174.586V27.4186Z" fill="black"/>
<path d="M197.844 32.6962H190.658V4.21631H197.844V32.6962Z" fill="black"/>
<path d="M202.85 32.6962V4.21631H212.479C215.122 4.21631 217.493 4.78319 219.601 5.92494C221.709 7.06669 223.354 8.67952 224.535 10.7554C225.717 12.8393 226.316 15.1707 226.332 17.7496V19.0591C226.332 21.6699 225.757 24.0093 224.599 26.0693C223.442 28.1372 221.813 29.75 219.713 30.9237C217.613 32.0894 215.266 32.6802 212.687 32.6962H202.85ZM210.052 9.51786V27.4186H212.559C214.627 27.4186 216.216 26.716 217.318 25.3187C218.427 23.9135 218.978 21.8296 218.978 19.067V17.8375C218.978 15.0829 218.427 13.015 217.318 11.6177C216.208 10.2205 214.595 9.52585 212.471 9.52585H210.052V9.51786Z" fill="black"/>
<path d="M248.56 20.608H237.23V27.4186H250.612V32.7042H230.028V4.21631H250.652V9.51786H237.23V15.522H248.56V20.608Z" fill="black"/>
<path d="M270.517 27.3787H260.648L258.923 32.6962H251.227L262.189 4.21631H268.96L280.002 32.6962H272.265L270.517 27.3787ZM262.373 22.0771H268.8L265.574 12.2006L262.373 22.0771Z" fill="black"/>
</svg>
