<svg width="448" height="214" viewBox="0 0 448 214" fill="none" xmlns="http://www.w3.org/2000/svg">
<g clip-path="url(#clip0)">
<path opacity="0.16" d="M344.916 213.199C344.916 144.102 288.916 88.1235 219.792 88.1235C150.669 88.1235 94.6689 144.102 94.6689 213.199H344.916Z" fill="#BCBCBC"/>
<path opacity="0.16" d="M399.613 157.22C405.036 157.22 409.431 152.827 409.431 147.407C409.431 141.987 405.036 137.593 399.613 137.593C394.191 137.593 389.796 141.987 389.796 147.407C389.796 152.827 394.191 157.22 399.613 157.22Z" fill="#BCBCBC"/>
<path opacity="0.16" d="M263.176 39.1292C270.906 35.9624 274.605 27.131 271.437 19.4036C268.269 11.6762 259.434 7.97914 251.704 11.1459C243.973 14.3127 240.275 23.1442 243.443 30.8715C246.611 38.5989 255.446 42.296 263.176 39.1292Z" fill="#BCBCBC"/>
<path opacity="0.16" d="M119.513 62.0872C119.513 65.6923 116.608 68.5964 113.002 68.5964C109.395 68.5964 106.49 65.6923 106.49 62.0872C106.49 58.4822 109.395 55.5781 113.002 55.5781C116.608 55.5781 119.513 58.4822 119.513 62.0872Z" fill="#BCBCBC"/>
<path opacity="0.16" d="M316.866 56.7795C320.462 56.7795 323.378 53.8652 323.378 50.2704C323.378 46.6755 320.462 43.7612 316.866 43.7612C313.27 43.7612 310.354 46.6755 310.354 50.2704C310.354 53.8652 313.27 56.7795 316.866 56.7795Z" fill="#BCBCBC"/>
<path opacity="0.16" d="M180.622 6.50912C180.622 10.1142 177.717 13.0182 174.111 13.0182C170.504 13.0182 167.599 10.1142 167.599 6.50912C167.599 2.90407 170.504 0 174.111 0C177.717 0 180.622 2.90407 180.622 6.50912Z" fill="#BCBCBC"/>
<path opacity="0.16" d="M396.107 173.844C397.601 173.844 398.812 172.633 398.812 171.14C398.812 169.647 397.601 168.436 396.107 168.436C394.613 168.436 393.402 169.647 393.402 171.14C393.402 172.633 394.613 173.844 396.107 173.844Z" fill="#BCBCBC"/>
<path opacity="0.16" d="M315.764 4.50623C315.764 5.60777 314.862 6.50903 313.76 6.50903C312.658 6.50903 311.757 5.60777 311.757 4.50623C311.757 3.40468 312.658 2.50342 313.76 2.50342C314.862 2.50342 315.764 3.40468 315.764 4.50623Z" fill="#BCBCBC"/>
<path opacity="0.16" d="M115.607 17.0237C117.045 17.0237 118.211 15.858 118.211 14.4201C118.211 12.9821 117.045 11.8164 115.607 11.8164C114.168 11.8164 113.002 12.9821 113.002 14.4201C113.002 15.858 114.168 17.0237 115.607 17.0237Z" fill="#BCBCBC"/>
<path opacity="0.16" d="M6.81233 75.8061C8.69346 75.8061 10.2184 74.2817 10.2184 72.4013C10.2184 70.5209 8.69346 68.9966 6.81233 68.9966C4.9312 68.9966 3.40625 70.5209 3.40625 72.4013C3.40625 74.2817 4.9312 75.8061 6.81233 75.8061Z" fill="#BCBCBC"/>
<path opacity="0.16" d="M425.861 97.6367C425.861 99.5394 424.358 101.041 422.454 101.041C420.551 101.041 419.048 99.5394 419.048 97.6367C419.048 95.734 420.551 94.2319 422.454 94.2319C424.358 94.2319 425.861 95.734 425.861 97.6367Z" fill="#BCBCBC"/>
<path opacity="0.16" d="M76.7248 60.728C78.0294 52.7591 72.6244 45.2419 64.6524 43.9378C56.6804 42.6338 49.1603 48.0367 47.8558 56.0056C46.5512 63.9745 51.9562 71.4917 59.9282 72.7958C67.9001 74.0998 75.4202 68.6969 76.7248 60.728Z" fill="#BCBCBC"/>
<path opacity="0.16" d="M19.2342 168.536C21.1153 168.536 22.6403 167.012 22.6403 165.131C22.6403 163.251 21.1153 161.727 19.2342 161.727C17.3531 161.727 15.8281 163.251 15.8281 165.131C15.8281 167.012 17.3531 168.536 19.2342 168.536Z" fill="#BCBCBC"/>
<path opacity="0.16" d="M389.896 76.3071C397.753 76.3071 404.122 69.9406 404.122 62.0871C404.122 54.2337 397.753 47.8672 389.896 47.8672C382.04 47.8672 375.671 54.2337 375.671 62.0871C375.671 69.9406 382.04 76.3071 389.896 76.3071Z" fill="#BCBCBC"/>
<path opacity="0.16" d="M19.2344 140.096C26.9249 140.096 33.1593 133.864 33.1593 126.177C33.1593 118.489 26.9249 112.257 19.2344 112.257C11.5439 112.257 5.30957 118.489 5.30957 126.177C5.30957 133.864 11.5439 140.096 19.2344 140.096Z" fill="#BCBCBC"/>
<path opacity="0.16" d="M392.1 213.199C392.1 188.264 386.791 164.631 377.274 143.301C380.68 136.191 382.684 128.179 382.684 119.768C382.684 89.8257 358.34 65.4916 328.387 65.4916C322.777 65.4916 317.367 66.3928 312.258 67.8949C285.51 50.8711 253.854 41.0573 219.893 41.0573C215.685 41.0573 211.478 41.2576 207.27 41.558C199.857 35.9501 190.641 32.6455 180.623 32.6455C161.689 32.6455 145.56 44.4621 139.149 61.1855C126.125 68.0952 114.004 76.7073 103.184 86.6212C99.6782 85.8201 96.0718 85.4195 92.265 85.4195C65.1165 85.4195 43.0771 107.45 43.0771 134.588C43.0771 146.405 47.2847 157.22 54.197 165.732C49.8893 180.853 47.485 196.776 47.485 213.299H392.1V213.199Z" fill="#BCBCBC"/>
<path d="M392.701 177.949L378.075 163.329C377.975 163.229 377.975 163.229 377.875 163.229C377.775 163.229 377.775 163.229 377.674 163.329L363.048 177.949C362.848 178.149 363.048 178.35 363.249 178.35H369.66V212.498H386.089V178.35H392.501C392.801 178.35 392.902 178.049 392.701 177.949Z" fill="#E30510"/>
<path d="M387.091 186.762H385.088V177.349H390.698L377.875 164.531L370.061 172.342L368.658 170.94L376.973 162.628C377.474 162.127 378.275 162.127 378.776 162.628L393.402 177.248C393.803 177.649 393.903 178.15 393.703 178.65C393.503 179.151 393.102 179.452 392.601 179.452H387.191V186.762H387.091Z" fill="#474747"/>
<path d="M387.091 212.899H385.087V210.896H387.091V212.899ZM387.091 208.893H385.087V206.89H387.091V208.893ZM387.091 204.887H385.087V202.884H387.091V204.887ZM387.091 200.982H385.087V198.979H387.091V200.982ZM387.091 196.976H385.087V194.973H387.091V196.976ZM387.091 192.971H385.087V190.968H387.091V192.971Z" fill="#474747"/>
<path opacity="0.16" d="M366.253 212.898H321.373C321.273 212.898 321.173 212.798 321.173 212.698V163.028C321.173 162.928 321.273 162.828 321.373 162.828H366.253C366.354 162.828 366.454 162.928 366.454 163.028V212.698C366.554 212.798 366.454 212.898 366.253 212.898Z" fill="#BCBCBC"/>
<g opacity="0.2">
<path opacity="0.2" d="M329.789 212.398V163.229C329.789 162.928 329.989 162.728 330.29 162.728H321.574C321.274 162.728 321.073 162.928 321.073 163.229V212.398C321.073 212.698 321.274 212.898 321.574 212.898H330.19C329.989 212.898 329.789 212.698 329.789 212.398Z" fill="white"/>
</g>
<g opacity="0.2">
<path opacity="0.2" d="M366.054 162.828H357.438C357.739 162.828 357.939 163.028 357.939 163.329V212.498C357.939 212.798 357.739 212.998 357.438 212.998H366.054C366.354 212.998 366.555 212.798 366.555 212.498V163.329C366.555 163.028 366.254 162.828 366.054 162.828Z" fill="#414042"/>
</g>
<path d="M366.554 178.45H321.173V180.453H366.554V178.45Z" fill="#474747"/>
<path d="M366.554 195.674H321.173V197.677H366.554V195.674Z" fill="#474747"/>
<path d="M338.905 204.286H336.601V206.289H338.905V204.286Z" fill="#474747"/>
<path d="M345.316 204.286H343.012V206.289H345.316V204.286Z" fill="#474747"/>
<path d="M351.728 204.286H349.424V206.289H351.728V204.286Z" fill="#474747"/>
<path d="M372.265 212.999H299.635C299.235 212.999 298.834 212.698 298.834 212.198V198.378C298.834 197.978 299.135 197.577 299.635 197.577H372.265C372.666 197.577 373.067 197.878 373.067 198.378V212.298C373.067 212.698 372.666 212.999 372.265 212.999Z" fill="white"/>
<path d="M373.066 197.677H354.533C354.133 197.677 353.732 197.978 353.732 198.478V212.298C353.732 212.698 354.032 213.099 354.533 213.099H373.066V197.677Z" fill="#E30510"/>
<path d="M372.265 214H299.635C298.633 214 297.832 213.199 297.832 212.198V198.378C297.832 197.377 298.633 196.576 299.635 196.576H372.265C373.267 196.576 374.068 197.377 374.068 198.378V212.298C374.068 213.199 373.267 214 372.265 214ZM299.936 211.997H372.065V198.679H299.936V211.997Z" fill="#474747"/>
<path d="M362.748 208.993C361.546 208.993 360.444 208.592 359.542 207.691C357.739 205.889 357.739 203.085 359.542 201.282C361.346 199.48 364.151 199.48 365.954 201.282C367.757 203.085 367.757 205.889 365.954 207.691C365.052 208.492 363.95 208.993 362.748 208.993ZM362.748 201.883C362.047 201.883 361.446 202.083 360.945 202.584C359.943 203.585 359.943 205.188 360.945 206.189C361.947 207.19 363.55 207.19 364.551 206.189C365.553 205.188 365.553 203.585 364.551 202.584C364.05 202.083 363.349 201.883 362.748 201.883Z" fill="#474747"/>
<path d="M365.963 206.168L364.549 207.586L367.45 210.493L368.864 209.074L365.963 206.168Z" fill="#474747"/>
<path d="M354.734 197.577H352.73V212.198H354.734V197.577Z" fill="#474747"/>
<path d="M192.143 109.654H99.5772C99.1765 109.654 98.876 109.954 98.876 110.355V212.999H192.944V110.455C192.844 109.954 192.543 109.654 192.143 109.654Z" fill="white"/>
<path d="M192.143 109.654H100.379C99.9788 109.654 99.6782 109.954 99.6782 110.255V122.472H192.945V110.255C192.845 109.954 192.544 109.654 192.143 109.654Z" fill="#A3A3A3"/>
<g opacity="0.2">
<path opacity="0.2" d="M102.583 113.359C102.583 112.958 102.884 112.758 103.285 112.758H192.744V110.355C192.744 109.954 192.444 109.754 192.043 109.754H100.279C99.8787 109.754 99.5781 110.054 99.5781 110.355V122.572H102.583V113.359Z" fill="white"/>
</g>
<path d="M169.703 123.573H98.5762V110.555C98.5762 109.554 99.3776 108.853 100.279 108.853H169.603V110.855H100.48V121.57H169.603V123.573H169.703Z" fill="#474747"/>
<path d="M109.796 132.386H106.991V134.389H109.796V132.386Z" fill="#474747"/>
<path d="M109.796 138.895H106.991V140.897H109.796V138.895Z" fill="#474747"/>
<path d="M109.796 145.404H106.991V147.407H109.796V145.404Z" fill="#474747"/>
<path d="M109.796 151.913H106.991V153.916H109.796V151.913Z" fill="#474747"/>
<path d="M109.796 158.422H106.991V160.425H109.796V158.422Z" fill="#474747"/>
<path d="M109.796 164.931H106.991V166.934H109.796V164.931Z" fill="#474747"/>
<path d="M109.796 171.44H106.991V173.443H109.796V171.44Z" fill="#474747"/>
<path d="M109.796 177.949H106.991V179.952H109.796V177.949Z" fill="#474747"/>
<path d="M109.796 184.458H106.991V186.461H109.796V184.458Z" fill="#474747"/>
<path d="M109.796 190.968H106.991V192.971H109.796V190.968Z" fill="#474747"/>
<path d="M109.796 197.477H106.991V199.48H109.796V197.477Z" fill="#474747"/>
<path d="M109.796 203.986H106.991V205.989H109.796V203.986Z" fill="#474747"/>
<path d="M131.435 132.386H119.013V134.389H131.435V132.386Z" fill="#474747"/>
<path d="M143.757 132.386H134.24V134.389H143.757V132.386Z" fill="#A3A3A3"/>
<path d="M162.39 132.386H145.86V134.389H162.39V132.386Z" fill="#474747"/>
<path d="M126.126 138.895H114.004V140.897H126.126V138.895Z" fill="#474747"/>
<path d="M140.952 138.895H128.73V140.897H140.952V138.895Z" fill="#E30510"/>
<path d="M170.705 138.895H145.86V140.897H170.705V138.895Z" fill="#474747"/>
<path d="M136.544 145.404H123.02V147.407H136.544V145.404Z" fill="#474747"/>
<path d="M154.075 145.404H138.948V147.407H154.075V145.404Z" fill="#474747"/>
<path d="M126.126 151.913H114.004V153.916H126.126V151.913Z" fill="#A3A3A3"/>
<path d="M143.757 151.913H128.73V153.916H143.757V151.913Z" fill="#E30510"/>
<path d="M176.716 151.913H146.562V153.916H176.716V151.913Z" fill="#474747"/>
<path d="M133.038 158.422H114.004V160.425H133.038V158.422Z" fill="#474747"/>
<path d="M140.451 158.422H135.342V160.425H140.451V158.422Z" fill="#474747"/>
<path d="M170.705 158.422H143.757V160.425H170.705V158.422Z" fill="#474747"/>
<path d="M184.029 158.422H174.111V160.425H184.029V158.422Z" fill="#474747"/>
<path d="M149.667 164.931H124.021V166.934H149.667V164.931Z" fill="#474747"/>
<path d="M157.181 164.931H151.471V166.934H157.181V164.931Z" fill="#A3A3A3"/>
<path d="M127.829 171.44H114.004V173.443H127.829V171.44Z" fill="#474747"/>
<path d="M132.136 171.44H129.331V173.443H132.136V171.44Z" fill="#E30510"/>
<path d="M136.644 171.44H133.839V173.443H136.644V171.44Z" fill="#A3A3A3"/>
<path d="M163.291 171.44H139.249V173.443H163.291V171.44Z" fill="#474747"/>
<path d="M179.12 171.44H166.498V173.443H179.12V171.44Z" fill="#474747"/>
<path d="M146.462 177.949H121.517V179.952H146.462V177.949Z" fill="#474747"/>
<path d="M156.379 177.949H148.565V179.952H156.379V177.949Z" fill="#E30510"/>
<path d="M153.174 184.458H114.004V186.461H153.174V184.458Z" fill="#474747"/>
<path d="M172.809 184.458H158.283V186.461H172.809V184.458Z" fill="#E30510"/>
<path d="M125.324 190.968H122.519V192.971H125.324V190.968Z" fill="#A3A3A3"/>
<path d="M143.757 190.968H126.727V192.971H143.757V190.968Z" fill="#474747"/>
<path d="M162.29 190.968H147.062V192.971H162.29V190.968Z" fill="#474747"/>
<path d="M136.143 197.477H114.004V199.48H136.143V197.477Z" fill="#E30510"/>
<path d="M166.497 197.477H139.249V199.48H166.497V197.477Z" fill="#A3A3A3"/>
<path d="M184.029 197.477H168.902V199.48H184.029V197.477Z" fill="#474747"/>
<path d="M157.181 203.986H121.517V205.989H157.181V203.986Z" fill="#474747"/>
<path d="M109.696 115.162H107.091V117.164H109.696V115.162Z" fill="white"/>
<path d="M115.607 115.162H113.002V117.164H115.607V115.162Z" fill="white"/>
<path d="M121.717 115.162H119.113V117.164H121.717V115.162Z" fill="white"/>
<path d="M52.594 187.062C52.594 179.952 46.8838 174.244 39.7711 174.244C32.6584 174.244 26.9482 179.952 26.9482 187.062C26.9482 191.568 29.2524 195.574 32.8588 197.877V201.082H46.7837V197.877C50.2899 195.474 52.594 191.568 52.594 187.062Z" fill="#E30510"/>
<path d="M39.7711 174.244C39.0698 174.244 38.4687 174.344 37.8677 174.444C44.0788 175.346 48.7872 180.653 48.7872 187.062C48.7872 191.568 46.4831 195.574 42.8766 197.877V201.082H46.7836V197.877C50.2899 195.574 52.6941 191.669 52.6941 187.062C52.594 179.952 46.8838 174.244 39.7711 174.244Z" fill="#E30510"/>
<path opacity="0.16" d="M47.7854 210.194H31.7568L30.6548 207.891V200.981H48.7872V207.791L47.7854 210.194Z" fill="#BCBCBC"/>
<path opacity="0.16" d="M42.2756 210.194H37.1665V213.098H42.2756V210.194Z" fill="#BCBCBC"/>
<path d="M48.3863 211.196H31.0553L29.6528 208.091V199.98H49.7888V207.991L48.3863 211.196ZM32.3577 209.193H47.084L47.7852 207.591V201.983H31.6564V207.591L32.3577 209.193Z" fill="#474747"/>
<path d="M43.2773 214H36.1646V209.093H43.2773V214ZM38.1681 211.997H41.2737V211.096H38.1681V211.997Z" fill="#474747"/>
<path d="M38.5689 204.587H30.6548V206.59H38.5689V204.587Z" fill="#474747"/>
<path d="M37.6673 191.769L33.0591 187.162L34.4616 185.76L37.6673 188.865L44.78 181.855L46.1825 183.257L37.6673 191.769Z" fill="#474747"/>
<g opacity="0.4">
<path opacity="0.4" d="M107.592 211.997V178.55C107.592 177.849 107.091 177.349 106.39 177.349H98.8765V212.999H107.292C107.492 212.698 107.592 212.398 107.592 211.997Z" fill="#A3A3A3"/>
</g>
<path d="M104.387 178.35H62.4118C62.3116 178.35 62.2114 178.45 62.2114 178.55V211.797C62.2114 212.398 62.7123 212.899 63.3134 212.899H103.285C103.886 212.899 104.387 212.398 104.387 211.797V178.55C104.587 178.45 104.487 178.35 104.387 178.35Z" fill="white"/>
<path d="M104.387 178.35H62.4118C62.3116 178.35 62.2114 178.45 62.2114 178.55V205.288H104.487V178.55C104.587 178.45 104.487 178.35 104.387 178.35Z" fill="#A3A3A3"/>
<g opacity="0.09">
<path opacity="0.09" d="M67.2204 184.058C67.2204 183.958 67.3206 183.858 67.4207 183.858H104.487V178.55C104.487 178.45 104.387 178.35 104.287 178.35H62.4118C62.3116 178.35 62.2114 178.45 62.2114 178.55V205.288H67.2204V184.058Z" fill="white"/>
</g>
<path d="M91.3634 205.488C91.3634 200.581 87.3563 196.576 82.4475 196.576C79.8428 196.576 77.5387 197.677 75.9359 199.48C74.333 197.677 72.0289 196.576 69.4242 196.576C66.519 196.576 63.9144 197.978 62.3115 200.081V205.588H81.045L91.3634 205.488Z" fill="white"/>
<path d="M79.3411 205.488H77.3375C77.3375 201.082 73.8313 197.577 69.4234 197.577C66.9189 197.577 64.6148 198.679 63.1121 200.681L61.5093 199.48C63.4127 196.976 66.3179 195.574 69.4234 195.574C74.8331 195.574 79.3411 199.98 79.3411 205.488Z" fill="#474747"/>
<path d="M92.365 205.488H90.3615C90.3615 201.082 86.8552 197.577 82.4473 197.577C80.2434 197.577 78.1396 198.478 76.637 200.081L75.1343 198.679C77.0377 196.676 79.6423 195.474 82.4473 195.474C87.9572 195.574 92.365 199.98 92.365 205.488Z" fill="#474747"/>
<path d="M96.7729 186.962C96.7729 189.165 94.9697 190.868 92.866 190.868C90.662 190.868 88.959 189.065 88.959 186.962C88.959 184.759 90.7622 183.057 92.866 183.057C95.0699 183.057 96.7729 184.859 96.7729 186.962Z" fill="#E30510"/>
<path d="M101.181 199.98H93.5674V201.983H101.181V199.98Z" fill="#474747"/>
<path d="M104.587 204.587H62.3115V206.59H104.587V204.587Z" fill="#474747"/>
<path d="M103.485 214H63.3131C62.2112 214 61.3096 213.099 61.3096 211.997V178.55C61.3096 177.849 61.8105 177.349 62.5117 177.349H104.386C105.088 177.349 105.589 177.849 105.589 178.55V211.997C105.589 213.099 104.687 214 103.485 214ZM63.213 179.351V211.997H103.485V179.351H63.213Z" fill="#474747"/>
<path d="M59.1056 204.287H57.1021V206.39H59.1056V204.287Z" fill="#474747"/>
<path d="M59.1056 210.195H57.1021V212.298H59.1056V210.195Z" fill="#474747"/>
<path d="M59.1056 198.479H57.1021V200.581H59.1056V198.479Z" fill="#474747"/>
<path d="M59.1056 192.57H57.1021V194.673H59.1056V192.57Z" fill="#474747"/>
<path d="M59.1056 186.762H57.1021V188.865H59.1056V186.762Z" fill="#474747"/>
<path d="M59.1056 180.854H57.1021V182.956H59.1056V180.854Z" fill="#474747"/>
<path d="M59.1056 174.945H57.1021V177.048H59.1056V174.945Z" fill="#474747"/>
<path d="M59.1056 169.137H57.1021V171.24H59.1056V169.137Z" fill="#474747"/>
<path d="M101.581 168.036H65.2163V170.038H101.581V168.036Z" fill="#474747"/>
<path d="M98.6765 173.644L97.1738 172.342L100.179 169.037L97.1738 165.933L98.6765 164.531L102.884 169.037L98.6765 173.644Z" fill="#474747"/>
<path d="M68.0215 173.644L63.814 169.037L68.0215 164.531L69.5242 165.933L66.5188 169.037L69.5242 172.342L68.0215 173.644Z" fill="#474747"/>
<path d="M192.143 109.353C191.943 109.153 191.642 109.053 191.342 109.053H168.801V205.788C168.801 208.793 170.504 211.396 173.109 212.698H192.844V122.271V111.957V110.054V109.954V109.353H192.143Z" fill="#A3A3A3"/>
<path d="M251.249 205.789C251.249 209.794 248.043 212.999 244.036 212.999H179.621C175.614 212.999 172.408 209.794 172.408 205.789V75.8063C172.408 71.8007 175.614 68.5962 179.621 68.5962H244.036C248.043 68.5962 251.249 71.8007 251.249 75.8063V205.789Z" fill="white"/>
<path opacity="0.16" d="M251.349 83.0161H172.408V202.183H251.349V83.0161Z" fill="#BCBCBC"/>
<path d="M219.993 75.5059H202.061V77.5087H219.993V75.5059Z" fill="#474747"/>
<path d="M223.399 75.5059H221.596V77.5087H223.399V75.5059Z" fill="#474747"/>
<g opacity="0.2">
<path opacity="0.2" d="M244.036 68.4961H236.923C240.93 68.4961 244.136 71.7006 244.136 75.7062V205.688C244.136 209.694 240.93 212.899 236.923 212.899H244.036C248.043 212.899 251.249 209.694 251.249 205.688V75.8063C251.249 71.8007 248.043 68.4961 244.036 68.4961Z" fill="white"/>
</g>
<g opacity="0.2">
<path opacity="0.2" d="M179.621 68.4961H186.734C182.727 68.4961 179.521 71.7006 179.521 75.7062V205.688C179.521 209.694 182.727 212.899 186.734 212.899H179.621C175.614 212.899 172.408 209.694 172.408 205.688V75.8063C172.408 71.8007 175.614 68.4961 179.621 68.4961Z" fill="#414042"/>
</g>
<path d="M244.036 214H179.621C175.113 214 171.406 210.295 171.406 205.788V75.8062C171.406 71.2999 175.113 67.5947 179.621 67.5947H244.036C248.544 67.5947 252.251 71.2999 252.251 75.8062V205.788C252.251 210.295 248.544 214 244.036 214ZM179.621 69.4974C176.215 69.4974 173.41 72.3013 173.41 75.7061V205.688C173.41 209.093 176.215 211.897 179.621 211.897H244.036C247.442 211.897 250.247 209.093 250.247 205.688V75.8062C250.247 72.4015 247.442 69.5975 244.036 69.5975H179.621V69.4974Z" fill="#474747"/>
<path d="M191.342 111.757H181.123C180.823 111.757 180.623 111.556 180.623 111.256V101.042C180.623 100.741 180.823 100.541 181.123 100.541H191.342C191.642 100.541 191.843 100.741 191.843 101.042V111.256C191.943 111.556 191.642 111.757 191.342 111.757Z" fill="white"/>
<path d="M208.272 111.757H198.054C197.753 111.757 197.553 111.556 197.553 111.256V101.042C197.553 100.741 197.753 100.541 198.054 100.541H208.272C208.572 100.541 208.773 100.741 208.773 101.042V111.256C208.773 111.556 208.572 111.757 208.272 111.757Z" fill="white"/>
<path d="M225.102 111.757H214.884C214.583 111.757 214.383 111.556 214.383 111.256V101.042C214.383 100.741 214.583 100.541 214.884 100.541H225.102C225.402 100.541 225.603 100.741 225.603 101.042V111.256C225.703 111.556 225.402 111.757 225.102 111.757Z" fill="white"/>
<path d="M242.033 111.757H231.814C231.514 111.757 231.313 111.556 231.313 111.256V101.042C231.313 100.741 231.514 100.541 231.814 100.541H242.033C242.333 100.541 242.534 100.741 242.534 101.042V111.256C242.634 111.556 242.333 111.757 242.033 111.757Z" fill="white"/>
<path d="M191.342 129.581H181.123C180.823 129.581 180.623 129.381 180.623 129.081V118.866C180.623 118.566 180.823 118.366 181.123 118.366H191.342C191.642 118.366 191.843 118.566 191.843 118.866V129.081C191.943 129.381 191.642 129.581 191.342 129.581Z" fill="white"/>
<path d="M208.272 129.581H198.054C197.753 129.581 197.553 129.381 197.553 129.081V118.866C197.553 118.566 197.753 118.366 198.054 118.366H208.272C208.572 118.366 208.773 118.566 208.773 118.866V129.081C208.773 129.381 208.572 129.581 208.272 129.581Z" fill="white"/>
<path d="M225.102 129.581H214.884C214.583 129.581 214.383 129.381 214.383 129.081V118.866C214.383 118.566 214.583 118.366 214.884 118.366H225.102C225.402 118.366 225.603 118.566 225.603 118.866V129.081C225.703 129.381 225.402 129.581 225.102 129.581Z" fill="white"/>
<path d="M242.033 129.581H231.814C231.514 129.581 231.313 129.381 231.313 129.081V118.866C231.313 118.566 231.514 118.366 231.814 118.366H242.033C242.333 118.366 242.534 118.566 242.534 118.866V129.081C242.634 129.381 242.333 129.581 242.033 129.581Z" fill="white"/>
<path d="M191.342 147.407H181.123C180.823 147.407 180.623 147.206 180.623 146.906V136.692C180.623 136.391 180.823 136.191 181.123 136.191H191.342C191.642 136.191 191.843 136.391 191.843 136.692V146.906C191.943 147.206 191.642 147.407 191.342 147.407Z" fill="white"/>
<path d="M208.272 147.407H198.054C197.753 147.407 197.553 147.206 197.553 146.906V136.692C197.553 136.391 197.753 136.191 198.054 136.191H208.272C208.572 136.191 208.773 136.391 208.773 136.692V146.906C208.773 147.206 208.572 147.407 208.272 147.407Z" fill="white"/>
<path d="M225.102 147.407H214.884C214.583 147.407 214.383 147.206 214.383 146.906V136.692C214.383 136.391 214.583 136.191 214.884 136.191H225.102C225.402 136.191 225.603 136.391 225.603 136.692V146.906C225.703 147.206 225.402 147.407 225.102 147.407Z" fill="white"/>
<path d="M242.033 147.407H231.814C231.514 147.407 231.313 147.206 231.313 146.906V136.692C231.313 136.391 231.514 136.191 231.814 136.191H242.033C242.333 136.191 242.534 136.391 242.534 136.692V146.906C242.634 147.206 242.333 147.407 242.033 147.407Z" fill="white"/>
<path d="M191.342 183.157H181.123C180.823 183.157 180.623 182.956 180.623 182.656V172.442C180.623 172.141 180.823 171.941 181.123 171.941H191.342C191.642 171.941 191.843 172.141 191.843 172.442V182.656C191.943 182.856 191.642 183.157 191.342 183.157Z" fill="white"/>
<path d="M208.272 183.157H198.054C197.753 183.157 197.553 182.956 197.553 182.656V172.442C197.553 172.141 197.753 171.941 198.054 171.941H208.272C208.572 171.941 208.773 172.141 208.773 172.442V182.656C208.773 182.856 208.572 183.157 208.272 183.157Z" fill="white"/>
<path d="M225.102 183.157H214.884C214.583 183.157 214.383 182.956 214.383 182.656V172.442C214.383 172.141 214.583 171.941 214.884 171.941H225.102C225.402 171.941 225.603 172.141 225.603 172.442V182.656C225.703 182.856 225.402 183.157 225.102 183.157Z" fill="white"/>
<path d="M242.033 183.157H231.814C231.514 183.157 231.313 182.956 231.313 182.656V172.442C231.313 172.141 231.514 171.941 231.814 171.941H242.033C242.333 171.941 242.534 172.141 242.534 172.442V182.656C242.634 182.856 242.333 183.157 242.033 183.157Z" fill="white"/>
<path d="M240.73 141.799C240.629 141.799 240.529 141.899 240.529 141.999V212.798C240.529 212.898 240.629 212.999 240.73 212.999H245.238C248.143 211.897 250.247 209.093 250.247 205.789V141.799H240.73Z" fill="#A3A3A3"/>
<path d="M312.959 212.197H251.85V150.411H316.866V208.292C316.866 210.395 315.063 212.197 312.959 212.197Z" fill="#EDEDED"/>
<path d="M257.46 212.798V141.999C257.46 141.899 257.359 141.799 257.259 141.799H244.236C244.136 141.799 244.036 141.899 244.036 141.999V212.798C244.036 212.898 244.136 212.999 244.236 212.999H257.259C257.359 212.999 257.46 212.898 257.46 212.798Z" fill="#E30510"/>
<path d="M249.545 147.607H244.036V149.61H249.545V147.607Z" fill="#474747"/>
<path d="M249.545 154.717H244.036V156.72H249.545V154.717Z" fill="#474747"/>
<path d="M249.545 161.827H244.036V163.829H249.545V161.827Z" fill="#474747"/>
<path d="M249.545 169.037H244.036V171.04H249.545V169.037Z" fill="#474747"/>
<path d="M249.545 176.147H244.036V178.15H249.545V176.147Z" fill="#474747"/>
<path d="M249.545 183.257H244.036V185.26H249.545V183.257Z" fill="#474747"/>
<path d="M249.545 190.367H244.036V192.37H249.545V190.367Z" fill="#474747"/>
<path d="M249.545 197.477H244.036V199.479H249.545V197.477Z" fill="#474747"/>
<path d="M249.545 204.587H244.036V206.59H249.545V204.587Z" fill="#474747"/>
<path opacity="0.16" d="M258.361 206.89H260.966L262.168 198.478C263.971 198.077 265.674 197.376 267.177 196.375L273.989 201.482L277.696 197.777L272.587 190.967C273.488 189.465 274.19 187.763 274.691 185.96L283.106 184.759V179.451L274.691 178.25C274.29 176.447 273.589 174.745 272.587 173.243L277.696 166.433L273.989 162.728L267.177 167.835C265.674 166.934 263.971 166.233 262.168 165.732L260.966 157.32H258.361V174.544C262.569 174.544 265.875 177.949 265.875 182.055C265.875 186.261 262.469 189.566 258.361 189.566V206.89Z" fill="#BCBCBC"/>
<path d="M316.866 206.289C316.966 198.378 305.245 200.381 305.245 200.381V141.799H311.055C314.261 141.799 316.866 144.402 316.866 147.607V195.875V206.289Z" fill="#A3A3A3"/>
<g opacity="0.2">
<g opacity="0.2">
<path opacity="0.2" d="M305.145 200.081V200.281C305.145 200.281 305.545 200.181 306.146 200.181C305.846 200.181 305.545 200.181 305.145 200.081Z" fill="white"/>
</g>
<g opacity="0.2">
<path opacity="0.2" d="M311.055 141.699H307.048C310.254 141.699 312.858 144.302 312.858 147.507V195.775V200.681C315.062 201.483 316.865 202.985 316.865 206.189V195.775V147.507C316.865 144.403 314.261 141.699 311.055 141.699Z" fill="white"/>
</g>
</g>
<path d="M317.868 206.289H315.864V206.189C315.864 204.687 315.363 203.585 314.461 202.784C311.556 200.381 305.445 201.282 305.345 201.382L304.143 201.583V140.797H310.955C314.762 140.797 317.767 143.902 317.767 147.607V206.189C317.868 206.189 317.868 206.189 317.868 206.289ZM308.25 199.079C310.555 199.079 313.66 199.48 315.764 201.182L315.864 201.282V147.507C315.864 144.803 313.66 142.7 311.055 142.7H306.247V199.179C306.748 199.179 307.449 199.079 308.25 199.079Z" fill="#474747"/>
<path d="M293.524 149.409H259.563V151.412H293.524V149.409Z" fill="#474747"/>
<path d="M302.14 149.409H295.628V151.412H302.14V149.409Z" fill="#474747"/>
<path d="M310.254 213.7H259.563V211.697H310.254C313.36 211.697 315.864 209.193 315.864 206.089V196.676H317.868V206.089C317.868 210.295 314.462 213.7 310.254 213.7Z" fill="#474747"/>
<path d="M282.204 201.182L280.701 199.88C281.102 199.379 281.503 198.879 281.903 198.378L283.506 199.58C283.106 200.08 282.705 200.681 282.204 201.182ZM284.708 197.877L283.005 196.776C283.306 196.275 283.707 195.674 284.007 195.073L285.81 196.075C285.41 196.676 285.109 197.276 284.708 197.877ZM286.712 194.272L284.909 193.471C285.209 192.87 285.41 192.269 285.61 191.669L287.513 192.37C287.213 192.97 287.013 193.571 286.712 194.272ZM288.114 190.367L286.211 189.766C286.411 189.165 286.512 188.564 286.712 187.863L288.716 188.264C288.515 188.965 288.315 189.666 288.114 190.367ZM289.016 186.261L287.013 185.961C287.113 185.36 287.213 184.659 287.213 184.058L289.216 184.158C289.216 184.959 289.116 185.66 289.016 186.261ZM289.317 182.155H287.313C287.313 181.554 287.313 180.853 287.213 180.253L289.216 180.152C289.317 180.753 289.317 181.454 289.317 182.155ZM287.013 178.35C286.912 177.749 286.812 177.048 286.712 176.447L288.716 176.047C288.816 176.748 289.016 177.449 289.116 178.05L287.013 178.35ZM286.211 174.545C286.011 173.944 285.81 173.343 285.61 172.742L287.513 172.041C287.714 172.642 288.014 173.343 288.215 174.044L286.211 174.545ZM284.909 170.94C284.608 170.339 284.308 169.738 284.007 169.237L285.81 168.236C286.111 168.837 286.411 169.437 286.712 170.138L284.909 170.94ZM283.005 167.535C282.705 167.034 282.304 166.433 281.903 165.933L283.506 164.731C283.907 165.232 284.308 165.832 284.708 166.433L283.005 167.535ZM280.701 164.43C280.301 163.93 279.8 163.429 279.399 163.028L280.801 161.626C281.302 162.127 281.803 162.628 282.204 163.129L280.701 164.43Z" fill="#474747"/>
<path d="M294.826 129.582C301.238 123.173 301.238 112.958 294.826 106.549C288.415 100.14 278.197 100.14 271.785 106.549C266.275 112.057 265.574 120.469 269.581 126.778L268.279 132.586C268.179 132.786 268.379 133.087 268.68 132.986L274.891 131.985C281.102 135.79 289.417 134.989 294.826 129.582Z" fill="#E30510"/>
<path d="M294.827 106.549C288.415 100.14 278.197 100.14 271.785 106.549C271.485 106.85 271.184 107.15 270.884 107.551C277.295 102.043 287.013 102.243 293.023 108.352C299.134 114.46 299.335 124.174 293.825 130.483C294.125 130.183 294.526 129.882 294.827 129.582C301.238 123.173 301.238 112.858 294.827 106.549Z" fill="#E30510"/>
<path d="M274.189 118.766V117.264L279.499 114.761V116.363L275.993 117.965L279.499 119.668V121.27L274.189 118.766Z" fill="#474747"/>
<path d="M285.209 113.559H286.812L282.204 123.673H280.701L285.209 113.559Z" fill="#474747"/>
<path d="M293.224 117.264V118.766L287.914 121.27V119.668L291.42 117.965L287.914 116.363V114.761L293.224 117.264Z" fill="#474747"/>
<path d="M284.709 95.0332H282.705V99.139H284.709V95.0332Z" fill="#474747"/>
<path d="M288.197 97.6057L287.68 99.5405L289.615 100.061L290.132 98.1257L288.197 97.6057Z" fill="#474747"/>
<path d="M294.386 97.7111L292.333 101.267L294.068 102.268L296.122 98.7123L294.386 97.7111Z" fill="#474747"/>
<path d="M297.769 102.865L296.354 104.283L297.769 105.701L299.184 104.283L297.769 102.865Z" fill="#474747"/>
<path d="M303.09 106.061L299.533 108.114L300.534 109.848L304.092 107.796L303.09 106.061Z" fill="#474747"/>
<path d="M303.43 112.052L301.495 112.571L302.012 114.506L303.947 113.987L303.43 112.052Z" fill="#474747"/>
<path d="M306.447 117.465H302.34V119.468H306.447V117.465Z" fill="#474747"/>
<path d="M301.854 122.484L301.33 124.417L303.263 124.943L303.787 123.01L301.854 122.484Z" fill="#474747"/>
<path d="M300.127 127.137L299.124 128.871L302.679 130.926L303.682 129.193L300.127 127.137Z" fill="#474747"/>
<path d="M297.173 131.073L295.757 132.49L297.171 133.91L298.587 132.493L297.173 131.073Z" fill="#474747"/>
<path d="M293.358 134.257L291.622 135.257L293.673 138.815L295.409 137.815L293.358 134.257Z" fill="#474747"/>
<path d="M288.792 136.279L286.856 136.797L287.372 138.733L289.307 138.215L288.792 136.279Z" fill="#474747"/>
<path d="M283.907 137.092H281.903V141.198H283.907V137.092Z" fill="#474747"/>
<path d="M277.004 136.141L276.484 138.075L278.419 138.597L278.938 136.662L277.004 136.141Z" fill="#474747"/>
<path d="M264.583 121.637L262.648 122.154L263.163 124.09L265.099 123.572L264.583 121.637Z" fill="#474747"/>
<path d="M260.27 116.663L260.268 118.666L264.375 118.671L264.378 116.669L260.27 116.663Z" fill="#474747"/>
<path d="M263.353 111.271L262.833 113.206L264.767 113.729L265.287 111.795L263.353 111.271Z" fill="#474747"/>
<path d="M264.019 105.327L263.014 107.06L266.568 109.119L267.572 107.386L264.019 105.327Z" fill="#474747"/>
<path d="M269.494 102.215L268.077 103.631L269.49 105.051L270.907 103.636L269.494 102.215Z" fill="#474747"/>
<path d="M273.073 97.3935L271.336 98.3921L273.384 101.951L275.121 100.953L273.073 97.3935Z" fill="#474747"/>
<path d="M279.321 97.4035L277.385 97.9199L277.899 99.8558L279.835 99.3393L279.321 97.4035Z" fill="#474747"/>
<path d="M354.433 104.346C350.125 106.449 347.32 110.755 347.32 115.662V141.999H349.223H359.642H361.645V115.662C361.545 110.755 358.84 106.349 354.433 104.346Z" fill="#E6E7E8"/>
<path d="M354.433 104.346C353.731 104.647 353.13 105.047 352.529 105.448C355.835 107.751 357.839 111.556 357.839 115.562V141.899H359.642H361.646V115.562C361.545 110.755 358.841 106.349 354.433 104.346Z" fill="white"/>
<path opacity="0.16" d="M360.644 110.555C359.342 107.851 357.238 105.648 354.433 104.346C351.628 105.648 349.524 107.851 348.222 110.455L360.644 110.555Z" fill="#BCBCBC"/>
<path d="M362.547 142.9H359.542V140.897H360.544V115.562C360.544 111.356 358.139 107.35 354.433 105.448C350.726 107.451 348.322 111.356 348.322 115.562V140.897H349.224V142.9H346.318V115.562C346.318 110.355 349.324 105.648 354.032 103.345L354.433 103.145L354.834 103.345C359.542 105.548 362.547 110.355 362.547 115.562V142.9Z" fill="#474747"/>
<path d="M342.812 145.704H336.601V134.288C336.601 132.185 337.803 130.283 339.707 129.381C341.61 130.283 342.812 132.185 342.812 134.288V145.704Z" fill="#E6E7E8"/>
<path d="M372.064 145.704H365.853V134.288C365.853 132.185 367.055 130.283 368.959 129.381C370.862 130.283 372.064 132.185 372.064 134.288V145.704Z" fill="#E6E7E8"/>
<path d="M357.438 145.704H351.227V134.288C351.227 132.185 352.429 130.283 354.333 129.381C356.236 130.283 357.438 132.185 357.438 134.288V145.704Z" fill="#E6E7E8"/>
<path d="M343.814 146.706H335.599V134.288C335.599 131.785 337.002 129.582 339.306 128.48L339.706 128.28L340.107 128.48C342.311 129.582 343.814 131.785 343.814 134.288V146.706ZM337.603 144.703H341.81V134.288C341.81 132.786 341.009 131.284 339.706 130.483C338.404 131.284 337.603 132.686 337.603 134.288V144.703Z" fill="#474747"/>
<path d="M337.402 146.906V151.312C337.402 152.814 338.304 154.216 339.606 154.817C341.009 154.216 341.81 152.814 341.81 151.312V146.906H337.402Z" fill="#E30510"/>
<path d="M352.128 146.906V151.312C352.128 152.814 353.03 154.216 354.332 154.817C355.735 154.216 356.536 152.814 356.536 151.312V146.906H352.128Z" fill="#E30510"/>
<path d="M366.755 146.906V151.312C366.755 152.814 367.656 154.216 368.959 154.817C370.361 154.216 371.163 152.814 371.163 151.312V146.906H366.755Z" fill="#E30510"/>
<path d="M373.066 146.706H364.851V134.288C364.851 131.785 366.254 129.582 368.558 128.48L368.958 128.28L369.359 128.48C371.563 129.582 373.066 131.785 373.066 134.288V146.706ZM366.855 144.703H371.062V134.288C371.062 132.786 370.261 131.284 368.958 130.483C367.656 131.284 366.855 132.686 366.855 134.288V144.703Z" fill="#474747"/>
<path d="M358.44 146.706H350.225V134.288C350.225 131.785 351.628 129.582 353.932 128.48L354.332 128.28L354.733 128.48C356.937 129.582 358.44 131.785 358.44 134.288V146.706ZM352.229 144.703H356.436V134.288C356.436 132.786 355.635 131.284 354.332 130.483C353.03 131.284 352.229 132.686 352.229 134.288V144.703Z" fill="#474747"/>
<path d="M346.541 132.049L342.06 136.771L343.513 138.15L347.995 133.428L346.541 132.049Z" fill="#474747"/>
<path d="M346.535 136.549L342.06 141.277L343.512 142.658L347.987 137.93L346.535 136.549Z" fill="#474747"/>
<path d="M362.324 132.066L360.871 133.444L365.353 138.166L366.806 136.788L362.324 132.066Z" fill="#474747"/>
<path d="M362.333 136.591L360.88 137.969L365.362 142.691L366.815 141.312L362.333 136.591Z" fill="#474747"/>
<path opacity="0.16" d="M358.24 120.569C358.24 122.672 356.537 124.374 354.433 124.374C352.329 124.374 350.626 122.672 350.626 120.569C350.626 118.466 352.329 116.764 354.433 116.764C356.537 116.764 358.24 118.466 358.24 120.569Z" fill="#BCBCBC"/>
<path d="M360.644 109.754H348.222V111.757H360.644V109.754Z" fill="#474747"/>
<path d="M343.313 137.393H337.102V139.395H343.313V137.393Z" fill="#474747"/>
<path d="M357.939 137.393H351.728V139.395H357.939V137.393Z" fill="#474747"/>
<path d="M372.565 137.393H366.354V139.395H372.565V137.393Z" fill="#474747"/>
<path d="M382.784 137.092L381.381 135.69C382.583 134.488 383.184 132.986 383.184 131.284C383.184 129.581 382.583 128.079 381.381 126.878C380.179 125.676 378.676 125.075 376.973 125.075V123.072C379.177 123.072 381.281 123.974 382.784 125.476C384.386 127.078 385.188 129.081 385.188 131.284C385.188 133.487 384.386 135.59 382.784 137.092Z" fill="#474747"/>
<path d="M376.472 128.58L375.07 127.178C375.771 126.477 376.172 125.576 376.172 124.575C376.172 123.573 375.771 122.672 375.07 121.971C373.667 120.569 371.263 120.569 369.86 121.971C369.159 122.672 368.758 123.573 368.758 124.575V125.576H364.451V123.573H366.755C366.955 122.472 367.456 121.37 368.358 120.569C369.46 119.468 370.862 118.867 372.365 118.867C373.867 118.867 375.27 119.468 376.372 120.569C377.474 121.671 378.075 123.073 378.075 124.575C378.075 126.077 377.474 127.479 376.472 128.58Z" fill="#474747"/>
<path d="M331.993 121.37L330.59 119.968C331.091 119.467 331.392 118.766 331.392 118.065C331.392 117.365 331.091 116.664 330.59 116.163C329.588 115.161 327.885 115.161 326.884 116.163C326.383 116.664 326.082 117.365 326.082 118.065H324.079C324.079 116.864 324.58 115.662 325.481 114.761C326.383 113.86 327.485 113.359 328.787 113.359C329.989 113.359 331.191 113.86 332.093 114.761C332.995 115.662 333.495 116.764 333.495 118.065C333.395 119.367 332.894 120.569 331.993 121.37Z" fill="#474747"/>
<path d="M345.016 117.865H341.009V116.864C341.009 114.661 339.206 112.958 337.102 112.958C334.898 112.958 333.195 114.761 333.195 116.864H331.191C331.191 113.559 333.896 110.956 337.102 110.956C340.007 110.956 342.512 113.059 343.012 115.862H345.116V117.865H345.016Z" fill="#474747"/>
<path d="M93.4671 126.177L84.9519 117.665H84.8517H84.7515L76.2363 126.177C76.1361 126.277 76.2363 126.377 76.3365 126.377H80.1433V146.205H89.6603V126.477H93.3669C93.5673 126.477 93.5673 126.277 93.4671 126.177Z" fill="#E30510"/>
<path d="M89.6598 126.478H87.6562V146.205H89.6598V126.478Z" fill="#E30510"/>
<path d="M93.4668 126.177L84.9516 117.665H84.8514H84.7512L83.8496 118.566L91.4632 126.177C91.5634 126.277 91.4632 126.377 91.363 126.377H93.3666C93.567 126.477 93.567 126.277 93.4668 126.177Z" fill="#E30510"/>
<path opacity="0.16" d="M34.0599 157.821L42.5751 166.333H42.6753H42.7755L51.2907 157.821C51.3909 157.721 51.2907 157.621 51.1905 157.621H47.4839V137.893H37.9669V157.621H34.2603C33.9597 157.621 33.9597 157.821 34.0599 157.821Z" fill="#BCBCBC"/>
<g opacity="0.09">
<path opacity="0.09" d="M51.0912 157.621H49.0876C49.1878 157.621 49.288 157.821 49.1878 157.821L41.5742 165.432L42.4758 166.333H42.576H42.6762L51.1914 157.821C51.2916 157.821 51.1914 157.621 51.0912 157.621Z" fill="white"/>
<path opacity="0.09" d="M47.3844 137.893H45.3809V157.621H47.3844V137.893Z" fill="white"/>
</g>
<path opacity="0.06" d="M49.3875 157.621L42.6755 164.33H42.5753H42.4752L35.7632 157.621H34.0601C33.96 157.621 33.8598 157.821 33.96 157.821L42.4752 166.333H42.5753H42.6755L51.1907 157.821C51.2909 157.721 51.1907 157.621 51.0905 157.621H49.3875Z" fill="#414042"/>
<path d="M60.7083 155.718L60.2074 152.113C59.7065 151.913 59.1055 151.713 58.6046 151.512L54.9981 154.216L51.8926 151.112L54.5974 147.507C54.2969 147.006 54.0965 146.505 53.9963 145.904L49.4883 145.203V140.797L53.9963 140.196C54.1967 139.696 54.397 139.095 54.6976 138.594L51.9928 134.989L55.0983 131.885L58.7047 134.589C59.2056 134.288 59.7065 134.088 60.2074 133.988L60.8085 129.481H65.2164L65.8174 133.988C66.3183 134.188 66.9194 134.388 67.4203 134.589L71.0267 131.885L74.1323 134.989L71.4275 138.594C71.728 139.095 71.9284 139.596 72.0285 140.196L76.5366 140.797V145.203L71.4275 145.904L71.1269 143.902L74.533 143.401V142.4L70.4257 141.799L70.2253 141.098C70.025 140.297 69.7244 139.596 69.3237 138.895L68.923 138.294L71.4275 134.989L70.7262 134.288L67.4203 136.792L66.8192 136.391C66.118 135.991 65.4167 135.69 64.6153 135.49L63.914 135.29L63.313 131.184H62.3112L61.7101 135.29L61.0089 135.49C60.2074 135.69 59.5062 135.991 58.8049 136.391L58.2038 136.792L54.8979 134.288L54.1967 134.989L56.7012 138.294L56.3004 138.895C55.8997 139.596 55.5992 140.297 55.3988 141.098L55.1985 141.799L51.0911 142.4V143.401L55.1985 144.002L55.3988 144.703C55.5992 145.504 55.8997 146.205 56.3004 146.906L56.7012 147.507L54.1967 150.811L54.8979 151.512L58.2038 149.009L58.8049 149.409C59.5062 149.81 60.2074 150.11 61.0089 150.311L61.7101 150.511L62.4114 155.418L60.7083 155.718Z" fill="#474747"/>
<path d="M63.1128 147.807C60.408 147.807 58.3042 145.604 58.3042 143.001C58.3042 140.297 60.5081 138.194 63.1128 138.194C65.8176 138.194 67.9214 140.397 67.9214 143.001C67.9214 145.604 65.7174 147.807 63.1128 147.807ZM63.1128 140.097C61.5099 140.097 60.3078 141.398 60.3078 142.9C60.3078 144.503 61.6101 145.704 63.1128 145.704C64.7157 145.704 65.9178 144.403 65.9178 142.9C65.9178 141.398 64.6155 140.097 63.1128 140.097Z" fill="#474747"/>
<path d="M47.9859 134.288C47.1845 132.586 46.6836 130.783 46.6836 128.981C46.6836 125.776 47.8857 122.772 50.1899 120.569C52.3938 118.366 55.3992 117.064 58.6049 117.064C61.8106 117.064 64.816 118.266 67.0199 120.569C69.2238 122.772 70.5262 125.776 70.5262 128.981H68.5226C68.5226 126.377 67.5208 123.874 65.6174 121.971C63.714 120.068 61.3097 119.067 58.6049 119.067C56.0002 119.067 53.4958 120.068 51.5924 121.971C49.689 123.874 48.6872 126.277 48.6872 128.981C48.6872 130.583 49.0879 132.085 49.689 133.387L47.9859 134.288Z" fill="#474747"/>
<path d="M64.816 164.23C64.0146 162.528 63.5137 160.725 63.5137 158.923C63.5137 155.718 64.7158 152.714 67.0199 150.511C69.2239 148.308 72.2292 147.006 75.435 147.006C78.6407 147.006 81.646 148.208 83.85 150.511C85.8536 152.514 87.0557 155.117 87.2561 157.921H91.7641V159.924H85.3527V158.923C85.3527 156.319 84.3509 153.815 82.4475 151.913C80.5441 150.01 78.1398 149.009 75.435 149.009C72.8303 149.009 70.3258 150.01 68.4224 151.913C66.519 153.815 65.5172 156.219 65.5172 158.923C65.5172 160.525 65.918 162.027 66.519 163.329L64.816 164.23Z" fill="#474747"/>
<path d="M41.1736 136.191H33.5601V134.188H39.1701C39.3704 132.386 40.1719 130.683 41.4742 129.381C42.9769 127.879 45.0806 126.978 47.2846 126.978V128.981C45.6817 128.981 44.0788 129.582 42.8767 130.783C41.6745 131.985 41.0735 133.487 41.0735 135.19V136.191H41.1736Z" fill="#474747"/>
<path d="M80.4439 90.627C79.6425 88.9246 79.1416 87.1221 79.1416 85.3195C79.1416 82.115 80.3437 79.1108 82.6479 76.9077C84.8518 74.7047 87.8572 73.4028 91.0629 73.4028C94.2686 73.4028 97.274 74.6045 99.4779 76.9077C101.682 79.1108 102.984 82.115 102.984 85.3195H100.981C100.981 82.7159 99.9788 80.2124 98.0754 78.3097C96.172 76.407 93.7677 75.4056 91.0629 75.4056C88.4582 75.4056 85.9538 76.407 84.0504 78.3097C82.147 80.2124 81.1452 82.6157 81.1452 85.3195C81.1452 86.9218 81.5459 88.4239 82.147 89.7257L80.4439 90.627Z" fill="#474747"/>
<path d="M73.6317 92.5298H66.0181V90.527H71.6281C71.8284 88.7245 72.6299 87.0221 73.9322 85.7203C75.4349 84.2182 77.5386 83.3169 79.7426 83.3169V85.3197C78.1397 85.3197 76.5368 85.9205 75.3347 87.1222C74.1326 88.3239 73.5315 89.826 73.5315 91.5284V92.5298H73.6317Z" fill="#474747"/>
<path d="M275.292 80.7134C274.49 79.011 273.989 77.2085 273.989 75.406C273.989 72.2015 275.191 69.1973 277.496 66.9942C279.699 64.7911 282.705 63.4893 285.911 63.4893C289.116 63.4893 292.122 64.6909 294.326 66.9942C296.529 69.1973 297.832 72.2015 297.832 75.406H295.828C295.828 72.8023 294.826 70.2988 292.923 68.3961C291.02 66.4935 288.615 65.4921 285.911 65.4921C283.206 65.4921 280.801 66.4935 278.898 68.3961C276.995 70.2988 275.993 72.7022 275.993 75.406C275.993 77.0082 276.394 78.5103 276.995 79.8121L275.292 80.7134Z" fill="#474747"/>
<path d="M268.479 82.6162H260.866V80.6134H266.476C266.676 78.8109 267.478 77.1085 268.78 75.8067C270.283 74.3046 272.386 73.4033 274.59 73.4033V75.4061C272.987 75.4061 271.384 76.007 270.182 77.2086C268.98 78.4103 268.379 79.9124 268.379 81.6148V82.6162H268.479Z" fill="#474747"/>
<path d="M323.878 95.6342L322.075 94.7329C322.576 93.8316 322.776 92.8302 322.776 91.8288C322.776 90.1264 322.075 88.4241 320.873 87.2224C319.671 86.0207 318.068 85.3197 316.265 85.3197C314.562 85.3197 312.859 86.0207 311.656 87.2224C310.454 88.4241 309.753 90.0263 309.753 91.8288H307.75C307.75 89.5256 308.651 87.4226 310.254 85.8204C311.857 84.2182 313.961 83.3169 316.265 83.3169C318.569 83.3169 320.673 84.2182 322.275 85.8204C323.878 87.4226 324.78 89.5256 324.78 91.8288C324.78 93.1307 324.479 94.4325 323.878 95.6342Z" fill="#474747"/>
<path d="M333.495 97.1362H327.986V96.1348C327.986 95.1334 327.585 94.132 326.884 93.3309C326.182 92.6299 325.181 92.2294 324.079 92.2294V90.2266C325.681 90.2266 327.184 90.8274 328.286 91.929C329.188 92.8302 329.689 93.9318 329.889 95.1334H333.495V97.1362Z" fill="#474747"/>
<path opacity="0.16" d="M422.755 185.26H396.408L393.302 190.167L391.699 192.87L409.331 212.899C409.431 212.999 409.531 212.999 409.531 212.899L427.163 192.87L422.755 185.26Z" fill="#BCBCBC"/>
<path d="M409.531 214C409.231 214 408.93 213.9 408.629 213.6L390.497 193.071L392.4 189.766L394.104 190.768L392.901 192.871L409.431 211.597L425.96 192.871L422.154 186.362H400.916V184.359H423.356L428.465 193.171L410.332 213.7C410.132 213.9 409.832 214 409.531 214Z" fill="#474747"/>
<path d="M427.263 191.969H391.799V193.972H427.263V191.969Z" fill="#474747"/>
<path d="M402.308 194.247L400.474 195.055L408.598 213.582L410.432 212.774L402.308 194.247Z" fill="#474747"/>
<path d="M416.434 194.207L408.588 212.199L410.423 213.003L418.269 195.011L416.434 194.207Z" fill="#474747"/>
<path d="M410.533 194.573H408.529V212.598H410.533V194.573Z" fill="#474747"/>
<path d="M400.916 192.971L398.912 190.367L400.415 189.166L400.815 189.666L404.722 184.359L406.325 185.561L400.916 192.971Z" fill="#474747"/>
<path d="M409.331 192.971L404.422 186.462L405.925 185.26L409.331 189.666L413.238 184.359L414.84 185.561L409.331 192.971Z" fill="#474747"/>
<path d="M417.746 192.971L412.837 186.462L414.44 185.26L417.746 189.666L421.653 184.359L423.256 185.561L417.746 192.971Z" fill="#474747"/>
<path d="M397.109 180.353H395.105V182.656H397.109V180.353Z" fill="#474747"/>
<path d="M399.862 181.916L397.868 183.07L398.872 184.803L400.866 183.649L399.862 181.916Z" fill="#474747"/>
<path d="M398.858 185.669L397.862 187.406L399.861 188.551L400.858 186.814L398.858 185.669Z" fill="#474747"/>
<path d="M397.108 187.861L395.104 187.87L395.115 190.173L397.118 190.164L397.108 187.861Z" fill="#474747"/>
<path d="M393.339 185.686L391.35 186.849L392.362 188.577L394.351 187.415L393.339 185.686Z" fill="#474747"/>
<path d="M392.328 181.967L391.338 183.709L393.342 184.846L394.331 183.105L392.328 181.967Z" fill="#474747"/>
<path opacity="0.16" d="M110.497 102.143H98.5759C98.4757 102.143 98.3755 102.043 98.3755 101.943V92.3292C98.3755 92.229 98.4757 92.1289 98.5759 92.1289H110.497C110.597 92.1289 110.698 92.229 110.698 92.3292V101.943C110.798 101.943 110.698 102.143 110.497 102.143Z" fill="#BCBCBC"/>
<path d="M106.891 97.1359L102.282 99.8397C102.182 99.8397 102.082 99.8397 102.082 99.7396V94.4322C102.082 94.332 102.182 94.2319 102.282 94.332L106.891 97.0358C106.991 96.9357 106.991 97.1359 106.891 97.1359L102.282 99.8397C102.182 99.8397 102.082 99.8397 102.082 99.7396V94.4322C102.082 94.332 102.182 94.2319 102.282 94.332L106.891 97.0358C106.991 96.9357 106.991 97.1359 106.891 97.1359Z" fill="white"/>
<path d="M156.68 105.147H144.758C144.658 105.147 144.558 105.047 144.558 104.947V95.3336C144.558 95.2334 144.658 95.1333 144.758 95.1333H156.68C156.78 95.1333 156.88 95.2334 156.88 95.3336V104.947C156.98 105.047 156.88 105.147 156.68 105.147Z" fill="white"/>
<path d="M148.766 103.545H144.558V101.542H147.864L150.268 99.0386L152.873 101.342H156.98V103.345H152.172L150.368 101.843L148.766 103.545Z" fill="#474747"/>
<path d="M154.576 96.8354H152.372V98.8383H154.576V96.8354Z" fill="#474747"/>
<path d="M140.852 91.3281H118.812C118.712 91.3281 118.612 91.2279 118.612 91.1278V73.3028C118.612 73.2027 118.712 73.1025 118.812 73.1025H140.852C140.952 73.1025 141.052 73.2027 141.052 73.3028V91.1278C141.052 91.2279 140.952 91.3281 140.852 91.3281Z" fill="#E30510"/>
<path d="M134.64 86.4211H129.832V84.4183H132.637V80.0121H126.927V86.4211H122.218V84.4183H124.923V78.0093L134.64 78.1094V86.4211Z" fill="#474747"/>
<path d="M437.982 211.997H15.5278V214H437.982V211.997Z" fill="#474747"/>
<path d="M448.1 211.997H441.889V214H448.1V211.997Z" fill="#474747"/>
<path d="M10.5188 211.997H0V214H10.5188V211.997Z" fill="#474747"/>
</g>
<defs>
<clipPath id="clip0">
<rect width="448" height="214" fill="white"/>
</clipPath>
</defs>
</svg>
