<svg width="448" height="215" viewBox="0 0 448 215" fill="none" xmlns="http://www.w3.org/2000/svg">
<g clip-path="url(#clip0)">
<path opacity="0.16" d="M344.3 212.9C344.3 143.9 288.4 88 219.4 88C150.4 88 94.5 143.9 94.5 212.9H344.3Z" fill="#A3A3A3"/>
<path opacity="0.16" d="M398.9 157C404.312 157 408.7 152.612 408.7 147.2C408.7 141.788 404.312 137.4 398.9 137.4C393.488 137.4 389.1 141.788 389.1 147.2C389.1 152.612 393.488 157 398.9 157Z" fill="#A3A3A3"/>
<path opacity="0.16" d="M262.706 39.0741C270.422 35.9118 274.114 27.0927 270.952 19.3761C267.79 11.6596 258.971 7.9677 251.254 11.13C243.537 14.2924 239.846 23.1114 243.008 30.828C246.17 38.5445 254.989 42.2364 262.706 39.0741Z" fill="#BCBCBC"/>
<path opacity="0.16" d="M119.3 62C119.3 65.6 116.4 68.5 112.8 68.5C109.2 68.5 106.3 65.6 106.3 62C106.3 58.4 109.2 55.5 112.8 55.5C116.4 55.5 119.3 58.4 119.3 62Z" fill="#BCBCBC"/>
<path opacity="0.16" d="M316.3 56.7002C319.89 56.7002 322.8 53.79 322.8 50.2002C322.8 46.6103 319.89 43.7002 316.3 43.7002C312.71 43.7002 309.8 46.6103 309.8 50.2002C309.8 53.79 312.71 56.7002 316.3 56.7002Z" fill="#BCBCBC"/>
<path opacity="0.16" d="M180.3 6.5C180.3 10.1 177.4 13 173.8 13C170.2 13 167.3 10.1 167.3 6.5C167.3 2.9 170.2 0 173.8 0C177.4 0 180.3 2.9 180.3 6.5Z" fill="#BCBCBC"/>
<path opacity="0.16" d="M395.4 173.6C396.891 173.6 398.1 172.391 398.1 170.9C398.1 169.409 396.891 168.2 395.4 168.2C393.909 168.2 392.7 169.409 392.7 170.9C392.7 172.391 393.909 173.6 395.4 173.6Z" fill="#A3A3A3"/>
<path opacity="0.16" d="M315.2 4.5C315.2 5.6 314.3 6.5 313.2 6.5C312.1 6.5 311.2 5.6 311.2 4.5C311.2 3.4 312.1 2.5 313.2 2.5C314.3 2.5 315.2 3.4 315.2 4.5Z" fill="#BCBCBC"/>
<path opacity="0.16" d="M115.4 16.9998C116.836 16.9998 118 15.8357 118 14.3998C118 12.9639 116.836 11.7998 115.4 11.7998C113.964 11.7998 112.8 12.9639 112.8 14.3998C112.8 15.8357 113.964 16.9998 115.4 16.9998Z" fill="#BCBCBC"/>
<path opacity="0.16" d="M6.7999 75.6999C8.67767 75.6999 10.1999 74.1777 10.1999 72.2999C10.1999 70.4221 8.67767 68.8999 6.7999 68.8999C4.92213 68.8999 3.3999 70.4221 3.3999 72.2999C3.3999 74.1777 4.92213 75.6999 6.7999 75.6999Z" fill="#BCBCBC"/>
<path opacity="0.16" d="M425.1 97.5001C425.1 99.4001 423.6 100.9 421.7 100.9C419.8 100.9 418.3 99.4001 418.3 97.5001C418.3 95.6001 419.8 94.1001 421.7 94.1001C423.6 94.1001 425.1 95.6001 425.1 97.5001Z" fill="#BCBCBC"/>
<path opacity="0.16" d="M76.588 60.643C77.8902 52.6853 72.4949 45.1786 64.5371 43.8764C56.5794 42.5741 49.0727 47.9695 47.7705 55.9272C46.4683 63.8849 51.8636 71.3916 59.8213 72.6938C67.7791 73.9961 75.2857 68.6007 76.588 60.643Z" fill="#BCBCBC"/>
<path opacity="0.16" d="M19.1998 168.3C21.0776 168.3 22.5998 166.778 22.5998 164.9C22.5998 163.022 21.0776 161.5 19.1998 161.5C17.322 161.5 15.7998 163.022 15.7998 164.9C15.7998 166.778 17.322 168.3 19.1998 168.3Z" fill="#A3A3A3"/>
<path opacity="0.16" d="M389.2 76.1998C397.042 76.1998 403.4 69.8422 403.4 61.9998C403.4 54.1574 397.042 47.7998 389.2 47.7998C381.358 47.7998 375 54.1574 375 61.9998C375 69.8422 381.358 76.1998 389.2 76.1998Z" fill="#BCBCBC"/>
<path opacity="0.16" d="M19.1998 139.9C26.8766 139.9 33.0998 133.677 33.0998 126C33.0998 118.323 26.8766 112.1 19.1998 112.1C11.523 112.1 5.2998 118.323 5.2998 126C5.2998 133.677 11.523 139.9 19.1998 139.9Z" fill="#BCBCBC"/>
<path opacity="0.16" d="M391.4 212.9C391.4 188 386.1 164.4 376.6 143.1C380 136 382 128 382 119.6C382 89.7001 357.7 65.4001 327.8 65.4001C322.2 65.4001 316.8 66.3001 311.7 67.8001C285 50.8001 253.4 41.0001 219.5 41.0001C215.3 41.0001 211.1 41.2001 206.9 41.5001C199.5 35.9001 190.3 32.6001 180.3 32.6001C161.4 32.6001 145.3 44.4001 138.9 61.1001C125.9 68.0001 113.8 76.6001 103 86.5001C99.5 85.7001 95.9 85.3001 92.1 85.3001C65 85.3001 43 107.3 43 134.4C43 146.2 47.2 157 54.1 165.5C49.8 180.6 47.4 196.5 47.4 213H391.4V212.9Z" fill="#BCBCBC"/>
<path d="M79.4996 95.9C78.9996 95.3 79.4996 95.3 79.9996 95.5L83.3996 97C86.1996 98.3 88.7996 100.1 90.8996 102.4L104.2 116.5L101.5 125.9C101.3 126.4 100.6 126.6 100.3 126.1L79.4996 95.9Z" fill="white"/>
<path d="M79.8997 96.2998L82.2997 97.4998C85.2997 98.9998 87.8997 101 90.1997 103.6L103.7 118.5L104.3 116.5L90.9997 102.4C88.8997 100.1 86.2997 98.2998 83.4997 96.9998L79.9997 95.3998C79.4997 95.2998 79.0997 95.1998 79.4997 95.7998L79.8997 96.2998Z" fill="#D1D3D4"/>
<path d="M81.3998 164.2C80.9998 164.8 80.8998 164.4 80.7998 163.9L81.0998 160.2C81.3998 157.1 82.2998 154.1 83.6998 151.4L92.7998 134.2L102.6 133.8C103.1 133.8 103.5 134.4 103.2 134.8L81.3998 164.2Z" fill="#D1D3D4"/>
<path d="M85.6996 151.5C83.8996 154.7 82.5996 158.1 81.9996 161.5L81.5996 164L103.3 134.8C103.6 134.4 103.3 133.7 102.7 133.8L95.6996 134.1L85.6996 151.5Z" fill="white"/>
<path d="M146.1 137.5C146.9 137.7 146.5 137.9 146 138.1L142.5 139.2C139.5 140.1 136.4 140.5 133.3 140.2L113.9 138.5L109.3 128.7C109.2 128.6 109.4 128.4 109.5 128.5L146.1 137.5Z" fill="white"/>
<path d="M146.1 137.5L145.5 137.4L142.8 138.1C139.6 138.9 136.2 139.2 132.7 138.8L112.9 136.6L113.8 138.6L133.2 140.3C136.3 140.6 139.4 140.2 142.4 139.3L145.9 138.2C146.5 137.9 146.9 137.6 146.1 137.5Z" fill="#D1D3D4"/>
<path d="M100.9 127.3C100.4 127.3 99.8998 127 99.4998 126.6L78.6998 96.3999C78.1998 95.6999 78.2998 95.0999 78.4998 94.7999C78.9998 94.0999 79.8998 94.2999 80.2998 94.3999H80.3998L83.7998 95.8999C86.7998 97.1999 89.3998 99.0999 91.5998 101.5L105.3 116.1L102.4 126C102.2 126.6 101.7 127.1 101.1 127.2C101 127.3 101 127.3 100.9 127.3ZM81.6998 97.2999L100.7 124.9L103.1 116.7L90.1998 103C88.0998 100.8 85.6998 99.0999 82.9998 97.8999L81.6998 97.2999Z" fill="#474747"/>
<path d="M81.0999 165.5C80.9999 165.5 80.8999 165.5 80.7999 165.5C79.8999 165.3 79.8999 164.3 79.8999 164V163.9L80.2999 160.2C80.5999 157 81.4999 153.9 83.0999 151L92.4999 133.3L102.9 132.8C103.5 132.8 104.1 133.1 104.4 133.7C104.7 134.3 104.6 134.9 104.3 135.5L82.3999 164.9C81.7999 165.3 81.3999 165.5 81.0999 165.5ZM93.4999 135.2L84.6999 151.9C83.2999 154.5 82.3999 157.4 82.1999 160.4L82.0999 161.8L102.1 134.9L93.4999 135.2Z" fill="#474747"/>
<path d="M135.4 141.3C134.7 141.3 134 141.3 133.2 141.2L113.3 139.4L108.4 129.1C108.2 128.7 108.3 128.2 108.6 127.9C108.9 127.6 109.4 127.4 109.8 127.5L146.3 136.4C147.2 136.6 147.5 137.1 147.5 137.5C147.6 138.4 146.7 138.8 146.4 138.9H146.3L142.8 140C140.4 140.9 137.9 141.3 135.4 141.3ZM114.7 137.6L133.5 139.3C136.5 139.6 139.4 139.2 142.3 138.3L143.6 137.9L111.1 129.9L114.7 137.6Z" fill="#474747"/>
<path d="M109.9 213.4L106.7 133.8H102.1L99 213.4H109.9Z" fill="#E6E7E8"/>
<path d="M102.1 133.8L99 213.4H104.8V133.8H102.1Z" fill="white"/>
<path d="M108.9 213.5L105.8 134.8H103.1L100 213.5L98 213.4L101.1 132.8H107.7L110.9 213.4L108.9 213.5Z" fill="#474747"/>
<path d="M109.5 128.2C110.1 130.9 108.4 133.5 105.7 134.1C103 134.7 100.4 133 99.7996 130.3C99.1996 127.6 100.9 125 103.6 124.4C106.3 123.8 108.9 125.5 109.5 128.2Z" fill="#F1F2F2"/>
<path d="M104.7 135.2C102 135.2 99.4996 133.3 98.8996 130.5C98.5996 128.9 98.7996 127.4 99.6996 126C100.6 124.7 101.9 123.7 103.4 123.4C105 123.1 106.5 123.3 107.9 124.2C109.2 125.1 110.2 126.4 110.5 127.9C111.2 131.1 109.2 134.3 106 135C105.5 135.2 105.1 135.2 104.7 135.2ZM104.7 125.3C104.4 125.3 104.1 125.3 103.9 125.4C102.9 125.6 102 126.2 101.4 127.1C100.8 128 100.6 129 100.9 130.1C101.4 132.2 103.5 133.6 105.6 133.1C107.7 132.6 109.1 130.5 108.6 128.4C108.4 127.4 107.8 126.5 106.9 125.9C106.2 125.5 105.4 125.3 104.7 125.3Z" fill="#474747"/>
<path d="M106.9 128.8C107.2 130.1 106.4 131.3 105.1 131.6C103.8 131.9 102.6 131.1 102.3 129.8C102 128.5 102.8 127.3 104.1 127C105.4 126.7 106.7 127.5 106.9 128.8Z" fill="#00D4FF"/>
<path d="M106.9 128.8C107.2 130.1 106.4 131.3 105.1 131.6C103.8 131.9 102.6 131.1 102.3 129.8C102 128.5 102.8 127.3 104.1 127C105.4 126.7 106.7 127.5 106.9 128.8Z" fill="#E30510"/>
<path d="M104.7 132.6C104.1 132.6 103.5 132.4 102.9 132.1C102.2 131.6 101.6 130.9 101.4 130C101.2 129.1 101.4 128.2 101.9 127.5C102.4 126.8 103.1 126.2 104 126C104.9 125.8 105.8 126 106.5 126.5C107.2 127 107.8 127.7 108 128.6C108.2 129.5 108 130.4 107.5 131.1C107 131.8 106.3 132.4 105.4 132.6C105.1 132.6 104.9 132.6 104.7 132.6ZM104.7 127.9C104.6 127.9 104.5 127.9 104.4 127.9C104.1 128 103.8 128.2 103.6 128.5C103.4 128.8 103.3 129.1 103.4 129.5C103.5 129.8 103.7 130.1 104 130.3C104.3 130.5 104.7 130.6 105 130.5C105.3 130.4 105.6 130.2 105.8 129.9C106 129.6 106.1 129.3 106 128.9C105.9 128.6 105.7 128.3 105.4 128.1C105.2 128 104.9 127.9 104.7 127.9Z" fill="#474747"/>
<path d="M310 78.7999C309.6 78.2999 310 78.2999 310.4 78.3999L313.4 79.6999C315.9 80.7999 318.2 82.3999 320.1 84.3999L331.9 96.9999L329.5 105.3C329.4 105.8 328.7 105.9 328.5 105.5L310 78.7999Z" fill="white"/>
<path d="M310.2 79.1999L312.3 80.2999C314.9 81.5999 317.3 83.3999 319.3 85.6999L331.3 98.8999L331.8 97.0999L320 84.4999C318.1 82.4999 315.8 80.8999 313.3 79.7999L310.3 78.4999C309.9 78.3999 309.5 78.2999 309.9 78.8999L310.2 79.1999Z" fill="#D1D3D4"/>
<path d="M311.6 139.4C311.2 140 311.1 139.5 311.1 139.1L311.4 135.8C311.7 133.1 312.5 130.4 313.8 128L321.9 112.8L330.6 112.4C331.1 112.4 331.4 112.9 331.1 113.3L311.6 139.4Z" fill="#D1D3D4"/>
<path d="M315.4 128.2C313.8 131 312.7 134 312.1 137.1L311.7 139.3L331 113.4C331.3 113 331 112.5 330.5 112.5L324.3 112.8L315.4 128.2Z" fill="white"/>
<path d="M369 115.7C369.7 115.8 369.3 116.1 368.9 116.3L365.8 117.3C363.2 118.1 360.4 118.4 357.7 118.2L340.5 116.7L336.4 108C336.3 107.9 336.4 107.8 336.6 107.8L369 115.7Z" fill="white"/>
<path d="M369 115.7L368.5 115.6L366.1 116.2C363.2 117 360.2 117.2 357.2 116.8L339.7 114.9L340.5 116.6L357.7 118.1C360.4 118.3 363.2 118 365.8 117.2L368.9 116.2C369.4 116.1 369.7 115.9 369 115.7Z" fill="#D1D3D4"/>
<path d="M328.9 106.8C328.4 106.8 327.9 106.6 327.6 106.1L309.2 79.3998C308.6 78.5998 308.9 78.0998 309 77.7998C309.3 77.2998 309.9 77.1998 310.7 77.3998H310.8L313.8 78.6998C316.5 79.8998 318.8 81.5998 320.8 83.6998L333 96.6998L330.4 105.6C330.2 106.2 329.7 106.6 329.1 106.7C329.1 106.8 329 106.8 328.9 106.8ZM312.2 80.2998L328.7 104.2L330.7 97.2998L319.3 85.1998C317.5 83.2998 315.4 81.7998 312.9 80.6998L312.2 80.2998Z" fill="#474747"/>
<path d="M311.3 140.7C311.2 140.7 311.1 140.7 311 140.7C310.4 140.5 310.1 140 310.1 139.2V139.1L310.4 135.8C310.7 132.9 311.5 130.1 312.9 127.6L321.2 111.9L330.5 111.5C331.1 111.5 331.7 111.8 332 112.3C332.3 112.8 332.2 113.5 331.9 114L312.4 140C312 140.6 311.6 140.7 311.3 140.7ZM322.5 113.8L314.7 128.5C313.5 130.8 312.7 133.3 312.5 136L312.4 136.8L329.8 113.5L322.5 113.8Z" fill="#474747"/>
<path d="M359.6 119.3C359 119.3 358.3 119.3 357.7 119.2L340 117.6L335.6 108.4C335.4 108 335.5 107.5 335.7 107.2C336 106.9 336.4 106.7 336.9 106.8L369.3 114.7C370.2 114.9 370.4 115.4 370.5 115.8C370.6 116.4 370.2 116.8 369.5 117.2H369.4L366.3 118.2C364 118.9 361.8 119.3 359.6 119.3ZM341.2 115.7L357.8 117.2C360.4 117.4 363 117.1 365.6 116.4L366.4 116.2L338.2 109.3L341.2 115.7Z" fill="#474747"/>
<path d="M336.9 183.1L334.1 112.4H330L327.2 183.1H336.9Z" fill="#E6E7E8"/>
<path d="M330 112.4L327.2 183.1H332.4V112.4H330Z" fill="white"/>
<path d="M335.9 183.2L333.1 113.4H330.9L328.2 183.2L326.2 183.1L329 111.4H335.1L337.9 183.1L335.9 183.2Z" fill="#474747"/>
<path d="M336.5 107.5C337 109.9 335.5 112.2 333.1 112.7C330.7 113.2 328.4 111.7 327.9 109.3C327.4 106.9 328.9 104.6 331.3 104.1C333.7 103.6 336 105.1 336.5 107.5Z" fill="#F1F2F2"/>
<path d="M332.2 113.8C331.2 113.8 330.2 113.5 329.3 112.9C328.1 112.1 327.3 110.9 326.9 109.5C326.6 108.1 326.9 106.7 327.6 105.4C328.4 104.2 329.6 103.4 331 103C333.9 102.4 336.8 104.2 337.4 107.1C337.7 108.5 337.4 109.9 336.7 111.2C335.9 112.4 334.7 113.2 333.3 113.6C333 113.8 332.6 113.8 332.2 113.8ZM332.3 105C332.1 105 331.8 105 331.6 105.1C329.8 105.5 328.6 107.3 329 109.1C329.4 110.9 331.2 112.1 333 111.7C333.9 111.5 334.6 111 335.1 110.2C335.6 109.4 335.8 108.5 335.6 107.6C335.2 106.1 333.8 105 332.3 105Z" fill="#474747"/>
<path d="M334.3 108C334.5 109.1 333.8 110.2 332.7 110.5C331.6 110.7 330.5 110 330.2 108.9C330 107.8 330.7 106.7 331.8 106.4C332.9 106.2 334 106.9 334.3 108Z" fill="#00D4FF"/>
<path d="M334.3 108C334.5 109.1 333.8 110.2 332.7 110.5C331.6 110.7 330.5 110 330.2 108.9C330 107.8 330.7 106.7 331.8 106.4C332.9 106.2 334 106.9 334.3 108Z" fill="#E30510"/>
<path d="M332.3 111.5C330.9 111.5 329.6 110.5 329.3 109.1C328.9 107.5 330 105.8 331.6 105.5C332.4 105.3 333.2 105.5 333.9 105.9C334.6 106.3 335.1 107 335.2 107.8C335.4 108.6 335.2 109.4 334.8 110.1C334.4 110.8 333.7 111.3 332.9 111.4C332.7 111.5 332.5 111.5 332.3 111.5ZM332.3 107.4C332.2 107.4 332.1 107.4 332.1 107.4C331.5 107.5 331.2 108.1 331.3 108.7C331.4 109.3 332 109.6 332.6 109.5C332.9 109.4 333.1 109.3 333.3 109C333.5 108.8 333.5 108.5 333.4 108.2C333.3 107.9 333.2 107.7 332.9 107.5C332.7 107.4 332.5 107.4 332.3 107.4Z" fill="#474747"/>
<path d="M132.9 195.7H124.1V213H132.9V195.7Z" fill="white"/>
<g opacity="0.3">
<path opacity="0.3" d="M132.9 195.7H124.1V200.9H132.9V195.7Z" fill="#414042"/>
</g>
<path d="M150.9 198.3H106C105.9 198.3 105.8 198.2 105.8 198.1V167.3C105.8 167.2 105.9 167.1 106 167.1H150.9C151 167.1 151.1 167.2 151.1 167.3V198.1C151.2 198.2 151.1 198.3 150.9 198.3Z" fill="#A3A3A3"/>
<g opacity="0.2">
<path opacity="0.2" d="M122 167.1L105.8 183.3V197.9L136.6 167.1H122Z" fill="white"/>
</g>
<g opacity="0.2">
<path opacity="0.2" d="M146.9 167.1H140L108.8 198.3H115.6L146.9 167.1Z" fill="white"/>
</g>
<path d="M118.4 180.4H108.6V170.6H110.6V178.4H118.4V180.4Z" fill="#474747"/>
<path d="M133.1 180.4H123.3V170.6H125.3V178.4H133.1V180.4Z" fill="#474747"/>
<path d="M147.8 180.4H138V170.6H140V178.4H147.8V180.4Z" fill="#474747"/>
<path d="M118.4 193.6H108.6V183.8H110.6V191.6H118.4V193.6Z" fill="#474747"/>
<path d="M133.1 193.6H123.3V183.8H125.3V191.6H133.1V193.6Z" fill="#474747"/>
<path d="M147.8 193.6H138V183.8H140V191.6H147.8V193.6Z" fill="#474747"/>
<path d="M125.1 198.8H123.1V213H125.1V198.8Z" fill="#474747"/>
<path d="M133.9 198.8H131.9V213H133.9V198.8Z" fill="#474747"/>
<path d="M129.6 202.5H127.4V204.5H129.6V202.5Z" fill="#474747"/>
<path d="M129.6 206.9H127.4V208.9H129.6V206.9Z" fill="#474747"/>
<path d="M239.4 66.4C239.4 77.1 230.7 85.7 220.1 85.7C209.4 85.7 200.8 77 200.8 66.4C200.8 55.7 209.5 47.1 220.1 47.1C230.7 47 239.4 55.7 239.4 66.4Z" fill="white"/>
<path d="M251.7 80.2001L244.8 63.1001C244.2 63.4001 243.6 64.5001 243.2 65.7001C242.6 67.4001 242.6 69.2001 243.3 70.9001L247.3 80.8001C247.1 81.6001 246.6 86.9001 246.6 86.9001L238.3 95.8001H234.9L241.8 86.2001C244.1 83.6001 239.7 80.8001 237.6 83.5001L228.9 92.8001C228.3 93.4001 227.7 94.7001 227.6 95.5001V109.7H242.2L251.8 89.8001C251.9 90.0001 251.9 80.8001 251.7 80.2001Z" fill="white"/>
<path d="M243.2 65.5L249.1 80.1C249.4 80.7 249.3 89.9 249.3 89.9L239.7 109.8H242.2L251.8 89.9C251.8 89.9 251.9 80.7 251.6 80.1L244.7 63C244.2 63.4 243.7 64.4 243.2 65.5Z" fill="#E6E7E8"/>
<path d="M243.2 110.3L241.4 109.4L250.9 89.7002C250.9 85.6002 250.9 81.1002 250.7 80.4002L244.5 65.0002C244.4 65.3002 244.2 65.6002 244.1 66.0002C243.6 67.4002 243.6 69.0002 244.2 70.5002L248.3 80.7002L248.2 81.0002C248.1 81.4002 247.8 84.4002 247.5 87.0002V87.3002L238.6 96.8002H232.8L240.9 85.5002C241.3 85.1002 241.4 84.7002 241.3 84.4002C241.1 83.9002 240.6 83.5002 240 83.4002C239.6 83.3002 238.9 83.3002 238.3 84.1002L229.6 93.4002C229.2 93.9002 228.7 94.9002 228.6 95.5002V109.7H226.6V95.4002V95.3002C226.7 94.2002 227.4 92.8002 228.2 92.0002L236.9 82.7002C237.7 81.6002 239 81.1002 240.4 81.3002C241.7 81.5002 242.9 82.4002 243.3 83.6002C243.7 84.6002 243.4 85.8002 242.6 86.7002L236.9 94.7002H237.9L245.7 86.4002C245.8 85.2002 246.1 82.0002 246.3 80.8002L242.4 71.2002C241.6 69.3002 241.6 67.2002 242.3 65.3002C243.3 62.6002 244.2 62.2002 244.5 62.1002L245.5 61.7002L252.7 79.8002C252.8 80.0002 253 80.6002 253 90.0002V90.2002L252.9 90.4002L243.2 110.3Z" fill="#474747"/>
<path d="M223.9 108.9V213.4H246.8V108.9C246.8 108.8 246.7 108.8 246.7 108.8H224C223.9 108.8 223.9 108.9 223.9 108.9Z" fill="#A3A3A3"/>
<path d="M210.6 92.9002L201.9 83.6002C199.8 80.9002 195.4 83.7002 197.7 86.3002L204.6 95.9002H201.2L193 87.0002C193 87.0002 192.5 81.6002 192.3 80.9002L196.3 71.0002C197 69.3002 197 67.5002 196.4 65.8002C196 64.6002 195.4 63.4002 194.8 63.2002L187.9 80.3002C187.6 80.9002 187.7 90.1002 187.7 90.1002L197.3 110H211.9V95.8002C211.8 94.7002 211.2 93.5002 210.6 92.9002Z" fill="white"/>
<path d="M196.3 65.5001L190.4 80.1001C190.1 80.7001 190.2 89.9001 190.2 89.9001L199.8 109.8H197.3L187.6 90.0001C187.6 90.0001 187.5 80.8001 187.8 80.2001L194.7 63.1001C195.3 63.4001 195.8 64.4001 196.3 65.5001Z" fill="#E6E7E8"/>
<path d="M196.3 110.3L186.6 90.1998V89.9998C186.5 80.5998 186.8 79.9998 186.9 79.7998L194.1 61.7998L195.1 62.1998C195.4 62.2998 196.3 62.6998 197.3 65.3998C198 67.2998 198 69.3998 197.2 71.2998L193.3 80.8998C193.5 82.0998 193.8 85.2998 193.9 86.4998L201.7 94.7998H202.7L197 86.7998C196.2 85.8998 195.9 84.7998 196.3 83.6998C196.7 82.4998 197.8 81.5998 199.2 81.3998C200.6 81.1998 201.9 81.6998 202.8 82.8998L211.4 92.0998C212.1 92.8998 212.8 94.2998 213 95.3998V95.4998V109.7H211V95.4998C210.9 94.7998 210.4 93.7998 210 93.3998L201.3 84.0998C200.7 83.2998 199.9 83.2998 199.6 83.2998C199 83.3998 198.4 83.7998 198.3 84.2998C198.2 84.6998 198.3 84.9998 198.7 85.3998L198.8 85.4998L206.9 96.6998H201.1L192.2 87.1998V86.8998C192 84.2998 191.6 81.2998 191.5 80.8998L191.4 80.5998L195.5 70.3998C196.1 68.8998 196.1 67.3998 195.6 65.8998C195.5 65.4998 195.3 65.1998 195.2 64.8998L189 80.3998C188.9 80.8998 188.8 85.4998 188.9 89.5998L198.4 109.3L196.3 110.3Z" fill="#474747"/>
<path d="M215.6 108.9V213.4H192.7V108.9C192.7 108.8 192.7 108.8 192.8 108.8H215.5C215.6 108.8 215.6 108.9 215.6 108.9Z" fill="#A3A3A3"/>
<path d="M216.4 55.7998C216.4 55.7998 223.1 60.7998 223 66.9998C223 73.1998 216.2 78.0998 216.2 78.0998C216.2 78.0998 209.5 73.0998 209.6 66.8998C209.6 60.7998 216.4 55.7998 216.4 55.7998Z" fill="#A3A3A3"/>
<path d="M212.5 76.0002C210.7 73.9002 208.6 70.7002 208.6 67.0002C208.6 60.4002 215.5 55.3002 215.8 55.1002L216.4 54.7002L217 55.2002C217.1 55.3002 220 57.5002 222 60.8002L220.3 61.8002C219 59.7002 217.2 58.0002 216.4 57.2002C214.8 58.5002 210.7 62.5002 210.6 67.0002C210.6 70.1002 212.5 72.9002 214 74.7002L212.5 76.0002Z" fill="#474747"/>
<path d="M232 62.3999C232 62.3999 233.2 70.6999 228.8 74.9999C224.4 79.3999 216.2 78.1999 216.2 78.1999C216.2 78.1999 215 69.8999 219.4 65.5999C223.7 61.0999 232 62.3999 232 62.3999Z" fill="#A3A3A3"/>
<path d="M218.8 79.3001C217.3 79.3001 216.2 79.2001 216.1 79.1001L215.4 79.0001L215.3 78.3001C215.2 77.9001 214.1 69.5001 218.7 64.8001C223.4 60.1001 231.8 61.3001 232.2 61.4001L232.9 61.5001L233 62.2001C233.1 62.6001 234.2 71.0001 229.6 75.7001C226.5 78.8001 221.8 79.3001 218.8 79.3001ZM217.1 77.2001C219.2 77.4001 224.9 77.5001 228.1 74.2001C231.3 71.0001 231.2 65.3001 231.1 63.2001C229 63.0001 223.3 62.9001 220.1 66.2001C216.8 69.4001 216.9 75.2001 217.1 77.2001Z" fill="#474747"/>
<path d="M304.6 149.8H311.2L313.2 186.7H302.5L304.6 149.8Z" fill="white"/>
<path d="M322.7 149.8H329.3L331.4 186.7H320.7L322.7 149.8Z" fill="white"/>
<path d="M330.3 168.5L330.5 171.5H321.5L321.7 168.5H330.3Z" fill="#E30510"/>
<path d="M330.7 174.4L330.8 177.4H321.2L321.3 174.4H330.7Z" fill="#E30510"/>
<path d="M320.8 183.3L321 180.3H331L331.2 183.3H320.8Z" fill="#E30510"/>
<path d="M329.4 150.8L329.5 153.8H322.5L322.7 150.8H329.4Z" fill="#E30510"/>
<path d="M330 162.6L330.2 165.6H321.8L322 162.6H330Z" fill="#E30510"/>
<path d="M329.7 156.7L329.9 159.7H322.2L322.3 156.7H329.7Z" fill="#E30510"/>
<path d="M312.2 168.5L312.4 171.5H303.4L303.5 168.5H312.2Z" fill="#E30510"/>
<path d="M302.7 183.3L302.9 180.3H312.9L313 183.3H302.7Z" fill="#E30510"/>
<path d="M311.2 150.8L311.4 153.8H304.3L304.5 150.8H311.2Z" fill="#E30510"/>
<path d="M312.5 174.4L312.7 177.4H303L303.2 174.4H312.5Z" fill="#E30510"/>
<path d="M311.9 162.6L312 165.6H303.7L303.9 162.6H311.9Z" fill="#E30510"/>
<path d="M311.5 156.7L311.7 159.7H304L304.2 156.7H311.5Z" fill="#E30510"/>
<path d="M312.2 183.7L310.2 150.8H305.5L303.5 183.2L301.5 183.1L303.6 148.8H312.1L314.2 183.6L312.2 183.7Z" fill="#474747"/>
<path d="M330.4 183.7L328.4 150.8H323.6L321.7 183.2L319.7 183.1L321.8 148.8H330.2L332.4 183.6L330.4 183.7Z" fill="#474747"/>
<path d="M254.4 180.9C256.3 169.1 257.7 142.4 256.5 134.2C256.5 133.9 256.7 133.7 256.9 133.7H291.8C292.1 133.7 292.3 133.9 292.2 134.2C290.8 141 292.2 168.1 294.2 180.8H254.4V180.9Z" fill="white"/>
<path d="M291.9 152.7H256.7C256.8 150 256.9 147.4 256.9 145H291.7C291.7 147.4 291.8 150 291.9 152.7Z" fill="#A3A3A3"/>
<g opacity="0.3">
<path opacity="0.3" d="M293.8 177.9H254.8C254.7 179 254.5 180 254.4 180.9H294.3C294.1 180 294 179 293.8 177.9Z" fill="#414042"/>
</g>
<path d="M246.7 180.9H338.3C338.5 180.9 338.7 181.1 338.7 181.3V205.7H246.4V181.3C246.3 181.1 246.5 180.9 246.7 180.9Z" fill="white"/>
<path d="M291.6 144H256.9V146H291.6V144Z" fill="#474747"/>
<path d="M291.9 151.7H256.6V153.7H291.9V151.7Z" fill="#474747"/>
<path d="M330.1 197.2H310.1V195.2H328.1V190.6H330.1V197.2Z" fill="#474747"/>
<path d="M303.8 197.2H283.7V195.2H301.8V190.6H303.8V197.2Z" fill="#474747"/>
<path d="M277.4 197.2H257.4V195.2H275.4V190.6H277.4V197.2Z" fill="#474747"/>
<g opacity="0.3">
<path opacity="0.3" d="M338.6 202.4H246.3V205.8H338.6V202.4Z" fill="#414042"/>
</g>
<path d="M343.1 205.7H241V213.4H343.1V205.7Z" fill="white"/>
<path d="M344 213.4H342V206.7H242V213.4H240V204.7H344V213.4Z" fill="#474747"/>
<path opacity="0.3" d="M242.2 213.1C242.3 213.2 242.4 213.2 242.5 213.1L257.5 202.8C265.3 197.5 270 188.6 270 179.1V157.3C270 156.9 269.7 156.5 269.2 156.5H253C252.6 165.6 251.8 175 250.8 180.8H243.1C242.9 180.8 242.7 181 242.7 181.2V202.3V204.7H236.4V209.2L242.2 213.1Z" fill="#474747"/>
<path d="M254 202.9L239 213.2C238.9 213.3 238.8 213.3 238.7 213.2L223.7 202.9C215.9 197.6 211.2 188.7 211.2 179.2V157.4C211.2 157 211.5 156.6 212 156.6H265.8C266.2 156.6 266.6 156.9 266.6 157.4V179.2C266.5 188.6 261.8 197.5 254 202.9Z" fill="#E30510"/>
<path d="M239 196.6C247.616 196.6 254.6 189.616 254.6 181C254.6 172.384 247.616 165.4 239 165.4C230.384 165.4 223.4 172.384 223.4 181C223.4 189.616 230.384 196.6 239 196.6Z" fill="white"/>
<path d="M235.4 171.9C235.4 171.9 240.8 176 240.8 181.1C240.8 186.1 235.3 190.2 235.3 190.2C235.3 190.2 229.9 186.1 229.9 181C229.9 175.9 235.4 171.9 235.4 171.9Z" fill="#A3A3A3"/>
<path d="M232.1 188.4C230.6 186.7 228.8 184 228.9 180.9C228.9 175.4 234.6 171.2 234.8 171L235.4 170.6L236 171.1C236.1 171.2 238.5 173 240.2 175.7L238.5 176.7C237.5 175.1 236.2 173.8 235.4 173.1C234.1 174.3 230.9 177.4 230.9 180.9C230.9 183.3 232.4 185.6 233.7 187.1L232.1 188.4Z" fill="#474747"/>
<path d="M225.2 159.7H222.3V161.7H225.2V159.7Z" fill="#474747"/>
<path d="M231.2 159.7H228.3V161.7H231.2V159.7Z" fill="#474747"/>
<path d="M237.3 159.7H234.4V161.7H237.3V159.7Z" fill="#474747"/>
<path d="M243.3 159.7H240.4V161.7H243.3V159.7Z" fill="#474747"/>
<path d="M249.3 159.7H246.4V161.7H249.3V159.7Z" fill="#474747"/>
<path d="M255.4 159.7H252.5V161.7H255.4V159.7Z" fill="#474747"/>
<path d="M248.1 177.2C248.1 177.2 249.1 184 245.5 187.5C241.9 191.1 235.2 190.1 235.2 190.1C235.2 190.1 234.2 183.3 237.8 179.8C241.4 176.2 248.1 177.2 248.1 177.2Z" fill="#A3A3A3"/>
<path d="M237.3 191.2C236 191.2 235.1 191.1 235 191.1L234.3 191L234.2 190.3C234.2 190 233.2 183 237.1 179.1C241 175.2 248 176.2 248.3 176.2L249 176.3L249.1 177C249.1 177.3 250.1 184.3 246.2 188.2C243.7 190.8 239.8 191.2 237.3 191.2ZM236.1 189.2C237.9 189.3 242.3 189.3 244.8 186.8C247.3 184.3 247.3 179.9 247.2 178.1C245.4 178 241 178 238.5 180.5C236 183 236 187.4 236.1 189.2Z" fill="#474747"/>
<path d="M34.1001 163.2H32.1001V214H34.1001V163.2Z" fill="#474747"/>
<path d="M38.8002 163.3C38.8002 166.5 36.2002 169.1 33.0002 169.1C29.8002 169.1 27.2002 166.5 27.2002 163.3C27.2002 160.1 29.8002 157.5 33.0002 157.5C36.2002 157.5 38.8002 160.1 38.8002 163.3Z" fill="#E30510"/>
<path d="M33.0002 170.1C29.3002 170.1 26.2002 167.1 26.2002 163.3C26.2002 159.6 29.2002 156.5 33.0002 156.5C36.7002 156.5 39.8002 159.5 39.8002 163.3C39.8002 167 36.8002 170.1 33.0002 170.1ZM33.0002 158.5C30.4002 158.5 28.2002 160.6 28.2002 163.3C28.2002 165.9 30.3002 168.1 33.0002 168.1C35.6002 168.1 37.8002 166 37.8002 163.3C37.8002 160.6 35.7002 158.5 33.0002 158.5Z" fill="#474747"/>
<path d="M38.9003 178.8C38.9003 182 36.3003 184.6 33.1003 184.6C29.9003 184.6 27.3003 182 27.3003 178.8C27.3003 175.6 29.9003 173 33.1003 173C36.3003 173 38.9003 175.6 38.9003 178.8Z" fill="#E30510"/>
<path d="M33.1003 185.6C29.4003 185.6 26.3003 182.6 26.3003 178.8C26.3003 175 29.3003 172 33.1003 172C36.8003 172 39.9003 175 39.9003 178.8C39.9003 182.6 36.8003 185.6 33.1003 185.6ZM33.1003 174C30.5003 174 28.3003 176.1 28.3003 178.8C28.3003 181.5 30.4003 183.6 33.1003 183.6C35.7003 183.6 37.9003 181.5 37.9003 178.8C37.9003 176.1 35.7003 174 33.1003 174Z" fill="#474747"/>
<path d="M38.9003 194.3C38.9003 197.5 36.3003 200.1 33.1003 200.1C29.9003 200.1 27.3003 197.5 27.3003 194.3C27.3003 191.1 29.9003 188.5 33.1003 188.5C36.3003 188.5 38.9003 191.1 38.9003 194.3Z" fill="#E30510"/>
<path d="M33.1003 201.1C29.4003 201.1 26.3003 198.1 26.3003 194.3C26.3003 190.6 29.3003 187.5 33.1003 187.5C36.9003 187.5 39.9003 190.5 39.9003 194.3C39.9003 198.1 36.9003 201.1 33.1003 201.1ZM33.1003 189.5C30.5003 189.5 28.3003 191.6 28.3003 194.3C28.3003 196.9 30.4003 199.1 33.1003 199.1C35.7003 199.1 37.9003 197 37.9003 194.3C37.9003 191.7 35.8003 189.5 33.1003 189.5Z" fill="#474747"/>
<path d="M429.8 163.4H427.8V214.2H429.8V163.4Z" fill="#474747"/>
<path d="M434.5 163.5C434.5 166.7 431.9 169.3 428.7 169.3C425.5 169.3 422.9 166.7 422.9 163.5C422.9 160.3 425.5 157.7 428.7 157.7C431.9 157.7 434.5 160.3 434.5 163.5Z" fill="#E30510"/>
<path d="M428.7 170.3C425 170.3 421.9 167.3 421.9 163.5C421.9 159.8 424.9 156.7 428.7 156.7C432.4 156.7 435.5 159.7 435.5 163.5C435.5 167.2 432.5 170.3 428.7 170.3ZM428.7 158.7C426.1 158.7 423.9 160.8 423.9 163.5C423.9 166.1 426 168.3 428.7 168.3C431.4 168.3 433.5 166.2 433.5 163.5C433.5 160.8 431.4 158.7 428.7 158.7Z" fill="#474747"/>
<path d="M434.5 179C434.5 182.2 431.9 184.8 428.7 184.8C425.5 184.8 422.9 182.2 422.9 179C422.9 175.8 425.5 173.2 428.7 173.2C432 173.2 434.5 175.8 434.5 179Z" fill="#E30510"/>
<path d="M428.8 185.8C425.1 185.8 422 182.8 422 179C422 175.3 425 172.2 428.8 172.2C432.5 172.2 435.6 175.2 435.6 179C435.5 182.7 432.5 185.8 428.8 185.8ZM428.8 174.2C426.2 174.2 424 176.3 424 179C424 181.6 426.1 183.8 428.8 183.8C431.4 183.8 433.6 181.7 433.6 179C433.5 176.4 431.4 174.2 428.8 174.2Z" fill="#474747"/>
<path d="M434.6 194.5C434.6 197.7 432 200.3 428.8 200.3C425.6 200.3 423 197.7 423 194.5C423 191.3 425.6 188.7 428.8 188.7C432 188.7 434.6 191.3 434.6 194.5Z" fill="#E30510"/>
<path d="M428.8 201.3C425.1 201.3 422 198.3 422 194.5C422 190.8 425 187.7 428.8 187.7C432.5 187.7 435.6 190.7 435.6 194.5C435.6 198.3 432.5 201.3 428.8 201.3ZM428.8 189.7C426.2 189.7 424 191.8 424 194.5C424 197.1 426.1 199.3 428.8 199.3C431.4 199.3 433.6 197.2 433.6 194.5C433.6 191.9 431.4 189.7 428.8 189.7Z" fill="#474747"/>
<path d="M405.3 190.7C405.3 196.3 400.8 200.8 395.2 200.8C389.6 200.8 385.1 196.3 385.1 190.7C385.1 185.1 389.6 180.6 395.2 180.6C400.8 180.6 405.3 185.1 405.3 190.7Z" fill="#A3A3A3"/>
<path d="M395.2 201.9C389.1 201.9 384.1 196.9 384.1 190.8C384.1 184.7 389.1 179.7 395.2 179.7C401.3 179.7 406.3 184.7 406.3 190.8C406.3 196.9 401.3 201.9 395.2 201.9ZM395.2 181.6C390.2 181.6 386.1 185.7 386.1 190.7C386.1 195.7 390.2 199.8 395.2 199.8C400.2 199.8 404.3 195.7 404.3 190.7C404.3 185.7 400.2 181.6 395.2 181.6Z" fill="#474747"/>
<path d="M396.2 190H394.2V214.3H396.2V190Z" fill="#474747"/>
<path d="M419.3 188.1C419.3 193.1 415.2 197.2 410.2 197.2C405.2 197.2 401.1 193.1 401.1 188.1V176.1C401.1 171.1 405.2 167 410.2 167C415.2 167 419.3 171.1 419.3 176.1V188.1Z" fill="#E30510"/>
<path d="M410.3 198.2C404.8 198.2 400.2 193.7 400.2 188.1V176.1C400.2 170.6 404.7 166 410.3 166C415.8 166 420.4 170.5 420.4 176.1V188.1C420.3 193.6 415.8 198.2 410.3 198.2ZM410.3 168C405.9 168 402.2 171.6 402.2 176.1V188.1C402.2 192.5 405.8 196.2 410.3 196.2C414.8 196.2 418.4 192.6 418.4 188.1V176.1C418.3 171.6 414.7 168 410.3 168Z" fill="#474747"/>
<path d="M411.3 181.1H409.3V213.9H411.3V181.1Z" fill="#474747"/>
<path d="M402.7 141.6L398.6 144.8L400.1 149.8C400.7 151.7 399.3 153.6 397.3 153.7L392.1 153.8L390.4 158.7C389.7 160.6 387.5 161.3 385.8 160.2L381.5 157.3L377.2 160.2C375.6 161.3 373.3 160.6 372.6 158.7L370.9 153.8L365.7 153.7C363.7 153.6 362.3 151.7 362.9 149.8L364.4 144.8L360.3 141.6C358.7 140.4 358.7 138 360.3 136.8L364.4 133.6L362.9 128.6C362.3 126.7 363.7 124.8 365.7 124.7L370.9 124.6L372.6 119.7C373.3 117.8 375.5 117.1 377.2 118.2L381.5 121.1L385.8 118.2C387.4 117.1 389.7 117.8 390.4 119.7L392.1 124.6L397.3 124.7C399.3 124.8 400.7 126.7 400.1 128.6L398.6 133.6L402.7 136.8C404.2 138.1 404.2 140.4 402.7 141.6Z" fill="#A3A3A3"/>
<path d="M389.637 141.241C390.719 136.674 387.894 132.093 383.326 131.011C378.759 129.928 374.178 132.754 373.096 137.321C372.013 141.889 374.839 146.469 379.406 147.552C383.974 148.634 388.554 145.809 389.637 141.241Z" fill="#E30510"/>
<path d="M381.3 142.8L376.9 138.4L378.4 137L381.3 139.9L389.1 132.2L390.5 133.6L381.3 142.8Z" fill="#474747"/>
<path d="M381.4 148.8C376.1 148.8 371.9 144.5 371.9 139.3C371.9 134 376.2 129.8 381.4 129.8V131.8C377.2 131.8 373.9 135.2 373.9 139.3C373.9 143.4 377.3 146.8 381.4 146.8C385.5 146.8 388.9 143.4 388.9 139.3H390.9C391 144.5 386.7 148.8 381.4 148.8Z" fill="#474747"/>
<path d="M382.7 159H380.7V212.9H382.7V159Z" fill="#474747"/>
<path d="M292 112.3V107.9L288.4 106.9C288.1 105.4 287.5 104 286.7 102.8L288.9 99.2L285.8 96.1L282.2 98.2C280.9 97.4 279.6 96.8 278.1 96.5L277.1 92.5H272.7L271.7 96.5C270.2 96.8 268.9 97.4 267.6 98.2L264.1 96.1L261 99.2L263 102.7C262.2 103.9 261.6 105.3 261.3 106.8L257.6 107.9V112.3L261.2 113.2C261.5 114.7 262.1 116.1 262.9 117.3L260.7 120.7L263.8 123.8L267.4 121.9C268.6 122.7 270 123.3 271.5 123.6L272.5 127.8H276.9L277.9 123.6C279.4 123.3 280.8 122.7 282 121.9L285.6 124L288.7 120.9L286.5 117.4C287.3 116.1 287.9 114.8 288.2 113.3L292 112.3ZM274.7 116.4C271.3 116.4 268.5 113.6 268.5 110.2C268.5 106.8 271.3 104 274.7 104C278.1 104 280.9 106.8 280.9 110.2C280.9 113.6 278.1 116.4 274.7 116.4Z" fill="#E30510"/>
<path d="M274.8 117.4C270.8 117.4 267.5 114.1 267.5 110.1C267.5 107.4 269 104.9 271.5 103.6L272.4 105.4C270.6 106.3 269.5 108.1 269.5 110.1C269.5 113 271.9 115.4 274.8 115.4C277 115.4 278.9 114 279.7 112L281.6 112.7C280.6 115.5 277.8 117.4 274.8 117.4Z" fill="#474747"/>
<g opacity="0.3">
<path opacity="0.3" d="M288.3 107C288 105.5 287.4 104.1 286.6 102.9L288.8 99.3003L285.7 96.2003L282.1 98.3003C280.8 97.5003 279.5 96.9003 278 96.6003L277.7 95.3003C275.4 97.7003 274.4 101.1 273.9 104C274.1 104 274.4 103.9 274.7 103.9C278.1 103.9 280.9 106.7 280.9 110.1C280.9 110.4 280.9 110.8 280.8 111.1C283.9 110.7 287.3 109.7 289.9 107.3L288.3 107Z" fill="#414042"/>
</g>
<path d="M292.4 92.7001C292.4 92.7001 293.7 101.6 289 106.3C284.3 111 275.4 109.7 275.4 109.7C275.4 109.7 274.1 100.8 278.8 96.1001C283.5 91.4001 292.4 92.7001 292.4 92.7001Z" fill="#A3A3A3"/>
<path d="M278.2 110.9C276.5 110.9 275.4 110.7 275.2 110.7L274.5 110.6L274.4 109.9C274.3 109.5 273.1 100.4 278.1 95.5001C283.1 90.5001 292.2 91.8001 292.5 91.8001L293.2 91.9001L293.3 92.6001C293.4 93.0001 294.6 102.1 289.6 107C286.5 110.3 281.4 110.9 278.2 110.9ZM276.3 108.8C278.5 109 284.8 109.1 288.3 105.6C291.8 102.1 291.7 95.8001 291.5 93.6001C289.3 93.4001 283 93.3001 279.5 96.8001C276 100.3 276.2 106.6 276.3 108.8Z" fill="#474747"/>
<path d="M291.678 92.0379L274.707 109.008L276.121 110.423L293.092 93.4521L291.678 92.0379Z" fill="#474747"/>
<path d="M290.324 103.518L279.107 104.886L279.349 106.871L290.566 105.503L290.324 103.518Z" fill="#474747"/>
<path d="M278.96 95.0798L278.228 105.855L280.223 105.991L280.955 95.2155L278.96 95.0798Z" fill="#474747"/>
<path d="M292.443 98.0555L285.098 98.9517L285.34 100.937L292.685 100.041L292.443 98.0555Z" fill="#474747"/>
<path d="M284.918 92.4488L284.189 99.8125L286.179 100.01L286.909 92.646L284.918 92.4488Z" fill="#474747"/>
<path d="M58.8004 136.8V132.6L55.3004 131.6C55.0004 130.2 54.4004 128.8 53.6004 127.6L55.7004 124.1L52.7004 121.1L49.2004 123.2C48.0004 122.4 46.6004 121.9 45.2004 121.5L44.2004 117.7H40.0004L39.0004 121.5C37.6004 121.8 36.3004 122.4 35.0004 123.1L31.6004 121.1L28.6004 124.1L30.6004 127.5C29.8004 128.7 29.3004 130.1 28.9004 131.5L25.4004 132.6V136.8L28.9004 137.6C29.2004 139 29.8004 140.4 30.5004 141.6L28.4004 144.9L31.4004 147.9L34.9004 146C36.1004 146.8 37.5004 147.3 38.9004 147.7L39.9004 151.8H44.1004L45.1004 147.7C46.5004 147.4 47.9004 146.8 49.1004 146L52.6004 148.1L55.6004 145.1L53.5004 141.7C54.3004 140.5 54.8004 139.1 55.2004 137.7L58.8004 136.8ZM42.0004 140.8C38.7004 140.8 36.0004 138.1 36.0004 134.8C36.0004 131.5 38.7004 128.8 42.0004 128.8C45.3004 128.8 48.0004 131.5 48.0004 134.8C48.0004 138.1 45.3004 140.8 42.0004 140.8Z" fill="#E30510"/>
<path d="M43.6001 151.9H41.6001V212.3H43.6001V151.9Z" fill="#474747"/>
<path d="M64.7501 120.88L58.9473 124.229L59.9471 125.961L65.7499 122.612L64.7501 120.88Z" fill="#474747"/>
<path d="M68.6004 134H61.9004V136H68.6004V134Z" fill="#474747"/>
<path d="M59.6417 143.974L58.6421 145.707L64.4456 149.055L65.4452 147.323L59.6417 143.974Z" fill="#474747"/>
<path d="M24.3395 143.286L18.5366 146.636L19.5364 148.368L25.3393 145.019L24.3395 143.286Z" fill="#474747"/>
<path d="M22.4002 133.2H15.7002V135.2H22.4002V133.2Z" fill="#474747"/>
<path d="M19.9914 120.179L18.9922 121.911L24.7957 125.258L25.7949 123.526L19.9914 120.179Z" fill="#474747"/>
<path opacity="0.3" d="M213.2 208.1C213.2 207.4 212.6 206.8 211.9 206.8H208.5V205.1V136.2C208.5 136 208.4 135.9 208.2 135.9H192.8V138.9V142.5V146.1V149.7V153.3V156.9V160.5V164.1V167.7V171.3V174.9V178.5V182.1V185.7V189.3V192.9V196.5V200.1V203.7V207.3V210.9V214.5H213.2V208.1Z" fill="#474747"/>
<path d="M165.7 135.8H205.6C205.8 135.8 205.9 135.9 205.9 136.1V207.2H165.3V136.1C165.4 136 165.6 135.8 165.7 135.8Z" fill="white"/>
<path d="M187.301 196.905C194.76 196.024 200.093 189.263 199.212 181.803C198.331 174.344 191.57 169.011 184.111 169.893C176.651 170.774 171.319 177.535 172.2 184.994C173.081 192.453 179.842 197.786 187.301 196.905Z" fill="#A3A3A3"/>
<path d="M154.2 195.8C151.4 195.8 149.1 193.5 149.1 190.7V153.3C149.1 151.4 150.2 148.9 151.6 147.7L159.4 140.5L160.8 142L153 149.2C152 150.1 151.2 152 151.2 153.4V190.8C151.2 192.5 152.6 193.9 154.3 193.9C156 193.9 157.4 192.5 157.4 190.8V177.4C157.4 174.6 159.7 172.3 162.5 172.3H165.3V174.3H162.5C160.8 174.3 159.4 175.7 159.4 177.4V190.8C159.3 193.5 157 195.8 154.2 195.8Z" fill="#474747"/>
<path d="M171.8 160.2H199.6C199.7 160.2 199.8 160.1 199.8 160V141.3C199.8 141.2 199.7 141.1 199.6 141.1H171.8C171.7 141.1 171.6 141.2 171.6 141.3V160C171.6 160.1 171.7 160.2 171.8 160.2Z" fill="#E30510"/>
<path d="M150.8 164L149.3 162.8L154 156.9V145.7H156V157.6L150.8 164Z" fill="#474747"/>
<g opacity="0.3">
<path opacity="0.3" d="M206 205.1H165.4V207.2H206V205.1Z" fill="#414042"/>
</g>
<path d="M161.2 207.8H209.3C209.5 207.8 209.6 208 209.6 208.1V214.3H160.8V208.1C160.8 207.9 161 207.8 161.2 207.8Z" fill="#EDEDED"/>
<path d="M210.7 214.3H208.7V208.8H161.9V214.3H159.9V208.1C159.9 207.4 160.5 206.8 161.2 206.8H209.3C210 206.8 210.6 207.4 210.6 208.1V214.3H210.7Z" fill="#474747"/>
<path d="M194.6 146.9H192.6V151.8H194.6V146.9Z" fill="#474747"/>
<path d="M187.5 146.9H185.5V151.8H187.5V146.9Z" fill="#474747"/>
<path d="M180.4 146.9H178.4V151.8H180.4V146.9Z" fill="#474747"/>
<path d="M179.5 190.1C178.1 188.5 176.5 186.1 176.5 183.3C176.5 178.3 181.7 174.5 181.9 174.3L182.5 173.9L183.1 174.4C183.2 174.5 185.4 176.1 186.9 178.6L185.2 179.6C184.3 178.2 183.2 177 182.5 176.4C181.3 177.5 178.5 180.2 178.5 183.3C178.5 185.5 179.8 187.5 181 188.8L179.5 190.1Z" fill="#474747"/>
<path d="M184.3 192.7C183.1 192.7 182.3 192.6 182.2 192.6L181.5 192.5L181.4 191.8C181.4 191.5 180.5 185.2 184 181.6C187.5 178.1 193.9 178.9 194.2 179L194.9 179.1L195 179.8C195 180.1 195.9 186.4 192.4 190C190.1 192.3 186.6 192.7 184.3 192.7ZM183.3 190.7C184.9 190.8 188.8 190.8 191 188.6C193.2 186.4 193.2 182.5 193.1 180.9C191.5 180.8 187.6 180.8 185.4 183C183.3 185.2 183.2 189 183.3 190.7Z" fill="#474747"/>
<path d="M148.9 117C158.013 117 165.4 109.613 165.4 100.5C165.4 91.3873 158.013 84 148.9 84C139.787 84 132.4 91.3873 132.4 100.5C132.4 109.613 139.787 117 148.9 117Z" fill="#E30510"/>
<path d="M159.7 100.5C159.7 106.5 154.9 111.3 148.9 111.3C142.9 111.3 138.1 106.5 138.1 100.5C138.1 94.5002 142.9 89.7002 148.9 89.7002C154.9 89.7002 159.7 94.6002 159.7 100.5Z" fill="#E30510"/>
<path d="M140.2 102.8C140.1 102.2 140 101.6 140 101C140 100.4 140.1 99.8001 140.2 99.2001C140.3 98.6001 140.5 98.1001 140.7 97.5001C140.9 97.0001 141.2 96.5001 141.5 96.0001C141.8 95.5001 142.2 95.1001 142.6 94.7001C143 94.3001 143.4 93.9001 143.9 93.6001C144.4 93.3001 144.9 93.0001 145.4 92.8001C145.9 92.6001 146.5 92.4001 147.1 92.3001C147.7 92.2001 148.3 92.1001 148.9 92.1001V94.1001C148.4 94.1001 148 94.1001 147.5 94.2001C147.1 94.3001 146.6 94.4001 146.2 94.6001C145.8 94.8001 145.4 95.0001 145 95.2001C144.6 95.4001 144.3 95.7001 144 96.0001C143.7 96.3001 143.4 96.7001 143.2 97.0001C142.9 97.4001 142.7 97.8001 142.6 98.2001C142.4 98.6001 142.3 99.1001 142.2 99.5001C142.1 100 142.1 100.4 142.1 100.9C142.1 101.4 142.1 101.8 142.2 102.3L140.2 102.8Z" fill="#474747"/>
<path d="M144 108.4C143.5 108.1 143.1 107.7 142.7 107.3C142.3 106.9 141.9 106.5 141.6 106L143.3 104.9C143.5 105.3 143.8 105.6 144.1 105.9C144.4 106.2 144.8 106.5 145.1 106.7L144 108.4Z" fill="#474747"/>
<path d="M149 110C148.4 110 147.8 109.9 147.2 109.8L147.6 107.8C148.5 108 149.5 108 150.4 107.8L150.8 109.8C150.2 109.9 149.6 110 149 110Z" fill="#474747"/>
<path d="M153.9 108.4L152.8 106.7C153.2 106.5 153.5 106.2 153.8 105.9C154.1 105.6 154.4 105.2 154.6 104.9L156.3 106C156 106.5 155.6 106.9 155.2 107.3C154.9 107.8 154.4 108.1 153.9 108.4Z" fill="#474747"/>
<path d="M147.4 96.7L146 95.3L148.1 93.1L146 90.9L147.4 89.5L150.9 93.1L147.4 96.7Z" fill="#474747"/>
<path d="M150 76.2002H148V81.5002H150V76.2002Z" fill="#474747"/>
<path d="M160.25 78.8892L157.601 83.4795L159.333 84.4793L161.982 79.889L160.25 78.8892Z" fill="#474747"/>
<path d="M169.527 87.5104L164.939 90.1631L165.94 91.8945L170.528 89.2418L169.527 87.5104Z" fill="#474747"/>
<path d="M173.3 99.6001H168V101.6H173.3V99.6001Z" fill="#474747"/>
<path d="M165.895 109.264L164.896 110.997L169.488 113.643L170.487 111.91L165.895 109.264Z" fill="#474747"/>
<path d="M159.229 116.576L157.498 117.578L160.153 122.165L161.884 121.163L159.229 116.576Z" fill="#474747"/>
<path d="M149.896 119.599L147.896 119.602L147.903 124.902L149.903 124.899L149.896 119.599Z" fill="#474747"/>
<path d="M138.458 116.626L135.815 121.22L137.549 122.217L140.191 117.623L138.458 116.626Z" fill="#474747"/>
<path d="M131.851 109.203L127.265 111.861L128.268 113.591L132.854 110.933L131.851 109.203Z" fill="#474747"/>
<path d="M129.798 99.495L124.498 99.5054L124.502 101.505L129.802 101.495L129.798 99.495Z" fill="#474747"/>
<path d="M128.284 87.447L127.288 89.1812L131.883 91.8216L132.88 90.0874L128.284 87.447Z" fill="#474747"/>
<path d="M137.563 78.9711L135.833 79.9751L138.494 84.5591L140.223 83.5551L137.563 78.9711Z" fill="#474747"/>
<path d="M372.3 188L374.6 190.2H377.7V193.4L380 195.6L377.7 197.8V201H374.6L372.3 203.2L370.1 201H367V197.8L364.7 195.6L367 193.4V190.2H370.1L372.3 188Z" fill="#E30510"/>
<path d="M372.3 204.6L369.7 202H366V198.3L363.4 195.7L366 193.1V189.4H369.7L372.3 186.8L374.9 189.4H378.6V193.1L381.2 195.7L378.6 198.3V202H375L372.3 204.6ZM368 200H370.6L372.4 201.8L374.2 200H376.8V197.4L378.6 195.6L376.8 193.8V191.2H374.2L372.4 189.4L370.6 191.2H368V193.8L366.2 195.6L368 197.4V200Z" fill="#474747"/>
<path d="M375.8 195.6C375.8 197.5 374.3 199 372.4 199C370.5 199 369 197.5 369 195.6C369 193.7 370.5 192.2 372.4 192.2C374.2 192.2 375.8 193.7 375.8 195.6Z" fill="#474747"/>
<path d="M373.3 202.8H371.3V213.3H373.3V202.8Z" fill="#474747"/>
<path d="M352.9 188L355.1 190.2H358.3V193.4L360.5 195.6L358.3 197.8V201H355.1L352.9 203.2L350.7 201H347.5V197.8L345.3 195.6L347.5 193.4V190.2H350.7L352.9 188Z" fill="#E30510"/>
<path d="M352.9 204.6L350.3 202H346.6V198.3L344 195.7L346.6 193.1V189.4H350.3L352.9 186.8L355.5 189.4H359.2V193.1L361.8 195.7L359.2 198.3V202H355.5L352.9 204.6ZM348.5 200H351.1L352.9 201.8L354.7 200H357.3V197.4L359.1 195.6L357.3 193.8V191.2H354.7L352.9 189.4L351.1 191.2H348.5V193.8L346.7 195.6L348.5 197.4V200Z" fill="#474747"/>
<path d="M356.3 195.6C356.3 197.5 354.8 199 352.9 199C351 199 349.5 197.5 349.5 195.6C349.5 193.7 351 192.2 352.9 192.2C354.8 192.2 356.3 193.7 356.3 195.6Z" fill="#474747"/>
<path d="M353.9 202.8H351.9V213.3H353.9V202.8Z" fill="#474747"/>
<path d="M333.8 188L336.1 190.2H339.2V193.4L341.5 195.6L339.2 197.8V201H336.1L333.8 203.2L331.6 201H328.5V197.8L326.2 195.6L328.5 193.4V190.2H331.6L333.8 188Z" fill="#E30510"/>
<path d="M333.8 204.6L331.2 202H327.5V198.3L324.9 195.7L327.5 193.1V189.4H331.2L333.8 186.8L336.4 189.4H340.1V193.1L342.7 195.7L340.1 198.3V202H336.4L333.8 204.6ZM329.5 200H332.1L333.9 201.8L335.7 200H338.3V197.4L340.1 195.6L338.3 193.8V191.2H335.7L333.9 189.4L332.1 191.2H329.5V193.8L327.7 195.6L329.5 197.4V200Z" fill="#474747"/>
<path d="M337.3 195.6C337.3 197.5 335.8 199 333.9 199C332 199 330.5 197.5 330.5 195.6C330.5 193.7 332 192.2 333.9 192.2C335.7 192.2 337.3 193.7 337.3 195.6Z" fill="#474747"/>
<path d="M334.8 202.8H332.8V213.3H334.8V202.8Z" fill="#474747"/>
<path d="M63.8002 191.6C63.8002 196.7 59.6002 200.9 54.5002 200.9C49.4002 200.9 45.2002 196.7 45.2002 191.6C45.2002 186.5 49.4002 182.3 54.5002 182.3C59.6002 182.3 63.8002 186.5 63.8002 191.6Z" fill="#A3A3A3"/>
<path d="M54.5002 201.9C48.8002 201.9 44.2002 197.3 44.2002 191.6C44.2002 185.9 48.8002 181.3 54.5002 181.3C60.2002 181.3 64.8002 185.9 64.8002 191.6C64.8002 197.3 60.2002 201.9 54.5002 201.9ZM54.5002 183.3C49.9002 183.3 46.2002 187 46.2002 191.6C46.2002 196.2 49.9002 199.9 54.5002 199.9C59.1002 199.9 62.8002 196.2 62.8002 191.6C62.8002 187.1 59.1002 183.3 54.5002 183.3Z" fill="#474747"/>
<path d="M55.5 191H53.5V213.3H55.5V191Z" fill="#474747"/>
<path d="M76.7001 189.2C76.7001 193.8 73.0001 197.5 68.4001 197.5C63.8001 197.5 60.1001 193.8 60.1001 189.2V178.2C60.1001 173.6 63.8001 169.9 68.4001 169.9C73.0001 169.9 76.7001 173.6 76.7001 178.2V189.2Z" fill="#E30510"/>
<path d="M68.4001 198.5C63.3001 198.5 59.1001 194.3 59.1001 189.2V178.2C59.1001 173.1 63.3001 168.9 68.4001 168.9C73.5001 168.9 77.7001 173.1 77.7001 178.2V189.2C77.7001 194.4 73.5001 198.5 68.4001 198.5ZM68.4001 170.9C64.4001 170.9 61.1001 174.2 61.1001 178.2V189.2C61.1001 193.2 64.4001 196.5 68.4001 196.5C72.4001 196.5 75.7001 193.2 75.7001 189.2V178.2C75.7001 174.1 72.4001 170.9 68.4001 170.9Z" fill="#474747"/>
<path d="M69.3999 182.7H67.3999V212.8H69.3999V182.7Z" fill="#474747"/>
<path d="M105.3 186.5C105.3 179.2 99.4002 173.2 92.0002 173.2C84.6002 173.2 78.7002 179.1 78.7002 186.5C78.7002 191.2 81.1002 195.3 84.8002 197.6V200.9H99.2002V197.6C102.9 195.3 105.3 191.2 105.3 186.5Z" fill="#E30510"/>
<path d="M92.1001 173.2C91.4001 173.2 90.8001 173.3 90.1001 173.4C96.5001 174.4 101.4 179.9 101.4 186.5C101.4 191.2 99.0001 195.3 95.3001 197.6V200.9H99.3001V197.6C103 195.2 105.4 191.1 105.4 186.5C105.3 179.2 99.4001 173.2 92.1001 173.2Z" fill="#E30510"/>
<path d="M100.3 210.4H83.7001L82.6001 208.1V201H101.4V208L100.3 210.4Z" fill="#A3A3A3"/>
<path d="M94.7004 210.4H89.4004V213.4H94.7004V210.4Z" fill="#A3A3A3"/>
<path d="M101 211.4H83.1001L81.6001 208.2V200H102.4V208.2L101 211.4ZM84.4001 209.4H99.7001L100.4 207.7V202H83.6001V207.9L84.4001 209.4Z" fill="#474747"/>
<path d="M95.7004 214.4H88.4004V209.4H95.7004V214.4ZM90.4004 212.4H93.7004V211.4H90.4004V212.4Z" fill="#474747"/>
<path d="M90.7001 204.7H82.6001V206.7H90.7001V204.7Z" fill="#474747"/>
<path d="M92.0002 193.4C90.4002 193.4 89.0002 192.8 87.9002 191.7C86.8002 190.6 86.2002 189.1 86.2002 187.6C86.2002 186.1 86.8002 184.6 87.9002 183.5L89.3002 184.9C88.6002 185.6 88.2002 186.6 88.2002 187.6C88.2002 188.6 88.6002 189.6 89.3002 190.3C90.7002 191.7 93.3002 191.7 94.7002 190.3C95.4002 189.6 95.8002 188.6 95.8002 187.6C95.8002 186.6 95.4002 185.6 94.7002 184.9L96.1002 183.5C97.2002 184.6 97.8002 186.1 97.8002 187.6C97.8002 189.2 97.2002 190.6 96.1002 191.7C95.0002 192.8 93.6002 193.4 92.0002 193.4Z" fill="#474747"/>
<path d="M93.1001 181.3H91.1001V188.6H93.1001V181.3Z" fill="#474747"/>
<path d="M437.2 212.4H15.5V214.4H437.2V212.4Z" fill="#474747"/>
<path d="M447.3 212.4H441.1V214.4H447.3V212.4Z" fill="#474747"/>
<path d="M10.5 212.4H0V214.4H10.5V212.4Z" fill="#474747"/>
</g>
<defs>
<clipPath id="clip0">
<rect width="447.2" height="214.4" fill="white"/>
</clipPath>
</defs>
</svg>
