<svg width="88" height="88" viewBox="0 0 88 88" fill="none" xmlns="http://www.w3.org/2000/svg">
<circle cx="44" cy="44" r="38" fill="#E30510"/>
<circle cx="44" cy="44" r="43.5" stroke="#E30510"/>
<g clip-path="url(#clip0)">
<path d="M39.2082 48.7917C33.2991 48.7917 27.9324 45.0772 25.8528 39.5457C25.7704 39.3291 25.7704 39.0895 25.8528 38.871C27.9324 33.3395 33.2991 29.625 39.2082 29.625C45.1172 29.625 50.4839 33.3395 52.5635 38.871C52.6459 39.0876 52.6459 39.3272 52.5635 39.5457C50.4839 45.0772 45.1172 48.7917 39.2082 48.7917ZM27.7791 39.2083C29.667 43.8083 34.2133 46.875 39.2082 46.875C44.203 46.875 48.7493 43.8083 50.6372 39.2083C48.7493 34.6083 44.203 31.5417 39.2082 31.5417C34.2133 31.5417 29.667 34.6083 27.7791 39.2083Z" fill="white"/>
<path d="M39.2082 43.9998C36.567 43.9998 34.4165 41.8513 34.4165 39.2082C34.4165 36.5651 36.567 34.4165 39.2082 34.4165C41.8493 34.4165 43.9998 36.5651 43.9998 39.2082C43.9998 41.8513 41.8493 43.9998 39.2082 43.9998ZM39.2082 36.3332C37.6231 36.3332 36.3332 37.6231 36.3332 39.2082C36.3332 40.7933 37.6231 42.0832 39.2082 42.0832C40.7933 42.0832 42.0832 40.7933 42.0832 39.2082C42.0832 37.6231 40.7933 36.3332 39.2082 36.3332Z" fill="white"/>
<path d="M39.2083 57.4167C29.1688 57.4167 21 49.2478 21 39.2083C21 29.1688 29.1688 21 39.2083 21C49.2478 21 57.4167 29.1688 57.4167 39.2083C57.4167 49.2478 49.2478 57.4167 39.2083 57.4167ZM39.2083 22.9167C30.2249 22.9167 22.9167 30.2249 22.9167 39.2083C22.9167 48.1918 30.2249 55.5 39.2083 55.5C48.1918 55.5 55.5 48.1918 55.5 39.2083C55.5 30.2249 48.1918 22.9167 39.2083 22.9167Z" fill="white"/>
<path d="M66.0417 67.0001C65.7964 67.0001 65.5511 66.9062 65.3632 66.7203L50.7276 52.0846C50.3538 51.7109 50.3538 51.1033 50.7276 50.7295C51.1013 50.3558 51.7089 50.3558 52.0827 50.7295L66.7183 65.3652C67.0921 65.7389 67.0921 66.3465 66.7183 66.7203C66.5324 66.9062 66.2871 67.0001 66.0417 67.0001Z" fill="white"/>
</g>
<defs>
<clipPath id="clip0">
<rect width="46" height="46" fill="white" transform="translate(21 21)"/>
</clipPath>
</defs>
</svg>
