<svg width="88" height="88" viewBox="0 0 88 88" fill="none" xmlns="http://www.w3.org/2000/svg">
<circle cx="44" cy="44" r="38" fill="#E30510"/>
<circle cx="44" cy="44" r="43.5" stroke="#E30510"/>
<path d="M52.3527 68.9965C51.5687 68.9965 50.7827 68.8311 50.0579 68.5024L45.948 66.6363C45.0292 66.2178 43.9696 66.2178 43.0509 66.6363L38.943 68.5024C37.5486 69.1333 35.9377 69.1619 34.5269 68.5759C33.1141 67.992 31.9952 66.8323 31.4583 65.4011L29.8739 61.1769C29.5187 60.2296 28.7714 59.4844 27.8262 59.1271L23.5999 57.5427C22.1687 57.0058 21.0111 55.887 20.4251 54.4741C19.8392 53.0613 19.8677 51.4525 20.5007 50.058L22.3688 45.9502C22.7853 45.0294 22.7853 43.9718 22.3688 43.049L20.4986 38.9432C19.8657 37.5487 19.8371 35.9399 20.4231 34.527C21.009 33.1142 22.1667 31.9954 23.5979 31.4584L27.8241 29.8741C28.7714 29.5168 29.5187 28.7716 29.8719 27.8242L31.4562 23.6C31.9932 22.1688 33.112 21.0092 34.5249 20.4252C35.9357 19.8393 37.5465 19.8658 38.941 20.4987L43.0509 22.3648C43.9696 22.7834 45.0292 22.7834 45.948 22.3648L50.0558 20.4987C51.4482 19.8638 53.0591 19.8393 54.4719 20.4252C55.8848 21.0092 57.0036 22.1688 57.5406 23.6L59.1249 27.8242C59.4802 28.7716 60.2274 29.5168 61.1727 29.8741L65.3989 31.4584C66.8302 31.9954 67.9878 33.1142 68.5737 34.527C69.1597 35.9399 69.1311 37.5487 68.4982 38.9432L66.6301 43.051C66.2136 43.9718 66.2136 45.0294 66.6301 45.9522L68.4962 50.058C69.1291 51.4525 69.1576 53.0613 68.5717 54.4741C67.9857 55.887 66.8281 57.0058 65.3969 57.5427L61.1707 59.1271C60.2233 59.4844 59.4761 60.2296 59.1229 61.1769L57.5385 65.4011C57.0016 66.8323 55.8827 67.992 54.4699 68.5759C53.7962 68.8577 53.0734 68.9965 52.3527 68.9965ZM44.5004 64.2802C45.2824 64.2802 46.0644 64.4456 46.7953 64.7764L50.9031 66.6424C51.7953 67.0487 52.7876 67.0671 53.692 66.6874C54.5985 66.3117 55.2866 65.6012 55.6316 64.6824L57.2159 60.4582C57.7774 58.9597 58.9595 57.7775 60.4581 57.2161L64.6844 55.6317C65.6031 55.2867 66.3157 54.5987 66.6893 53.6922C67.0649 52.7877 67.0486 51.7955 66.6423 50.9032L64.7742 46.7954C64.1127 45.3356 64.1127 43.6655 64.7742 42.2078L66.6423 38.0979C67.0486 37.2037 67.0649 36.2135 66.6893 35.309C66.3136 34.4025 65.6011 33.7145 64.6844 33.3694L60.4581 31.7851C58.9595 31.2236 57.7774 30.0415 57.2159 28.5429L55.6316 24.3187C55.2886 23.4 54.5985 22.6874 53.692 22.3138C52.7876 21.9361 51.7974 21.9545 50.9011 22.3587L46.7932 24.2248C45.3355 24.8863 43.6634 24.8863 42.2056 24.2248L38.0978 22.3567C37.2056 21.9524 36.2154 21.934 35.3089 22.3117C34.4024 22.6874 33.7143 23.3979 33.3693 24.3167L31.7849 28.5429C31.2235 30.0415 30.0393 31.2216 28.5428 31.783L24.3165 33.3674C23.3978 33.7124 22.6852 34.4005 22.3116 35.307C21.9339 36.2135 21.9523 37.2057 22.3565 38.0979L24.2247 42.2057C24.8862 43.6655 24.8862 45.3356 24.2247 46.7934L22.3565 50.9032C21.9502 51.7975 21.9339 52.7877 22.3096 53.6922C22.6852 54.5987 23.3978 55.2867 24.3145 55.6317L28.5407 57.2161C30.0393 57.7775 31.2214 58.9597 31.7829 60.4582L33.3672 64.6824C33.7102 65.6012 34.4003 66.3137 35.3068 66.6874C36.2133 67.0671 37.2035 67.0487 38.0978 66.6424L42.2056 64.7764C42.9345 64.4477 43.7185 64.2802 44.5004 64.2802Z" fill="white"/>
<path d="M46.5418 56.75H42.4585C41.4764 56.75 40.4168 55.9966 40.4168 54.3408V51.6458C40.4168 50.4494 39.9003 49.3551 39.0366 48.7181C36.6499 46.9623 35.2575 44.1509 35.3147 41.2007C35.4066 36.3395 39.4674 32.3215 44.3654 32.25C46.8072 32.2806 49.2062 33.1565 50.9722 34.9001C52.724 36.6273 53.6897 38.9303 53.6897 41.3824C53.6897 44.2448 52.3116 46.9786 50.0024 48.6936C49.1123 49.353 48.5835 50.4617 48.5835 51.6601V54.7083C48.5835 55.8353 47.6668 56.75 46.5418 56.75ZM44.4981 34.2917C44.4634 34.2917 44.4287 34.2917 44.394 34.2917C40.6516 34.3468 37.4278 37.5298 37.3564 41.2415C37.3114 43.5282 38.3915 45.7087 40.2473 47.0745C41.6316 48.0954 42.4585 49.8043 42.4585 51.6458V54.3408C42.4585 54.645 42.532 54.7451 42.532 54.7451L46.5418 54.7083V51.6601C46.5418 49.8206 47.3789 48.0995 48.7815 47.0541C50.6027 45.7025 51.646 43.6343 51.646 41.3824C51.646 39.4795 50.8967 37.6931 49.5369 36.3538C48.1874 35.0205 46.4009 34.2917 44.4981 34.2917Z" fill="white"/>
<path d="M47.5623 52.6667H41.4373C40.8738 52.6667 40.4165 52.2093 40.4165 51.6458C40.4165 51.0823 40.8738 50.625 41.4373 50.625H47.5623C48.1258 50.625 48.5832 51.0823 48.5832 51.6458C48.5832 52.2093 48.1258 52.6667 47.5623 52.6667Z" fill="white"/>
</svg>
