<svg width="88" height="88" viewBox="0 0 88 88" fill="none" xmlns="http://www.w3.org/2000/svg">
<circle cx="44" cy="44" r="38" fill="#E30510"/>
<circle cx="44" cy="44" r="43.5" stroke="#E30510"/>
<path d="M44 20C34.2227 20 26.2686 27.9541 26.2686 37.7314C26.2686 40.9502 27.7121 44.412 27.7726 44.558C28.2388 45.6647 29.1588 47.3836 29.8221 48.3911L41.9796 66.812C42.4772 67.5671 43.2135 68 44 68C44.7864 68 45.5228 67.5671 46.0203 66.813L58.1789 48.3911C58.8433 47.3836 59.7622 45.6647 60.2284 44.558C60.2889 44.413 61.7314 40.9512 61.7314 37.7314C61.7314 27.9541 53.7773 20 44 20ZM58.3051 43.7486C57.8889 44.7405 57.0326 46.3395 56.437 47.2428L44.2785 65.6647C44.0386 66.0287 43.9624 66.0287 43.7225 65.6647L31.564 47.2428C30.9684 46.3395 30.1121 44.7395 29.6959 43.7476C29.6782 43.7048 28.3546 40.5184 28.3546 37.7314C28.3546 29.1046 35.3731 22.086 44 22.086C52.6268 22.086 59.6453 29.1046 59.6453 37.7314C59.6453 40.5226 58.3186 43.7173 58.3051 43.7486Z" fill="white"/>
<path d="M44 28.3452C38.8235 28.3452 34.6128 32.5569 34.6128 37.7324C34.6128 42.9079 38.8235 47.1197 44 47.1197C49.1765 47.1197 53.3872 42.9079 53.3872 37.7324C53.3872 32.5569 49.1765 28.3452 44 28.3452ZM44 45.0336C39.975 45.0336 36.6988 41.7585 36.6988 37.7324C36.6988 33.7064 39.975 30.4313 44 30.4313C48.025 30.4313 51.3012 33.7064 51.3012 37.7324C51.3012 41.7585 48.025 45.0336 44 45.0336Z" fill="white"/>
</svg>
