<svg width="88" height="88" viewBox="0 0 88 88" fill="none" xmlns="http://www.w3.org/2000/svg">
<circle cx="44" cy="44" r="38" fill="#E30510"/>
<circle cx="44" cy="44" r="43.5" stroke="#E30510"/>
<g clip-path="url(#clip0)">
<path d="M55.9166 65.9997H22.9166C22.5939 65.9997 22.2933 65.8292 22.1283 65.5505C21.9633 65.2719 21.9578 64.9272 22.1118 64.643L38.6118 34.393C38.9326 33.8045 39.9006 33.8045 40.2214 34.393L56.7214 64.643C56.8754 64.9272 56.8699 65.2719 56.7049 65.5505C56.5399 65.8292 56.2393 65.9997 55.9166 65.9997ZM24.4603 64.1664H54.3711L39.4166 36.747L24.4603 64.1664Z" fill="white"/>
<path d="M65.0832 66.0001H55.9166C55.4106 66.0001 54.9999 65.5895 54.9999 65.0835C54.9999 64.5775 55.4106 64.1668 55.9166 64.1668H63.5322L55.0531 48.7485L51.5587 55.9792C51.3387 56.4338 50.7942 56.6263 50.334 56.4045C49.8775 56.1845 49.6869 55.6363 49.9087 55.1798L54.1767 46.3505C54.3271 46.0425 54.6351 45.8427 54.9779 45.8335C55.3226 45.85 55.6397 46.0077 55.8047 46.3083L65.8881 64.6416C66.0439 64.9258 66.0402 65.2705 65.8734 65.5491C65.7066 65.8296 65.4077 66.0001 65.0832 66.0001Z" fill="white"/>
<path d="M39.4167 35.75C38.9107 35.75 38.5 35.3393 38.5 34.8333V22.9167C38.5 22.4107 38.9107 22 39.4167 22H50.4167C50.787 22 51.1225 22.2237 51.2637 22.5665C51.4067 22.9093 51.3278 23.3035 51.0657 23.5657L48.0462 26.5833L51.0638 29.601C51.326 29.8632 51.4048 30.2573 51.2618 30.6002C51.1225 30.943 50.787 31.1667 50.4167 31.1667H40.3333V34.8333C40.3333 35.3393 39.9227 35.75 39.4167 35.75ZM40.3333 29.3333H48.2038L46.1028 27.2323C45.7453 26.8748 45.7453 26.2937 46.1028 25.9362L48.2038 23.8333H40.3333V29.3333Z" fill="white"/>
<path d="M42.1667 49.4999C42.1447 49.4999 42.1245 49.4999 42.1007 49.498C41.8348 49.4797 41.5928 49.3459 41.4333 49.1332L39.4167 46.4455L37.4 49.1332C37.2405 49.3459 36.9967 49.4779 36.7327 49.498C36.4558 49.52 36.2065 49.421 36.0195 49.2322L32.9395 46.1522C32.582 45.7947 32.582 45.2135 32.9395 44.856C33.297 44.4985 33.8782 44.4985 34.2357 44.856L36.5677 47.188L38.6833 44.3665C39.028 43.9045 39.8035 43.9045 40.15 44.3665L42.2657 47.188L44.5977 44.856C44.9552 44.4985 45.5363 44.4985 45.8938 44.856C46.2513 45.2135 46.2513 45.7947 45.8938 46.1522L42.8138 49.2322C42.6415 49.4045 42.4087 49.4999 42.1667 49.4999Z" fill="white"/>
</g>
<defs>
<clipPath id="clip0">
<rect width="44" height="44" fill="white" transform="translate(22 22)"/>
</clipPath>
</defs>
</svg>
