<svg width="22" height="30" viewBox="0 0 22 30" fill="none" xmlns="http://www.w3.org/2000/svg">
<path d="M21.144 0H7.73357C7.49088 0 7.29412 0.196758 7.29412 0.439453V3.01611C7.29412 3.25881 7.49088 3.45557 7.73357 3.45557C7.97627 3.45557 8.17303 3.25881 8.17303 3.01611V0.878906H20.7045V11.7218H19.1412V10.9049C19.1412 10.6622 18.9444 10.4655 18.7017 10.4655H17.4627C17.22 10.4655 17.0232 10.6622 17.0232 10.9049C17.0232 11.1476 17.22 11.3444 17.4627 11.3444H18.2623V12.7579C17.3843 12.7579 11.5389 12.7579 10.6152 12.7579V11.3444H15.4119C15.6546 11.3444 15.8513 11.1476 15.8513 10.9049C15.8513 10.6622 15.6546 10.4655 15.4119 10.4655H10.1758C9.93307 10.4655 9.73631 10.6622 9.73631 10.9049V11.7218H8.17297V5.06689C8.17297 4.8242 7.97621 4.62744 7.73352 4.62744C7.49082 4.62744 7.29406 4.8242 7.29406 5.06689V12.1613C7.29406 12.4039 7.49082 12.6007 7.73352 12.6007H9.73631V13.1974C9.73631 13.4401 9.93307 13.6368 10.1758 13.6368H12.8316V15.0551H11.9338C10.1337 15.0551 8.39463 15.7042 7.03695 16.883C6.64344 17.2247 6.12758 17.413 5.58441 17.413H4.88076V17.0788C4.88076 16.8362 4.684 16.6394 4.44131 16.6394H0.855957C0.613262 16.6394 0.416504 16.8362 0.416504 17.0788V18.1212C0.416504 18.3639 0.613262 18.5607 0.855957 18.5607C1.09865 18.5607 1.29541 18.3639 1.29541 18.1212V17.5183H4.00186V27.5368H1.29541V20.172C1.29541 19.9293 1.09865 19.7326 0.855957 19.7326C0.613262 19.7326 0.416504 19.9293 0.416504 20.172V27.9762C0.416504 28.2189 0.613262 28.4157 0.855957 28.4157H4.44131C4.684 28.4157 4.88076 28.2189 4.88076 27.9762V27.6421H5.58453C6.12764 27.6421 6.64344 27.8303 7.03695 28.1721C8.39469 29.3508 10.1338 30 11.9338 30H17.6554C18.6734 30 19.5015 29.1718 19.5015 28.1539C19.5015 27.7966 19.3995 27.4628 19.223 27.1798C20.1659 27.098 20.9081 26.3044 20.9081 25.3407C20.9081 24.8641 20.7264 24.429 20.4288 24.1011C20.9574 23.7761 21.3105 23.1922 21.3105 22.5275C21.3105 21.8341 20.9262 21.2288 20.3594 20.9133C20.6357 20.5905 20.8028 20.1715 20.8028 19.7143C20.8028 18.6964 19.9747 17.8683 18.9567 17.8683H17.5108V16.9011C17.5108 16.0138 16.8816 15.2708 16.0459 15.0947V13.6368H18.7018C18.9445 13.6368 19.1413 13.44 19.1413 13.1973V12.6006H21.144C21.3867 12.6006 21.5835 12.4039 21.5835 12.1612V0.439453C21.5835 0.196758 21.3867 0 21.144 0V0ZM18.9567 18.7472C19.4901 18.7472 19.9239 19.181 19.9239 19.7143C19.9239 20.2477 19.4901 20.6815 18.9567 20.6815C18.956 20.6815 16.0981 20.6815 16.0981 20.6815C15.8554 20.6815 15.6586 20.8782 15.6586 21.1209C15.6586 21.3636 15.8554 21.5604 16.0981 21.5604H19.4644C19.9977 21.5604 20.4315 21.9943 20.4315 22.5275C20.4315 23.0608 19.9977 23.4947 19.4644 23.4947C18.6337 23.4947 16.9891 23.4947 16.0981 23.4947C15.8554 23.4947 15.6586 23.6914 15.6586 23.9341C15.6586 24.1768 15.8554 24.3736 16.0981 24.3736H19.062C19.5953 24.3736 20.0291 24.8074 20.0291 25.3407C20.0291 25.8741 19.5953 26.3079 19.062 26.3079C18.1081 26.3079 17.0141 26.3079 16.0981 26.3079C15.8554 26.3079 15.6586 26.5046 15.6586 26.7473C15.6586 26.99 15.8554 27.1868 16.0981 27.1868H17.6554C18.1887 27.1868 18.6226 27.6207 18.6226 28.1539C18.6226 28.6872 18.1887 29.1211 17.6554 29.1211H11.9338C10.3454 29.1211 8.81106 28.5483 7.61322 27.5084C7.05986 27.0279 6.33939 26.7632 5.58465 26.7632H4.88076V18.2919H5.58453C6.33934 18.2919 7.05975 18.0272 7.61316 17.5467C8.811 16.5067 10.3454 15.934 11.9338 15.934H12.8316V17.8683H11.8752C11.6325 17.8683 11.4358 18.065 11.4358 18.3077C11.4358 18.5504 11.6325 18.7468 11.8752 18.7472C13.3284 18.7498 18.9627 18.7474 18.9567 18.7472ZM16.6319 16.9011V17.8683H16.0459V16.0123C16.3902 16.1606 16.6319 16.5032 16.6319 16.9011ZM15.167 17.8683H13.7106V13.6368H15.167V17.8683Z" fill="#474747"/>
</svg>
