<svg width="30" height="30" viewBox="0 0 30 30" fill="none" xmlns="http://www.w3.org/2000/svg">
<g clip-path="url(#clip0)">
<path d="M28.5936 0.9375H21.0937V1.875H28.5936C28.8525 1.875 29.0624 2.08488 29.0624 2.34374V17.3437H27.6561V3.74999C27.6561 3.49112 27.4463 3.28124 27.1874 3.28124H24.8437V4.21874H26.7186V17.3437H21.5624V15.9374H23.9062C24.165 15.9374 24.3749 15.7276 24.3749 15.4687V14.4509C24.921 14.2578 25.3124 13.7372 25.3124 13.125C25.3124 12.3483 24.6828 11.7187 23.9062 11.7187C23.1295 11.7187 22.4999 12.3483 22.4999 13.125C22.4999 13.7372 22.8913 14.2578 23.4374 14.4509V14.9999H21.0937C20.8348 14.9999 20.6249 15.2098 20.6249 15.4687V17.3437H3.28124V11.7187H5.62498V14.0624C5.62498 14.3213 5.83486 14.5312 6.09373 14.5312H7.5803C7.77337 15.0773 8.29397 15.4687 8.90621 15.4687C9.68287 15.4687 10.3125 14.8391 10.3125 14.0624C10.3125 13.2858 9.68287 12.6562 8.90621 12.6562C8.29397 12.6562 7.77337 13.0476 7.5803 13.5937H6.56247V11.25C6.56247 10.9911 6.35259 10.7812 6.09373 10.7812H3.28124V4.21874H5.15623V3.28124H2.81249C2.55362 3.28124 2.34374 3.49112 2.34374 3.74999V17.3437H0.937496V2.34374C0.937496 2.08488 1.14738 1.875 1.40624 1.875H8.90621V0.9375H1.40624C0.629587 0.9375 0 1.56709 0 2.34374V22.9687C0 23.2275 0.209882 23.4374 0.468748 23.4374H11.1468L10.3968 27.1874H9.37496C9.1161 27.1874 8.90621 27.3973 8.90621 27.6561V29.0624H7.96872V29.9999H22.0312V29.0624H21.0937V27.6561C21.0937 27.3973 20.8838 27.1874 20.6249 27.1874H19.6023L18.8523 23.4374H29.5311C29.79 23.4374 29.9999 23.2275 29.9999 22.9687V2.34374C29.9999 1.56709 29.3703 0.9375 28.5936 0.9375ZM23.9062 12.6562C24.165 12.6562 24.3749 12.8661 24.3749 13.125C24.3749 13.3838 24.165 13.5937 23.9062 13.5937C23.6473 13.5937 23.4374 13.3838 23.4374 13.125C23.4374 12.8661 23.6473 12.6562 23.9062 12.6562ZM8.90621 13.5937C9.16508 13.5937 9.37496 13.8036 9.37496 14.0624C9.37496 14.3213 9.16508 14.5312 8.90621 14.5312C8.64735 14.5312 8.43747 14.3213 8.43747 14.0624C8.43747 13.8036 8.64735 13.5937 8.90621 13.5937ZM20.1562 29.0624H9.84371V28.1249H10.7812H19.2187H20.1562V29.0624ZM18.6468 27.1874H11.3531L12.1024 23.4374H17.8968L18.6468 27.1874ZM0.937496 22.4999V18.2812H29.0624V22.4999H0.937496Z" fill="#474747"/>
<path d="M15 18.75C14.2233 18.75 13.5938 19.3796 13.5938 20.1562C13.5938 20.9329 14.2233 21.5625 15 21.5625C15.7767 21.5625 16.4062 20.9329 16.4062 20.1562C16.4062 19.3796 15.7767 18.75 15 18.75ZM15 20.625C14.7411 20.625 14.5312 20.4151 14.5312 20.1562C14.5312 19.8974 14.7411 19.6875 15 19.6875C15.2589 19.6875 15.4687 19.8974 15.4687 20.1562C15.4687 20.4151 15.2589 20.625 15 20.625Z" fill="#474747"/>
<path d="M6.60715 4.01952C6.497 4.25383 6.59766 4.53303 6.83198 4.64313L8.90666 5.61947V9.84389C8.90566 10.0224 9.00621 10.186 9.16587 10.2658L14.7946 13.0782C14.8596 13.111 14.9314 13.128 15.0041 13.1279C15.0712 13.1279 15.1376 13.1136 15.1987 13.0857L20.3511 10.7392C20.5182 10.663 20.6254 10.4963 20.6254 10.3126V5.84007L22.5004 4.95772V6.56271H22.0316C21.7727 6.56271 21.5629 6.77259 21.5629 7.03146V9.84395C21.5629 10.1028 21.7727 10.3127 22.0316 10.3127H23.9066C24.1655 10.3127 24.3753 10.1028 24.3753 9.84395V7.03146C24.3753 6.77259 24.1655 6.56271 23.9066 6.56271H23.4378V4.23783C23.4379 4.23684 23.4378 4.2359 23.4378 4.23491V4.21897C23.4378 4.21774 23.4377 4.21657 23.4377 4.21528C23.4376 4.20186 23.4369 4.1885 23.4356 4.1752C23.4353 4.17203 23.435 4.16893 23.4346 4.16582C23.4333 4.1541 23.4315 4.1425 23.4293 4.13096C23.4285 4.12657 23.4275 4.12217 23.4266 4.11784C23.4244 4.1077 23.4218 4.09768 23.4189 4.08772C23.4174 4.08262 23.4158 4.07758 23.4142 4.07254C23.4111 4.06328 23.4077 4.05414 23.4042 4.04512C23.4022 4.04008 23.4001 4.03504 23.3979 4.03012C23.3939 4.02104 23.3895 4.01207 23.3849 4.00323C23.3827 3.99889 23.3805 3.99461 23.3781 3.99034C23.3729 3.98102 23.3673 3.97194 23.3614 3.96291C23.3592 3.95957 23.357 3.95618 23.3548 3.95284C23.3483 3.94346 23.3415 3.93438 23.3343 3.92541C23.3321 3.92278 23.33 3.92014 23.3279 3.91756C23.3204 3.9086 23.3125 3.89998 23.3042 3.89155C23.3019 3.88914 23.2995 3.88674 23.2971 3.8844C23.289 3.87649 23.2806 3.86887 23.272 3.86155C23.2687 3.85879 23.2655 3.85616 23.2622 3.85346C23.2543 3.84707 23.2461 3.84098 23.2377 3.83506C23.2329 3.83172 23.2281 3.8285 23.2232 3.82534C23.2158 3.82065 23.2085 3.81608 23.2008 3.81174C23.1941 3.80793 23.1874 3.80442 23.1805 3.8009C23.1765 3.79891 23.1728 3.79657 23.1687 3.79463L15.2 0.0446483C15.0736 -0.0148828 14.9271 -0.0148828 14.8006 0.0446483L6.83192 3.79463C6.73313 3.84116 6.65362 3.92067 6.60715 4.01952ZM23.4378 9.37514H22.5004V7.50015H23.4378V9.37514ZM19.6879 10.0108L15.0135 12.1408L9.84415 9.5542V6.06062L14.5316 8.26649V10.7814H15.4691V8.26649L19.6879 6.28123V10.0108ZM15.0004 0.986891L20.872 3.75016H15.0004V3.28141H14.0629V5.15641H15.0004V4.68766H20.8727L15.0004 7.45327L8.13275 4.21891L15.0004 0.986891Z" fill="#474747"/>
</g>
<defs>
<clipPath id="clip0">
<rect width="30" height="30" fill="white"/>
</clipPath>
</defs>
</svg>
