<svg width="30" height="30" viewBox="0 0 30 30" fill="none" xmlns="http://www.w3.org/2000/svg">
<g clip-path="url(#clip0)">
<g clip-path="url(#clip1)">
<path d="M4.59711 4.66609C4.99873 5.0673 5.61948 4.44608 5.2178 4.04487L4.06956 2.89779C3.66794 2.49653 3.04718 3.11781 3.44886 3.51902L4.59711 4.66609Z" fill="black"/>
<path d="M-0.0693469 10.1116L1.49914 10.5315C2.02838 10.6731 2.26871 9.82844 1.72623 9.68319L0.15775 9.26331C-0.390643 9.11665 -0.617798 9.96479 -0.0693469 10.1116Z" fill="black"/>
<path d="M1.52434 16.3099L-0.0441386 16.7298C-0.58533 16.8747 -0.341607 17.7186 0.1829 17.5781L1.75138 17.1583C2.29983 17.0114 2.07268 16.1632 1.52434 16.3099Z" fill="black"/>
<path d="M4.66592 22.15L3.51773 23.297C3.116 23.6982 3.73681 24.3195 4.13837 23.9182L5.28656 22.7712C5.68824 22.3701 5.06754 21.7487 4.66592 22.15Z" fill="black"/>
<path d="M23.4103 22.0814C23.0088 21.6801 22.388 22.3015 22.7897 22.7026L23.9379 23.8496C24.3394 24.2509 24.9602 23.6296 24.5585 23.2284L23.4103 22.0814Z" fill="black"/>
<path d="M28.0768 16.6363L26.5083 16.2164C25.9598 16.0697 25.7329 16.9179 26.2813 17.0648L27.8497 17.4846C28.3789 17.6263 28.6192 16.7815 28.0768 16.6363Z" fill="black"/>
<path d="M26.3697 10.4529C26.4073 10.4529 26.4455 10.448 26.4835 10.4379L28.052 10.018C28.6005 9.87114 28.3732 9.02253 27.8249 9.16965L26.2564 9.58954C25.7651 9.72109 25.8791 10.4529 26.3697 10.4529Z" fill="black"/>
<path d="M23.0313 4.72618C23.1435 4.72618 23.2558 4.68338 23.3416 4.59773L24.4898 3.45066C24.8915 3.04945 24.2708 2.42817 23.8691 2.82943L22.7209 3.97651C22.46 4.23704 22.6625 4.72618 23.0313 4.72618Z" fill="black"/>
<path d="M17.1599 1.4195C17.3749 1.47723 17.6396 1.32583 17.6978 1.10916L18.1181 -0.457746C18.2651 -1.00614 17.4169 -1.23359 17.2699 -0.685311L16.8496 0.881592C16.7868 1.11589 16.9257 1.35669 17.1599 1.4195Z" fill="black"/>
<path d="M10.2162 1.13406C10.3608 1.67285 11.2119 1.45664 11.0644 0.906494L10.6441 -0.660408C10.4969 -1.20868 9.6488 -0.981236 9.79587 -0.432843L10.2162 1.13406Z" fill="black"/>
<path d="M23.8048 9.9755C23.8048 8.00569 22.4597 6.34383 20.6391 5.85843C20.5089 5.07773 20.1214 4.36213 19.5314 3.82193C17.8594 2.2483 15.05 2.75823 14.0041 4.73372C13.9088 4.5599 13.7987 4.39369 13.6748 4.23749C12.7767 3.10528 11.2435 2.62287 9.85964 3.03655C8.56544 3.42353 7.59119 4.54034 7.36872 5.86042C6.62584 6.05953 5.93998 6.45723 5.39985 7.01598C5.00625 7.42322 5.63508 8.03602 6.0312 7.62638C6.66594 6.96979 7.55384 6.59329 8.46732 6.59329C9.04844 6.57332 9.04855 5.73513 8.46732 5.71511H8.30076C8.54969 4.84981 9.23256 4.14065 10.1113 3.8779C11.1541 3.56598 12.3098 3.92983 12.9869 4.7833C13.3434 5.23258 13.547 5.79122 13.5647 6.36455L13.5646 20.5929C13.5318 21.6329 12.8753 22.589 11.9104 22.9893C10.9101 23.4046 9.69513 23.1495 8.94458 22.3674C8.64026 22.0503 8.41919 21.6623 8.3 21.2439H8.46726C9.02806 21.2439 9.03907 20.3803 8.47844 20.3659C7.15526 20.3321 5.99068 19.6259 5.43913 18.5229C5.20706 18.0587 5.14453 17.6093 5.07498 17.1027C5.03482 15.3933 5.05162 13.6723 5.0679 12.0077C5.07492 11.2886 5.08218 10.545 5.08493 9.80467C5.0871 9.23672 4.20898 9.23414 4.20676 9.80133C4.19774 12.2671 4.1389 14.6516 4.19762 17.149C4.24317 18.989 5.56775 20.6324 7.36649 21.087C7.48218 21.793 7.81237 22.4562 8.31089 22.9756C8.81309 23.4988 9.45691 23.8438 10.1428 23.9896C10.1265 24.3485 10.2469 24.7031 10.4888 24.9703C9.76503 25.753 10.2495 27.0628 11.3051 27.1926C10.9694 28.0391 11.6412 29.0182 12.5569 28.9999H15.4507C16.3659 29.0183 17.0389 28.0389 16.7025 27.1925C17.7585 27.0626 18.2422 25.7525 17.5187 24.9702C17.7595 24.7043 17.8802 24.3517 17.8647 23.9944C19.2626 23.7182 20.4233 22.5093 20.639 21.1006C22.4596 20.6152 23.8047 18.9533 23.8047 16.9835V9.9755H23.8048ZM15.4509 28.1217H12.557C11.9576 28.1013 11.9461 27.2418 12.5431 27.2039H15.4648C16.0622 27.2419 16.0498 28.1015 15.4509 28.1217ZM16.5278 26.3258H11.4801C10.8995 26.3082 10.8615 25.4829 11.4351 25.41C11.4501 25.4105 11.4651 25.4108 11.4801 25.4108H13.6527C14.2204 25.4108 14.2204 24.5326 13.6527 24.5326H11.5312C11.2539 24.5004 11.0685 24.3555 11.0212 24.0663C11.4365 24.0516 11.8521 23.9644 12.247 23.8005C13.0026 23.487 13.6157 22.9166 14.0003 22.2182C14.5851 23.2833 15.6993 24.0189 16.9867 24.0686C16.9167 24.4521 16.6947 24.5322 16.3457 24.5326C15.778 24.5326 15.778 25.4108 16.3457 25.4108C16.4212 25.4112 16.4973 25.4125 16.5727 25.41C17.1463 25.483 17.1085 26.3081 16.5278 26.3258ZM22.9266 16.9835C22.9266 18.8484 21.4076 20.3657 19.5405 20.3657C18.9595 20.3855 18.9591 21.2238 19.5405 21.2439H19.7094C18.8422 24.1624 14.5891 23.6504 14.4431 20.5924L14.4431 6.36537C14.5913 3.30603 18.8437 2.79892 19.7094 5.71505H19.5405C19.298 5.71505 19.1014 5.91159 19.1014 6.15414C19.1014 6.39669 19.298 6.59323 19.5405 6.59323C21.4076 6.59323 22.9266 8.11049 22.9266 9.97544V16.9835Z" fill="black"/>
<path d="M19.7892 16.6782C17.85 16.6782 16.2725 18.2544 16.2725 20.1919C16.2725 20.4344 16.4691 20.631 16.7116 20.631C16.954 20.631 17.1506 20.4344 17.1506 20.1919C17.1506 18.7387 18.3343 17.5564 19.7892 17.5564C20.3692 17.5372 20.3713 16.6984 19.7892 16.6782Z" fill="black"/>
<path d="M8.21815 17.5564C9.67306 17.5564 10.8567 18.7387 10.8567 20.1919C10.8567 20.4344 11.0533 20.631 11.2958 20.631C11.5383 20.631 11.7349 20.4344 11.7349 20.1919C11.7349 18.2544 10.1573 16.6782 8.21815 16.6782C7.63739 16.6984 7.63645 17.536 8.21815 17.5564Z" fill="black"/>
<path d="M11.2956 6.76318C11.0531 6.76318 10.8565 6.95972 10.8565 7.20227C10.8565 8.65542 9.6728 9.83774 8.2179 9.83774C7.9754 9.83774 7.77881 10.0343 7.77881 10.2768C7.77881 10.5194 7.9754 10.7159 8.2179 10.7159C10.1571 10.7159 11.7346 9.13971 11.7346 7.20227C11.7346 6.95972 11.5381 6.76318 11.2956 6.76318Z" fill="black"/>
<path d="M19.7892 9.83798C18.3343 9.83798 17.1506 8.65572 17.1506 7.20252C17.1506 6.95996 16.954 6.76343 16.7116 6.76343C16.4691 6.76343 16.2725 6.95996 16.2725 7.20252C16.2725 9.13995 17.8501 10.7162 19.7892 10.7162C20.3699 10.6961 20.3709 9.85836 19.7892 9.83798Z" fill="black"/>
<path d="M11.6061 11.7726C11.4347 11.601 11.1567 11.6008 10.9851 11.7723C10.5284 12.2286 10.2769 12.8349 10.2769 13.4794C10.2769 14.1241 10.5284 14.7304 10.9851 15.1867C11.3868 15.5879 12.0075 14.9667 11.6058 14.5654C11.0088 13.9929 11.0088 12.9661 11.6058 12.3935C11.7774 12.2222 11.7775 11.9442 11.6061 11.7726Z" fill="black"/>
<path d="M16.3768 15.1864C16.5837 15.358 16.7908 15.3581 16.9978 15.1867C17.9359 14.2873 17.9359 12.6717 16.9978 11.7723C16.5962 11.371 15.9754 11.9923 16.3771 12.3935C16.9742 12.9661 16.9741 13.993 16.3771 14.5655C16.2055 14.7368 16.2054 15.0148 16.3768 15.1864Z" fill="black"/>
</g>
</g>
<defs>
<clipPath id="clip0">
<rect width="30" height="30" fill="white"/>
</clipPath>
<clipPath id="clip1">
<rect width="30" height="30" fill="white" transform="translate(-1 -1)"/>
</clipPath>
</defs>
</svg>
