<svg width="30" height="30" viewBox="0 0 30 30" fill="none" xmlns="http://www.w3.org/2000/svg">
<g clip-path="url(#clip0)">
<path d="M27.7376 5.07896C27.5836 5.00625 27.4012 5.0291 27.2696 5.13732C27.2434 5.15889 24.6104 7.2927 21.0886 7.2927C20.1487 7.2927 19.1913 7.14152 18.2381 6.84398V3.96533C18.2381 3.83408 18.1796 3.70969 18.0784 3.62602C17.9971 3.55869 16.053 1.97191 13.1693 1.4393C12.9299 1.39529 12.7005 1.55314 12.6564 1.79232C12.6122 2.03145 12.7703 2.26113 13.0094 2.30525C15.2122 2.71219 16.8556 3.81416 17.3575 4.18277V15.7519C16.2786 15.0573 14.0795 13.9085 11.3366 13.9085C8.59334 13.9085 6.39443 15.0574 5.31566 15.752V4.18301C5.93764 3.72697 8.30857 2.14963 11.3366 2.14963C11.5798 2.14963 11.7769 1.95252 11.7769 1.7093C11.7769 1.46607 11.5798 1.26896 11.3366 1.26896C8.59328 1.26896 6.39443 2.41787 5.31566 3.1125V1.65316C5.31561 0.741563 4.57398 0 3.6625 0C2.7509 0 2.00928 0.741563 2.00928 1.65316V20.2151C2.00928 20.4584 2.20639 20.6555 2.44961 20.6555C2.69283 20.6555 2.88994 20.4584 2.88994 20.2151V1.65316C2.88994 1.22719 3.23652 0.880605 3.6625 0.880605C4.08848 0.880605 4.435 1.22719 4.435 1.65316V28.9726C4.435 29.0535 4.3692 29.1193 4.28822 29.1193H3.03672C2.95574 29.1193 2.88994 29.0535 2.88994 28.9726V21.9764C2.88994 21.7332 2.69283 21.5361 2.44961 21.5361C2.20639 21.5361 2.00928 21.7332 2.00928 21.9764V28.9726C2.00928 29.5391 2.47018 30 3.03666 30H4.28822C4.85471 30 5.31561 29.5391 5.31561 28.9726V16.8226C5.93758 16.3665 8.30852 14.7891 11.3365 14.7891C12.3796 14.7891 13.3446 14.9763 14.1871 15.2404V17.9591C14.1871 18.0904 14.2456 18.2147 14.3468 18.2984C14.4631 18.3946 17.2406 20.6554 21.0886 20.6554C21.3318 20.6554 21.5289 20.4583 21.5289 20.2151C21.5289 19.9719 21.3318 19.7747 21.0886 19.7747C18.5697 19.7747 16.5065 18.6836 15.5257 18.0541L17.9707 17.0098C17.9722 17.0091 17.9734 17.0081 17.9748 17.0074C17.9782 17.0059 17.9818 17.0048 17.9852 17.0032C18.1396 16.9305 18.238 16.7753 18.238 16.6048V7.76303C19.1898 8.03514 20.1461 8.17324 21.0886 8.17324C23.8315 8.17324 26.0306 7.02445 27.1096 6.32982V17.7415C26.6073 18.1104 24.9644 19.212 22.7621 19.6189C22.523 19.6631 22.3649 19.8928 22.4092 20.1319C22.4484 20.344 22.6335 20.4923 22.8416 20.4923C22.8682 20.4923 22.8951 20.4899 22.9222 20.4849C25.8054 19.9521 27.7492 18.3656 27.8305 18.2983C27.9317 18.2146 27.9902 18.0902 27.9902 17.959V5.47699C27.9902 5.30654 27.8917 5.15168 27.7376 5.07896ZM16.8997 16.5097L15.0677 17.2922V15.5586C15.8474 15.8782 16.475 16.2371 16.8997 16.5097Z" fill="black"/>
</g>
<defs>
<clipPath id="clip0">
<rect width="30" height="30" fill="white"/>
</clipPath>
</defs>
</svg>
