<svg width="30" height="30" viewBox="0 0 30 30" fill="none" xmlns="http://www.w3.org/2000/svg">
<g clip-path="url(#clip0)">
<g clip-path="url(#clip1)">
<path d="M1.43945 25.303H3.3485V9.30311C3.3485 8.28381 4.17772 7.45459 5.19701 7.45459H10.8331C11.0758 7.45459 11.2726 7.65135 11.2726 7.89404C11.2726 8.13674 11.0758 8.3335 10.8331 8.3335H5.19701C4.66234 8.3335 4.2274 8.7685 4.2274 9.30311V25.303H5.73156C5.70889 25.1371 5.69699 24.9701 5.69699 24.8031C5.69699 22.7479 7.36908 21.0758 9.42432 21.0758C9.70064 21.0758 9.97656 21.1073 10.2486 21.1699C10.7227 20.2563 11.6672 19.6666 12.7121 19.6666C13.053 19.6666 13.3841 19.7288 13.6959 19.8496C13.8239 18.6915 14.8084 17.7878 16 17.7878C17.1916 17.7878 18.1761 18.6915 18.3041 19.8496C18.6159 19.7288 18.947 19.6666 19.2879 19.6666C20.3328 19.6666 21.2774 20.2563 21.7514 21.1699C22.0235 21.1073 22.2994 21.0758 22.5757 21.0758C24.631 21.0758 26.303 22.7479 26.303 24.8031C26.303 24.9701 26.2911 25.1371 26.2684 25.303H27.7726V9.30311C27.7726 8.76844 27.3377 8.3335 26.803 8.3335H21.1667C20.924 8.3335 20.7272 8.13674 20.7272 7.89404C20.7272 7.65135 20.924 7.45459 21.1667 7.45459H26.803C27.8223 7.45459 28.6515 8.28387 28.6515 9.30311V25.303H30.5605C30.8032 25.303 31 25.4998 31 25.7425V26.6818C31 27.4422 30.3814 28.0607 29.6212 28.0607H2.37883C1.61852 28.0607 1 27.4421 1 26.6818V25.7425C1 25.4997 1.19676 25.303 1.43945 25.303ZM1.87891 26.6818C1.87891 26.9575 2.1032 27.1818 2.37883 27.1818H29.6212C29.8969 27.1818 30.1211 26.9575 30.1211 26.6818V26.1819H24.4547C24.212 26.1819 24.0152 25.9852 24.0152 25.7425C24.0152 25.4998 24.212 25.303 24.4547 25.303H25.3792C25.409 25.1374 25.4242 24.9701 25.4242 24.8031C25.4242 23.2325 24.1463 21.9547 22.5757 21.9547C22.2629 21.9547 21.9497 22.0082 21.6447 22.1138C21.5342 22.1521 21.4132 22.1447 21.3081 22.0935C21.2031 22.0423 21.1229 21.9513 21.085 21.8408C20.8201 21.0661 20.0979 20.5456 19.2878 20.5456C18.8436 20.5456 18.4217 20.7028 18.0677 21.0003C17.9182 21.1259 17.7039 21.1378 17.5414 21.0296C17.3789 20.9214 17.3073 20.719 17.3656 20.5327C17.4159 20.3718 17.4393 20.2363 17.4393 20.1062C17.4393 19.3125 16.7936 18.6669 16 18.6669C15.2064 18.6669 14.5607 19.3126 14.5607 20.1062C14.5607 20.2363 14.5841 20.3718 14.6344 20.5327C14.6927 20.719 14.621 20.9214 14.4586 21.0296C14.2961 21.1378 14.0818 21.1259 13.9323 21.0003C13.5783 20.7029 13.1563 20.5456 12.7122 20.5456C11.9021 20.5456 11.1799 21.0661 10.915 21.8408C10.8771 21.9513 10.7969 22.0423 10.6919 22.0935C10.5868 22.1448 10.4657 22.1521 10.3553 22.1138C10.0503 22.0082 9.73715 21.9547 9.42426 21.9547C7.85359 21.9547 6.57584 23.2325 6.57584 24.8031C6.57584 24.9701 6.59107 25.1374 6.62084 25.303H22.5756C22.8183 25.303 23.015 25.4998 23.015 25.7425C23.015 25.9852 22.8183 26.1819 22.5756 26.1819H1.87891V26.6818Z" fill="black"/>
<path d="M21.6477 12.8571C21.924 13.1886 22.0762 13.6089 22.0762 14.0405V15.4092C22.0762 15.5654 21.9932 15.7099 21.8583 15.7887C21.7899 15.8286 21.7133 15.8486 21.6367 15.8486C21.5622 15.8486 21.4878 15.8298 21.4207 15.7919L18.2913 14.0261C18.172 14.2438 18.0456 14.458 17.912 14.6683L18.3054 16.242C18.3383 16.3733 18.3088 16.5123 18.2255 16.619C18.1422 16.7257 18.0145 16.7881 17.8791 16.7881H14.1215C13.9862 16.7881 13.8585 16.7257 13.7751 16.619C13.6919 16.5124 13.6623 16.3733 13.6952 16.242L14.0886 14.6683C13.9551 14.458 13.8286 14.2439 13.7094 14.0261L10.5799 15.7919C10.5128 15.8298 10.4384 15.8486 10.3639 15.8486C10.2873 15.8486 10.2108 15.8286 10.1423 15.7887C10.0074 15.7099 9.92447 15.5654 9.92447 15.4092V14.0405C9.92447 13.6089 10.0766 13.1886 10.3529 12.8571L12.4391 10.3545C12.3292 9.70173 12.273 9.03616 12.273 8.36374C12.273 6.76114 12.5832 5.21204 13.1951 3.75956C13.7853 2.3587 14.6253 1.11593 15.692 0.065752C15.863 -0.102646 16.1375 -0.102646 16.3086 0.065752C17.3752 1.11587 18.2153 2.35864 18.8054 3.75956C19.4173 5.2121 19.7276 6.76114 19.7276 8.36374C19.7276 9.03511 19.6715 9.69968 19.562 10.3515L21.6477 12.8571ZM21.1973 14.6566V14.0405C21.1973 13.8141 21.1175 13.5937 20.9726 13.4198L19.3254 11.4432C19.1608 12.0589 18.9469 12.6594 18.6846 13.2389L21.1973 14.6566ZM17.3163 15.9091L17.0663 14.9092H14.9344L14.6845 15.9091H17.3163ZM11.0283 13.4198C10.8834 13.5937 10.8036 13.8141 10.8036 14.0405V14.6566L13.3162 13.2388C13.054 12.6593 12.84 12.0589 12.6754 11.4431L11.0283 13.4198ZM16.0004 1.00923C15.2624 1.80253 14.6538 2.71214 14.1912 3.69704H17.8097C17.3471 2.71214 16.7384 1.80253 16.0004 1.00923ZM18.1759 4.57589H13.825C13.3856 5.77384 13.1521 7.05815 13.1521 8.36368C13.1521 10.3845 13.6957 12.3383 14.7266 14.0303H17.2743C18.3052 12.3383 18.8488 10.3845 18.8488 8.36368C18.8488 7.05815 18.6152 5.7739 18.1759 4.57589Z" fill="black"/>
<path d="M14.1516 7.89393C14.1516 6.87463 14.9808 6.04541 16.0001 6.04541C17.0194 6.04541 17.8486 6.87469 17.8486 7.89393C17.8486 8.91316 17.0194 9.74244 16.0001 9.74244C14.9808 9.74244 14.1516 8.91322 14.1516 7.89393ZM16.9697 7.89393C16.9697 7.35926 16.5348 6.92432 16.0001 6.92432C15.4655 6.92432 15.0305 7.35932 15.0305 7.89393C15.0305 8.42853 15.4655 8.86353 16.0001 8.86353C16.5348 8.86353 16.9697 8.42859 16.9697 7.89393Z" fill="black"/>
</g>
</g>
<defs>
<clipPath id="clip0">
<rect width="30" height="30" fill="white"/>
</clipPath>
<clipPath id="clip1">
<rect width="30" height="30" fill="white" transform="matrix(-1 0 0 1 31 -1)"/>
</clipPath>
</defs>
</svg>
