<svg width="30" height="30" viewBox="0 0 30 30" fill="none" xmlns="http://www.w3.org/2000/svg">
<path d="M21.5191 23.0311C21.4651 23.0311 21.4118 23.0204 21.3621 22.9995C21.3124 22.9786 21.2673 22.948 21.2296 22.9095C21.0478 22.7245 20.8469 22.5593 20.6304 22.4165C20.5458 22.3553 20.4882 22.2637 20.4695 22.161C20.4507 22.0582 20.4724 21.9523 20.5299 21.8651C20.5874 21.7779 20.6763 21.7163 20.7781 21.693C20.8799 21.6698 20.9867 21.6867 21.0763 21.7403C21.3399 21.9148 21.5845 22.1165 21.8061 22.3419C21.862 22.3989 21.8998 22.4712 21.9148 22.5496C21.9297 22.628 21.9213 22.7091 21.8903 22.7827C21.8594 22.8563 21.8075 22.9191 21.741 22.9633C21.6745 23.0075 21.5965 23.0311 21.5166 23.0311H21.5191Z" fill="black"/>
<path d="M22.6622 29.1892H7.28919C7.18167 29.1892 7.07856 29.1465 7.00253 29.0705C6.9265 28.9944 6.88379 28.8913 6.88379 28.7838V25.4392C6.88508 24.2622 7.35319 23.1339 8.18542 22.3016C9.01765 21.4694 10.146 21.0013 11.323 21H18.6122C18.7197 21 18.8228 21.0427 18.8988 21.1187C18.9749 21.1948 19.0176 21.2979 19.0176 21.4054C19.0176 21.5129 18.9749 21.616 18.8988 21.6921C18.8228 21.7681 18.7197 21.8108 18.6122 21.8108H11.323C10.361 21.8119 9.43873 22.1945 8.75851 22.8747C8.07829 23.5549 7.69567 24.4772 7.6946 25.4392V28.3784H22.2568V25.4392C22.2575 25.156 22.2246 24.8738 22.1587 24.5984C22.1446 24.5462 22.1411 24.4918 22.1484 24.4383C22.1557 24.3848 22.1736 24.3332 22.2011 24.2867C22.2286 24.2402 22.2651 24.1997 22.3084 24.1675C22.3518 24.1353 22.4011 24.1121 22.4536 24.0992C22.5061 24.0863 22.5606 24.0841 22.6139 24.0926C22.6672 24.1011 22.7183 24.1202 22.7642 24.1487C22.8101 24.1772 22.8498 24.2146 22.881 24.2587C22.9122 24.3028 22.9343 24.3527 22.946 24.4054C23.0272 24.7434 23.0681 25.0899 23.0676 25.4376V28.7838C23.0676 28.8913 23.0249 28.9944 22.9488 29.0705C22.8728 29.1465 22.7697 29.1892 22.6622 29.1892Z" fill="black"/>
<path d="M14.9747 19.457C14.1344 19.457 13.313 19.2078 12.6143 18.741C11.9156 18.2741 11.3711 17.6106 11.0495 16.8343C10.7279 16.0579 10.6438 15.2037 10.8077 14.3795C10.9716 13.5553 11.3763 12.7983 11.9705 12.2041C12.5647 11.6099 13.3217 11.2053 14.1459 11.0414C14.97 10.8774 15.8243 10.9616 16.6006 11.2831C17.377 11.6047 18.0405 12.1493 18.5073 12.8479C18.9742 13.5466 19.2234 14.3681 19.2234 15.2084C19.2222 16.3348 18.7742 17.4148 17.9777 18.2113C17.1811 19.0078 16.1012 19.4558 14.9747 19.457ZM14.9747 11.7705C14.2948 11.7705 13.6301 11.9722 13.0648 12.3499C12.4994 12.7277 12.0588 13.2646 11.7986 13.8928C11.5384 14.5209 11.4703 15.2122 11.6029 15.8791C11.7356 16.5459 12.063 17.1585 12.5438 17.6393C13.0246 18.1201 13.6372 18.4475 14.304 18.5801C14.9709 18.7128 15.6621 18.6447 16.2903 18.3845C16.9185 18.1243 17.4554 17.6837 17.8332 17.1183C18.2109 16.553 18.4126 15.8883 18.4126 15.2084C18.4116 14.2969 18.0491 13.423 17.4046 12.7785C16.7601 12.134 15.8862 11.7715 14.9747 11.7705Z" fill="black"/>
<path d="M18.9243 29.1891H11.027C10.9195 29.1891 10.8164 29.1464 10.7403 29.0703C10.6643 28.9943 10.6216 28.8912 10.6216 28.7837V26.4696C10.6216 26.3621 10.6643 26.259 10.7403 26.1829C10.8164 26.1069 10.9195 26.0642 11.027 26.0642C11.1345 26.0642 11.2376 26.1069 11.3137 26.1829C11.3897 26.259 11.4324 26.3621 11.4324 26.4696V28.3783H18.5189V26.4696C18.5189 26.3621 18.5616 26.259 18.6376 26.1829C18.7136 26.1069 18.8168 26.0642 18.9243 26.0642C19.0318 26.0642 19.1349 26.1069 19.211 26.1829C19.287 26.259 19.3297 26.3621 19.3297 26.4696V28.7837C19.3297 28.8912 19.287 28.9943 19.211 29.0703C19.1349 29.1464 19.0318 29.1891 18.9243 29.1891Z" fill="black"/>
<path d="M27.3575 12.2027C27.2918 12.2027 27.2271 12.1867 27.169 12.1561L25.0742 11.055L22.9799 12.1561C22.9129 12.1914 22.8374 12.2073 22.7619 12.2019C22.6864 12.1965 22.6139 12.1701 22.5527 12.1256C22.4914 12.0811 22.4438 12.0204 22.4153 11.9503C22.3868 11.8801 22.3784 11.8034 22.3913 11.7288L22.7914 9.39651L21.0972 7.74326C21.043 7.6905 21.0047 7.62363 20.9865 7.5502C20.9683 7.47678 20.971 7.39973 20.9944 7.32778C21.0177 7.25583 21.0607 7.19183 21.1185 7.14303C21.1763 7.09424 21.2466 7.06258 21.3214 7.05164L23.6634 6.7111L24.7106 4.58921C24.7479 4.52591 24.801 4.47344 24.8648 4.43698C24.9286 4.40052 25.0008 4.38135 25.0742 4.38135C25.1477 4.38135 25.2199 4.40052 25.2837 4.43698C25.3474 4.47344 25.4006 4.52591 25.4379 4.58921L26.485 6.7111L28.8271 7.05164C28.902 7.06252 28.9723 7.09413 29.0301 7.1429C29.088 7.19167 29.131 7.25566 29.1544 7.32763C29.1778 7.39959 29.1805 7.47666 29.1624 7.55011C29.1442 7.62357 29.1059 7.69047 29.0517 7.74326L27.3571 9.39489L27.7572 11.7272C27.7672 11.7854 27.7643 11.8451 27.7488 11.902C27.7334 11.959 27.7056 12.0119 27.6675 12.0571C27.6295 12.1022 27.582 12.1385 27.5284 12.1634C27.4749 12.1882 27.4165 12.2011 27.3575 12.2011V12.2027ZM25.0742 10.1915C25.1399 10.1914 25.2047 10.2074 25.2628 10.2381L26.8191 11.0562L26.5215 9.32435C26.5104 9.25946 26.5153 9.19285 26.5357 9.13027C26.5561 9.06769 26.5915 9.01102 26.6387 8.96516L27.8975 7.73799L26.1575 7.48543C26.0924 7.47598 26.0307 7.45086 25.9775 7.41223C25.9243 7.3736 25.8813 7.32261 25.8522 7.26367L25.0742 5.68705L24.2963 7.26205C24.2672 7.32099 24.2242 7.37197 24.171 7.41061C24.1178 7.44924 24.056 7.47436 23.991 7.4838L22.251 7.73637L23.5102 8.96354C23.5573 9.00944 23.5926 9.06612 23.6129 9.1287C23.6333 9.19128 23.6381 9.25787 23.6269 9.32272L23.3294 11.0554L24.8857 10.2373C24.9438 10.2066 25.0085 10.1906 25.0742 10.1907V10.1915Z" fill="black"/>
<path d="M17.2831 8.64845C17.2175 8.64841 17.1528 8.63256 17.0946 8.60223L14.9999 7.49994L12.9052 8.60142C12.8382 8.63662 12.7627 8.65239 12.6873 8.64694C12.6118 8.6415 12.5394 8.61505 12.4782 8.57059C12.417 8.52614 12.3695 8.46545 12.341 8.39539C12.3125 8.32532 12.3041 8.24868 12.3169 8.17413L12.717 5.84142L11.0225 4.1898C10.9682 4.13701 10.9299 4.0701 10.9117 3.99665C10.8936 3.9232 10.8964 3.84613 10.9197 3.77416C10.9431 3.7022 10.9861 3.63821 11.044 3.58944C11.1018 3.54067 11.1722 3.50905 11.247 3.49818L13.5891 3.15805L14.635 1.03696C14.6723 0.973663 14.7255 0.92119 14.7892 0.884734C14.853 0.848278 14.9252 0.829102 14.9987 0.829102C15.0721 0.829102 15.1443 0.848278 15.2081 0.884734C15.2719 0.92119 15.325 0.973663 15.3623 1.03696L16.4107 3.15886L18.7527 3.49899C18.8276 3.50986 18.8979 3.54148 18.9558 3.59025C19.0136 3.63902 19.0567 3.70301 19.08 3.77498C19.1034 3.84694 19.1062 3.92401 19.088 3.99746C19.0699 4.07091 19.0315 4.13782 18.9773 4.19061L17.2827 5.84223L17.6829 8.17494C17.6928 8.23311 17.6899 8.29274 17.6743 8.34968C17.6588 8.40661 17.6311 8.45947 17.593 8.50456C17.5549 8.54965 17.5075 8.58589 17.454 8.61074C17.4004 8.63559 17.3421 8.64846 17.2831 8.64845ZM14.9999 6.63764C15.0655 6.63755 15.1302 6.65341 15.1884 6.68386L16.7431 7.50196L16.4456 5.76926C16.4345 5.70447 16.4393 5.63796 16.4597 5.57546C16.48 5.51296 16.5152 5.45634 16.5623 5.41048L17.8215 4.18332L16.0831 3.93237C16.018 3.92288 15.9562 3.8977 15.9031 3.85899C15.8499 3.82029 15.8069 3.76923 15.7779 3.71021L14.9999 2.13237L14.2219 3.70859C14.1929 3.7676 14.1499 3.81867 14.0967 3.85737C14.0435 3.89608 13.9817 3.92126 13.9166 3.93075L12.1766 4.18332L13.4358 5.41048C13.4829 5.45634 13.5182 5.51296 13.5385 5.57546C13.5588 5.63796 13.5637 5.70447 13.5526 5.76926L13.2566 7.50196L14.813 6.68386C14.8707 6.65367 14.9348 6.63781 14.9999 6.63764Z" fill="black"/>
<path d="M7.2092 12.2027C7.14337 12.2028 7.07853 12.1868 7.02028 12.1561L4.92595 11.055L2.83122 12.1553C2.76427 12.1905 2.68881 12.2063 2.61336 12.2008C2.53792 12.1954 2.4655 12.1689 2.4043 12.1245C2.3431 12.08 2.29556 12.0193 2.26705 11.9493C2.23854 11.8792 2.23021 11.8026 2.24298 11.728L2.64312 9.39571L0.948521 7.74327C0.895025 7.69039 0.857298 7.62367 0.839559 7.55057C0.82182 7.47746 0.824769 7.40087 0.848076 7.32935C0.871383 7.25783 0.91413 7.1942 0.971533 7.14559C1.02894 7.09698 1.09873 7.06529 1.17312 7.05408L3.51514 6.71354L4.5623 4.59165C4.59958 4.52835 4.65274 4.47588 4.71652 4.43942C4.7803 4.40297 4.85249 4.38379 4.92595 4.38379C4.99942 4.38379 5.07161 4.40297 5.13539 4.43942C5.19916 4.47588 5.25232 4.52835 5.2896 4.59165L6.33676 6.71354L8.67879 7.05408C8.75364 7.06502 8.82393 7.09668 8.88172 7.14547C8.93952 7.19427 8.9825 7.25827 9.00583 7.33022C9.02915 7.40217 9.03188 7.47922 9.01371 7.55264C8.99553 7.62607 8.95718 7.69294 8.90298 7.74571L7.20879 9.39733L7.60893 11.7296C7.61891 11.7878 7.61605 11.8475 7.60056 11.9045C7.58507 11.9615 7.55732 12.0144 7.51925 12.0595C7.48117 12.1047 7.4337 12.1409 7.38015 12.1658C7.32659 12.1907 7.26825 12.2036 7.2092 12.2035V12.2027ZM4.92595 10.1915C4.99166 10.1914 5.05639 10.2074 5.11447 10.2381L6.67082 11.0562L6.37325 9.32435C6.3621 9.2595 6.3669 9.19291 6.38725 9.13033C6.40759 9.06775 6.44286 9.01107 6.49001 8.96516L7.7492 7.738L6.0092 7.48544C5.94415 7.47599 5.88237 7.45087 5.82919 7.41224C5.77601 7.3736 5.73302 7.32262 5.70393 7.26368L4.92595 5.68706L4.14798 7.26368C4.11889 7.32262 4.0759 7.3736 4.02272 7.41224C3.96954 7.45087 3.90776 7.47599 3.84271 7.48544L2.10271 7.738L3.35947 8.96516C3.40705 9.01083 3.44278 9.06741 3.46355 9.13C3.48432 9.19259 3.4895 9.2593 3.47866 9.32435L3.18109 11.0554L4.73744 10.2373C4.79552 10.2066 4.86025 10.1906 4.92595 10.1907V10.1915Z" fill="black"/>
</svg>
