<svg width="30" height="30" viewBox="0 0 30 30" fill="none" xmlns="http://www.w3.org/2000/svg">
<path d="M12.1339 28.8689C12.0359 28.8691 11.9381 28.8582 11.8424 28.8365C11.1614 28.6816 10.7503 28.0362 10.3526 27.4119C10.1523 27.016 9.86277 26.6721 9.5069 26.4073C9.07027 26.2892 8.61203 26.2753 8.16906 26.3667C7.44176 26.4425 6.68852 26.5208 6.15338 26.0935C5.61825 25.6662 5.52501 24.9105 5.43784 24.1816C5.42865 23.7316 5.31439 23.29 5.1042 22.892C4.76479 22.6013 4.36223 22.3937 3.92852 22.2859C3.23203 22.0382 2.51325 21.7824 2.21325 21.1585C1.91771 20.5455 2.16136 19.832 2.39649 19.142C2.58588 18.7272 2.67504 18.2736 2.65676 17.8179C2.47918 17.4163 2.21079 17.0613 1.87271 16.7809C1.35055 16.2519 0.810547 15.705 0.810547 15C0.810547 14.295 1.35055 13.7481 1.87271 13.219C2.21079 12.9387 2.47918 12.5837 2.65676 12.182C2.67504 11.7263 2.58588 11.2728 2.39649 10.8579C2.16136 10.1688 1.91771 9.45443 2.21325 8.84146C2.51447 8.21795 3.23203 7.96173 3.92568 7.71443C4.35949 7.60581 4.76203 7.3976 5.10136 7.10632C5.31141 6.7083 5.42553 6.26669 5.4346 5.81673C5.52217 5.087 5.61257 4.33376 6.15055 3.90443C6.68852 3.47511 7.43852 3.55538 8.16622 3.63159C8.60919 3.72298 9.06743 3.70909 9.50406 3.59105C9.8598 3.32598 10.1491 2.98195 10.3493 2.58605C10.747 1.96173 11.1601 1.31632 11.8396 1.16146C12.496 1.01267 13.1332 1.4047 13.7495 1.787C14.1164 2.06842 14.5449 2.25876 14.9997 2.3424C15.4534 2.25894 15.8808 2.06931 16.2472 1.78903C16.8646 1.40835 17.5015 1.01349 18.157 1.16349C18.8381 1.31835 19.2492 1.96376 19.6469 2.58808C19.8472 2.98391 20.1367 3.32781 20.4926 3.59268C20.9292 3.71073 21.3874 3.72462 21.8304 3.63322C22.5601 3.5574 23.3105 3.47916 23.8461 3.90646C24.3816 4.33376 24.4745 5.08943 24.5616 5.81835C24.5708 6.26834 24.6851 6.70996 24.8953 7.10795C25.2347 7.39868 25.6372 7.60621 26.071 7.71403C26.765 7.96173 27.4826 8.21754 27.7838 8.84146C28.0793 9.45443 27.8357 10.1679 27.6005 10.8579C27.4112 11.2728 27.322 11.7263 27.3403 12.182C27.5179 12.5837 27.7863 12.9387 28.1243 13.219C28.6489 13.7481 29.1889 14.295 29.1889 15C29.1889 15.705 28.6489 16.2519 28.1268 16.7809C27.7887 17.0613 27.5203 17.4163 27.3427 17.8179C27.3244 18.2736 27.4136 18.7272 27.603 19.142C27.8381 19.8312 28.0818 20.5455 27.7862 21.1585C27.485 21.782 26.7674 22.0382 26.0738 22.2855C25.64 22.3941 25.2374 22.6023 24.8981 22.8936C24.6881 23.2916 24.5739 23.7333 24.5649 24.1832C24.4773 24.9129 24.3869 25.6662 23.8489 26.0955C23.311 26.5248 22.561 26.4442 21.8332 26.3684C21.3902 26.2774 20.9321 26.2913 20.4954 26.4089C20.1397 26.674 19.8503 27.018 19.6501 27.4139C19.2524 28.0382 18.8393 28.6836 18.1599 28.8385C17.5035 28.9877 16.8662 28.5952 16.25 28.2129C15.883 27.9315 15.4546 27.7412 14.9997 27.6575C14.5461 27.741 14.1186 27.9306 13.7523 28.2109C13.2812 28.5706 12.7224 28.7978 12.1339 28.8689ZM8.93568 25.5C9.25286 25.4886 9.56853 25.5489 9.8592 25.6763C10.3604 25.9965 10.7664 26.4454 11.0349 26.9761C11.3446 27.4625 11.6649 27.9644 12.0208 28.0455C12.352 28.1205 12.8474 27.8157 13.325 27.5209C13.8122 27.1493 14.3909 26.9163 14.9997 26.8467C15.6082 26.9167 16.1864 27.1498 16.6732 27.5213C17.1504 27.8161 17.6434 28.1213 17.977 28.0459C18.3334 27.9648 18.6537 27.4621 18.9634 26.9761C19.2323 26.4463 19.6383 25.9984 20.1391 25.6788C20.7097 25.4812 21.3231 25.4409 21.9147 25.562C22.4799 25.6208 23.0645 25.6836 23.3401 25.4619C23.6158 25.2401 23.6892 24.6535 23.7569 24.0867C23.7697 23.4854 23.9441 22.8985 24.2616 22.3877C24.6884 21.9669 25.2205 21.6685 25.8022 21.5238C26.3422 21.3312 26.9004 21.1325 27.0565 20.8082C27.2077 20.4948 27.0192 19.9415 26.8364 19.4059C26.5849 18.8534 26.4868 18.2434 26.5526 17.64C26.7511 17.0835 27.0957 16.5907 27.5503 16.2134C27.9569 15.7986 28.3781 15.3721 28.3781 15C28.3781 14.6278 27.9569 14.2013 27.5499 13.7886C27.0959 13.411 26.7518 12.9183 26.5538 12.362C26.488 11.7585 26.5861 11.1485 26.8376 10.5961C27.0204 10.0605 27.2089 9.50714 27.0577 9.19376C26.9016 8.86943 26.3434 8.67038 25.8034 8.47781C25.2216 8.33345 24.6894 8.03502 24.2628 7.61389C23.9443 7.10339 23.7694 6.51642 23.7565 5.91484C23.6884 5.34727 23.6178 4.76227 23.3397 4.5397C23.0616 4.31713 22.4795 4.38078 21.9139 4.43997C21.3224 4.56103 20.7092 4.5207 20.1387 4.32322C19.6375 4.00302 19.2315 3.55416 18.963 3.02349C18.6532 2.537 18.333 2.03511 17.977 1.95403C17.6446 1.8774 17.15 2.18389 16.6728 2.47862C16.1861 2.85012 15.608 3.0832 14.9997 3.15322C14.3913 3.08327 13.8131 2.85019 13.3262 2.47862C12.8487 2.18389 12.3553 1.8774 12.0224 1.95403C11.6661 2.03511 11.3458 2.53781 11.0361 3.02389C10.7674 3.55435 10.3615 4.00304 9.86041 4.32322C9.28979 4.52111 8.67636 4.56145 8.08474 4.43997C7.5196 4.38119 6.93501 4.31835 6.65933 4.54011C6.38366 4.76186 6.31028 5.34849 6.24257 5.91524C6.22973 6.51661 6.0554 7.10345 5.73784 7.6143C5.31159 8.03481 4.78026 8.33317 4.19933 8.47822C3.65933 8.67078 3.10109 8.86943 2.94501 9.19376C2.79379 9.50714 2.9823 10.0605 3.16514 10.5961C3.41664 11.1485 3.51467 11.7585 3.44893 12.362C3.25042 12.9185 2.9058 13.4112 2.45122 13.7886C2.04257 14.2013 1.62136 14.6278 1.62136 15C1.62136 15.3721 2.04257 15.7986 2.4496 16.2113C2.90358 16.5889 3.24763 17.0817 3.44568 17.6379C3.51142 18.2414 3.4134 18.8514 3.1619 19.4039C2.97906 19.9394 2.79055 20.4928 2.94176 20.8062C3.09784 21.1305 3.65609 21.3296 4.19609 21.5221C4.77788 21.6665 5.31004 21.9649 5.73663 22.3861C6.05516 22.8966 6.23009 23.4835 6.24298 24.0851C6.31109 24.6527 6.38163 25.2377 6.65974 25.4602C6.93784 25.6828 7.52001 25.6192 8.08555 25.56C8.36774 25.5257 8.65148 25.5057 8.93568 25.5Z" fill="black"/>
<path d="M21.4298 9.40552C21.3741 9.40556 21.319 9.39413 21.268 9.37195C21.2169 9.34977 21.171 9.31731 21.133 9.2766C20.8675 8.99119 20.5815 8.72562 20.2772 8.48201C20.1931 8.41497 20.1391 8.31728 20.1271 8.21042C20.115 8.10356 20.1459 7.99629 20.2129 7.91221C20.28 7.82813 20.3777 7.77413 20.4845 7.76208C20.5914 7.75003 20.6987 7.78092 20.7827 7.84796C21.1183 8.11637 21.4337 8.40919 21.7261 8.72404C21.7798 8.7818 21.8155 8.85399 21.8288 8.93174C21.8422 9.0095 21.8325 9.08945 21.801 9.16179C21.7696 9.23413 21.7177 9.29572 21.6517 9.33901C21.5858 9.38231 21.5087 9.40542 21.4298 9.40552Z" fill="black"/>
<path d="M15.0002 24.2028C12.6851 24.2027 10.455 23.33 8.75475 21.7587C7.05448 20.1875 6.00889 18.0331 5.82648 15.7252C5.64407 13.4173 6.33823 11.1254 7.77056 9.30651C9.20289 7.48766 11.2681 6.27549 13.5545 5.9117C13.6607 5.89493 13.7693 5.92104 13.8563 5.9843C13.9432 6.04755 14.0015 6.14277 14.0183 6.249C14.0351 6.35523 14.0089 6.46377 13.9457 6.55075C13.8824 6.63772 13.7872 6.69601 13.681 6.71278C11.9601 6.98744 10.3675 7.79115 9.1243 9.01231C7.8811 10.2335 7.04901 11.8114 6.74361 13.5271C6.43821 15.2428 6.67465 17.011 7.42009 18.5861C8.16554 20.1613 9.38298 21.4652 10.9034 22.3168C12.4237 23.1684 14.1716 23.5255 15.9041 23.3383C17.6367 23.1512 19.268 22.4292 20.5714 21.2726C21.8749 20.116 22.7859 18.5822 23.1778 16.8842C23.5697 15.1862 23.4231 13.4083 22.7584 11.7974C22.7202 11.6987 22.7221 11.5891 22.7636 11.4918C22.8052 11.3945 22.8831 11.3173 22.9807 11.2767C23.0784 11.236 23.1881 11.2352 23.2864 11.2743C23.3847 11.3134 23.4638 11.3894 23.5068 11.486C23.9695 12.5996 24.2061 13.7942 24.2029 15.0001C24.2002 17.44 23.2298 19.7791 21.5045 21.5044C19.7792 23.2297 17.4401 24.2001 15.0002 24.2028Z" fill="black"/>
<path d="M18.0648 7.15987C18.016 7.15982 17.9677 7.15089 17.9221 7.13352C17.5598 6.99649 17.1877 6.88699 16.8089 6.80595C16.7057 6.78173 16.616 6.71804 16.5592 6.62853C16.5024 6.53903 16.4829 6.43083 16.5049 6.32713C16.5269 6.22342 16.5887 6.13246 16.6769 6.07374C16.7652 6.01501 16.873 5.9932 16.9771 6.01298C17.3957 6.10252 17.807 6.2234 18.2075 6.3746C18.2967 6.40783 18.3713 6.47135 18.4183 6.55405C18.4653 6.63674 18.4818 6.73335 18.4648 6.82695C18.4478 6.92055 18.3984 7.00519 18.3253 7.06605C18.2521 7.12691 18.16 7.16012 18.0648 7.15987Z" fill="black"/>
<path d="M17.8978 19.4593C17.8321 19.4593 17.7674 19.4433 17.7093 19.4127L15 17.9885L12.2906 19.4127C12.2237 19.4479 12.1482 19.4637 12.0728 19.4582C11.9973 19.4528 11.9249 19.4264 11.8637 19.3819C11.8025 19.3374 11.755 19.2768 11.7265 19.2067C11.6979 19.1366 11.6896 19.06 11.7024 18.9854L12.2197 15.9688L10.0281 13.8319C9.97455 13.779 9.93683 13.7123 9.91911 13.6391C9.9014 13.566 9.90438 13.4894 9.92773 13.4178C9.95109 13.3463 9.99389 13.2827 10.0513 13.2341C10.1088 13.1855 10.1786 13.1539 10.2531 13.1427L13.2818 12.7025L14.6363 9.95786C14.6736 9.89456 14.7267 9.84209 14.7905 9.80563C14.8543 9.76918 14.9265 9.75 15 9.75C15.0734 9.75 15.1456 9.76918 15.2094 9.80563C15.2732 9.84209 15.3263 9.89456 15.3636 9.95786L16.7181 12.7025L19.7468 13.1427C19.8213 13.1539 19.8911 13.1855 19.9486 13.2341C20.006 13.2827 20.0488 13.3463 20.0722 13.4178C20.0955 13.4894 20.0985 13.566 20.0808 13.6391C20.0631 13.7123 20.0253 13.779 19.9718 13.8319L17.7802 15.9688L18.2975 18.9854C18.3075 19.0436 18.3046 19.1033 18.2892 19.1603C18.2737 19.2173 18.2459 19.2702 18.2078 19.3153C18.1698 19.3605 18.1223 19.3967 18.0687 19.4216C18.0152 19.4465 17.9568 19.4594 17.8978 19.4593ZM15 17.125C15.0657 17.1249 15.1304 17.1409 15.1885 17.1716L17.3594 18.3129L16.9459 15.8954C16.9349 15.8307 16.9398 15.7643 16.9601 15.7018C16.9804 15.6394 17.0156 15.5829 17.0627 15.5371L18.8177 13.8242L16.3909 13.4715C16.3258 13.4621 16.2639 13.437 16.2107 13.3984C16.1574 13.3598 16.1144 13.3087 16.0852 13.2498L15 11.0512L13.9147 13.2506C13.8855 13.3096 13.8425 13.3606 13.7892 13.3992C13.736 13.4378 13.6741 13.4629 13.609 13.4723L11.1822 13.825L12.9385 15.5371C12.9855 15.5829 13.0207 15.6394 13.041 15.7018C13.0614 15.7643 13.0662 15.8307 13.0552 15.8954L12.6405 18.3129L14.8114 17.1716C14.8695 17.1409 14.9342 17.1249 15 17.125Z" fill="black"/>
</svg>
