<svg width="102" height="102" viewBox="0 0 102 102" fill="none" xmlns="http://www.w3.org/2000/svg">
<g filter="url(#filter0_d)">
<circle cx="51.3459" cy="51.3454" r="40.4338" fill="#E30510"/>
</g>
<g clip-path="url(#clip0)">
<path d="M29.4704 61.2557C29.4704 61.73 28.9682 62.1143 28.3494 62.1143H27.9295C27.3107 62.1143 26.8086 61.73 26.8086 61.2557V46.4919C26.8086 46.0176 27.3107 45.6333 27.9295 45.6333H28.3494C28.9682 45.6333 29.4704 46.0176 29.4704 46.4919V61.2557Z" fill="#F0F0F0"/>
<path d="M75.8825 61.2557C75.8825 61.73 75.3803 62.1143 74.7615 62.1143H74.3416C73.7228 62.1143 73.2207 61.73 73.2207 61.2557V46.4919C73.2207 46.0176 73.7228 45.6333 74.3416 45.6333H74.7615C75.3803 45.6333 75.8825 46.0176 75.8825 46.4919V61.2557Z" fill="#F0F0F0"/>
<path d="M35.9393 21.9949C35.9393 22.7722 35.3087 23.4015 34.5317 23.4015C33.7538 23.4015 33.124 22.7714 33.124 21.9949C33.124 21.2185 33.7538 20.5884 34.5317 20.5884C35.3087 20.5884 35.9393 21.2185 35.9393 21.9949Z" fill="#F0F0F0"/>
<path d="M35.3438 33.1536H33.7207L34.1147 21.9951H34.8785L35.3438 33.1536Z" fill="#F0F0F0"/>
<path d="M37.4311 39.3761C37.4311 39.8504 36.9987 40.2347 36.4644 40.2347H32.5994C32.066 40.2347 31.6328 39.8504 31.6328 39.3761V31.822C31.6328 31.3477 32.0652 30.9634 32.5994 30.9634H36.4644C36.9979 30.9634 37.4311 31.3477 37.4311 31.822V39.3761Z" fill="#F0F0F0"/>
<path d="M69.5311 22.3206C69.7098 21.5646 69.2413 20.807 68.4847 20.6285C67.7281 20.45 66.9699 20.9181 66.7913 21.6741C66.6126 22.4301 67.0811 23.1877 67.8377 23.3662C68.5943 23.5447 69.3525 23.0766 69.5311 22.3206Z" fill="#F0F0F0"/>
<path d="M68.9715 33.1536H67.3477L67.7425 21.9951H68.5054L68.9715 33.1536Z" fill="#F0F0F0"/>
<path d="M71.0588 39.3766C71.0588 39.8509 70.6264 40.2352 70.0922 40.2352H66.2264C65.693 40.2352 65.2598 39.8509 65.2598 39.3766V31.8225C65.2598 31.3482 65.6922 30.9639 66.2264 30.9639H70.0922C70.6256 30.9639 71.0588 31.3482 71.0588 31.8225V39.3766Z" fill="#F0F0F0"/>
<path d="M74.3816 45.4857C73.9774 37.4213 63.8191 30.9639 51.3453 30.9639C38.8715 30.9639 28.7132 37.4213 28.309 45.4857C28.3004 45.5656 28.2949 45.6462 28.2949 45.7276V68.8461C28.2949 70.4421 29.9697 71.7359 32.0346 71.7359H51.3453H70.6561C72.7217 71.7359 74.3957 70.4421 74.3957 68.8461V45.7276C74.3957 45.6462 74.3894 45.5656 74.3816 45.4857Z" fill="#F0F0F0"/>
<path d="M70.6561 69.7962H51.3453H32.0346C29.9689 69.7962 28.2949 68.968 28.2949 67.9458V69.8854C28.2949 70.9076 29.9697 71.7357 32.0346 71.7357H51.3453H70.6561C72.7217 71.7357 74.3957 70.9068 74.3957 69.8854V67.9458C74.3965 68.9673 72.7217 69.7962 70.6561 69.7962Z" fill="#F0F0F0"/>
<path d="M68.6041 62.9377V50.5033C68.6041 50.4352 68.6002 50.3679 68.5939 50.3014C68.2908 43.5786 60.6854 38.1958 51.3465 38.1958C42.0076 38.1958 34.4022 43.5786 34.0991 50.3014C34.0928 50.3679 34.0889 50.4352 34.0889 50.5033V62.9377H68.6041Z" fill="#BCBCBC"/>
<path d="M68.6041 62.9378V51.2776C68.6041 51.2142 68.6002 51.1508 68.5939 51.0882C68.2908 44.7841 60.6854 39.7363 51.3465 39.7363C42.0076 39.7363 34.4022 44.7841 34.0991 51.0882C34.0928 51.1508 34.0889 51.2134 34.0889 51.2776V62.9378H68.6041Z" fill="#E1E1E1"/>
<path d="M68.593 51.0882C68.2898 44.7841 60.6844 39.7363 51.3455 39.7363C42.0066 39.7363 34.4012 44.7841 34.0981 51.0882C34.0918 51.1508 34.0879 51.2134 34.0879 51.2776V53.8527C34.0879 53.7886 34.0918 53.7259 34.0981 53.6633C34.4012 47.3593 42.0066 42.3115 51.3455 42.3115C60.6844 42.3115 68.2898 47.3593 68.593 53.6633C68.5992 53.7259 68.6031 53.7886 68.6031 53.8527V51.2776C68.6039 51.2142 68.5992 51.1508 68.593 51.0882Z" fill="#C4C4C4"/>
<path d="M45.5401 51.5925C45.3051 51.5925 45.1132 51.4039 45.1108 51.1683C45.1108 51.1651 45.0952 50.6399 44.7795 50.1374C44.3721 49.4893 43.6499 49.1606 42.6339 49.1606C42.6269 49.1606 42.6206 49.1606 42.6136 49.1606C40.421 49.17 40.1194 51.0063 40.1077 51.0845C40.0724 51.3186 39.8531 51.4806 39.6189 51.4454C39.3839 51.4101 39.2225 51.1918 39.2578 50.9569C39.3956 50.0435 40.273 48.3129 42.6096 48.3027C42.6175 48.3027 42.6261 48.3027 42.6339 48.3027C45.8989 48.3027 45.9694 51.1307 45.9701 51.1589C45.9733 51.3961 45.7829 51.5902 45.5456 51.5933C45.544 51.5925 45.5424 51.5925 45.5401 51.5925Z" fill="#E30510"/>
<path d="M63.0069 51.5925C62.7719 51.5925 62.58 51.4039 62.5776 51.1683C62.5776 51.1651 62.562 50.6399 62.2463 50.1374C61.839 49.4893 61.1167 49.1606 60.1007 49.1606C60.0937 49.1606 60.0874 49.1606 60.0804 49.1606C57.8878 49.17 57.5862 51.0063 57.5745 51.0845C57.5392 51.3186 57.3199 51.4806 57.0857 51.4454C56.8507 51.4101 56.6893 51.1918 56.7246 50.9569C56.8624 50.0435 57.7398 48.3129 60.0765 48.3027C60.0843 48.3027 60.0929 48.3027 60.1007 48.3027C63.3657 48.3027 63.4362 51.1307 63.4362 51.1589C63.4393 51.3961 63.249 51.5902 63.0116 51.5933C63.0108 51.5925 63.0093 51.5925 63.0069 51.5925Z" fill="#E30510"/>
<path d="M51.3452 60.39C55.0025 60.39 57.9667 58.164 57.9667 55.4189H44.7236C44.7236 58.1647 47.6886 60.39 51.3452 60.39Z" fill="#E30510"/>
</g>
<circle cx="51" cy="51" r="46.5" stroke="white"/>
<defs>
<filter id="filter0_d" x="0.912109" y="0.911621" width="100.868" height="100.868" filterUnits="userSpaceOnUse" color-interpolation-filters="sRGB">
<feFlood flood-opacity="0" result="BackgroundImageFix"/>
<feColorMatrix in="SourceAlpha" type="matrix" values="0 0 0 0 0 0 0 0 0 0 0 0 0 0 0 0 0 0 127 0"/>
<feOffset/>
<feGaussianBlur stdDeviation="5"/>
<feColorMatrix type="matrix" values="0 0 0 0 0 0 0 0 0 0 0 0 0 0 0 0 0 0 0.25 0"/>
<feBlend mode="normal" in2="BackgroundImageFix" result="effect1_dropShadow"/>
<feBlend mode="normal" in="SourceGraphic" in2="effect1_dropShadow" result="shape"/>
</filter>
<clipPath id="clip0">
<rect width="49.0735" height="51.1471" fill="white" transform="translate(26.8086 20.5884)"/>
</clipPath>
</defs>
</svg>
